<svg id="레이어_1" data-name="레이어 1" xmlns="http://www.w3.org/2000/svg" xmlns:xlink="http://www.w3.org/1999/xlink" viewBox="0 0 353.8 240.88"><defs><style>.cls-1{fill:url(#linear-gradient);}</style><linearGradient id="linear-gradient" x1="-170.69" y1="40.1" x2="62.87" y2="282.3" gradientTransform="matrix(-1, 0, 0, 1, 134.2, 0)" gradientUnits="userSpaceOnUse"><stop offset="0" stop-color="#8cffe1"/><stop offset="1" stop-color="#ff96f1"/></linearGradient></defs><title>arrow</title><path id="J" class="cls-1" d="M31.2,140.44c0-11.66,6.5-22,16.57-28.67l95.46-81c16.73-14.19,43.85-14.19,60.58,0s16.72,37.2,0,51.39L177.94,104.1H342.17c23.66,0,42.83,16.27,42.83,36.34s-19.17,36.35-42.83,36.35H177.68L203.81,199c16.72,14.2,16.72,37.21,0,51.41s-43.85,14.19-60.58,0l-96.61-82C37.2,161.7,31.2,151.66,31.2,140.44Z" transform="translate(-31.2 -20.12)"/></svg>