<svg id="레이어_1" data-name="레이어 1" xmlns="http://www.w3.org/2000/svg" xmlns:xlink="http://www.w3.org/1999/xlink" viewBox="0 0 534.31 498.21"><defs><style>.cls-1{fill:#b50000;}.cls-2{fill:#ff2424;}.cls-3{fill:#b9b8b6;}.cls-4{fill:url(#쥔晤牆渾_藎雪猥粧_3098);}.cls-5{fill:url(#쥔晤牆渾_藎雪猥粧_2);}.cls-6{fill:#9d9b99;}.cls-7{fill:#9b9a98;}.cls-8{fill:url(#쥔晤牆渾_藎雪猥粧_3098-2);}</style><linearGradient id="쥔晤牆渾_藎雪猥粧_3098" x1="279.39" y1="112.64" x2="238.93" y2="536.98" gradientUnits="userSpaceOnUse"><stop offset="0" stop-color="#e0dfdb"/><stop offset="1" stop-color="#d5d4d1"/></linearGradient><radialGradient id="쥔晤牆渾_藎雪猥粧_2" cx="367.25" cy="197.06" r="291.98" gradientUnits="userSpaceOnUse"><stop offset="0" stop-color="#f5f4ef"/><stop offset="0.55" stop-color="#e6e4e1"/><stop offset="0.82" stop-color="#d8d7d4"/><stop offset="1" stop-color="#cccbc9"/></radialGradient><linearGradient id="쥔晤牆渾_藎雪猥粧_3098-2" x1="274.56" y1="19.11" x2="255.03" y2="26.02" xlink:href="#쥔晤牆渾_藎雪猥粧_3098"/></defs><title>Bell</title><path class="cls-1" d="M12.21,343.6l0,15.92c-.11,39,25,78,75.58,108.23,102.83,61.48,272,63.18,377.74,3.82,53.77-30.17,80.83-70.31,80.94-110.56l.05-15.92Z" transform="translate(-12.17 -16.79)"/><path class="cls-2" d="M470.9,236.86A292.34,292.34,0,0,0,422,213.73l-24.42-9L162,204.07l-24.46,8.85A296.14,296.14,0,0,0,93.15,233C-12.64,292.4-15,390.36,87.79,451.83c43,25.72,97.66,41,154.4,45.68C321.06,504,404,490.17,465.54,455.65A219.63,219.63,0,0,0,501,431.15C570.22,371.84,560.59,290.47,470.9,236.86Z" transform="translate(-12.17 -16.79)"/><path class="cls-1" d="M463,384.79a181.37,181.37,0,0,1-29.4,20.29c-50.95,28.59-119.64,40.07-185,34.66l-6.47,57.77C321.06,504,404,490.17,465.54,455.65A219.63,219.63,0,0,0,501,431.15Z" transform="translate(-12.17 -16.79)"/><path class="cls-1" d="M58.28,257.11l-.07,55.18c-.09,32.25,20.72,64.59,62.59,89.63C206,452.82,346,454.24,433.62,405.08c44.53-25,66.94-58.23,67-91.56l.07-55.18Z" transform="translate(-12.17 -16.79)"/><g id="Axonometric_Cylinder" data-name="Axonometric Cylinder"><path class="cls-3" d="M48.3,256.5v20.22c-.55,34.54,22,69.19,67.65,95.55,90.23,52.09,236.52,52.09,326.74,0,44.57-25.74,67.13-59.37,67.66-93.1V259Z" transform="translate(-12.17 -16.79)"/><ellipse id="Cylinder_face" data-name="Cylinder face" class="cls-4" cx="267.16" cy="240.93" rx="231.04" ry="133.39"/></g><path class="cls-5" d="M392.76,70.09c-17.77-10.94-112.08-62.5-223.62-3-31.93,17-58.84,43.74-80,79.34-23.74,40-25.52,81.82-26.28,99.67-.09,31.42,20.18,62.94,61,87.33,83,49.6,219.43,51,304.79,3.08C472,312.18,493.87,279.8,494,247.32,492.19,146.23,429.8,92.89,392.76,70.09Z" transform="translate(-12.17 -16.79)"/><path class="cls-6" d="M266.43,71V83.59c0,1.79,1.14,3.59,3.51,5,4.68,2.7,12.28,2.7,17,0,2.31-1.34,3.48-3.08,3.51-4.83V71.17Z" transform="translate(-12.17 -16.79)"/><g id="Axonometric_Cylinder-2" data-name="Axonometric Cylinder"><path class="cls-3" d="M243.35,68.54v20c-.08,5.25,3.34,10.51,10.27,14.51,13.7,7.91,35.9,7.91,49.6,0,6.77-3.91,10.19-9,10.27-14.13v-20Z" transform="translate(-12.17 -16.79)"/><ellipse id="Cylinder_face-2" data-name="Cylinder face" class="cls-7" cx="266.25" cy="51.93" rx="35.07" ry="20.25"/></g><g id="Axonometric_Cylinder-3" data-name="Axonometric Cylinder"><path class="cls-3" d="M268.8,38.79V68.15c0,1.44.92,2.88,2.82,4a15,15,0,0,0,13.6,0c1.86-1.07,2.8-2.47,2.82-3.88V38.9Z" transform="translate(-12.17 -16.79)"/><ellipse id="Cylinder_face-3" data-name="Cylinder face" class="cls-8" cx="266.25" cy="22.05" rx="9.62" ry="5.56"/></g><g id="Axonometric_Cylinder-4" data-name="Axonometric Cylinder"><path class="cls-1" d="M240.92,38.25v4.66c-.09,5.61,3.57,11.23,11,15.51,14.65,8.46,38.4,8.46,53,0,7.24-4.18,10.9-9.64,11-15.11V38.65Z" transform="translate(-12.17 -16.79)"/><ellipse id="Cylinder_face-4" data-name="Cylinder face" class="cls-2" cx="266.25" cy="21.65" rx="37.51" ry="21.65"/></g></svg>