<svg xmlns="http://www.w3.org/2000/svg" viewBox="0 0 643 885"><defs><style>.cls-1{isolation:isolate;}.cls-2{fill:#fff;}.cls-3,.cls-4{fill:#ff4e4f;}.cls-11,.cls-15,.cls-4,.cls-6,.cls-9{opacity:0.3;mix-blend-mode:multiply;}.cls-5,.cls-6{fill:#5d9c4d;}.cls-7{fill:#4c803f;}.cls-8,.cls-9{fill:#ffca00;}.cls-10,.cls-11{fill:#a6613a;}.cls-12{fill:none;}.cls-13{fill:#8c5231;}.cls-14,.cls-15{fill:#b6d177;}</style></defs><title>front_card</title><g class="cls-1"><g id="레이어_1" data-name="레이어 1"><rect class="cls-2" width="643" height="885" rx="50"/><g id="_4개" data-name="4개"><path class="cls-3" d="M267.9,235.39C234.13,174.33,168,193,168,193s-66.11-18.67-99.87,42.39S122.05,420,168,420,301.66,296.46,267.9,235.39Z"/><path class="cls-4" d="M267.9,235.39c-18.57-33.56-46.88-43-68.63-44.74,30.92,20.81,51.59,56.12,51.59,95.55,0,62.75-52.37,115.12-115.12,115.12q-2.94,0-5.85-.15C143.5,412.88,157,420,168,420,214,420,301.66,296.46,267.9,235.39Z"/><path class="cls-5" d="M252.09,190.31C240.59,177.56,214,171.45,214,171.45l4.31-20.84C188.14,152.77,168,179.35,168,179.35s-20.12-26.58-50.3-28.74L122,171.45S95.45,177.56,84,190.31c0,0,25.15,4.13,33.77,10.59,0,0-7.18,18,3.59,29.47,0,0,15.08-19.41,30.9-19.41l5,19.41L168,215.27l10.78,15.1,5-19.41c15.81,0,30.88,19.41,30.88,19.41,10.78-11.5,3.6-29.47,3.6-29.47C226.94,194.44,252.09,190.31,252.09,190.31Z"/><path class="cls-6" d="M252.09,190.31C240.59,177.56,214,171.45,214,171.45l4.31-20.84c-11.18.8-21,5-28.88,9.87A67.82,67.82,0,0,1,210.24,209a65.91,65.91,0,0,1-1.67,14.67,69,69,0,0,1,6.15,6.66c10.78-11.5,3.6-29.47,3.6-29.47C226.94,194.44,252.09,190.31,252.09,190.31Z"/><path class="cls-7" d="M168,196.45a6,6,0,0,1-5.94-5.53c-6.1-83.54,36.62-88.46,38.45-88.63a6,6,0,0,1,1.17,11.86c-1.52.19-32.91,5-27.73,75.9a6,6,0,0,1-5.51,6.39Z"/><path class="cls-8" d="M93.88,238.53c-1,3.67-4.07,6-6.75,5.25s-4-4.35-3-8,4.07-6,6.76-5.26S94.92,234.87,93.88,238.53Z"/><path class="cls-8" d="M130.82,256c-1,3.67-4.07,6-6.75,5.25s-4-4.35-3-8,4.07-6,6.75-5.26S131.86,252.35,130.82,256Z"/><path class="cls-8" d="M242.43,238.53c1,3.67,4.07,6,6.75,5.25s4-4.35,3-8-4.07-6-6.75-5.26S241.39,234.87,242.43,238.53Z"/><path class="cls-8" d="M205.49,256c1,3.67,4.07,6,6.75,5.25s4-4.35,3-8-4.07-6-6.75-5.26S204.45,252.35,205.49,256Z"/><path class="cls-8" d="M173.08,259c-.07,3.82-2.4,6.86-5.19,6.81s-5-3.19-4.92-7,2.4-6.85,5.18-6.8S173.15,255.22,173.08,259Z"/><path class="cls-8" d="M117,327.35c-1,3.66-4.07,6-6.75,5.25s-4-4.36-3-8,4.06-6,6.75-5.25S118,323.68,117,327.35Z"/><path class="cls-8" d="M221.87,327.35c1,3.66,4.07,6,6.75,5.25s4-4.36,3-8-4.07-6-6.75-5.25S220.83,323.68,221.87,327.35Z"/><path class="cls-8" d="M173.08,330.35c-.07,3.81-2.4,6.86-5.19,6.8s-5-3.18-4.92-7,2.4-6.86,5.18-6.8S173.15,326.54,173.08,330.35Z"/><path class="cls-8" d="M173.08,393.46c-.07,3.81-2.4,6.86-5.19,6.81s-5-3.19-4.92-7,2.4-6.86,5.18-6.8S173.15,389.65,173.08,393.46Z"/><path class="cls-8" d="M99.08,279c-1.09,3.65-4.15,6-6.82,5.16s-4-4.41-2.87-8.06,4.15-6,6.82-5.16S100.17,275.39,99.08,279Z"/><path class="cls-8" d="M143.43,292.72c-1.23,3.61-4.37,5.81-7,4.9s-3.79-4.56-2.56-8.16,4.37-5.8,7-4.9S144.66,289.12,143.43,292.72Z"/><path class="cls-8" d="M237.23,279c1.1,3.65,4.15,6,6.82,5.16s4-4.41,2.87-8.06-4.15-6-6.82-5.16S236.14,275.39,237.23,279Z"/><path class="cls-8" d="M192.88,292.72c1.23,3.61,4.37,5.81,7,4.9s3.79-4.56,2.56-8.16-4.37-5.8-7-4.9S191.65,289.12,192.88,292.72Z"/><path class="cls-8" d="M193.43,365c1.44-3.53,4.71-5.53,7.29-4.47s3.51,4.77,2.07,8.3-4.71,5.52-7.29,4.47S192,368.5,193.43,365Z"/><path class="cls-8" d="M144.07,362c-1-3.67-4-6-6.72-5.3s-4,4.32-3,8,4,6.05,6.7,5.31S145.08,365.7,144.07,362Z"/><path class="cls-5" d="M571.27,177.14s-28.36,2.26-49.88-13.43-28.06-43.36-28.06-43.36,28.35-2.25,49.87,13.43S571.27,177.14,571.27,177.14Z"/><path class="cls-6" d="M540.76,164.84a74.85,74.85,0,0,1-22.27-3.4c.94.78,1.9,1.54,2.9,2.27,21.52,15.69,49.88,13.43,49.88,13.43A85.12,85.12,0,0,0,565,160.77,74.76,74.76,0,0,1,540.76,164.84Z"/><path class="cls-8" d="M573.62,229l4.58-4.59a22.55,22.55,0,0,0-31.89-31.88l-4.57,4.58C502.1,175,445.58,185.47,405.49,225.57S354.92,322.18,377,361.81l-4.57,4.58a22.54,22.54,0,1,0,31.88,31.88l4.58-4.58c39.63,22.13,96.15,11.66,136.25-28.43S595.74,268.64,573.62,229Z"/><path class="cls-9" d="M443.92,386.71a146.16,146.16,0,0,1-41.51-6,43.46,43.46,0,0,1-31.9,14.18l-.88,0a23.1,23.1,0,0,0,2.84,3.46,22.54,22.54,0,0,0,31.88,0l4.58-4.58c39.63,22.13,96.15,11.66,136.25-28.43,21.9-21.91,34.94-48.72,38.68-75C561.87,346.23,506.93,386.71,443.92,386.71Z"/><path class="cls-5" d="M198.62,537.13c-.54-17.29,26.47-34.58,26.47-34.58C205.64,495.34,186,514.07,186,514.07c-2.34-25.21,22.52-58.35,22.52-58.35-34.58,6.49-45,58.35-45,58.35s-10.45-51.86-45-58.35c0,0,24.85,33.14,22.51,58.35,0,0-19.63-18.73-39.08-11.52,0,0,27,17.29,26.48,34.58,0,0-15-11.52-36.56,0,0,0,37.11,10.09,35.84,44.67h71.69c-1.27-34.58,35.84-44.67,35.84-44.67C213.56,525.61,198.62,537.13,198.62,537.13Z"/><path class="cls-6" d="M235.18,537.13c-16.47-8.78-29.06-4.18-34.12-1.49a120.81,120.81,0,0,1-33,46.16h31.24C198.07,547.22,235.18,537.13,235.18,537.13Z"/><path class="cls-10" d="M264,680.5c0,61.68-45,111.67-100.51,111.67S63,742.18,63,680.5s45-111.67,100.5-111.67S264,618.83,264,680.5Z"/><path class="cls-11" d="M248,620a115.5,115.5,0,0,1,3.25,27.08c0,64.66-54,118.62-118.62,118.62a115.72,115.72,0,0,1-41.37-7.67c18.27,21,43.89,34.12,72.27,34.12C219,792.17,264,742.18,264,680.5A120.21,120.21,0,0,0,248,620Z"/><path class="cls-12" d="M160.93,626.58c-9.67-6.86-19.27-13.49-28.79-19.61-9.69,7.46-19.44,15-29.23,22.37,9.56,5.59,19.2,11.81,28.87,18.34C141.53,640.65,151.26,633.52,160.93,626.58Z"/><path class="cls-12" d="M192.28,605c-9.68-7.43-19.28-14.74-28.79-21.64-9.5,6.9-19.11,14.21-28.78,21.64,9.51,6.18,19.12,12.86,28.78,19.76C173.16,617.85,182.76,611.17,192.28,605Z"/><path class="cls-12" d="M166,761.75c9.49,6.83,18.86,13.21,28.08,18.87,9.52-7.91,19.15-16.13,28.88-24.37-9.27-4.72-18.67-10.27-28.17-16.34C185.12,747.4,175.51,754.78,166,761.75Z"/><path class="cls-12" d="M195.2,647.68c9.68-6.53,19.32-12.75,28.87-18.34-9.78-7.36-19.53-14.91-29.22-22.37-9.52,6.12-19.13,12.75-28.79,19.61C175.73,633.52,185.46,640.65,195.2,647.68Z"/><path class="cls-12" d="M224.44,671.64c-9.72-6.48-19.48-13.36-29.22-20.36-9.7,6.58-19.42,13.46-29.15,20.36,9.73,6.9,19.45,13.78,29.15,20.36C205,685,214.72,678.12,224.44,671.64Z"/><path class="cls-12" d="M163.49,718.53c-9.66,6.9-19.27,13.58-28.78,19.75,9.67,7.44,19.28,14.75,28.78,21.65,9.51-6.9,19.11-14.21,28.79-21.65C182.77,732.11,173.16,725.43,163.49,718.53Z"/><path class="cls-12" d="M104,756.25c9.72,8.24,19.35,16.46,28.87,24.37,9.23-5.66,18.6-12,28.09-18.87-9.51-7-19.11-14.35-28.79-21.84C122.69,746,113.29,751.53,104,756.25Z"/><path class="cls-12" d="M129.2,649.55c-9.68-6.52-19.32-12.71-28.88-18.27-9.79,7.32-19.6,14.42-29.4,21,9.63,5.25,19.32,11.23,29,17.63C109.7,663.45,119.46,656.56,129.2,649.55Z"/><path class="cls-12" d="M160.93,716.7c-9.67-6.94-19.4-14.07-29.15-21.1-9.67,6.53-19.31,12.75-28.87,18.34,9.79,7.36,19.54,14.91,29.23,22.37C141.66,730.19,151.26,723.56,160.93,716.7Z"/><path class="cls-12" d="M100,673.35c-9.72,6.4-19.41,12.38-29,17.63,9.8,6.59,19.61,13.7,29.4,21,9.56-5.57,19.2-11.75,28.88-18.27C119.46,686.72,109.7,679.83,100,673.35Z"/><path class="cls-12" d="M102.54,671.64C112.27,678.12,122,685,131.77,692c9.69-6.58,19.42-13.46,29.14-20.36-9.72-6.9-19.45-13.78-29.14-20.36C122,658.28,112.27,665.16,102.54,671.64Z"/><path class="cls-12" d="M227,669.93c9.72-6.4,19.42-12.38,29-17.63-9.79-6.6-19.6-13.7-29.39-21-9.56,5.56-19.2,11.75-28.89,18.27C207.53,656.56,217.29,663.45,227,669.93Z"/><path class="cls-12" d="M192.63,649.42c-9.74-7-19.46-14.11-29.14-21-9.67,6.9-19.4,14-29.14,21,9.69,6.6,19.42,13.49,29.14,20.39C173.22,662.91,183,656,192.63,649.42Z"/><path class="cls-12" d="M197.78,693.73c9.69,6.52,19.33,12.7,28.89,18.27,9.79-7.32,19.6-14.43,29.39-21-9.62-5.25-19.32-11.23-29-17.63C217.29,679.83,207.53,686.72,197.78,693.73Z"/><path class="cls-12" d="M166.06,716.7c9.66,6.86,19.27,13.49,28.79,19.61,9.69-7.46,19.44-15,29.22-22.37-9.55-5.59-19.19-11.81-28.87-18.34C185.46,702.63,175.73,709.76,166.06,716.7Z"/><path class="cls-12" d="M192.63,693.85c-9.68-6.59-19.41-13.48-29.14-20.38-9.72,6.9-19.45,13.79-29.14,20.38,9.74,7,19.47,14.12,29.14,21C173.17,708,182.89,700.87,192.63,693.85Z"/><path class="cls-13" d="M263.87,685.85c-1.73,1.12-3.47,2.24-5.21,3.39C249,684,239.33,678,229.6,671.64c9.73-6.4,19.43-12.37,29.06-17.6l2.86,1.85c-.4-1.95-.84-3.87-1.32-5.78l-1.58.81c-9.81-6.61-19.62-13.74-29.42-21.1q9.44-5.39,18.76-9.81c-.51-.86-1-1.72-1.53-2.57q-9.84,4.66-19.83,10.43c-9.78-7.4-19.54-15-29.23-22.51,8.64-5.48,17.2-10.47,25.65-14.83-.88-.72-1.78-1.42-2.68-2.11-8.41,4.41-16.93,9.44-25.54,15-9.68-7.49-19.29-14.87-28.79-21.85q7.86-5.65,15.62-10.84c-1.43-.29-2.86-.55-4.31-.77-4.58,3.13-9.19,6.4-13.83,9.77-4.64-3.37-9.25-6.64-13.83-9.77-1.44.22-2.87.48-4.3.77q7.75,5.18,15.62,10.84c-9.51,7-19.11,14.36-28.79,21.85-8.61-5.51-17.13-10.54-25.54-15-.91.69-1.8,1.39-2.68,2.11,8.45,4.36,17,9.35,25.65,14.83-9.69,7.51-19.45,15.11-29.24,22.51q-10-5.75-19.83-10.43c-.52.85-1,1.71-1.52,2.57q9.31,4.43,18.76,9.81c-9.8,7.36-19.61,14.49-29.42,21.1l-1.58-.81c-.48,1.91-.93,3.83-1.32,5.78,1-.62,1.9-1.22,2.85-1.85,9.64,5.23,19.34,11.2,29.06,17.6C87.66,678,78,684,68.32,689.24c-1.73-1.15-3.47-2.27-5.21-3.39,0,1.06.13,2.11.2,3.16l2.46,1.6c-.76.41-1.52.78-2.27,1.17.09,1,.22,1.94.33,2.92,1.51-.77,3-1.54,4.54-2.34C78.18,699,88,706.1,97.79,713.46a260.12,260.12,0,0,1-25.88,13c.37.91.74,1.84,1.13,2.74a257.92,257.92,0,0,0,27.34-13.81c9.79,7.4,19.55,15,29.24,22.51a324.61,324.61,0,0,1-28.18,16.14c-9.1-7.7-18.27-15.39-27.48-22.84q1.2,2.58,2.5,5.09c7.54,6.22,15.06,12.59,22.53,19-2.44,1.18-4.86,2.3-7.28,3.36.73.83,1.47,1.63,2.23,2.43q3.8-1.69,7.63-3.58c9.72,8.31,19.36,16.62,28.88,24.62-1.29.78-2.57,1.53-3.85,2.27,1.19.52,2.38,1,3.59,1.49.93-.55,1.85-1.07,2.78-1.64,1.77,1.48,3.53,2.94,5.3,4.4,2.06.59,4.15,1.09,6.25,1.53-3-2.44-6.05-4.91-9.11-7.44,9.23-5.75,18.6-12.22,28.08-19.12,9.48,6.9,18.86,13.37,28.09,19.12-3.06,2.53-6.09,5-9.11,7.44,2.1-.44,4.19-.94,6.25-1.53l5.3-4.4c.93.57,1.85,1.09,2.77,1.64,1.21-.47,2.41-1,3.59-1.49-1.28-.74-2.56-1.49-3.85-2.27,9.53-8,19.17-16.31,28.89-24.62q3.84,1.89,7.63,3.58c.75-.8,1.49-1.6,2.22-2.43q-3.61-1.59-7.27-3.36c7.47-6.37,15-12.74,22.53-19q1.31-2.5,2.49-5.09c-9.21,7.45-18.37,15.14-27.47,22.84a323.13,323.13,0,0,1-28.18-16.14c9.69-7.51,19.45-15.11,29.23-22.51a259.84,259.84,0,0,0,27.34,13.81c.4-.9.76-1.83,1.14-2.74a260.12,260.12,0,0,1-25.88-13c9.79-7.36,19.61-14.49,29.42-21.1,1.51.8,3,1.57,4.54,2.34.11-1,.24-1.94.33-2.92-.76-.39-1.52-.76-2.27-1.17l2.46-1.6C263.74,688,263.83,686.91,263.87,685.85Zm-37.2-54.57c9.79,7.32,19.6,14.42,29.39,21-9.62,5.25-19.32,11.23-29,17.63-9.73-6.48-19.49-13.37-29.24-20.38C207.47,643,217.11,636.84,226.67,631.28Zm-65.76,40.36c-9.72,6.9-19.45,13.78-29.14,20.36-9.74-7-19.5-13.88-29.23-20.36,9.73-6.48,19.49-13.36,29.23-20.36C141.46,657.86,151.19,664.74,160.91,671.64Zm-26.56-22.22c9.74-7,19.47-14.11,29.14-21,9.68,6.9,19.4,14,29.14,21-9.68,6.6-19.41,13.49-29.14,20.39C153.77,662.91,144,656,134.35,649.42Zm29.14,24.05c9.73,6.9,19.46,13.79,29.14,20.38-9.74,7-19.46,14.12-29.14,21-9.67-6.9-19.4-14-29.14-21C144,687.26,153.77,680.37,163.49,673.47Zm2.58-1.83c9.73-6.9,19.45-13.78,29.15-20.36,9.74,7,19.5,13.88,29.22,20.36C214.72,678.12,205,685,195.22,692,185.52,685.42,175.8,678.54,166.07,671.64ZM194.85,607c9.69,7.46,19.44,15,29.22,22.37-9.55,5.59-19.19,11.81-28.87,18.34-9.74-7-19.47-14.16-29.14-21.1C175.72,619.72,185.33,613.09,194.85,607Zm-31.36-23.62c9.51,6.9,19.11,14.21,28.79,21.64-9.52,6.18-19.12,12.86-28.79,19.76-9.66-6.9-19.27-13.58-28.78-19.76C144.38,597.56,154,590.25,163.49,583.35ZM132.14,607c9.52,6.12,19.12,12.75,28.79,19.61-9.67,6.94-19.4,14.07-29.15,21.1-9.67-6.53-19.31-12.75-28.87-18.34C112.7,622,122.45,614.43,132.14,607ZM70.92,652.3c9.8-6.6,19.61-13.7,29.4-21,9.56,5.56,19.2,11.75,28.88,18.27-9.74,7-19.5,13.9-29.24,20.38C90.24,663.53,80.55,657.55,70.92,652.3Zm29.4,59.7c-9.79-7.32-19.6-14.43-29.4-21,9.63-5.25,19.32-11.23,29-17.63,9.74,6.48,19.5,13.37,29.24,20.38C119.52,700.25,109.88,706.43,100.32,712Zm2.59,1.94c9.56-5.59,19.2-11.81,28.87-18.34,9.75,7,19.48,14.16,29.15,21.1-9.67,6.86-19.27,13.49-28.79,19.61C122.45,728.85,112.7,721.3,102.91,713.94Zm30,66.68c-9.52-7.91-19.15-16.13-28.87-24.37,9.27-4.72,18.67-10.27,28.17-16.34,9.68,7.49,19.28,14.87,28.79,21.84C151.49,768.58,142.12,775,132.89,780.62Zm1.82-42.34c9.51-6.17,19.12-12.85,28.78-19.75,9.67,6.9,19.28,13.58,28.79,19.75C182.6,745.72,173,753,163.49,759.93,154,753,144.38,745.72,134.71,738.28Zm88.26,18c-9.73,8.24-19.36,16.46-28.88,24.37-9.22-5.66-18.59-12-28.08-18.87,9.5-7,19.11-14.35,28.79-21.84C204.3,746,213.7,751.53,223,756.25Zm-28.12-19.94c-9.52-6.12-19.13-12.75-28.79-19.61,9.67-6.94,19.4-14.07,29.14-21.1,9.68,6.53,19.32,12.75,28.87,18.34C214.29,721.3,204.54,728.85,194.85,736.31ZM226.67,712c-9.56-5.57-19.2-11.75-28.89-18.27,9.75-7,19.51-13.9,29.24-20.38,9.72,6.4,19.42,12.38,29,17.63C246.27,697.57,236.46,704.68,226.67,712Z"/><path class="cls-14" d="M528.21,616.11v-34.3a53.92,53.92,0,1,0-107.84,0v34.3a98.73,98.73,0,1,0,107.84,0Z"/><path class="cls-15" d="M533.73,620a102.52,102.52,0,0,1,13,49.85c0,56.93-47.5,104.44-104.43,104.44a102.25,102.25,0,0,1-40.2-8.25A98.69,98.69,0,1,0,533.73,620Z"/><path class="cls-5" d="M466.71,519.88s-33.72,2.68-59.32-16S374,452.34,374,452.34s33.72-2.68,59.31,16S466.71,519.88,466.71,519.88Z"/><path class="cls-6" d="M450.64,505a103.32,103.32,0,0,1-62-20.88,79.68,79.68,0,0,0,18.78,19.8c25.6,18.65,59.32,16,59.32,16a96.65,96.65,0,0,0-5.53-15.44A102,102,0,0,1,450.64,505Z"/></g></g></g></svg>