<svg id="svg" version="1.1" xmlns="http://www.w3.org/2000/svg" xmlns:xlink="http://www.w3.org/1999/xlink" width="400" height="400" viewBox="0, 0, 400,400"><g id="svgg"><path id="path0" d="M121.334 181.500 C 121.420 210.265,121.545 234.025,121.612 234.300 C 121.778 234.985,124.745 234.918,126.000 234.200 C 127.315 233.448,130.670 233.448,132.800 234.200 C 134.242 234.709,138.312 234.800,159.601 234.800 C 181.008 234.800,184.914 234.712,186.138 234.200 C 186.928 233.870,188.216 233.600,189.000 233.600 C 189.784 233.600,191.072 233.870,191.862 234.200 C 193.908 235.055,216.556 235.087,218.195 234.237 C 218.792 233.927,220.515 233.549,222.024 233.398 L 224.767 233.122 224.770 181.161 L 224.772 129.200 172.975 129.200 L 121.177 129.200 121.334 181.500 " stroke="none" fill="#fbfc74" fill-rule="evenodd"></path><path id="path1" d="M69.680 133.680 C 69.416 133.944,69.200 134.394,69.200 134.680 C 69.200 134.966,69.020 135.222,68.800 135.250 C 68.580 135.278,68.175 135.322,67.900 135.350 C 67.373 135.403,67.330 135.565,67.250 137.800 C 67.207 139.013,67.067 139.200,66.200 139.200 C 65.267 139.200,65.200 139.333,65.200 141.200 C 65.200 143.067,65.133 143.200,64.200 143.200 C 63.267 143.200,63.200 143.333,63.200 145.200 C 63.200 147.067,63.133 147.200,62.200 147.200 C 61.267 147.200,61.200 147.333,61.200 149.200 C 61.200 151.067,61.133 151.200,60.200 151.200 C 59.267 151.200,59.200 151.333,59.200 153.200 C 59.200 155.067,59.133 155.200,58.200 155.200 C 57.267 155.200,57.200 155.333,57.200 157.200 C 57.200 159.067,57.133 159.200,56.200 159.200 C 55.267 159.200,55.200 159.333,55.200 161.200 C 55.200 163.067,55.133 163.200,54.200 163.200 C 53.267 163.200,53.200 163.333,53.200 165.200 C 53.200 167.067,53.133 167.200,52.200 167.200 C 51.328 167.200,51.200 167.375,51.200 168.571 C 51.200 169.546,50.920 170.163,50.228 170.707 C 49.557 171.235,49.216 171.955,49.128 173.036 C 49.032 174.203,48.772 174.700,48.100 174.995 C 47.593 175.217,47.200 175.743,47.200 176.200 C 47.200 176.657,46.807 177.183,46.300 177.405 C 45.608 177.709,45.372 178.188,45.278 179.475 C 45.178 180.849,44.999 181.173,44.278 181.275 C 43.536 181.381,43.381 181.694,43.278 183.300 C 43.211 184.345,42.986 185.222,42.778 185.250 C 42.570 185.278,42.175 185.322,41.900 185.350 C 41.373 185.403,41.330 185.565,41.250 187.800 C 41.207 189.013,41.067 189.200,40.200 189.200 C 39.267 189.200,39.200 189.333,39.200 191.200 C 39.200 193.067,39.133 193.200,38.200 193.200 C 37.267 193.200,37.200 193.333,37.200 195.200 C 37.200 197.067,37.133 197.200,36.200 197.200 C 35.269 197.200,35.200 197.335,35.200 199.172 C 35.200 200.913,35.094 201.159,34.300 201.272 C 33.532 201.381,33.382 201.679,33.278 203.300 C 33.168 205.015,33.061 205.200,32.178 205.200 C 31.271 205.200,31.200 205.345,31.200 207.200 C 31.200 209.067,31.133 209.200,30.200 209.200 C 29.267 209.200,29.200 209.333,29.200 211.200 C 29.200 213.067,29.133 213.200,28.200 213.200 C 27.267 213.200,27.200 213.333,27.200 215.200 C 27.200 217.067,27.133 217.200,26.200 217.200 C 25.328 217.200,25.200 217.375,25.200 218.571 C 25.200 219.546,24.920 220.163,24.228 220.707 C 23.557 221.235,23.216 221.955,23.128 223.036 C 23.032 224.203,22.772 224.700,22.100 224.995 C 21.593 225.217,21.200 225.743,21.200 226.200 C 21.200 226.657,20.807 227.183,20.300 227.405 C 19.480 227.765,19.390 228.110,19.284 231.300 L 19.169 234.800 70.318 234.800 C 98.450 234.800,121.555 234.712,121.662 234.604 C 121.770 234.497,121.711 233.462,121.531 232.304 C 121.351 231.147,121.089 229.075,120.947 227.700 C 120.712 225.411,120.611 225.200,119.745 225.200 C 118.878 225.200,118.800 225.036,118.800 223.200 C 118.800 221.345,118.729 221.200,117.822 221.200 C 116.939 221.200,116.832 221.015,116.722 219.300 C 116.618 217.679,116.468 217.381,115.700 217.272 C 114.906 217.159,114.800 216.913,114.800 215.172 C 114.800 213.335,114.731 213.200,113.800 213.200 C 112.867 213.200,112.800 213.067,112.800 211.200 C 112.800 209.333,112.733 209.200,111.800 209.200 C 110.867 209.200,110.800 209.067,110.800 207.200 C 110.800 205.333,110.733 205.200,109.800 205.200 C 108.860 205.200,108.470 204.000,108.739 201.940 C 108.758 201.797,108.339 201.571,107.808 201.438 C 106.983 201.231,106.826 200.922,106.722 199.298 C 106.648 198.147,106.403 197.380,106.100 197.350 C 105.825 197.322,105.430 197.278,105.223 197.250 C 105.016 197.222,104.791 196.435,104.723 195.500 C 104.628 194.187,104.395 193.710,103.700 193.405 C 103.193 193.183,102.800 192.657,102.800 192.200 C 102.800 191.743,102.407 191.217,101.900 190.995 C 101.228 190.700,100.968 190.203,100.872 189.036 C 100.784 187.955,100.443 187.235,99.772 186.707 C 99.080 186.163,98.800 185.546,98.800 184.571 C 98.800 183.375,98.672 183.200,97.800 183.200 C 96.867 183.200,96.800 183.067,96.800 181.200 C 96.800 179.333,96.733 179.200,95.800 179.200 C 94.867 179.200,94.800 179.067,94.800 177.200 C 94.800 175.333,94.733 175.200,93.800 175.200 C 92.867 175.200,92.800 175.067,92.800 173.200 C 92.800 171.333,92.733 171.200,91.800 171.200 C 90.867 171.200,90.800 171.067,90.800 169.200 C 90.800 167.333,90.733 167.200,89.800 167.200 C 88.867 167.200,88.800 167.067,88.800 165.200 C 88.800 163.345,88.729 163.200,87.822 163.200 C 86.939 163.200,86.832 163.015,86.722 161.300 C 86.618 159.679,86.468 159.381,85.700 159.272 C 84.906 159.159,84.800 158.913,84.800 157.172 C 84.800 155.335,84.731 155.200,83.800 155.200 C 82.860 155.200,82.470 154.000,82.739 151.940 C 82.758 151.797,82.339 151.571,81.808 151.438 C 80.983 151.231,80.826 150.922,80.722 149.298 C 80.648 148.147,80.403 147.380,80.100 147.350 C 79.825 147.322,79.430 147.278,79.223 147.250 C 79.016 147.222,78.791 146.435,78.723 145.500 C 78.628 144.187,78.395 143.710,77.700 143.405 C 77.193 143.183,76.800 142.657,76.800 142.200 C 76.800 141.743,76.407 141.217,75.900 140.995 C 75.228 140.700,74.968 140.203,74.872 139.036 C 74.784 137.955,74.443 137.235,73.772 136.707 C 73.237 136.286,72.800 135.541,72.800 135.051 C 72.800 133.932,72.089 133.200,71.000 133.200 C 70.538 133.200,69.944 133.416,69.680 133.680 M127.911 234.693 C 128.851 234.778,130.291 234.777,131.111 234.691 C 131.930 234.605,131.160 234.536,129.400 234.537 C 127.640 234.539,126.970 234.609,127.911 234.693 " stroke="none" fill="#ec4c4c" fill-rule="evenodd"></path><path id="path2" d="M267.591 129.811 C 267.338 130.116,267.243 130.546,267.380 130.768 C 267.540 131.027,266.152 131.213,263.515 131.286 C 259.592 131.395,259.394 131.442,259.272 132.300 C 259.160 133.089,255.399 133.745,254.690 133.100 C 254.471 132.900,253.288 134.207,253.449 134.472 C 253.703 134.893,253.063 135.157,251.539 135.260 C 250.141 135.354,249.336 135.854,249.378 136.600 C 249.390 136.820,248.905 137.057,248.300 137.127 C 247.436 137.226,247.200 137.462,247.200 138.227 C 247.200 139.046,246.994 139.210,245.900 139.261 C 245.185 139.294,244.330 139.340,244.001 139.361 C 243.671 139.383,243.401 139.752,243.401 140.181 C 243.400 140.684,243.044 141.046,242.400 141.197 C 241.769 141.346,241.353 141.759,241.272 142.316 C 241.180 142.950,240.870 143.200,240.172 143.200 C 239.402 143.200,239.200 143.408,239.200 144.200 C 239.200 145.000,239.000 145.200,238.200 145.200 C 237.408 145.200,237.200 145.402,237.200 146.172 C 237.200 146.870,236.950 147.180,236.316 147.272 C 235.759 147.353,235.346 147.769,235.197 148.400 C 235.046 149.044,234.684 149.400,234.181 149.401 C 233.752 149.401,233.383 149.671,233.361 150.001 C 233.340 150.330,233.294 151.185,233.261 151.900 C 233.209 153.004,233.049 153.200,232.200 153.200 C 231.351 153.200,231.200 153.385,231.200 154.424 C 231.200 155.097,231.065 155.575,230.900 155.487 C 230.612 155.333,229.200 156.589,229.200 157.000 C 229.200 157.110,229.200 157.751,229.200 158.424 C 229.200 159.097,229.065 159.575,228.900 159.487 C 228.612 159.333,227.200 160.589,227.200 161.000 C 227.200 161.110,227.200 162.087,227.200 163.172 C 227.200 164.913,227.094 165.159,226.300 165.272 C 224.578 165.517,223.969 198.800,225.686 198.800 C 225.885 198.800,225.918 199.025,225.759 199.300 C 225.601 199.575,225.619 199.667,225.799 199.503 C 226.557 198.817,227.200 200.170,227.200 202.449 C 227.200 204.690,227.247 204.800,228.200 204.800 C 229.133 204.800,229.200 204.933,229.200 206.800 C 229.200 208.654,229.271 208.800,230.177 208.800 C 231.040 208.800,231.168 208.998,231.277 210.500 C 231.372 211.813,231.605 212.290,232.300 212.595 C 232.852 212.837,233.200 213.340,233.200 213.895 C 233.200 214.594,233.428 214.800,234.200 214.800 C 235.000 214.800,235.200 215.000,235.200 215.800 C 235.200 216.600,235.400 216.800,236.200 216.800 C 236.920 216.800,237.200 217.015,237.200 217.569 C 237.200 218.565,239.435 220.800,240.431 220.800 C 240.985 220.800,241.200 221.080,241.200 221.800 C 241.200 222.600,241.400 222.800,242.200 222.800 C 243.000 222.800,243.200 223.000,243.200 223.800 C 243.200 224.600,243.400 224.800,244.200 224.800 C 245.000 224.800,245.200 225.000,245.200 225.800 C 245.200 226.733,245.333 226.800,247.200 226.800 C 249.067 226.800,249.200 226.867,249.200 227.800 C 249.200 228.656,249.382 228.800,250.467 228.800 C 251.163 228.800,251.628 228.905,251.500 229.033 C 250.800 229.733,252.913 230.800,255.000 230.800 C 257.080 230.800,257.200 230.855,257.200 231.800 C 257.200 232.777,257.269 232.800,260.172 232.800 C 262.950 232.800,263.153 232.859,263.272 233.700 L 263.400 234.600 274.908 234.706 C 286.095 234.809,286.448 234.789,287.564 233.963 C 288.473 233.291,289.533 233.061,292.656 232.857 C 296.351 232.616,296.608 232.543,296.728 231.700 C 296.841 230.906,297.087 230.800,298.828 230.800 C 299.913 230.800,300.822 230.620,300.850 230.400 C 300.877 230.180,300.923 229.775,300.950 229.500 C 300.980 229.197,301.747 228.952,302.900 228.878 C 304.615 228.768,304.800 228.661,304.800 227.778 C 304.800 227.050,305.016 226.800,305.642 226.800 C 306.106 226.800,306.830 226.361,307.252 225.825 C 307.720 225.230,308.523 224.801,309.310 224.725 C 310.296 224.629,310.630 224.388,310.728 223.700 C 310.820 223.049,311.124 222.800,311.828 222.800 C 312.598 222.800,312.800 222.592,312.800 221.800 C 312.800 221.000,313.000 220.800,313.800 220.800 C 314.600 220.800,314.800 220.600,314.800 219.800 C 314.800 219.000,315.000 218.800,315.800 218.800 C 316.592 218.800,316.800 218.598,316.800 217.828 C 316.800 217.124,317.049 216.820,317.700 216.728 C 318.388 216.630,318.629 216.296,318.725 215.310 C 318.801 214.523,319.230 213.720,319.825 213.252 C 320.361 212.830,320.800 212.106,320.800 211.642 C 320.800 211.011,321.050 210.800,321.800 210.800 C 322.733 210.800,322.800 210.667,322.800 208.800 C 322.800 206.933,322.867 206.800,323.800 206.800 C 324.731 206.800,324.800 206.665,324.800 204.828 C 324.800 203.087,324.906 202.841,325.700 202.728 C 326.527 202.610,326.610 202.362,326.718 199.658 C 326.818 197.182,326.955 196.685,327.581 196.521 C 328.727 196.221,328.789 195.481,328.795 181.900 L 328.800 169.200 327.800 169.200 C 326.823 169.200,326.800 169.132,326.800 166.227 C 326.800 163.585,326.709 163.225,325.984 162.995 C 325.505 162.843,325.073 162.263,324.939 161.596 C 324.814 160.969,324.281 160.052,323.756 159.558 C 323.230 159.065,322.800 158.415,322.800 158.114 C 322.800 157.814,322.467 157.080,322.059 156.484 C 321.651 155.888,321.066 155.014,320.759 154.543 C 318.318 150.799,316.071 147.798,314.572 146.277 C 313.597 145.289,312.800 144.192,312.800 143.840 C 312.800 143.424,312.450 143.200,311.800 143.200 C 311.000 143.200,310.800 143.000,310.800 142.200 C 310.800 141.400,310.600 141.200,309.800 141.200 C 309.000 141.200,308.800 141.000,308.800 140.200 C 308.800 139.400,308.600 139.200,307.800 139.200 C 307.086 139.200,306.800 138.984,306.800 138.443 C 306.800 137.587,306.056 137.200,304.411 137.200 C 303.552 137.200,303.229 136.969,303.041 136.222 C 302.830 135.381,302.530 135.227,300.898 135.122 C 299.747 135.048,298.980 134.803,298.950 134.500 C 298.923 134.225,298.877 133.829,298.850 133.620 C 298.822 133.411,297.765 133.186,296.500 133.120 C 294.786 133.031,294.195 132.847,294.182 132.400 C 294.172 132.070,293.947 131.845,293.682 131.900 C 293.417 131.955,293.200 131.820,293.200 131.600 C 293.200 131.360,291.597 131.200,289.190 131.200 C 285.268 131.200,285.172 131.178,284.795 130.187 L 284.410 129.175 276.230 129.216 C 269.790 129.249,267.952 129.376,267.591 129.811 " stroke="none" fill="#8cccfc" fill-rule="evenodd"></path><path id="path3" d="M303.200 124.200 C 303.200 125.000,303.000 125.200,302.200 125.200 C 301.281 125.200,301.200 125.347,301.200 127.000 C 301.200 128.653,301.281 128.800,302.200 128.800 C 303.133 128.800,303.200 128.933,303.200 130.800 C 303.200 132.667,303.267 132.800,304.200 132.800 C 305.000 132.800,305.200 133.000,305.200 133.800 C 305.200 134.600,305.400 134.800,306.200 134.800 C 307.133 134.800,307.200 134.933,307.200 136.800 C 307.200 138.667,307.267 138.800,308.200 138.800 C 309.000 138.800,309.200 139.000,309.200 139.800 C 309.200 140.600,309.400 140.800,310.200 140.800 C 311.000 140.800,311.200 141.000,311.200 141.800 C 311.200 142.607,311.398 142.800,312.227 142.800 C 313.076 142.800,313.209 142.940,312.997 143.610 C 312.802 144.224,313.192 144.876,314.614 146.310 C 316.231 147.941,317.667 149.863,320.659 154.400 C 321.021 154.950,321.651 155.888,322.059 156.484 C 322.467 157.080,322.800 157.811,322.800 158.109 C 322.800 158.407,323.340 159.168,324.000 159.800 C 324.660 160.432,325.200 161.366,325.200 161.875 C 325.200 162.595,325.422 162.800,326.200 162.800 C 327.133 162.800,327.200 162.933,327.200 164.800 C 327.200 166.667,327.267 166.800,328.200 166.800 C 329.000 166.800,329.200 167.000,329.200 167.800 C 329.200 168.600,329.400 168.800,330.200 168.800 C 331.133 168.800,331.200 168.933,331.200 170.800 C 331.200 172.667,331.267 172.800,332.200 172.800 C 333.000 172.800,333.200 173.000,333.200 173.800 C 333.200 174.600,333.400 174.800,334.200 174.800 C 335.133 174.800,335.200 174.933,335.200 176.800 C 335.200 178.667,335.267 178.800,336.200 178.800 C 337.000 178.800,337.200 179.000,337.200 179.800 C 337.200 180.600,337.400 180.800,338.200 180.800 C 339.000 180.800,339.200 181.000,339.200 181.800 C 339.200 182.600,339.400 182.800,340.200 182.800 C 341.133 182.800,341.200 182.933,341.200 184.800 C 341.200 186.667,341.267 186.800,342.200 186.800 C 343.000 186.800,343.200 187.000,343.200 187.800 C 343.200 188.600,343.400 188.800,344.200 188.800 C 345.133 188.800,345.200 188.933,345.200 190.800 C 345.200 192.667,345.267 192.800,346.200 192.800 C 347.000 192.800,347.200 193.000,347.200 193.800 C 347.200 194.600,347.400 194.800,348.200 194.800 C 349.133 194.800,349.200 194.933,349.200 196.800 C 349.200 198.667,349.267 198.800,350.200 198.800 C 351.000 198.800,351.200 199.000,351.200 199.800 C 351.200 200.600,351.400 200.800,352.200 200.800 C 353.000 200.800,353.200 201.000,353.200 201.800 C 353.200 202.600,353.400 202.800,354.200 202.800 C 355.133 202.800,355.200 202.933,355.200 204.800 C 355.200 206.667,355.267 206.800,356.200 206.800 C 357.000 206.800,357.200 207.000,357.200 207.800 C 357.200 208.600,357.400 208.800,358.200 208.800 C 359.133 208.800,359.200 208.933,359.200 210.800 C 359.200 212.667,359.267 212.800,360.200 212.800 C 361.000 212.800,361.200 213.000,361.200 213.800 C 361.200 214.600,361.400 214.800,362.200 214.800 C 363.133 214.800,363.200 214.933,363.200 216.800 C 363.200 218.667,363.267 218.800,364.200 218.800 C 365.000 218.800,365.200 219.000,365.200 219.800 C 365.200 220.600,365.400 220.800,366.200 220.800 C 367.000 220.800,367.200 221.000,367.200 221.800 C 367.200 222.600,367.400 222.800,368.200 222.800 C 369.133 222.800,369.200 222.933,369.200 224.800 C 369.200 226.667,369.267 226.800,370.200 226.800 C 371.000 226.800,371.200 227.000,371.200 227.800 C 371.200 228.600,371.400 228.800,372.200 228.800 C 373.133 228.800,373.200 228.933,373.200 230.800 L 373.200 232.800 376.000 232.800 C 378.720 232.800,378.800 232.771,378.800 231.800 C 378.800 231.000,379.000 230.800,379.800 230.800 C 380.796 230.800,380.800 230.787,380.800 227.000 C 380.800 223.213,380.796 223.200,379.800 223.200 C 379.000 223.200,378.800 223.000,378.800 222.200 C 378.800 221.400,378.600 221.200,377.800 221.200 C 377.000 221.200,376.800 221.000,376.800 220.200 C 376.800 219.400,376.600 219.200,375.800 219.200 C 374.867 219.200,374.800 219.067,374.800 217.200 C 374.800 215.333,374.733 215.200,373.800 215.200 C 373.000 215.200,372.800 215.000,372.800 214.200 C 372.800 213.400,372.600 213.200,371.800 213.200 C 370.867 213.200,370.800 213.067,370.800 211.200 C 370.800 209.333,370.733 209.200,369.800 209.200 C 369.000 209.200,368.800 209.000,368.800 208.200 C 368.800 207.400,368.600 207.200,367.800 207.200 C 366.867 207.200,366.800 207.067,366.800 205.200 C 366.800 203.333,366.733 203.200,365.800 203.200 C 365.000 203.200,364.800 203.000,364.800 202.200 C 364.800 201.400,364.600 201.200,363.800 201.200 C 363.000 201.200,362.800 201.000,362.800 200.200 C 362.800 199.400,362.600 199.200,361.800 199.200 C 360.867 199.200,360.800 199.067,360.800 197.200 C 360.800 195.333,360.733 195.200,359.800 195.200 C 359.000 195.200,358.800 195.000,358.800 194.200 C 358.800 193.400,358.600 193.200,357.800 193.200 C 356.867 193.200,356.800 193.067,356.800 191.200 C 356.800 189.333,356.733 189.200,355.800 189.200 C 355.000 189.200,354.800 189.000,354.800 188.200 C 354.800 187.400,354.600 187.200,353.800 187.200 C 352.867 187.200,352.800 187.067,352.800 185.200 C 352.800 183.333,352.733 183.200,351.800 183.200 C 351.000 183.200,350.800 183.000,350.800 182.200 C 350.800 181.400,350.600 181.200,349.800 181.200 C 349.000 181.200,348.800 181.000,348.800 180.200 C 348.800 179.400,348.600 179.200,347.800 179.200 C 346.867 179.200,346.800 179.067,346.800 177.200 C 346.800 175.333,346.733 175.200,345.800 175.200 C 345.000 175.200,344.800 175.000,344.800 174.200 C 344.800 173.400,344.600 173.200,343.800 173.200 C 342.867 173.200,342.800 173.067,342.800 171.200 C 342.800 169.333,342.733 169.200,341.800 169.200 C 341.000 169.200,340.800 169.000,340.800 168.200 C 340.800 167.400,340.600 167.200,339.800 167.200 C 338.867 167.200,338.800 167.067,338.800 165.200 C 338.800 163.333,338.733 163.200,337.800 163.200 C 337.000 163.200,336.800 163.000,336.800 162.200 C 336.800 161.400,336.600 161.200,335.800 161.200 C 335.000 161.200,334.800 161.000,334.800 160.200 C 334.800 159.400,334.600 159.200,333.800 159.200 C 332.867 159.200,332.800 159.067,332.800 157.200 C 332.800 155.333,332.733 155.200,331.800 155.200 C 331.000 155.200,330.800 155.000,330.800 154.200 C 330.800 153.400,330.600 153.200,329.800 153.200 C 328.867 153.200,328.800 153.067,328.800 151.200 C 328.800 149.333,328.733 149.200,327.800 149.200 C 327.000 149.200,326.800 149.000,326.800 148.200 C 326.800 147.400,326.600 147.200,325.800 147.200 C 324.867 147.200,324.800 147.067,324.800 145.200 C 324.800 143.333,324.733 143.200,323.800 143.200 C 323.000 143.200,322.800 143.000,322.800 142.200 C 322.800 141.400,322.600 141.200,321.800 141.200 C 321.000 141.200,320.800 141.000,320.800 140.200 C 320.800 139.400,320.600 139.200,319.800 139.200 C 318.867 139.200,318.800 139.067,318.800 137.200 C 318.800 135.333,318.733 135.200,317.800 135.200 C 317.000 135.200,316.800 135.000,316.800 134.200 C 316.800 133.400,316.600 133.200,315.800 133.200 C 314.867 133.200,314.800 133.067,314.800 131.200 C 314.800 129.333,314.733 129.200,313.800 129.200 C 313.000 129.200,312.800 129.000,312.800 128.200 C 312.800 127.400,312.600 127.200,311.800 127.200 C 310.867 127.200,310.800 127.067,310.800 125.200 L 310.800 123.200 307.000 123.200 C 303.213 123.200,303.200 123.204,303.200 124.200 M74.806 139.620 C 74.798 140.416,75.584 141.202,76.380 141.194 C 76.873 141.189,76.890 141.118,76.466 140.849 C 76.172 140.663,75.947 140.396,75.966 140.255 C 75.985 140.115,75.885 140.015,75.745 140.034 C 75.604 140.053,75.337 139.828,75.151 139.534 C 74.882 139.110,74.811 139.127,74.806 139.620 M48.832 173.500 C 48.814 173.775,48.665 173.955,48.500 173.900 C 48.335 173.845,48.170 173.960,48.134 174.155 C 48.098 174.351,47.828 174.663,47.534 174.849 C 47.116 175.114,47.141 175.189,47.651 175.194 C 48.480 175.202,49.339 174.184,49.069 173.513 C 48.910 173.117,48.856 173.114,48.832 173.500 M100.806 189.620 C 100.798 190.416,101.584 191.202,102.380 191.194 C 102.873 191.189,102.890 191.118,102.466 190.849 C 102.172 190.663,101.947 190.396,101.966 190.255 C 101.985 190.115,101.885 190.015,101.745 190.034 C 101.604 190.053,101.337 189.828,101.151 189.534 C 100.882 189.110,100.811 189.127,100.806 189.620 M225.534 199.151 C 225.828 199.337,226.098 199.649,226.134 199.845 C 226.170 200.040,226.335 200.155,226.500 200.100 C 226.665 200.045,226.800 200.210,226.800 200.467 C 226.800 200.723,226.919 200.814,227.064 200.669 C 227.390 200.343,226.041 198.798,225.438 198.806 C 225.194 198.810,225.236 198.962,225.534 199.151 M22.832 223.500 C 22.814 223.775,22.665 223.955,22.500 223.900 C 22.335 223.845,22.170 223.960,22.134 224.155 C 22.098 224.351,21.828 224.663,21.534 224.849 C 21.116 225.114,21.141 225.189,21.651 225.194 C 22.480 225.202,23.339 224.184,23.069 223.513 C 22.910 223.117,22.856 223.114,22.832 223.500 M289.284 233.230 C 288.560 233.382,287.645 233.797,287.252 234.153 C 286.859 234.509,286.236 234.800,285.869 234.800 C 285.288 234.800,285.200 235.329,285.200 238.800 L 285.200 242.800 289.153 242.800 C 292.817 242.800,293.123 242.739,293.324 241.970 C 293.443 241.514,293.922 241.041,294.387 240.919 C 295.689 240.579,295.451 235.464,294.125 235.275 C 293.585 235.199,293.201 234.820,293.125 234.290 C 292.977 233.274,291.295 232.809,289.284 233.230 M224.276 233.645 C 223.445 234.129,216.928 235.182,214.700 235.193 C 213.369 235.199,213.200 235.312,213.200 236.200 C 213.200 237.000,213.000 237.200,212.200 237.200 C 211.328 237.200,211.200 237.375,211.200 238.571 C 211.200 239.557,210.919 240.163,210.200 240.729 C 209.303 241.434,209.200 241.804,209.200 244.330 C 209.200 246.944,209.136 247.153,208.300 247.272 C 207.407 247.399,207.399 247.456,207.291 255.110 L 207.183 262.819 208.191 263.828 C 209.089 264.726,209.200 265.164,209.200 267.818 C 209.200 270.732,209.223 270.800,210.200 270.800 C 211.091 270.800,211.200 270.965,211.200 272.320 C 211.200 273.863,211.752 274.800,212.662 274.800 C 212.938 274.800,213.614 275.250,214.164 275.800 C 214.953 276.589,215.569 276.800,217.087 276.800 C 218.698 276.800,219.074 276.946,219.405 277.700 C 220.054 279.179,224.800 279.283,224.800 277.819 C 224.800 276.863,224.923 276.800,226.800 276.800 C 228.667 276.800,228.800 276.733,228.800 275.800 C 228.800 275.000,229.000 274.800,229.800 274.800 C 230.600 274.800,230.800 274.600,230.800 273.800 C 230.800 273.000,231.000 272.800,231.800 272.800 C 232.733 272.800,232.800 272.667,232.800 270.800 C 232.800 268.933,232.867 268.800,233.800 268.800 L 234.800 268.800 234.800 263.000 L 234.800 257.200 227.000 257.200 L 219.200 257.200 219.200 261.000 L 219.200 264.800 222.973 264.800 L 226.747 264.800 226.913 263.700 C 227.069 262.676,227.084 262.690,227.140 263.900 C 227.192 265.036,227.074 265.200,226.200 265.200 C 225.267 265.200,225.200 265.333,225.200 267.200 C 225.200 269.067,225.133 269.200,224.200 269.200 C 223.400 269.200,223.200 269.400,223.200 270.200 C 223.200 271.044,223.013 271.200,222.000 271.200 C 220.987 271.200,220.800 271.044,220.800 270.200 C 220.800 269.400,220.600 269.200,219.800 269.200 C 218.867 269.200,218.800 269.067,218.800 267.200 C 218.800 265.333,218.733 265.200,217.800 265.200 L 216.800 265.200 216.800 256.000 L 216.800 246.800 217.800 246.800 C 218.733 246.800,218.800 246.667,218.800 244.800 C 218.800 242.933,218.867 242.800,219.800 242.800 C 220.600 242.800,220.800 242.600,220.800 241.800 C 220.800 240.907,220.964 240.800,222.338 240.800 C 224.203 240.800,225.200 241.751,225.200 243.531 C 225.200 244.618,225.344 244.800,226.200 244.800 C 227.178 244.800,227.200 244.867,227.200 247.800 L 227.200 250.800 231.000 250.800 L 234.800 250.800 234.800 245.000 L 234.800 239.200 233.800 239.200 C 233.080 239.200,232.800 238.985,232.800 238.431 C 232.800 238.008,232.246 237.108,231.569 236.431 C 230.892 235.754,229.992 235.200,229.569 235.200 C 229.015 235.200,228.800 234.920,228.800 234.200 C 228.800 233.092,225.849 232.731,224.276 233.645 M186.057 234.810 C 183.473 235.348,183.145 235.768,183.282 238.364 C 183.386 240.336,183.506 240.615,184.300 240.728 C 184.951 240.820,185.200 241.124,185.200 241.828 C 185.200 242.789,185.242 242.800,189.000 242.800 C 192.758 242.800,192.800 242.789,192.800 241.828 C 192.800 241.124,193.049 240.820,193.700 240.728 C 195.136 240.524,195.053 236.026,193.600 235.334 C 192.191 234.663,188.123 234.380,186.057 234.810 M109.200 255.800 L 109.200 276.800 113.000 276.800 L 116.800 276.800 116.800 270.800 L 116.800 264.800 121.000 264.800 L 125.200 264.800 125.200 270.815 L 125.200 276.830 128.900 276.715 L 132.600 276.600 132.705 260.727 L 132.809 244.854 133.705 244.727 C 134.569 244.604,134.604 244.430,134.712 239.700 L 134.825 234.800 130.012 234.800 L 125.200 234.800 125.200 246.000 L 125.200 257.200 121.000 257.200 L 116.800 257.200 116.800 254.629 C 116.800 252.363,116.919 251.965,117.800 251.271 L 118.800 250.485 118.800 242.642 L 118.800 234.800 114.000 234.800 L 109.200 234.800 109.200 255.800 M163.200 256.000 L 163.200 276.800 166.000 276.800 L 168.800 276.800 168.800 273.895 C 168.800 271.266,168.886 270.952,169.700 270.595 L 170.600 270.200 170.704 252.700 L 170.808 235.200 167.004 235.200 L 163.200 235.200 163.200 256.000 M173.200 255.371 C 173.200 278.834,172.780 276.800,177.629 276.800 L 180.800 276.800 180.800 256.000 L 180.800 235.200 177.000 235.200 L 173.200 235.200 173.200 255.371 M263.200 256.000 L 263.200 276.800 266.957 276.800 C 270.014 276.800,270.760 276.682,270.957 276.167 C 271.091 275.819,271.200 266.459,271.200 255.367 L 271.200 235.200 267.200 235.200 L 263.200 235.200 263.200 256.000 M275.200 256.000 L 275.200 276.800 278.200 276.800 L 281.200 276.800 281.200 267.964 C 281.200 259.574,281.241 259.095,282.011 258.464 C 282.774 257.839,282.836 257.196,283.073 247.575 C 283.401 234.238,283.718 235.200,278.992 235.200 L 275.200 235.200 275.200 256.000 M141.200 244.178 C 141.200 245.061,141.015 245.168,139.300 245.278 C 137.481 245.395,137.395 245.455,137.275 246.690 C 137.199 247.477,136.770 248.280,136.175 248.748 C 134.670 249.932,134.690 254.800,136.200 254.800 C 136.994 254.800,137.200 255.001,137.200 255.779 C 137.200 256.675,137.379 256.771,139.300 256.905 L 141.400 257.052 139.300 257.126 C 137.346 257.195,137.200 257.270,137.200 258.200 C 137.200 259.000,137.000 259.200,136.200 259.200 C 135.328 259.200,135.200 259.375,135.200 260.571 C 135.200 261.557,134.919 262.163,134.200 262.729 C 133.270 263.460,133.200 263.759,133.200 267.000 C 133.200 270.241,133.270 270.540,134.200 271.271 C 134.919 271.837,135.200 272.443,135.200 273.429 C 135.200 274.625,135.328 274.800,136.200 274.800 C 137.000 274.800,137.200 275.000,137.200 275.800 L 137.200 276.800 144.973 276.800 L 152.747 276.800 152.913 275.700 L 153.080 274.600 153.140 275.700 C 153.229 277.329,158.800 277.454,158.800 275.828 C 158.800 275.124,159.049 274.820,159.700 274.728 L 160.600 274.600 160.600 263.200 L 160.600 251.800 159.700 251.405 C 158.948 251.075,158.800 250.697,158.800 249.105 C 158.800 247.340,158.727 247.200,157.800 247.200 C 157.000 247.200,156.800 247.000,156.800 246.200 C 156.800 245.400,156.600 245.200,155.800 245.200 C 155.000 245.200,154.800 245.000,154.800 244.200 L 154.800 243.200 148.000 243.200 L 141.200 243.200 141.200 244.178 M241.200 244.191 C 241.200 245.001,241.002 245.200,240.200 245.200 C 239.400 245.200,239.200 245.400,239.200 246.200 C 239.200 247.000,239.000 247.200,238.200 247.200 C 237.400 247.200,237.200 247.400,237.200 248.200 C 237.200 249.000,237.000 249.200,236.200 249.200 C 235.229 249.200,235.200 249.280,235.200 252.000 C 235.200 254.682,235.240 254.800,236.151 254.800 C 236.677 254.800,237.355 255.180,237.666 255.649 C 237.995 256.144,238.891 256.625,239.815 256.803 L 241.400 257.108 239.300 257.154 C 237.355 257.197,237.200 257.272,237.200 258.172 C 237.200 258.876,236.951 259.180,236.300 259.272 C 235.403 259.400,235.400 259.423,235.400 267.000 L 235.400 274.600 236.311 274.729 C 236.812 274.800,237.659 275.295,238.193 275.829 C 239.330 276.966,252.793 277.400,252.806 276.300 C 252.811 275.913,252.886 275.916,253.140 276.316 C 253.378 276.692,254.490 276.800,257.233 276.716 L 261.000 276.600 261.118 264.800 C 261.251 251.508,261.110 249.606,259.969 249.308 C 259.496 249.184,259.200 248.758,259.200 248.200 C 259.200 247.619,258.902 247.215,258.370 247.076 C 257.914 246.957,257.443 246.486,257.324 246.030 C 257.183 245.492,256.781 245.200,256.181 245.200 C 255.526 245.200,255.218 244.937,255.128 244.300 C 255.002 243.411,254.913 243.399,248.100 243.291 L 241.200 243.181 241.200 244.191 M185.200 261.000 L 185.200 276.800 189.000 276.800 L 192.800 276.800 192.800 261.000 L 192.800 245.200 189.000 245.200 L 185.200 245.200 185.200 261.000 M285.295 260.900 L 285.400 276.600 288.966 276.717 C 291.549 276.801,292.623 276.691,292.860 276.317 C 293.040 276.032,293.191 268.915,293.194 260.500 L 293.200 245.200 289.195 245.200 L 285.191 245.200 285.295 260.900 M150.469 251.462 C 150.939 251.887,151.200 252.681,151.200 253.681 C 151.200 254.851,151.463 255.482,152.258 256.219 L 153.317 257.200 152.058 257.200 C 150.983 257.200,150.800 257.055,150.800 256.200 L 150.800 255.200 146.800 255.200 C 142.435 255.200,141.837 254.816,143.800 253.271 C 144.350 252.839,144.800 252.106,144.800 251.642 C 144.800 250.522,149.273 250.380,150.469 251.462 M251.200 252.019 C 251.200 252.806,251.555 253.567,252.200 254.165 C 252.805 254.726,253.200 255.531,253.200 256.204 L 253.200 257.317 252.219 256.258 C 251.283 255.249,251.040 255.197,246.919 255.140 C 244.544 255.107,243.095 255.005,243.700 254.913 C 244.548 254.785,244.800 254.527,244.800 253.788 C 244.800 251.984,246.323 250.890,248.900 250.842 L 251.200 250.800 251.200 252.019 M147.835 263.800 C 148.433 264.445,149.194 264.800,149.981 264.800 C 151.069 264.800,151.200 264.929,151.200 266.000 C 151.200 267.013,151.044 267.200,150.200 267.200 C 149.400 267.200,149.200 267.400,149.200 268.200 C 149.200 269.183,149.147 269.200,146.000 269.200 L 142.800 269.200 142.800 267.000 C 142.800 264.920,142.855 264.800,143.800 264.800 C 144.600 264.800,144.800 264.600,144.800 263.800 C 144.800 262.986,144.996 262.800,145.854 262.800 C 146.465 262.800,147.298 263.221,147.835 263.800 M249.200 263.800 C 249.200 264.595,249.401 264.800,250.182 264.800 C 251.003 264.800,253.200 266.414,253.200 267.018 C 253.200 267.118,252.742 267.200,252.182 267.200 C 251.622 267.200,250.714 267.650,250.164 268.200 C 249.265 269.099,248.842 269.200,245.982 269.200 L 242.800 269.200 242.800 267.000 C 242.800 264.920,242.855 264.800,243.800 264.800 C 244.600 264.800,244.800 264.600,244.800 263.800 C 244.800 262.855,244.920 262.800,247.000 262.800 C 249.080 262.800,249.200 262.855,249.200 263.800 " stroke="none" fill="#040404" fill-rule="evenodd"></path><path id="path4" d="" stroke="none" fill="#b81003c" fill-rule="evenodd"></path></g></svg>