<svg xmlns="http://www.w3.org/2000/svg" viewBox="0 0 432.94 697.5"><defs><style>.cls-1{isolation:isolate;}.cls-2{fill:#ffbd95;}.cls-3{fill:#ffc8a7;}.cls-4{fill:#f9a983;}.cls-5{fill:#ffd3b9;}.cls-6{fill:#f99c94;mix-blend-mode:soft-light;}</style></defs><title>hand_1</title><g class="cls-1"><g id="레이어_1" data-name="레이어 1"><path class="cls-2" d="M238.74,713S206.58,629.53,193,612.8s-33.41-43.52-42.62-55c-12.55-15.69-52.85-96.67-54.65-104.07-12-49.42-37.37-107.33-44.19-117.92-12.29-19.09-40.79-31.12-36.6-42.89,4.08-11.48,46-24.05,73.21,3.14s55.43,94.13,55.43,94.13,2.1-35.56,0-58.57-14.38-128.25-16.47-150.22-9.67-110.21-8.63-123.8-1.29-39,22-41.84c21.57-2.62,27.84,19.87,31,42.88s10.07,92.84,14.51,121.2c4.29,27.35,11,82.1,17.26,92.56s20,14.9,20,14.9,5.68-29.38,8.24-43.14c1.16-6.26,5.49-31.77,31.38-30.72,24.24,1,29.28,31.37,29.28,31.37a26.85,26.85,0,0,1,18.86-4.05c11.51,2,18,9.28,21.15,22.88,1.2,5.19,2.87,18.83,2.87,18.83A21.26,21.26,0,0,1,353,279.81c10.45,3.14,14.38,18.3,16.47,26.67s15.69,69,16.73,91S371.57,528.21,373.66,545s70.08,168,70.08,168Z" transform="translate(-10.8 -15.5)"/><path class="cls-3" d="M140.43,15.72c10.37-1.35,16.73,3.92,20.13,9.67s4.65,36.09,1.77,40.53-27.66,8.5-32.36,5c-6.28-4.71-7.85-31.65-7.06-39.23S128.4,17.29,140.43,15.72Z" transform="translate(-10.8 -15.5)"/><path class="cls-4" d="M100,310.13a509.54,509.54,0,0,1,37,65.45c2.36,5.09,6.54,14.57,6.54,14.57s-8.64,26.27-10.12,38.79,3.62,38,3.62,38-14.8-20.84-12.29-49.1c1.93-21.78,3.12-33.25,2.72-40.9C126.4,355.63,100,310.13,100,310.13Z" transform="translate(-10.8 -15.5)"/><path class="cls-4" d="M292.08,244.77s-3.3,52-1.23,62.63c2.31,11.88,7.39,19.91,11.73,19.92,6.08,0,6.66-9.42,3.53-23.14S292.08,244.77,292.08,244.77Z" transform="translate(-10.8 -15.5)"/><path class="cls-4" d="M335,282.43s0,34.69,2.92,45.67S343,345,347.68,346s6.08-4.32,4.32-12.55C348.62,317.63,335,282.43,335,282.43Z" transform="translate(-10.8 -15.5)"/><path class="cls-4" d="M201.5,268.56s1.79,12.73,8.7,20.36,12,8.36,12,8.36l1-10a98.29,98.29,0,0,1-11.43-6A26.71,26.71,0,0,1,201.5,268.56Z" transform="translate(-10.8 -15.5)"/><path class="cls-5" d="M130,70.88h0c4.57,3.43,28-.3,32-4.59a32.26,32.26,0,0,0-17.45-2.55C135.79,64.91,131.48,69.05,130,70.88Z" transform="translate(-10.8 -15.5)"/><path class="cls-4" d="M239.29,624.76C219.65,599.67,189.12,579,164,551.68s-54-86.49-57.8-100.61C93.41,403.9,70.81,355.48,62.6,344.18c-16.63-22.9,6-28.9-21.41-20.4a66.61,66.61,0,0,1,10.33,12c6.82,10.58,32.17,68.5,44.19,117.92,1.8,7.4,42.1,88.38,54.65,104.07,9.21,11.51,29,38.31,42.62,55S238.74,713,238.74,713H278C269.83,685.29,253.19,642.52,239.29,624.76Z" transform="translate(-10.8 -15.5)"/><path class="cls-3" d="M47.86,330c1.93-.19,8.83-8.63,8.44-10.39s-20.4-23.93-29.22-25.69-15.89.39-16.28,2.55S45.9,330.21,47.86,330Z" transform="translate(-10.8 -15.5)"/><path class="cls-6" d="M386.21,397.47c-1-22-14.64-82.62-16.73-91s-6-23.53-16.47-26.67A21.27,21.27,0,0,0,335,282.42s-1.67-13.63-2.87-18.82c-3.14-13.6-9.64-20.92-21.15-22.88a26.85,26.85,0,0,0-18.86,4.05,53.38,53.38,0,0,0-3.29-10.63,360.69,360.69,0,0,0-59.67,199.18c0,112.59,51.34,213.2,131.88,279.68h82.74s-68-151.32-70.08-168S387.26,419.44,386.21,397.47Z" transform="translate(-10.8 -15.5)"/></g></g></svg>