<svg xmlns="http://www.w3.org/2000/svg" viewBox="0 0 643 885"><defs><style>.cls-1{isolation:isolate;}.cls-2{fill:#fff;}.cls-3,.cls-4{fill:#5d9c4d;}.cls-4,.cls-6{opacity:0.3;mix-blend-mode:multiply;}.cls-5,.cls-6{fill:#ffca00;}</style></defs><title>lemon_5</title><g class="cls-1"><g id="레이어_1" data-name="레이어 1"><rect class="cls-2" width="643" height="885" rx="50"/><g id="_5개" data-name="5개"><path class="cls-3" d="M233.48,112.32s-25.08,2-44.12-11.88-24.81-38.35-24.81-38.35,25.07-2,44.11,11.88S233.48,112.32,233.48,112.32Z"/><path class="cls-4" d="M206.5,101.44a66.06,66.06,0,0,1-19.7-3c.83.69,1.68,1.37,2.56,2,19,13.88,44.12,11.88,44.12,11.88A74.94,74.94,0,0,0,228,97.84,66,66,0,0,1,206.5,101.44Z"/><path class="cls-5" d="M235.56,158.19l4.05-4.05a19.94,19.94,0,0,0-28.2-28.2l-4,4.05c-35.05-19.57-85-10.3-120.5,25.16S42.14,240.59,61.7,275.64l-4,4.05a19.94,19.94,0,0,0,28.19,28.2l4.05-4.05c35.05,19.57,85,10.31,120.5-25.15S255.13,193.24,235.56,158.19Z"/><path class="cls-6" d="M120.85,297.67a129.65,129.65,0,0,1-36.72-5.35,38.42,38.42,0,0,1-28.21,12.53l-.77,0a19.53,19.53,0,0,0,2.51,3.06,19.92,19.92,0,0,0,28.19,0l4.05-4.05c35.05,19.57,85,10.31,120.5-25.15,19.37-19.37,30.91-43.08,34.21-66.32C225.17,261.86,176.58,297.67,120.85,297.67Z"/><path class="cls-3" d="M583.86,114.73s-25.08,2-44.12-11.88S514.93,64.5,514.93,64.5,540,62.5,559,76.37,583.86,114.73,583.86,114.73Z"/><path class="cls-4" d="M556.87,103.84a66.48,66.48,0,0,1-19.7-3c.83.68,1.68,1.36,2.57,2,19,13.87,44.12,11.88,44.12,11.88a75.76,75.76,0,0,0-5.53-14.48A66.32,66.32,0,0,1,556.87,103.84Z"/><path class="cls-5" d="M585.93,160.59l4.06-4.05a19.94,19.94,0,0,0-28.2-28.2l-4,4c-35.06-19.57-85.05-10.3-120.51,25.16S392.51,243,412.08,278.05L408,282.1a19.94,19.94,0,1,0,28.2,28.2l4-4.05c35.05,19.57,85,10.3,120.5-25.16S605.5,195.64,585.93,160.59Z"/><path class="cls-6" d="M471.23,300.07a129.3,129.3,0,0,1-36.72-5.35,38.44,38.44,0,0,1-28.21,12.54l-.78,0a20,20,0,0,0,30.71,3.06l4-4.05c35.05,19.57,85,10.3,120.5-25.16,19.37-19.37,30.9-43.08,34.21-66.32C575.54,264.27,527,300.07,471.23,300.07Z"/><path class="cls-3" d="M227.67,619.71s-25.08,2-44.12-11.88-24.81-38.35-24.81-38.35,25.07-2,44.1,11.88S227.67,619.71,227.67,619.71Z"/><path class="cls-4" d="M200.69,608.82a66.06,66.06,0,0,1-19.7-3c.83.69,1.68,1.36,2.56,2,19,13.87,44.12,11.88,44.12,11.88a75.76,75.76,0,0,0-5.53-14.48A66,66,0,0,1,200.69,608.82Z"/><path class="cls-5" d="M229.75,665.58l4.05-4.06a19.94,19.94,0,1,0-28.2-28.19l-4,4c-35.05-19.57-85.05-10.31-120.5,25.15S36.32,748,55.89,783l-4,4.05A19.94,19.94,0,1,0,80,815.28l4-4c35.05,19.57,85,10.3,120.5-25.15S249.32,700.63,229.75,665.58Z"/><path class="cls-6" d="M115,805.05a129.3,129.3,0,0,1-36.72-5.35,38.44,38.44,0,0,1-28.21,12.54l-.77,0A19.92,19.92,0,0,0,80,815.28l4-4c35.05,19.57,85,10.3,120.5-25.15C224,766.7,235.5,743,238.8,719.75,219.35,769.25,170.76,805.05,115,805.05Z"/><path class="cls-3" d="M581.25,619.71s-25.08,2-44.12-11.88-24.81-38.35-24.81-38.35,25.07-2,44.11,11.88S581.25,619.71,581.25,619.71Z"/><path class="cls-4" d="M554.27,608.82a66.06,66.06,0,0,1-19.7-3c.83.69,1.68,1.36,2.56,2,19,13.87,44.12,11.88,44.12,11.88a74.94,74.94,0,0,0-5.53-14.48A66,66,0,0,1,554.27,608.82Z"/><path class="cls-5" d="M583.33,665.58l4-4.06a19.94,19.94,0,1,0-28.2-28.19l-4,4c-35-19.57-85-10.31-120.5,25.15S389.91,748,409.47,783l-4.05,4.05a19.94,19.94,0,1,0,28.2,28.2l4.05-4c35.05,19.57,85,10.3,120.5-25.15S602.9,700.63,583.33,665.58Z"/><path class="cls-6" d="M468.62,805.05a129.3,129.3,0,0,1-36.72-5.35,38.43,38.43,0,0,1-28.21,12.54l-.77,0a19.92,19.92,0,0,0,30.7,3.06l4.05-4c35.05,19.57,85,10.3,120.5-25.15,19.37-19.38,30.91-43.09,34.21-66.33C572.94,769.25,524.34,805.05,468.62,805.05Z"/><path class="cls-3" d="M407.67,367.49s-25.08,2-44.12-11.88-24.81-38.35-24.81-38.35,25.07-2,44.1,11.88S407.67,367.49,407.67,367.49Z"/><path class="cls-4" d="M380.68,356.61a66,66,0,0,1-19.69-3c.83.69,1.67,1.37,2.56,2,19,13.88,44.12,11.88,44.12,11.88A75.76,75.76,0,0,0,402.14,353,66.06,66.06,0,0,1,380.68,356.61Z"/><path class="cls-5" d="M409.75,413.36l4.05-4.05a19.94,19.94,0,0,0-28.2-28.2l-4.05,4.05c-35.06-19.57-85.05-10.3-120.5,25.16s-44.73,85.44-25.16,120.49l-4,4.05a19.94,19.94,0,1,0,28.2,28.2l4-4c35.05,19.57,85,10.31,120.5-25.15S429.31,448.41,409.75,413.36Z"/><path class="cls-6" d="M295,552.84a129.65,129.65,0,0,1-36.72-5.35A38.43,38.43,0,0,1,230.11,560l-.77,0a19.92,19.92,0,0,0,30.7,3.06l4-4c35.05,19.57,85,10.31,120.5-25.15,19.37-19.37,30.9-43.08,34.21-66.32C399.35,517,350.76,552.84,295,552.84Z"/></g></g></g></svg>