<svg xmlns="http://www.w3.org/2000/svg" viewBox="0 0 643 885"><defs><style>.cls-1{isolation:isolate;}.cls-2{fill:#fff;}.cls-3,.cls-4{fill:#5d9c4d;}.cls-4,.cls-6{opacity:0.3;mix-blend-mode:multiply;}.cls-5,.cls-6{fill:#ffca00;}</style></defs><title>lemon_2</title><g class="cls-1"><g id="레이어_1" data-name="레이어 1"><rect class="cls-2" width="643" height="885" rx="50"/><g id="_2개" data-name="2개"><path class="cls-3" d="M307.71,155.47s-31.29,2.49-55-14.82-31-47.85-31-47.85,31.28-2.48,55,14.82S307.71,155.47,307.71,155.47Z"/><path class="cls-4" d="M274,141.89a82.59,82.59,0,0,1-24.58-3.75c1,.86,2.1,1.71,3.21,2.51,23.75,17.31,55,14.82,55,14.82a93.92,93.92,0,0,0-6.9-18.06A82.48,82.48,0,0,1,274,141.89Z"/><path class="cls-5" d="M310.3,212.7l5.06-5.06a24.88,24.88,0,0,0-35.19-35.18l-5.05,5.06C231.38,153.1,169,164.66,124.77,208.91S69,315.52,93.39,359.25l-5.06,5.05a24.88,24.88,0,1,0,35.19,35.18l5-5.05c43.73,24.42,106.1,12.86,150.35-31.38S334.72,256.43,310.3,212.7Z"/><path class="cls-6" d="M167.18,386.73a161.58,161.58,0,0,1-45.81-6.68,48,48,0,0,1-35.2,15.64l-1,0a24.37,24.37,0,0,0,3.12,3.82,24.89,24.89,0,0,0,35.19,0l5-5.05c43.73,24.42,106.1,12.86,150.35-31.38,24.16-24.17,38.55-53.75,42.68-82.75C297.33,342.05,236.71,386.73,167.18,386.73Z"/><path class="cls-3" d="M548.71,538.47s-31.29,2.49-55-14.82-31-47.85-31-47.85,31.28-2.48,55,14.82S548.71,538.47,548.71,538.47Z"/><path class="cls-4" d="M515,524.89a82.59,82.59,0,0,1-24.58-3.75c1,.86,2.1,1.71,3.21,2.51,23.75,17.31,55,14.82,55,14.82a93.92,93.92,0,0,0-6.9-18.06A82.48,82.48,0,0,1,515,524.89Z"/><path class="cls-5" d="M551.3,595.7l5.06-5.06a24.88,24.88,0,0,0-35.19-35.18l-5,5.06C472.38,536.1,410,547.66,365.77,591.91S310,698.52,334.39,742.25l-5.06,5a24.88,24.88,0,1,0,35.19,35.18l5.05-5.05c43.73,24.42,106.1,12.86,150.35-31.38S575.72,639.43,551.3,595.7Z"/><path class="cls-6" d="M408.18,769.73a161.58,161.58,0,0,1-45.81-6.68,48,48,0,0,1-35.2,15.64l-1,0a24.37,24.37,0,0,0,3.12,3.82,24.89,24.89,0,0,0,35.19,0l5.05-5.05c43.73,24.42,106.1,12.86,150.35-31.38,24.16-24.17,38.55-53.75,42.68-82.75C538.33,725.05,477.71,769.73,408.18,769.73Z"/></g></g></g></svg>