<svg xmlns="http://www.w3.org/2000/svg" viewBox="0 0 643 885"><defs><style>.cls-1{isolation:isolate;}.cls-2{fill:#fff;}.cls-3,.cls-4{fill:#5d9c4d;}.cls-4,.cls-6{opacity:0.3;mix-blend-mode:multiply;}.cls-5,.cls-6{fill:#ffca00;}</style></defs><title>lemon_3</title><g class="cls-1"><g id="레이어_1" data-name="레이어 1"><rect class="cls-2" width="643" height="885" rx="50"/><g id="_3개" data-name="3개"><g id="_1개" data-name="1개"><path class="cls-3" d="M226.05,135.48s-25.13,2-44.21-11.9S157,85.15,157,85.15s25.13-2,44.2,11.9S226.05,135.48,226.05,135.48Z"/><path class="cls-4" d="M199,124.58a66,66,0,0,1-19.74-3c.83.69,1.68,1.37,2.57,2,19.08,13.9,44.21,11.9,44.21,11.9A75.79,75.79,0,0,0,220.51,121,66.3,66.3,0,0,1,199,124.58Z"/><path class="cls-5" d="M228.13,181.45l4.06-4.07a20,20,0,0,0-28.26-28.25l-4.06,4.06c-35.12-19.61-85.22-10.33-120.75,25.21S34.31,264,53.91,299.14l-4,4.06a20,20,0,0,0,28.25,28.26l4.06-4.06c35.12,19.61,85.22,10.33,120.75-25.2S247.74,216.57,228.13,181.45Z"/><path class="cls-6" d="M113.18,321.21a129.43,129.43,0,0,1-36.79-5.36,38.5,38.5,0,0,1-28.27,12.56l-.78,0a19.77,19.77,0,0,0,2.52,3.07,20,20,0,0,0,28.25,0l4.06-4.06c35.12,19.61,85.22,10.33,120.75-25.2,19.41-19.42,31-43.17,34.28-66.47C217.72,285.34,169,321.21,113.18,321.21Z"/></g><g id="_1개-2" data-name="1개"><path class="cls-3" d="M406.05,362.48s-25.13,2-44.21-11.9S337,312.15,337,312.15s25.13-2,44.2,11.9S406.05,362.48,406.05,362.48Z"/><path class="cls-4" d="M379,351.58a66,66,0,0,1-19.74-3c.83.69,1.68,1.37,2.57,2,19.08,13.9,44.21,11.9,44.21,11.9A75.79,75.79,0,0,0,400.51,348,66.3,66.3,0,0,1,379,351.58Z"/><path class="cls-5" d="M408.13,408.45l4.06-4.07a20,20,0,0,0-28.26-28.25l-4.06,4.06c-35.12-19.61-85.22-10.33-120.75,25.21S214.31,491,233.91,526.14l-4,4.06a20,20,0,0,0,28.25,28.26l4.06-4.06c35.12,19.61,85.22,10.33,120.75-25.2S427.74,443.57,408.13,408.45Z"/><path class="cls-6" d="M293.18,548.21a129.43,129.43,0,0,1-36.79-5.36,38.5,38.5,0,0,1-28.27,12.56l-.78,0a19.77,19.77,0,0,0,2.52,3.07,20,20,0,0,0,28.25,0l4.06-4.06c35.12,19.61,85.22,10.33,120.75-25.2,19.41-19.42,31-43.17,34.28-66.47C397.72,512.34,349,548.21,293.18,548.21Z"/></g><g id="_1개-3" data-name="1개"><path class="cls-3" d="M590.05,601.48s-25.13,2-44.21-11.9S521,551.15,521,551.15s25.13-2,44.2,11.9S590.05,601.48,590.05,601.48Z"/><path class="cls-4" d="M563,590.58a66,66,0,0,1-19.74-3c.83.69,1.68,1.37,2.57,2,19.08,13.9,44.21,11.9,44.21,11.9A75.79,75.79,0,0,0,584.51,587,66.3,66.3,0,0,1,563,590.58Z"/><path class="cls-5" d="M592.13,647.45l4.06-4.07a20,20,0,0,0-28.26-28.25l-4.06,4.06c-35.12-19.61-85.22-10.33-120.75,25.21S398.31,730,417.91,765.14l-4.05,4.06a20,20,0,0,0,28.25,28.26l4.06-4.06c35.12,19.61,85.22,10.33,120.75-25.2S611.74,682.57,592.13,647.45Z"/><path class="cls-6" d="M477.18,787.21a129.43,129.43,0,0,1-36.79-5.36,38.5,38.5,0,0,1-28.27,12.56l-.78,0a19.77,19.77,0,0,0,2.52,3.07,20,20,0,0,0,28.25,0l4.06-4.06c35.12,19.61,85.22,10.33,120.75-25.2,19.41-19.42,31-43.17,34.28-66.47C581.72,751.34,533,787.21,477.18,787.21Z"/></g></g></g></g></svg>