<?xml version="1.0" encoding="utf-8"?>
<!-- Generator: Adobe Illustrator 24.0.1, SVG Export Plug-In . SVG Version: 6.00 Build 0)  -->
<svg version="1.1" id="Capa_1" xmlns="http://www.w3.org/2000/svg" xmlns:xlink="http://www.w3.org/1999/xlink" x="0px" y="0px"
	 viewBox="0 0 512 512" style="enable-background:new 0 0 512 512;" xml:space="preserve">
<style type="text/css">
	.st0{fill:url(#SVGID_1_);}
	.st1{fill:url(#SVGID_2_);}
</style>
<g>
	<g>
		<g>
			
				<linearGradient id="SVGID_1_" gradientUnits="userSpaceOnUse" x1="256" y1="64.537" x2="256" y2="451.4698" gradientTransform="matrix(1 0 0 -1 0 514)">
				<stop  offset="0" style="stop-color:#FFF1BE"/>
				<stop  offset="1" style="stop-color:#FFE9CF"/>
			</linearGradient>
			<path class="st0" d="M139.3,75.7c-17.5-17.5-46.1-17.5-63.6,0s-17.5,46.1,0,63.6l21.2,21.2c17.5,17.5,46.1,17.5,63.6,0
				c17.5-17.5,17.5-46.1,0-63.6L139.3,75.7z M415.1,351.5c-17.5-17.5-46.1-17.5-63.6,0s-17.5,46.1,0,63.6l21.2,21.2
				c17.5,17.5,46.1,17.5,63.6,0c17.5-17.5,17.5-46.1,0-63.6L415.1,351.5z M96.9,351.5l-21.2,21.2c-17.5,17.5-17.5,46.1,0,63.6
				s46.1,17.5,63.6,0l21.2-21.2c17.5-17.5,17.5-46.1,0-63.6S114.5,333.9,96.9,351.5z M415.1,160.5l21.2-21.2
				c17.5-17.5,17.5-46.1,0-63.6s-46.1-17.5-63.6,0l-21.2,21.2c-17.5,17.5-17.5,46.1,0,63.6S397.6,178.1,415.1,160.5z"/>
		</g>
	</g>
	<g>
		<g>
			
				<linearGradient id="SVGID_2_" gradientUnits="userSpaceOnUse" x1="256" y1="2" x2="256" y2="514" gradientTransform="matrix(1 0 0 -1 0 514)">
				<stop  offset="0" style="stop-color:#EFFF3A"/>
				<stop  offset="1" style="stop-color:#FFC281"/>
			</linearGradient>
			<path class="st1" d="M256,0c-24.8,0-45,20.2-45,45v30c0,24.8,20.2,45,45,45s45-20.2,45-45V45C301,20.2,280.8,0,256,0z M256,392
				c-24.8,0-45,20.2-45,45v30c0,24.8,20.2,45,45,45s45-20.2,45-45v-30C301,412.2,280.8,392,256,392z M75,211H45
				c-24.8,0-45,20.2-45,45s20.2,45,45,45h30c24.8,0,45-20.2,45-45S99.8,211,75,211z M467,211h-30c-24.8,0-45,20.2-45,45
				s20.2,45,45,45h30c24.8,0,45-20.2,45-45S491.8,211,467,211z"/>
		</g>
	</g>
</g>
</svg>
