<svg id="레이어_1" data-name="레이어 1" xmlns="http://www.w3.org/2000/svg" viewBox="0 0 264.13 358.85"><defs><style>.cls-1{fill:#7cb100;}.cls-2{fill:#b6d177;}</style></defs><title>me3</title><path class="cls-1" d="M301.68,159.91V335.45c0,17.49-7.35,33.79-18.79,47C280,385.77,276.61,388,272,388c-17.57,0-17.57-31.76-35.18-31.76S219.22,388,201.65,388s-17.57-31.76-35.14-31.76S148.92,388,131.34,388s-17.56-31.76-35.13-31.76S78.65,388,61,388c-6.24,0-10.29-4-13.67-9.23a62.77,62.77,0,0,1-9.82-34.45V159.91A130.76,130.76,0,0,1,168.31,29.15h2.62A130.75,130.75,0,0,1,301.68,159.91Z" transform="translate(-37.55 -29.15)"/><path class="cls-2" d="M301.68,159.91v92.52A261.49,261.49,0,0,1,37.55,341.7V159.91A130.76,130.76,0,0,1,168.31,29.15h2.62A130.75,130.75,0,0,1,301.68,159.91Z" transform="translate(-37.55 -29.15)"/><path d="M126.56,151.29a17.39,17.39,0,1,0-17.39,17.38A17.38,17.38,0,0,0,126.56,151.29Z" transform="translate(-37.55 -29.15)"/><path d="M247.45,151.29a17.39,17.39,0,1,0-17.39,17.38A17.38,17.38,0,0,0,247.45,151.29Z" transform="translate(-37.55 -29.15)"/><path d="M199.64,182.51a8.85,8.85,0,0,1,6.94,14.38,47,47,0,0,1-73.86.45,8.86,8.86,0,0,1,6.77-14.47Z" transform="translate(-37.55 -29.15)"/></svg>