<svg xmlns="http://www.w3.org/2000/svg" viewBox="0 0 643 885"><defs><style>.cls-1{isolation:isolate;}.cls-2{fill:#fff;}.cls-3,.cls-4{fill:#b6d177;}.cls-4,.cls-6{opacity:0.3;mix-blend-mode:multiply;}.cls-5,.cls-6{fill:#5d9c4d;}</style></defs><title>pear_3</title><g class="cls-1"><g id="레이어_1" data-name="레이어 1"><rect class="cls-2" width="643" height="885" rx="50"/><g id="_3개" data-name="3개"><g id="_1개" data-name="1개"><path class="cls-3" d="M188.68,203.26v-30.4a47.79,47.79,0,1,0-95.57,0v30.4a87.51,87.51,0,1,0,95.57,0Z"/><path class="cls-4" d="M193.58,206.73a90.87,90.87,0,0,1,11.51,44.18c0,50.46-42.1,92.56-92.55,92.56a90.5,90.5,0,0,1-35.62-7.31A87.46,87.46,0,1,0,193.58,206.73Z"/><path class="cls-5" d="M134.18,118s-29.89,2.38-52.57-14.15S52,58.12,52,58.12s29.88-2.38,52.56,14.15S134.18,118,134.18,118Z"/><path class="cls-6" d="M119.94,104.77a91.5,91.5,0,0,1-55-18.5,70.81,70.81,0,0,0,16.64,17.55C104.29,120.35,134.18,118,134.18,118a85,85,0,0,0-4.9-13.68A90.13,90.13,0,0,1,119.94,104.77Z"/></g><g id="_1개-2" data-name="1개"><path class="cls-3" d="M368.68,430.26v-30.4a47.79,47.79,0,1,0-95.57,0v30.4a87.51,87.51,0,1,0,95.57,0Z"/><path class="cls-4" d="M373.58,433.73a90.87,90.87,0,0,1,11.51,44.18c0,50.46-42.1,92.56-92.55,92.56a90.5,90.5,0,0,1-35.62-7.31A87.46,87.46,0,1,0,373.58,433.73Z"/><path class="cls-5" d="M314.18,345s-29.89,2.38-52.57-14.15S232,285.12,232,285.12s29.88-2.38,52.56,14.15S314.18,345,314.18,345Z"/><path class="cls-6" d="M299.94,331.77a91.5,91.5,0,0,1-55-18.5,70.81,70.81,0,0,0,16.64,17.55C284.29,347.35,314.18,345,314.18,345a85,85,0,0,0-4.9-13.68A90.13,90.13,0,0,1,299.94,331.77Z"/></g><g id="_1개-3" data-name="1개"><path class="cls-3" d="M552.68,669.26v-30.4a47.79,47.79,0,1,0-95.57,0v30.4a87.51,87.51,0,1,0,95.57,0Z"/><path class="cls-4" d="M557.58,672.73a90.87,90.87,0,0,1,11.51,44.18c0,50.46-42.1,92.56-92.55,92.56a90.5,90.5,0,0,1-35.62-7.31A87.46,87.46,0,1,0,557.58,672.73Z"/><path class="cls-5" d="M498.18,584s-29.89,2.38-52.57-14.15S416,524.12,416,524.12s29.88-2.38,52.56,14.15S498.18,584,498.18,584Z"/><path class="cls-6" d="M483.94,570.77a91.5,91.5,0,0,1-55-18.5,70.81,70.81,0,0,0,16.64,17.55C468.29,586.35,498.18,584,498.18,584a85,85,0,0,0-4.9-13.68A90.13,90.13,0,0,1,483.94,570.77Z"/></g></g></g></g></svg>