<svg xmlns="http://www.w3.org/2000/svg" viewBox="0 0 643 885"><defs><style>.cls-1{isolation:isolate;}.cls-2{fill:#fff;}.cls-3,.cls-4{fill:#b6d177;}.cls-4,.cls-6{opacity:0.3;mix-blend-mode:multiply;}.cls-5,.cls-6{fill:#5d9c4d;}</style></defs><title>pear_5</title><g class="cls-1"><g id="레이어_1" data-name="레이어 1"><rect class="cls-2" width="643" height="885" rx="50"/><g id="_5개" data-name="5개"><path class="cls-3" d="M196.2,180V149.62a47.69,47.69,0,0,0-95.38,0V180a87.32,87.32,0,1,0,95.38,0Z"/><path class="cls-4" d="M201.09,183.42a90.75,90.75,0,0,1,11.48,44.09c0,50.35-42,92.37-92.36,92.37a90.36,90.36,0,0,1-35.55-7.3A87.28,87.28,0,1,0,201.09,183.42Z"/><path class="cls-5" d="M141.81,94.85S112,97.22,89.35,80.72s-29.52-45.6-29.52-45.6,29.82-2.37,52.45,14.12S141.81,94.85,141.81,94.85Z"/><path class="cls-6" d="M127.6,81.68A91.4,91.4,0,0,1,72.73,63.21,70.57,70.57,0,0,0,89.35,80.72c22.63,16.5,52.46,14.13,52.46,14.13a86.55,86.55,0,0,0-4.89-13.66A89.88,89.88,0,0,1,127.6,81.68Z"/><path class="cls-3" d="M546.57,182.37V152a47.69,47.69,0,1,0-95.37,0v30.35a87.32,87.32,0,1,0,95.37,0Z"/><path class="cls-4" d="M551.46,185.83A90.73,90.73,0,0,1,563,229.92c0,50.35-42,92.37-92.37,92.37A90.31,90.31,0,0,1,435,315,87.28,87.28,0,1,0,551.46,185.83Z"/><path class="cls-5" d="M492.18,97.25s-29.82,2.38-52.46-14.12-29.51-45.61-29.51-45.61S440,35.15,462.66,51.64,492.18,97.25,492.18,97.25Z"/><path class="cls-6" d="M478,84.08a91.36,91.36,0,0,1-54.86-18.46,70.7,70.7,0,0,0,16.61,17.51c22.64,16.5,52.46,14.12,52.46,14.12a85.42,85.42,0,0,0-4.89-13.65A89.75,89.75,0,0,1,478,84.08Z"/><path class="cls-3" d="M190.38,687.35V657A47.69,47.69,0,1,0,95,657v30.35a87.32,87.32,0,1,0,95.37,0Z"/><path class="cls-4" d="M195.27,690.81a90.62,90.62,0,0,1,11.49,44.09c0,50.35-42,92.37-92.37,92.37A90.31,90.31,0,0,1,78.85,820,87.28,87.28,0,1,0,195.27,690.81Z"/><path class="cls-5" d="M136,602.24s-29.83,2.37-52.47-14.13S54,542.5,54,542.5s29.82-2.37,52.45,14.13S136,602.24,136,602.24Z"/><path class="cls-6" d="M121.79,589.06A91.39,91.39,0,0,1,66.92,570.6a70.7,70.7,0,0,0,16.61,17.51c22.64,16.5,52.47,14.13,52.47,14.13a86.08,86.08,0,0,0-4.9-13.66A89.7,89.7,0,0,1,121.79,589.06Z"/><path class="cls-3" d="M544,687.35V657a47.69,47.69,0,0,0-95.38,0v30.35a87.32,87.32,0,1,0,95.38,0Z"/><path class="cls-4" d="M548.86,690.81a90.72,90.72,0,0,1,11.48,44.09c0,50.35-42,92.37-92.36,92.37a90.32,90.32,0,0,1-35.55-7.3A87.28,87.28,0,1,0,548.86,690.81Z"/><path class="cls-5" d="M489.58,602.24s-29.83,2.37-52.46-14.13S407.6,542.5,407.6,542.5s29.82-2.37,52.45,14.13S489.58,602.24,489.58,602.24Z"/><path class="cls-6" d="M475.37,589.06A91.39,91.39,0,0,1,420.5,570.6a70.56,70.56,0,0,0,16.62,17.51c22.63,16.5,52.46,14.13,52.46,14.13a86.08,86.08,0,0,0-4.9-13.66A89.55,89.55,0,0,1,475.37,589.06Z"/><path class="cls-3" d="M370.38,435.13V404.79a47.69,47.69,0,1,0-95.37,0v30.34a87.32,87.32,0,1,0,95.37,0Z"/><path class="cls-4" d="M375.27,438.59a90.76,90.76,0,0,1,11.49,44.09c0,50.35-42,92.37-92.37,92.37a90.31,90.31,0,0,1-35.54-7.3A87.28,87.28,0,1,0,375.27,438.59Z"/><path class="cls-5" d="M316,350s-29.82,2.37-52.46-14.13S234,290.29,234,290.29s29.82-2.37,52.45,14.12S316,350,316,350Z"/><path class="cls-6" d="M301.79,336.85a91.44,91.44,0,0,1-54.87-18.46,70.66,70.66,0,0,0,16.61,17.5C286.17,352.39,316,350,316,350a85.31,85.31,0,0,0-4.89-13.66A89.69,89.69,0,0,1,301.79,336.85Z"/></g></g></g></svg>