<svg xmlns="http://www.w3.org/2000/svg" viewBox="0 0 643 885"><defs><style>.cls-1{isolation:isolate;}.cls-2{fill:#fff;}.cls-3,.cls-4{fill:#b6d177;}.cls-4,.cls-6{opacity:0.3;mix-blend-mode:multiply;}.cls-5,.cls-6{fill:#5d9c4d;}</style></defs><title>pear_1</title><g class="cls-1"><g id="레이어_1" data-name="레이어 1"><rect class="cls-2" width="643" height="885" rx="50"/><g id="_1개" data-name="1개"><path class="cls-3" d="M383.19,432.87V395a59.5,59.5,0,0,0-119,0v37.86a108.94,108.94,0,1,0,119,0Z"/><path class="cls-4" d="M389.29,437.19a113.14,113.14,0,0,1,14.33,55c0,62.83-52.42,115.25-115.24,115.25A112.56,112.56,0,0,1,244,598.33,108.89,108.89,0,1,0,389.29,437.19Z"/><path class="cls-5" d="M315.33,326.67s-37.22,3-65.46-17.62-36.82-56.9-36.82-56.9,37.2-3,65.44,17.62S315.33,326.67,315.33,326.67Z"/><path class="cls-6" d="M297.6,310.24a114,114,0,0,1-68.45-23,88,88,0,0,0,20.72,21.85c28.24,20.58,65.46,17.62,65.46,17.62a107.41,107.41,0,0,0-6.11-17A111.6,111.6,0,0,1,297.6,310.24Z"/></g></g></g></svg>