<svg xmlns="http://www.w3.org/2000/svg" viewBox="0 0 643 885"><defs><style>.cls-1{isolation:isolate;}.cls-2{fill:#fff;}.cls-3,.cls-4{fill:#b6d177;}.cls-4,.cls-6{opacity:0.3;mix-blend-mode:multiply;}.cls-5,.cls-6{fill:#5d9c4d;}</style></defs><title>pear_4</title><g class="cls-1"><g id="레이어_1" data-name="레이어 1"><rect class="cls-2" width="643" height="885" rx="50"/><g id="_4개" data-name="4개"><path class="cls-3" d="M221.81,250.91V216.6a53.92,53.92,0,1,0-107.84,0v34.31a98.73,98.73,0,1,0,107.84,0Z"/><path class="cls-4" d="M227.34,254.82a102.63,102.63,0,0,1,13,49.85c0,56.93-47.5,104.44-104.43,104.44a102.25,102.25,0,0,1-40.2-8.25,98.69,98.69,0,1,0,131.65-146Z"/><path class="cls-5" d="M160.31,154.67s-33.72,2.68-59.32-16S67.62,87.13,67.62,87.13s33.72-2.68,59.31,16S160.31,154.67,160.31,154.67Z"/><path class="cls-6" d="M144.24,139.78a103.32,103.32,0,0,1-62-20.88A79.68,79.68,0,0,0,101,138.7c25.6,18.65,59.32,16,59.32,16a96.65,96.65,0,0,0-5.53-15.44A102,102,0,0,1,144.24,139.78Z"/><path class="cls-3" d="M529.11,253.62v-34.3a53.92,53.92,0,1,0-107.84,0v34.3a98.73,98.73,0,1,0,107.84,0Z"/><path class="cls-4" d="M534.64,257.54a102.52,102.52,0,0,1,13,49.85c0,56.93-47.51,104.44-104.44,104.44A102.2,102.2,0,0,1,403,403.58a98.69,98.69,0,1,0,131.64-146Z"/><path class="cls-5" d="M467.62,157.39s-33.73,2.68-59.32-16-33.37-51.57-33.37-51.57,33.71-2.68,59.3,16S467.62,157.39,467.62,157.39Z"/><path class="cls-6" d="M451.55,142.5a103.32,103.32,0,0,1-62-20.88,79.68,79.68,0,0,0,18.78,19.8c25.59,18.65,59.32,16,59.32,16A97.42,97.42,0,0,0,462.08,142,102,102,0,0,1,451.55,142.5Z"/><path class="cls-3" d="M217.28,616.11v-34.3a53.92,53.92,0,1,0-107.84,0v34.3a98.72,98.72,0,1,0,107.84,0Z"/><path class="cls-4" d="M222.8,620a102.52,102.52,0,0,1,13,49.85c0,56.93-47.5,104.44-104.44,104.44a102.24,102.24,0,0,1-40.19-8.25A98.69,98.69,0,1,0,222.8,620Z"/><path class="cls-5" d="M155.78,519.88s-33.73,2.68-59.32-16-33.37-51.57-33.37-51.57,33.72-2.68,59.31,16S155.78,519.88,155.78,519.88Z"/><path class="cls-6" d="M139.71,505a103.32,103.32,0,0,1-62-20.88,79.68,79.68,0,0,0,18.78,19.8c25.59,18.65,59.32,16,59.32,16a96.65,96.65,0,0,0-5.53-15.44A102.17,102.17,0,0,1,139.71,505Z"/><path class="cls-3" d="M528.21,616.11v-34.3a53.92,53.92,0,1,0-107.84,0v34.3a98.73,98.73,0,1,0,107.84,0Z"/><path class="cls-4" d="M533.73,620a102.52,102.52,0,0,1,13,49.85c0,56.93-47.5,104.44-104.43,104.44a102.25,102.25,0,0,1-40.2-8.25A98.69,98.69,0,1,0,533.73,620Z"/><path class="cls-5" d="M466.71,519.88s-33.72,2.68-59.32-16S374,452.34,374,452.34s33.72-2.68,59.31,16S466.71,519.88,466.71,519.88Z"/><path class="cls-6" d="M450.64,505a103.32,103.32,0,0,1-62-20.88,79.68,79.68,0,0,0,18.78,19.8c25.6,18.65,59.32,16,59.32,16a96.65,96.65,0,0,0-5.53-15.44A102,102,0,0,1,450.64,505Z"/></g></g></g></svg>