<svg xmlns="http://www.w3.org/2000/svg" viewBox="0 0 643 885"><defs><style>.cls-1{isolation:isolate;}.cls-2{fill:#fff;}.cls-3,.cls-4{fill:#b6d177;}.cls-4,.cls-6{opacity:0.3;mix-blend-mode:multiply;}.cls-5,.cls-6{fill:#5d9c4d;}</style></defs><title>pear_2</title><g class="cls-1"><g id="레이어_1" data-name="레이어 1"><rect class="cls-2" width="643" height="885" rx="50"/><g id="_2개" data-name="2개"><path class="cls-3" d="M261.19,239.87V202a59.5,59.5,0,0,0-119,0v37.86a108.94,108.94,0,1,0,119,0Z"/><path class="cls-4" d="M267.29,244.19a113.14,113.14,0,0,1,14.33,55c0,62.83-52.42,115.25-115.24,115.25A112.56,112.56,0,0,1,122,405.33,108.89,108.89,0,1,0,267.29,244.19Z"/><path class="cls-5" d="M193.33,133.67s-37.22,3-65.46-17.62-36.82-56.9-36.82-56.9,37.2-3,65.44,17.62S193.33,133.67,193.33,133.67Z"/><path class="cls-6" d="M175.6,117.24a114,114,0,0,1-68.45-23,88,88,0,0,0,20.72,21.85c28.24,20.58,65.46,17.62,65.46,17.62a107.41,107.41,0,0,0-6.11-17A111.6,111.6,0,0,1,175.6,117.24Z"/><path class="cls-3" d="M502.19,622.87V585a59.5,59.5,0,0,0-119,0v37.86a108.94,108.94,0,1,0,119,0Z"/><path class="cls-4" d="M508.29,627.19a113.14,113.14,0,0,1,14.33,55c0,62.83-52.42,115.25-115.24,115.25A112.56,112.56,0,0,1,363,788.33,108.89,108.89,0,1,0,508.29,627.19Z"/><path class="cls-5" d="M434.33,516.67s-37.22,3-65.46-17.62-36.82-56.9-36.82-56.9,37.2-3,65.44,17.62S434.33,516.67,434.33,516.67Z"/><path class="cls-6" d="M416.6,500.24a114,114,0,0,1-68.45-23,88,88,0,0,0,20.72,21.85c28.24,20.58,65.46,17.62,65.46,17.62a107.41,107.41,0,0,0-6.11-17A111.6,111.6,0,0,1,416.6,500.24Z"/></g></g></g></svg>