<svg xmlns="http://www.w3.org/2000/svg" viewBox="0 0 643 885"><defs><style>.cls-1{isolation:isolate;}.cls-2{fill:#fff;}.cls-3,.cls-4{fill:#5d9c4d;}.cls-4,.cls-6{opacity:0.3;mix-blend-mode:multiply;}.cls-5,.cls-6{fill:#a6613a;}.cls-7{fill:none;}.cls-8{fill:#8c5231;}</style></defs><title>pineapple_4</title><g class="cls-1"><g id="레이어_1" data-name="레이어 1"><rect class="cls-2" width="643" height="885" rx="50"/><g id="_4개" data-name="4개"><path class="cls-3" d="M203.15,171.92c-.53-17.29,26.47-34.58,26.47-34.58-19.45-7.21-39.08,11.52-39.08,11.52-2.34-25.21,22.52-58.35,22.52-58.35-34.58,6.49-45,58.35-45,58.35S157.57,97,123,90.51c0,0,24.84,33.14,22.5,58.35,0,0-19.63-18.73-39.07-11.52,0,0,27,17.29,26.47,34.58,0,0-15-11.52-36.56,0,0,0,37.11,10.09,35.84,44.67h71.69c-1.27-34.58,35.84-44.67,35.84-44.67C218.09,160.4,203.15,171.92,203.15,171.92Z"/><path class="cls-4" d="M239.71,171.92c-16.47-8.78-29.06-4.18-34.12-1.49a120.89,120.89,0,0,1-33,46.16h31.23C202.6,182,239.71,171.92,239.71,171.92Z"/><path class="cls-5" d="M268.53,315.29C268.53,377,223.53,427,168,427S67.52,377,67.52,315.29s45-111.67,100.5-111.67S268.53,253.62,268.53,315.29Z"/><path class="cls-6" d="M252.49,254.81a115.5,115.5,0,0,1,3.25,27.08c0,64.66-54,118.62-118.62,118.62a115.72,115.72,0,0,1-41.37-7.67C114,413.87,139.64,427,168,427c55.51,0,100.51-50,100.51-111.67A120.21,120.21,0,0,0,252.49,254.81Z"/><path class="cls-7" d="M165.46,261.37c-9.66-6.86-19.27-13.49-28.79-19.61-9.69,7.46-19.44,15-29.23,22.37,9.56,5.59,19.2,11.81,28.88,18.34C146.06,275.44,155.79,268.31,165.46,261.37Z"/><path class="cls-7" d="M196.81,239.79c-9.68-7.44-19.28-14.75-28.79-21.65-9.5,6.9-19.1,14.21-28.78,21.65,9.51,6.17,19.12,12.85,28.78,19.75C177.69,252.64,187.3,246,196.81,239.79Z"/><path class="cls-7" d="M170.54,396.54c9.49,6.83,18.86,13.21,28.08,18.87,9.52-7.91,19.16-16.13,28.88-24.37-9.27-4.72-18.67-10.27-28.17-16.34C189.65,382.19,180.05,389.57,170.54,396.54Z"/><path class="cls-7" d="M199.73,282.47c9.68-6.53,19.32-12.75,28.87-18.34-9.78-7.36-19.53-14.91-29.22-22.37-9.52,6.12-19.13,12.75-28.79,19.61C180.26,268.31,190,275.44,199.73,282.47Z"/><path class="cls-7" d="M229,306.43c-9.72-6.48-19.48-13.36-29.22-20.36-9.69,6.58-19.42,13.46-29.15,20.36,9.73,6.9,19.46,13.78,29.15,20.36C209.49,319.79,219.25,312.91,229,306.43Z"/><path class="cls-7" d="M168,353.32c-9.66,6.9-19.27,13.58-28.78,19.75,9.68,7.44,19.28,14.75,28.78,21.65,9.51-6.9,19.11-14.21,28.79-21.65C187.3,366.9,177.69,360.22,168,353.32Z"/><path class="cls-7" d="M108.55,391c9.72,8.24,19.36,16.46,28.87,24.37,9.23-5.66,18.61-12,28.09-18.87-9.51-7-19.11-14.35-28.79-21.84C127.22,380.77,117.82,386.32,108.55,391Z"/><path class="cls-7" d="M133.73,284.34c-9.68-6.52-19.32-12.7-28.88-18.27-9.79,7.32-19.6,14.43-29.4,21,9.63,5.25,19.32,11.23,29,17.63C114.23,298.24,124,291.35,133.73,284.34Z"/><path class="cls-7" d="M165.46,351.49c-9.67-6.94-19.4-14.07-29.14-21.1-9.68,6.53-19.32,12.75-28.88,18.34,9.79,7.36,19.54,14.91,29.23,22.37C146.19,365,155.8,358.35,165.46,351.49Z"/><path class="cls-7" d="M104.49,308.14c-9.72,6.4-19.41,12.38-29,17.63,9.8,6.59,19.61,13.7,29.4,21,9.56-5.57,19.2-11.75,28.88-18.27C124,321.51,114.23,314.62,104.49,308.14Z"/><path class="cls-7" d="M107.07,306.43c9.73,6.48,19.49,13.36,29.23,20.36,9.69-6.58,19.42-13.46,29.15-20.36-9.73-6.9-19.46-13.78-29.15-20.36C126.56,293.07,116.8,300,107.07,306.43Z"/><path class="cls-7" d="M231.55,304.72c9.73-6.4,19.42-12.38,29-17.63-9.79-6.59-19.6-13.7-29.39-21-9.56,5.57-19.2,11.75-28.88,18.27C212.06,291.35,221.82,298.24,231.55,304.72Z"/><path class="cls-7" d="M197.17,284.21c-9.75-7-19.47-14.11-29.15-21-9.67,6.9-19.4,14-29.14,21,9.69,6.6,19.42,13.49,29.14,20.39C177.75,297.7,187.48,290.81,197.17,284.21Z"/><path class="cls-7" d="M202.32,328.52c9.68,6.52,19.32,12.7,28.88,18.27,9.79-7.32,19.6-14.43,29.39-21-9.62-5.25-19.31-11.23-29-17.63C221.82,314.62,212.06,321.51,202.32,328.52Z"/><path class="cls-7" d="M170.59,351.49c9.66,6.86,19.27,13.49,28.79,19.61,9.69-7.46,19.44-15,29.22-22.37-9.55-5.59-19.19-11.81-28.87-18.34C190,337.42,180.26,344.55,170.59,351.49Z"/><path class="cls-7" d="M197.17,328.64c-9.69-6.59-19.42-13.48-29.15-20.38-9.72,6.9-19.45,13.79-29.14,20.38,9.74,7,19.47,14.12,29.14,21C177.7,342.76,187.42,335.66,197.17,328.64Z"/><path class="cls-8" d="M268.4,320.64c-1.73,1.12-3.47,2.24-5.21,3.39-9.62-5.23-19.33-11.2-29.06-17.6,9.73-6.4,19.44-12.37,29.06-17.6l2.86,1.85c-.4-1.95-.84-3.87-1.32-5.78l-1.58.81c-9.81-6.61-19.62-13.74-29.42-21.1q9.44-5.39,18.76-9.81c-.51-.86-1-1.72-1.52-2.57q-9.85,4.66-19.84,10.43c-9.78-7.4-19.54-15-29.23-22.51,8.64-5.48,17.2-10.47,25.65-14.83-.88-.72-1.78-1.42-2.68-2.11-8.41,4.41-16.93,9.44-25.54,14.95-9.68-7.49-19.28-14.87-28.79-21.85q7.88-5.66,15.62-10.84c-1.43-.29-2.86-.55-4.31-.77-4.58,3.13-9.19,6.4-13.83,9.77-4.63-3.37-9.24-6.64-13.83-9.77-1.44.22-2.87.48-4.3.77q7.76,5.17,15.62,10.84c-9.51,7-19.11,14.36-28.79,21.85-8.61-5.51-17.13-10.54-25.54-14.95-.91.69-1.8,1.39-2.68,2.11,8.46,4.36,17,9.35,25.65,14.83-9.69,7.51-19.45,15.11-29.24,22.51q-10-5.75-19.83-10.43c-.52.85-1,1.71-1.52,2.57q9.31,4.43,18.76,9.81c-9.8,7.36-19.61,14.49-29.42,21.1l-1.58-.81c-.48,1.91-.92,3.83-1.32,5.78,1-.62,1.9-1.22,2.85-1.85,9.64,5.23,19.34,11.2,29.06,17.6-9.72,6.4-19.42,12.37-29.06,17.6-1.73-1.15-3.47-2.27-5.21-3.39,0,1.06.13,2.11.2,3.16l2.46,1.6c-.76.41-1.51.78-2.27,1.17.09,1,.22,1.95.33,2.92,1.51-.77,3-1.54,4.54-2.34,9.81,6.61,19.62,13.74,29.42,21.1a260.12,260.12,0,0,1-25.88,13c.38.91.74,1.84,1.13,2.74a257.92,257.92,0,0,0,27.34-13.81c9.79,7.4,19.55,15,29.24,22.51A324.61,324.61,0,0,1,106,388.85c-9.1-7.7-18.27-15.39-27.47-22.84q1.19,2.58,2.49,5.09c7.54,6.23,15.06,12.59,22.53,19-2.44,1.18-4.86,2.3-7.28,3.36.73.83,1.48,1.63,2.23,2.43q3.8-1.69,7.63-3.58c9.72,8.31,19.36,16.62,28.88,24.62-1.28.78-2.57,1.53-3.85,2.27,1.19.52,2.38,1,3.59,1.49.93-.55,1.85-1.07,2.78-1.64l5.3,4.4c2.06.59,4.15,1.09,6.25,1.54-3-2.45-6.05-4.92-9.11-7.45,9.23-5.74,18.6-12.22,28.08-19.12,9.48,6.9,18.86,13.38,28.09,19.12-3.05,2.53-6.09,5-9.11,7.45,2.1-.45,4.19-.95,6.25-1.54l5.3-4.4c.93.57,1.85,1.09,2.78,1.64,1.2-.47,2.4-1,3.58-1.49-1.28-.74-2.56-1.49-3.84-2.27,9.52-8,19.16-16.31,28.88-24.62q3.84,1.89,7.63,3.58c.75-.8,1.49-1.6,2.22-2.43q-3.62-1.59-7.27-3.36c7.47-6.37,15-12.73,22.53-19q1.31-2.5,2.49-5.09c-9.2,7.45-18.37,15.14-27.47,22.84a323.13,323.13,0,0,1-28.18-16.14c9.69-7.51,19.45-15.11,29.23-22.51A259,259,0,0,0,258.48,364c.39-.9.75-1.83,1.13-2.74a260.12,260.12,0,0,1-25.88-13c9.79-7.36,19.61-14.49,29.42-21.1,1.52.8,3,1.57,4.54,2.34.11-1,.24-1.94.33-2.92-.76-.39-1.52-.76-2.27-1.17l2.46-1.6C268.28,322.75,268.36,321.7,268.4,320.64Zm-37.2-54.57c9.79,7.32,19.6,14.43,29.39,21-9.62,5.25-19.31,11.23-29,17.63-9.73-6.48-19.49-13.37-29.23-20.38C212,277.82,221.64,271.64,231.2,266.07Zm-65.75,40.36c-9.73,6.9-19.46,13.78-29.15,20.36-9.74-7-19.5-13.88-29.23-20.36,9.73-6.48,19.49-13.36,29.23-20.36C146,292.65,155.72,299.53,165.45,306.43Zm-26.57-22.22c9.74-7,19.47-14.11,29.14-21,9.68,6.9,19.4,14,29.15,21-9.69,6.6-19.42,13.49-29.15,20.39C158.3,297.7,148.57,290.81,138.88,284.21ZM168,308.26c9.73,6.9,19.46,13.79,29.15,20.38-9.75,7-19.47,14.12-29.15,21-9.67-6.9-19.4-14-29.14-21C148.57,322.05,158.3,315.16,168,308.26Zm2.58-1.83c9.73-6.9,19.46-13.78,29.15-20.36,9.74,7,19.5,13.88,29.22,20.36-9.72,6.48-19.48,13.36-29.22,20.36C190.06,320.21,180.33,313.33,170.6,306.43Zm28.78-64.67c9.69,7.46,19.44,15,29.22,22.37-9.55,5.59-19.19,11.81-28.87,18.34-9.74-7-19.47-14.16-29.14-21.1C180.25,254.51,189.86,247.88,199.38,241.76ZM168,218.14c9.51,6.9,19.11,14.21,28.79,21.65C187.3,246,177.69,252.64,168,259.54c-9.66-6.9-19.27-13.58-28.78-19.75C148.92,232.35,158.52,225,168,218.14Zm-31.35,23.62c9.52,6.12,19.13,12.75,28.79,19.61-9.67,6.94-19.4,14.07-29.14,21.1-9.68-6.53-19.32-12.75-28.88-18.34C117.23,256.77,127,249.22,136.67,241.76ZM75.45,287.09c9.8-6.59,19.61-13.7,29.4-21,9.56,5.57,19.2,11.75,28.88,18.27-9.74,7-19.5,13.9-29.24,20.38C94.77,298.32,85.08,292.34,75.45,287.09Zm29.4,59.7c-9.79-7.32-19.6-14.43-29.4-21,9.63-5.25,19.32-11.23,29-17.63,9.74,6.48,19.5,13.37,29.24,20.38C124.05,335,114.41,341.22,104.85,346.79Zm2.59,1.94c9.56-5.59,19.2-11.81,28.88-18.34,9.74,7,19.47,14.16,29.14,21.1-9.66,6.86-19.27,13.49-28.79,19.61C127,363.64,117.23,356.09,107.44,348.73Zm30,66.68c-9.51-7.91-19.15-16.13-28.87-24.37,9.27-4.72,18.67-10.27,28.17-16.34,9.68,7.49,19.28,14.87,28.79,21.84C156,403.37,146.65,409.75,137.42,415.41Zm1.82-42.34c9.51-6.17,19.12-12.85,28.78-19.75,9.67,6.9,19.28,13.58,28.79,19.75-9.68,7.44-19.28,14.75-28.79,21.65C158.52,387.82,148.92,380.51,139.24,373.07Zm88.26,18c-9.72,8.24-19.36,16.46-28.88,24.37-9.22-5.66-18.59-12-28.08-18.87,9.51-7,19.11-14.35,28.79-21.84C208.83,380.77,218.23,386.32,227.5,391ZM199.38,371.1c-9.52-6.12-19.13-12.75-28.79-19.61,9.67-6.94,19.4-14.07,29.14-21.1,9.68,6.53,19.32,12.75,28.87,18.34C218.82,356.09,209.07,363.64,199.38,371.1Zm31.82-24.31c-9.56-5.57-19.2-11.75-28.88-18.27,9.74-7,19.5-13.9,29.23-20.38,9.73,6.4,19.42,12.38,29,17.63C250.8,332.36,241,339.47,231.2,346.79Z"/><path class="cls-3" d="M510.45,174.64c-.53-17.29,26.48-34.58,26.48-34.58-19.45-7.21-39.08,11.52-39.08,11.52-2.34-25.21,22.51-58.35,22.51-58.35-34.58,6.49-45,58.35-45,58.35s-10.45-51.86-45-58.35c0,0,24.85,33.14,22.51,58.35,0,0-19.63-18.73-39.08-11.52,0,0,27,17.29,26.47,34.58,0,0-14.94-11.52-36.56,0,0,0,37.11,10.09,35.85,44.67h71.68C509.91,184.73,547,174.64,547,174.64,525.4,163.12,510.45,174.64,510.45,174.64Z"/><path class="cls-4" d="M547,174.64c-16.46-8.78-29-4.18-34.12-1.49a120.86,120.86,0,0,1-32.95,46.16h31.23C509.91,184.73,547,174.64,547,174.64Z"/><path class="cls-5" d="M575.83,318c0,61.67-45,111.67-100.5,111.67s-100.5-50-100.5-111.67,45-111.67,100.5-111.67S575.83,256.33,575.83,318Z"/><path class="cls-6" d="M559.8,257.53a115.5,115.5,0,0,1,3.25,27.08c0,64.66-54,118.62-118.62,118.62a115.77,115.77,0,0,1-41.38-7.67c18.28,21,43.9,34.12,72.28,34.12,55.5,0,100.5-50,100.5-111.67A120.2,120.2,0,0,0,559.8,257.53Z"/><path class="cls-7" d="M472.77,264.09c-9.67-6.86-19.28-13.5-28.8-19.61-9.68,7.46-19.44,15-29.22,22.37,9.56,5.59,19.19,11.8,28.87,18.34C453.36,278.16,463.09,271,472.77,264.09Z"/><path class="cls-7" d="M504.12,242.5c-9.68-7.43-19.29-14.75-28.79-21.65-9.5,6.9-19.11,14.22-28.79,21.65,9.52,6.18,19.13,12.86,28.79,19.75C485,255.36,494.6,248.68,504.12,242.5Z"/><path class="cls-7" d="M477.85,399.26c9.48,6.83,18.85,13.21,28.08,18.87,9.52-7.91,19.15-16.13,28.87-24.38-9.27-4.71-18.67-10.26-28.16-16.33C497,384.91,487.35,392.29,477.85,399.26Z"/><path class="cls-7" d="M507,285.19c9.67-6.54,19.31-12.75,28.87-18.34-9.78-7.36-19.54-14.91-29.23-22.37-9.51,6.11-19.12,12.75-28.78,19.61C487.57,271,497.3,278.16,507,285.19Z"/><path class="cls-7" d="M536.28,309.15c-9.73-6.48-19.48-13.36-29.23-20.36-9.69,6.58-19.41,13.46-29.14,20.36,9.73,6.9,19.45,13.78,29.14,20.35C516.8,322.51,526.55,315.63,536.28,309.15Z"/><path class="cls-7" d="M475.33,356c-9.66,6.9-19.27,13.58-28.79,19.75,9.68,7.44,19.29,14.75,28.79,21.65,9.5-6.9,19.11-14.21,28.79-21.65C494.61,369.62,485,362.94,475.33,356Z"/><path class="cls-7" d="M415.86,393.75c9.71,8.25,19.35,16.47,28.87,24.38,9.23-5.66,18.6-12,28.08-18.87-9.5-7-19.11-14.35-28.79-21.84C434.53,383.49,425.13,389,415.86,393.75Z"/><path class="cls-7" d="M441,287.06c-9.68-6.52-19.32-12.71-28.88-18.27-9.79,7.32-19.6,14.42-29.4,21,9.62,5.25,19.32,11.23,29,17.63C421.53,301,431.29,294.07,441,287.06Z"/><path class="cls-7" d="M472.77,354.21c-9.68-6.94-19.41-14.07-29.15-21.1-9.68,6.53-19.31,12.75-28.87,18.34,9.78,7.36,19.54,14.91,29.22,22.37C453.49,367.7,463.1,361.07,472.77,354.21Z"/><path class="cls-7" d="M411.8,310.86c-9.72,6.4-19.42,12.37-29,17.63,9.8,6.59,19.61,13.7,29.4,21,9.56-5.56,19.2-11.74,28.88-18.26C431.29,324.23,421.53,317.33,411.8,310.86Z"/><path class="cls-7" d="M414.38,309.15c9.73,6.48,19.49,13.36,29.23,20.35,9.69-6.57,19.41-13.45,29.14-20.35-9.73-6.9-19.45-13.78-29.14-20.36C433.87,295.79,424.11,302.67,414.38,309.15Z"/><path class="cls-7" d="M538.86,307.44c9.72-6.4,19.42-12.38,29-17.63-9.8-6.6-19.61-13.7-29.39-21-9.57,5.56-19.21,11.75-28.89,18.27C519.36,294.07,529.13,301,538.86,307.44Z"/><path class="cls-7" d="M504.47,286.93c-9.74-7-19.47-14.11-29.14-21-9.67,6.91-19.4,14-29.14,21,9.69,6.6,19.41,13.49,29.14,20.39C485.06,300.42,494.78,293.53,504.47,286.93Z"/><path class="cls-7" d="M509.62,331.24c9.68,6.52,19.32,12.7,28.89,18.26,9.78-7.31,19.59-14.42,29.39-21-9.62-5.26-19.32-11.23-29-17.63C529.13,317.33,519.36,324.23,509.62,331.24Z"/><path class="cls-7" d="M477.9,354.21c9.66,6.86,19.27,13.49,28.78,19.61,9.69-7.46,19.45-15,29.23-22.37-9.56-5.59-19.2-11.81-28.87-18.34C497.3,340.14,487.57,347.27,477.9,354.21Z"/><path class="cls-7" d="M504.47,331.36c-9.69-6.59-19.41-13.48-29.14-20.38-9.73,6.9-19.45,13.79-29.14,20.38,9.74,7,19.47,14.12,29.14,21C485,345.48,494.73,338.38,504.47,331.36Z"/><path class="cls-8" d="M575.71,323.36c-1.73,1.12-3.47,2.24-5.21,3.39-9.63-5.23-19.33-11.2-29.06-17.6,9.73-6.4,19.43-12.37,29.06-17.61,1,.64,1.9,1.24,2.85,1.86-.39-1.95-.83-3.87-1.31-5.78-.53.28-1.06.53-1.58.81-9.81-6.61-19.63-13.74-29.42-21.1q9.44-5.38,18.76-9.81c-.51-.86-1-1.72-1.53-2.57q-9.84,4.67-19.83,10.42c-9.79-7.39-19.54-15-29.23-22.5,8.64-5.48,17.19-10.47,25.64-14.83-.88-.72-1.77-1.42-2.67-2.11-8.42,4.41-16.94,9.44-25.54,14.95C497,233.39,487.35,226,477.85,219q7.86-5.66,15.61-10.84c-1.42-.29-2.86-.55-4.3-.78q-6.87,4.71-13.83,9.78-7-5.06-13.83-9.78c-1.44.23-2.88.49-4.3.78Q465,213.36,472.81,219c-9.5,7-19.11,14.36-28.79,21.85-8.6-5.51-17.12-10.54-25.54-14.95-.9.69-1.79,1.39-2.67,2.11,8.45,4.36,17,9.35,25.64,14.83-9.69,7.51-19.44,15.11-29.23,22.5q-10-5.73-19.83-10.42c-.52.85-1,1.71-1.52,2.57q9.31,4.43,18.75,9.81c-9.79,7.36-19.61,14.49-29.42,21.1-.52-.28-1.05-.53-1.57-.81-.49,1.91-.93,3.83-1.33,5.78,1-.62,1.91-1.22,2.86-1.86,9.63,5.24,19.33,11.21,29.06,17.61-9.73,6.4-19.43,12.37-29.06,17.6-1.74-1.15-3.47-2.27-5.21-3.39.05,1.06.13,2.11.2,3.16l2.46,1.6-2.27,1.17c.09,1,.22,1.94.33,2.92,1.51-.77,3-1.54,4.53-2.34,9.81,6.61,19.63,13.74,29.42,21.1a258.91,258.91,0,0,1-25.87,13c.37.91.73,1.84,1.13,2.74a259.84,259.84,0,0,0,27.34-13.81c9.79,7.4,19.54,15,29.23,22.51a324.48,324.48,0,0,1-28.17,16.14c-9.1-7.7-18.27-15.39-27.48-22.84.79,1.72,1.63,3.42,2.49,5.09,7.55,6.22,15.07,12.59,22.53,19q-3.65,1.77-7.27,3.36c.73.83,1.47,1.63,2.22,2.43q3.8-1.69,7.64-3.58c9.72,8.31,19.36,16.62,28.88,24.62-1.29.78-2.57,1.53-3.85,2.27,1.19.52,2.38,1,3.59,1.49.93-.55,1.85-1.07,2.78-1.64,1.77,1.48,3.53,2.94,5.3,4.4,2.05.59,4.14,1.09,6.25,1.53-3-2.44-6.06-4.91-9.11-7.44,9.22-5.75,18.6-12.22,28.08-19.12,9.48,6.9,18.86,13.37,28.08,19.12-3.05,2.53-6.08,5-9.1,7.44,2.1-.44,4.19-.94,6.24-1.53,1.77-1.46,3.53-2.92,5.3-4.4.94.57,1.85,1.09,2.78,1.64,1.21-.47,2.4-1,3.59-1.49-1.28-.74-2.56-1.49-3.85-2.27,9.52-8,19.17-16.31,28.89-24.62q3.82,1.89,7.63,3.58c.75-.8,1.49-1.6,2.22-2.43q-3.63-1.59-7.27-3.36c7.47-6.37,15-12.74,22.53-19q1.3-2.51,2.49-5.09c-9.21,7.45-18.38,15.14-27.48,22.84a324.48,324.48,0,0,1-28.17-16.14c9.69-7.51,19.44-15.11,29.23-22.51a259.84,259.84,0,0,0,27.34,13.81c.39-.9.76-1.83,1.13-2.74A260,260,0,0,1,541,351c9.79-7.36,19.61-14.49,29.42-21.1,1.51.8,3,1.57,4.54,2.34.1-1,.23-1.94.32-2.92l-2.27-1.17,2.46-1.6C575.58,325.47,575.67,324.42,575.71,323.36Zm-37.2-54.57c9.78,7.32,19.59,14.42,29.39,21-9.62,5.25-19.32,11.23-29,17.63-9.73-6.48-19.5-13.37-29.24-20.38C519.3,280.54,528.94,274.35,538.51,268.79Zm-65.76,40.36c-9.73,6.9-19.45,13.78-29.14,20.35-9.74-7-19.5-13.87-29.23-20.35,9.73-6.48,19.49-13.36,29.23-20.36C453.3,295.37,463,302.25,472.75,309.15Zm-26.56-22.22c9.74-7,19.47-14.11,29.14-21,9.67,6.91,19.4,14,29.14,21-9.69,6.6-19.41,13.49-29.14,20.39C465.6,300.42,455.88,293.53,446.19,286.93ZM475.33,311c9.73,6.9,19.45,13.79,29.14,20.38-9.74,7-19.47,14.12-29.14,21-9.67-6.9-19.4-14-29.14-21C455.88,324.77,465.6,317.88,475.33,311Zm2.58-1.83c9.73-6.9,19.45-13.78,29.14-20.36,9.75,7,19.5,13.88,29.23,20.36-9.73,6.48-19.48,13.36-29.23,20.35C497.36,322.93,487.64,316.05,477.91,309.15Zm28.77-64.67c9.69,7.46,19.45,15,29.23,22.37-9.56,5.59-19.2,11.8-28.87,18.34-9.74-7-19.47-14.16-29.14-21.1C487.56,257.23,497.17,250.59,506.68,244.48Zm-31.35-23.63c9.5,6.9,19.11,14.22,28.79,21.65-9.52,6.18-19.12,12.86-28.79,19.75-9.66-6.89-19.27-13.57-28.79-19.75C456.22,235.07,465.83,227.75,475.33,220.85ZM444,244.48c9.52,6.11,19.13,12.75,28.8,19.61-9.68,6.94-19.41,14.07-29.15,21.1-9.68-6.54-19.31-12.75-28.87-18.34C424.53,259.49,434.29,251.94,444,244.48Zm-61.21,45.33c9.8-6.6,19.61-13.7,29.4-21,9.56,5.56,19.2,11.75,28.88,18.27-9.75,7-19.51,13.9-29.24,20.38C402.08,301,392.38,295.06,382.76,289.81Zm29.4,59.69c-9.79-7.31-19.6-14.42-29.4-21,9.62-5.26,19.32-11.23,29-17.63,9.73,6.47,19.49,13.37,29.24,20.38C431.36,337.76,421.72,343.94,412.16,349.5Zm2.59,1.95c9.56-5.59,19.19-11.81,28.87-18.34,9.74,7,19.47,14.16,29.15,21.1-9.67,6.86-19.28,13.49-28.8,19.61C434.29,366.36,424.53,358.81,414.75,351.45Zm30,66.68c-9.52-7.91-19.16-16.13-28.87-24.38,9.27-4.71,18.67-10.26,28.16-16.33,9.68,7.49,19.29,14.87,28.79,21.84C463.33,406.09,454,412.47,444.73,418.13Zm1.81-42.34c9.52-6.17,19.13-12.85,28.79-19.75,9.67,6.9,19.28,13.58,28.79,19.75-9.68,7.44-19.29,14.75-28.79,21.65C465.83,390.54,456.22,383.23,446.54,375.79Zm88.26,18c-9.72,8.25-19.35,16.47-28.87,24.38-9.23-5.66-18.6-12-28.08-18.87,9.5-7,19.11-14.35,28.79-21.84C516.13,383.49,525.53,389,534.8,393.75Zm-28.12-19.93c-9.51-6.12-19.12-12.75-28.78-19.61,9.67-6.94,19.4-14.07,29.14-21.1,9.67,6.53,19.31,12.75,28.87,18.34C526.13,358.81,516.37,366.36,506.68,373.82Zm31.83-24.32c-9.57-5.56-19.21-11.74-28.89-18.26,9.74-7,19.51-13.91,29.24-20.38,9.72,6.4,19.42,12.37,29,17.63C558.1,335.08,548.29,342.19,538.51,349.5Z"/><path class="cls-3" d="M198.62,537.13c-.54-17.29,26.47-34.58,26.47-34.58C205.64,495.34,186,514.07,186,514.07c-2.34-25.21,22.52-58.35,22.52-58.35-34.58,6.49-45,58.35-45,58.35s-10.45-51.86-45-58.35c0,0,24.85,33.14,22.51,58.35,0,0-19.63-18.73-39.08-11.52,0,0,27,17.29,26.48,34.58,0,0-15-11.52-36.56,0,0,0,37.11,10.09,35.84,44.67h71.69c-1.27-34.58,35.84-44.67,35.84-44.67C213.56,525.61,198.62,537.13,198.62,537.13Z"/><path class="cls-4" d="M235.18,537.13c-16.47-8.78-29.06-4.18-34.12-1.49a120.81,120.81,0,0,1-33,46.16h31.24C198.07,547.22,235.18,537.13,235.18,537.13Z"/><path class="cls-5" d="M264,680.5c0,61.68-45,111.67-100.51,111.67S63,742.18,63,680.5s45-111.67,100.5-111.67S264,618.83,264,680.5Z"/><path class="cls-6" d="M248,620a115.5,115.5,0,0,1,3.25,27.08c0,64.66-54,118.62-118.62,118.62a115.72,115.72,0,0,1-41.37-7.67c18.27,21,43.89,34.12,72.27,34.12C219,792.17,264,742.18,264,680.5A120.21,120.21,0,0,0,248,620Z"/><path class="cls-7" d="M160.93,626.58c-9.67-6.86-19.27-13.49-28.79-19.61-9.69,7.46-19.44,15-29.23,22.37,9.56,5.59,19.2,11.81,28.87,18.34C141.53,640.65,151.26,633.52,160.93,626.58Z"/><path class="cls-7" d="M192.28,605c-9.68-7.43-19.28-14.74-28.79-21.64-9.5,6.9-19.11,14.21-28.78,21.64,9.51,6.18,19.12,12.86,28.78,19.76C173.16,617.85,182.76,611.17,192.28,605Z"/><path class="cls-7" d="M166,761.75c9.49,6.83,18.86,13.21,28.08,18.87,9.52-7.91,19.15-16.13,28.88-24.37-9.27-4.72-18.67-10.27-28.17-16.34C185.12,747.4,175.51,754.78,166,761.75Z"/><path class="cls-7" d="M195.2,647.68c9.68-6.53,19.32-12.75,28.87-18.34-9.78-7.36-19.53-14.91-29.22-22.37-9.52,6.12-19.13,12.75-28.79,19.61C175.73,633.52,185.46,640.65,195.2,647.68Z"/><path class="cls-7" d="M224.44,671.64c-9.72-6.48-19.48-13.36-29.22-20.36-9.7,6.58-19.42,13.46-29.15,20.36,9.73,6.9,19.45,13.78,29.15,20.36C205,685,214.72,678.12,224.44,671.64Z"/><path class="cls-7" d="M163.49,718.53c-9.66,6.9-19.27,13.58-28.78,19.75,9.67,7.44,19.28,14.75,28.78,21.65,9.51-6.9,19.11-14.21,28.79-21.65C182.77,732.11,173.16,725.43,163.49,718.53Z"/><path class="cls-7" d="M104,756.25c9.72,8.24,19.35,16.46,28.87,24.37,9.23-5.66,18.6-12,28.09-18.87-9.51-7-19.11-14.35-28.79-21.84C122.69,746,113.29,751.53,104,756.25Z"/><path class="cls-7" d="M129.2,649.55c-9.68-6.52-19.32-12.71-28.88-18.27-9.79,7.32-19.6,14.42-29.4,21,9.63,5.25,19.32,11.23,29,17.63C109.7,663.45,119.46,656.56,129.2,649.55Z"/><path class="cls-7" d="M160.93,716.7c-9.67-6.94-19.4-14.07-29.15-21.1-9.67,6.53-19.31,12.75-28.87,18.34,9.79,7.36,19.54,14.91,29.23,22.37C141.66,730.19,151.26,723.56,160.93,716.7Z"/><path class="cls-7" d="M100,673.35c-9.72,6.4-19.41,12.38-29,17.63,9.8,6.59,19.61,13.7,29.4,21,9.56-5.57,19.2-11.75,28.88-18.27C119.46,686.72,109.7,679.83,100,673.35Z"/><path class="cls-7" d="M102.54,671.64C112.27,678.12,122,685,131.77,692c9.69-6.58,19.42-13.46,29.14-20.36-9.72-6.9-19.45-13.78-29.14-20.36C122,658.28,112.27,665.16,102.54,671.64Z"/><path class="cls-7" d="M227,669.93c9.72-6.4,19.42-12.38,29-17.63-9.79-6.6-19.6-13.7-29.39-21-9.56,5.56-19.2,11.75-28.89,18.27C207.53,656.56,217.29,663.45,227,669.93Z"/><path class="cls-7" d="M192.63,649.42c-9.74-7-19.46-14.11-29.14-21-9.67,6.9-19.4,14-29.14,21,9.69,6.6,19.42,13.49,29.14,20.39C173.22,662.91,183,656,192.63,649.42Z"/><path class="cls-7" d="M197.78,693.73c9.69,6.52,19.33,12.7,28.89,18.27,9.79-7.32,19.6-14.43,29.39-21-9.62-5.25-19.32-11.23-29-17.63C217.29,679.83,207.53,686.72,197.78,693.73Z"/><path class="cls-7" d="M166.06,716.7c9.66,6.86,19.27,13.49,28.79,19.61,9.69-7.46,19.44-15,29.22-22.37-9.55-5.59-19.19-11.81-28.87-18.34C185.46,702.63,175.73,709.76,166.06,716.7Z"/><path class="cls-7" d="M192.63,693.85c-9.68-6.59-19.41-13.48-29.14-20.38-9.72,6.9-19.45,13.79-29.14,20.38,9.74,7,19.47,14.12,29.14,21C173.17,708,182.89,700.87,192.63,693.85Z"/><path class="cls-8" d="M263.87,685.85c-1.73,1.12-3.47,2.24-5.21,3.39C249,684,239.33,678,229.6,671.64c9.73-6.4,19.43-12.37,29.06-17.6l2.86,1.85c-.4-1.95-.84-3.87-1.32-5.78l-1.58.81c-9.81-6.61-19.62-13.74-29.42-21.1q9.44-5.39,18.76-9.81c-.51-.86-1-1.72-1.53-2.57q-9.84,4.66-19.83,10.43c-9.78-7.4-19.54-15-29.23-22.51,8.64-5.48,17.2-10.47,25.65-14.83-.88-.72-1.78-1.42-2.68-2.11-8.41,4.41-16.93,9.44-25.54,15-9.68-7.49-19.29-14.87-28.79-21.85q7.86-5.65,15.62-10.84c-1.43-.29-2.86-.55-4.31-.77-4.58,3.13-9.19,6.4-13.83,9.77-4.64-3.37-9.25-6.64-13.83-9.77-1.44.22-2.87.48-4.3.77q7.75,5.18,15.62,10.84c-9.51,7-19.11,14.36-28.79,21.85-8.61-5.51-17.13-10.54-25.54-15-.91.69-1.8,1.39-2.68,2.11,8.45,4.36,17,9.35,25.65,14.83-9.69,7.51-19.45,15.11-29.24,22.51q-10-5.75-19.83-10.43c-.52.85-1,1.71-1.52,2.57q9.31,4.43,18.76,9.81c-9.8,7.36-19.61,14.49-29.42,21.1l-1.58-.81c-.48,1.91-.93,3.83-1.32,5.78,1-.62,1.9-1.22,2.85-1.85,9.64,5.23,19.34,11.2,29.06,17.6C87.66,678,78,684,68.32,689.24c-1.73-1.15-3.47-2.27-5.21-3.39,0,1.06.13,2.11.2,3.16l2.46,1.6c-.76.41-1.52.78-2.27,1.17.09,1,.22,1.94.33,2.92,1.51-.77,3-1.54,4.54-2.34C78.18,699,88,706.1,97.79,713.46a260.12,260.12,0,0,1-25.88,13c.37.91.74,1.84,1.13,2.74a257.92,257.92,0,0,0,27.34-13.81c9.79,7.4,19.55,15,29.24,22.51a324.61,324.61,0,0,1-28.18,16.14c-9.1-7.7-18.27-15.39-27.48-22.84q1.2,2.58,2.5,5.09c7.54,6.22,15.06,12.59,22.53,19-2.44,1.18-4.86,2.3-7.28,3.36.73.83,1.47,1.63,2.23,2.43q3.8-1.69,7.63-3.58c9.72,8.31,19.36,16.62,28.88,24.62-1.29.78-2.57,1.53-3.85,2.27,1.19.52,2.38,1,3.59,1.49.93-.55,1.85-1.07,2.78-1.64,1.77,1.48,3.53,2.94,5.3,4.4,2.06.59,4.15,1.09,6.25,1.53-3-2.44-6.05-4.91-9.11-7.44,9.23-5.75,18.6-12.22,28.08-19.12,9.48,6.9,18.86,13.37,28.09,19.12-3.06,2.53-6.09,5-9.11,7.44,2.1-.44,4.19-.94,6.25-1.53l5.3-4.4c.93.57,1.85,1.09,2.77,1.64,1.21-.47,2.41-1,3.59-1.49-1.28-.74-2.56-1.49-3.85-2.27,9.53-8,19.17-16.31,28.89-24.62q3.84,1.89,7.63,3.58c.75-.8,1.49-1.6,2.22-2.43q-3.61-1.59-7.27-3.36c7.47-6.37,15-12.74,22.53-19q1.31-2.5,2.49-5.09c-9.21,7.45-18.37,15.14-27.47,22.84a323.13,323.13,0,0,1-28.18-16.14c9.69-7.51,19.45-15.11,29.23-22.51a259.84,259.84,0,0,0,27.34,13.81c.4-.9.76-1.83,1.14-2.74a260.12,260.12,0,0,1-25.88-13c9.79-7.36,19.61-14.49,29.42-21.1,1.51.8,3,1.57,4.54,2.34.11-1,.24-1.94.33-2.92-.76-.39-1.52-.76-2.27-1.17l2.46-1.6C263.74,688,263.83,686.91,263.87,685.85Zm-37.2-54.57c9.79,7.32,19.6,14.42,29.39,21-9.62,5.25-19.32,11.23-29,17.63-9.73-6.48-19.49-13.37-29.24-20.38C207.47,643,217.11,636.84,226.67,631.28Zm-65.76,40.36c-9.72,6.9-19.45,13.78-29.14,20.36-9.74-7-19.5-13.88-29.23-20.36,9.73-6.48,19.49-13.36,29.23-20.36C141.46,657.86,151.19,664.74,160.91,671.64Zm-26.56-22.22c9.74-7,19.47-14.11,29.14-21,9.68,6.9,19.4,14,29.14,21-9.68,6.6-19.41,13.49-29.14,20.39C153.77,662.91,144,656,134.35,649.42Zm29.14,24.05c9.73,6.9,19.46,13.79,29.14,20.38-9.74,7-19.46,14.12-29.14,21-9.67-6.9-19.4-14-29.14-21C144,687.26,153.77,680.37,163.49,673.47Zm2.58-1.83c9.73-6.9,19.45-13.78,29.15-20.36,9.74,7,19.5,13.88,29.22,20.36C214.72,678.12,205,685,195.22,692,185.52,685.42,175.8,678.54,166.07,671.64ZM194.85,607c9.69,7.46,19.44,15,29.22,22.37-9.55,5.59-19.19,11.81-28.87,18.34-9.74-7-19.47-14.16-29.14-21.1C175.72,619.72,185.33,613.09,194.85,607Zm-31.36-23.62c9.51,6.9,19.11,14.21,28.79,21.64-9.52,6.18-19.12,12.86-28.79,19.76-9.66-6.9-19.27-13.58-28.78-19.76C144.38,597.56,154,590.25,163.49,583.35ZM132.14,607c9.52,6.12,19.12,12.75,28.79,19.61-9.67,6.94-19.4,14.07-29.15,21.1-9.67-6.53-19.31-12.75-28.87-18.34C112.7,622,122.45,614.43,132.14,607ZM70.92,652.3c9.8-6.6,19.61-13.7,29.4-21,9.56,5.56,19.2,11.75,28.88,18.27-9.74,7-19.5,13.9-29.24,20.38C90.24,663.53,80.55,657.55,70.92,652.3Zm29.4,59.7c-9.79-7.32-19.6-14.43-29.4-21,9.63-5.25,19.32-11.23,29-17.63,9.74,6.48,19.5,13.37,29.24,20.38C119.52,700.25,109.88,706.43,100.32,712Zm2.59,1.94c9.56-5.59,19.2-11.81,28.87-18.34,9.75,7,19.48,14.16,29.15,21.1-9.67,6.86-19.27,13.49-28.79,19.61C122.45,728.85,112.7,721.3,102.91,713.94Zm30,66.68c-9.52-7.91-19.15-16.13-28.87-24.37,9.27-4.72,18.67-10.27,28.17-16.34,9.68,7.49,19.28,14.87,28.79,21.84C151.49,768.58,142.12,775,132.89,780.62Zm1.82-42.34c9.51-6.17,19.12-12.85,28.78-19.75,9.67,6.9,19.28,13.58,28.79,19.75C182.6,745.72,173,753,163.49,759.93,154,753,144.38,745.72,134.71,738.28Zm88.26,18c-9.73,8.24-19.36,16.46-28.88,24.37-9.22-5.66-18.59-12-28.08-18.87,9.5-7,19.11-14.35,28.79-21.84C204.3,746,213.7,751.53,223,756.25Zm-28.12-19.94c-9.52-6.12-19.13-12.75-28.79-19.61,9.67-6.94,19.4-14.07,29.14-21.1,9.68,6.53,19.32,12.75,28.87,18.34C214.29,721.3,204.54,728.85,194.85,736.31ZM226.67,712c-9.56-5.57-19.2-11.75-28.89-18.27,9.75-7,19.51-13.9,29.24-20.38,9.72,6.4,19.42,12.38,29,17.63C246.27,697.57,236.46,704.68,226.67,712Z"/><path class="cls-3" d="M509.55,537.13C509,519.84,536,502.55,536,502.55c-19.45-7.21-39.08,11.52-39.08,11.52-2.34-25.21,22.52-58.35,22.52-58.35-34.58,6.49-45,58.35-45,58.35s-10.45-51.86-45-58.35c0,0,24.85,33.14,22.51,58.35,0,0-19.63-18.73-39.08-11.52,0,0,27,17.29,26.48,34.58,0,0-14.95-11.52-36.56,0,0,0,37.11,10.09,35.84,44.67h71.69c-1.27-34.58,35.84-44.67,35.84-44.67C524.49,525.61,509.55,537.13,509.55,537.13Z"/><path class="cls-4" d="M546.11,537.13c-16.47-8.78-29.06-4.18-34.12-1.49A120.89,120.89,0,0,1,479,581.8h31.23C509,547.22,546.11,537.13,546.11,537.13Z"/><path class="cls-5" d="M574.93,680.5c0,61.68-45,111.67-100.51,111.67s-100.5-50-100.5-111.67,45-111.67,100.5-111.67S574.93,618.83,574.93,680.5Z"/><path class="cls-6" d="M558.89,620a115.5,115.5,0,0,1,3.25,27.08c0,64.66-54,118.62-118.62,118.62a115.72,115.72,0,0,1-41.37-7.67c18.27,21,43.89,34.12,72.27,34.12,55.51,0,100.51-50,100.51-111.67A120.21,120.21,0,0,0,558.89,620Z"/><path class="cls-7" d="M471.86,626.58c-9.67-6.86-19.27-13.49-28.79-19.61-9.69,7.46-19.44,15-29.23,22.37,9.56,5.59,19.2,11.81,28.88,18.34C452.46,640.65,462.19,633.52,471.86,626.58Z"/><path class="cls-7" d="M503.21,605c-9.68-7.43-19.28-14.74-28.79-21.64-9.5,6.9-19.11,14.21-28.78,21.64,9.51,6.18,19.12,12.86,28.78,19.76C484.09,617.85,493.69,611.17,503.21,605Z"/><path class="cls-7" d="M476.94,761.75c9.49,6.83,18.86,13.21,28.08,18.87,9.52-7.91,19.16-16.13,28.88-24.37-9.27-4.72-18.67-10.27-28.17-16.34C496.05,747.4,486.45,754.78,476.94,761.75Z"/><path class="cls-7" d="M506.13,647.68c9.68-6.53,19.32-12.75,28.87-18.34-9.78-7.36-19.53-14.91-29.22-22.37-9.52,6.12-19.13,12.75-28.79,19.61C486.66,633.52,496.39,640.65,506.13,647.68Z"/><path class="cls-7" d="M535.37,671.64c-9.72-6.48-19.48-13.36-29.22-20.36-9.69,6.58-19.42,13.46-29.15,20.36,9.73,6.9,19.46,13.78,29.15,20.36C515.89,685,525.65,678.12,535.37,671.64Z"/><path class="cls-7" d="M474.42,718.53c-9.66,6.9-19.27,13.58-28.78,19.75,9.67,7.44,19.28,14.75,28.78,21.65,9.51-6.9,19.11-14.21,28.79-21.65C493.7,732.11,484.09,725.43,474.42,718.53Z"/><path class="cls-7" d="M415,756.25c9.72,8.24,19.36,16.46,28.87,24.37,9.23-5.66,18.61-12,28.09-18.87-9.51-7-19.11-14.35-28.79-21.84C433.62,746,424.22,751.53,415,756.25Z"/><path class="cls-7" d="M440.13,649.55c-9.68-6.52-19.32-12.71-28.88-18.27-9.79,7.32-19.6,14.42-29.4,21,9.63,5.25,19.32,11.23,29,17.63C420.63,663.45,430.39,656.56,440.13,649.55Z"/><path class="cls-7" d="M471.86,716.7c-9.67-6.94-19.4-14.07-29.14-21.1-9.68,6.53-19.32,12.75-28.88,18.34,9.79,7.36,19.54,14.91,29.23,22.37C452.59,730.19,462.19,723.56,471.86,716.7Z"/><path class="cls-7" d="M410.89,673.35c-9.72,6.4-19.41,12.38-29,17.63,9.8,6.59,19.61,13.7,29.4,21,9.56-5.57,19.2-11.75,28.88-18.27C430.39,686.72,420.63,679.83,410.89,673.35Z"/><path class="cls-7" d="M413.47,671.64C423.2,678.12,433,685,442.7,692c9.69-6.58,19.42-13.46,29.14-20.36-9.72-6.9-19.45-13.78-29.14-20.36C433,658.28,423.2,665.16,413.47,671.64Z"/><path class="cls-7" d="M538,669.93c9.72-6.4,19.42-12.38,29-17.63-9.79-6.6-19.6-13.7-29.39-21-9.56,5.56-19.2,11.75-28.89,18.27C518.46,656.56,528.22,663.45,538,669.93Z"/><path class="cls-7" d="M503.57,649.42c-9.75-7-19.47-14.11-29.15-21-9.67,6.9-19.4,14-29.14,21,9.69,6.6,19.42,13.49,29.14,20.39C484.15,662.91,493.88,656,503.57,649.42Z"/><path class="cls-7" d="M508.71,693.73c9.69,6.52,19.33,12.7,28.89,18.27,9.79-7.32,19.6-14.43,29.39-21-9.62-5.25-19.32-11.23-29-17.63C528.22,679.83,518.46,686.72,508.71,693.73Z"/><path class="cls-7" d="M477,716.7c9.66,6.86,19.27,13.49,28.79,19.61,9.69-7.46,19.44-15,29.22-22.37-9.55-5.59-19.19-11.81-28.87-18.34C496.39,702.63,486.66,709.76,477,716.7Z"/><path class="cls-7" d="M503.57,693.85c-9.69-6.59-19.42-13.48-29.15-20.38-9.72,6.9-19.45,13.79-29.14,20.38,9.74,7,19.47,14.12,29.14,21C484.1,708,493.82,700.87,503.57,693.85Z"/><path class="cls-8" d="M574.8,685.85c-1.73,1.12-3.47,2.24-5.21,3.39C560,684,550.26,678,540.53,671.64c9.73-6.4,19.43-12.37,29.06-17.6l2.86,1.85c-.4-1.95-.84-3.87-1.32-5.78l-1.58.81c-9.81-6.61-19.62-13.74-29.42-21.1q9.43-5.39,18.76-9.81c-.51-.86-1-1.72-1.52-2.57q-9.86,4.66-19.84,10.43c-9.78-7.4-19.54-15-29.23-22.51,8.64-5.48,17.2-10.47,25.65-14.83-.88-.72-1.78-1.42-2.68-2.11-8.41,4.41-16.93,9.44-25.54,15-9.68-7.49-19.28-14.87-28.79-21.85q7.86-5.65,15.62-10.84c-1.43-.29-2.86-.55-4.31-.77-4.58,3.13-9.19,6.4-13.83,9.77-4.63-3.37-9.25-6.64-13.83-9.77-1.44.22-2.87.48-4.3.77q7.75,5.18,15.62,10.84c-9.51,7-19.11,14.36-28.79,21.85-8.61-5.51-17.13-10.54-25.54-15-.91.69-1.8,1.39-2.68,2.11,8.46,4.36,17,9.35,25.65,14.83-9.69,7.51-19.45,15.11-29.24,22.51q-10-5.75-19.83-10.43c-.52.85-1,1.71-1.52,2.57q9.32,4.43,18.76,9.81c-9.8,7.36-19.61,14.49-29.42,21.1l-1.58-.81c-.48,1.91-.93,3.83-1.32,5.78,1-.62,1.9-1.22,2.85-1.85,9.64,5.23,19.34,11.2,29.06,17.6-9.72,6.4-19.42,12.37-29.06,17.6-1.73-1.15-3.47-2.27-5.21-3.39,0,1.06.13,2.11.2,3.16l2.46,1.6c-.76.41-1.51.78-2.27,1.17.09,1,.22,1.94.33,2.92,1.51-.77,3-1.54,4.54-2.34,9.81,6.61,19.62,13.74,29.42,21.1a260.12,260.12,0,0,1-25.88,13c.37.91.74,1.84,1.13,2.74a257.92,257.92,0,0,0,27.34-13.81c9.79,7.4,19.55,15,29.24,22.51a324.61,324.61,0,0,1-28.18,16.14c-9.1-7.7-18.27-15.39-27.47-22.84q1.19,2.58,2.49,5.09c7.54,6.22,15.06,12.59,22.53,19-2.44,1.18-4.86,2.3-7.28,3.36.73.83,1.47,1.63,2.23,2.43q3.79-1.69,7.63-3.58c9.72,8.31,19.36,16.62,28.88,24.62-1.29.78-2.57,1.53-3.85,2.27,1.19.52,2.38,1,3.59,1.49.93-.55,1.85-1.07,2.78-1.64,1.77,1.48,3.53,2.94,5.3,4.4,2.06.59,4.15,1.09,6.25,1.53-3-2.44-6.05-4.91-9.11-7.44,9.23-5.75,18.6-12.22,28.08-19.12,9.48,6.9,18.86,13.37,28.09,19.12-3.06,2.53-6.09,5-9.11,7.44,2.1-.44,4.19-.94,6.25-1.53l5.3-4.4c.93.57,1.85,1.09,2.77,1.64,1.21-.47,2.41-1,3.59-1.49-1.28-.74-2.56-1.49-3.85-2.27,9.53-8,19.17-16.31,28.89-24.62q3.84,1.89,7.63,3.58c.75-.8,1.49-1.6,2.22-2.43q-3.62-1.59-7.27-3.36c7.47-6.37,15-12.74,22.53-19q1.31-2.5,2.49-5.09c-9.21,7.45-18.37,15.14-27.47,22.84a323.13,323.13,0,0,1-28.18-16.14c9.69-7.51,19.45-15.11,29.23-22.51a259,259,0,0,0,27.35,13.81c.39-.9.75-1.83,1.13-2.74a260.12,260.12,0,0,1-25.88-13c9.79-7.36,19.61-14.49,29.42-21.1,1.51.8,3,1.57,4.54,2.34.11-1,.24-1.94.33-2.92-.76-.39-1.52-.76-2.27-1.17l2.46-1.6C574.68,688,574.76,686.91,574.8,685.85Zm-37.2-54.57c9.79,7.32,19.6,14.42,29.39,21-9.62,5.25-19.32,11.23-29,17.63-9.73-6.48-19.49-13.37-29.24-20.38C518.4,643,528,636.84,537.6,631.28Zm-65.76,40.36c-9.72,6.9-19.45,13.78-29.14,20.36-9.74-7-19.5-13.88-29.23-20.36,9.73-6.48,19.49-13.36,29.23-20.36C452.39,657.86,462.12,664.74,471.84,671.64Zm-26.56-22.22c9.74-7,19.47-14.11,29.14-21,9.68,6.9,19.4,14,29.15,21-9.69,6.6-19.42,13.49-29.15,20.39C464.7,662.91,455,656,445.28,649.42Zm29.14,24.05c9.73,6.9,19.46,13.79,29.15,20.38-9.75,7-19.47,14.12-29.15,21-9.67-6.9-19.4-14-29.14-21C455,687.26,464.7,680.37,474.42,673.47Zm2.58-1.83c9.73-6.9,19.46-13.78,29.15-20.36,9.74,7,19.5,13.88,29.22,20.36-9.72,6.48-19.48,13.36-29.22,20.36C496.46,685.42,486.73,678.54,477,671.64ZM505.78,607c9.69,7.46,19.44,15,29.22,22.37-9.55,5.59-19.19,11.81-28.87,18.34-9.74-7-19.47-14.16-29.14-21.1C486.65,619.72,496.26,613.09,505.78,607Zm-31.36-23.62c9.51,6.9,19.11,14.21,28.79,21.64-9.52,6.18-19.12,12.86-28.79,19.76-9.66-6.9-19.27-13.58-28.78-19.76C455.31,597.56,464.92,590.25,474.42,583.35ZM443.07,607c9.52,6.12,19.12,12.75,28.79,19.61-9.67,6.94-19.4,14.07-29.14,21.1-9.68-6.53-19.32-12.75-28.88-18.34C423.63,622,433.38,614.43,443.07,607ZM381.85,652.3c9.8-6.6,19.61-13.7,29.4-21,9.56,5.56,19.2,11.75,28.88,18.27-9.74,7-19.5,13.9-29.24,20.38C401.17,663.53,391.48,657.55,381.85,652.3Zm29.4,59.7c-9.79-7.32-19.6-14.43-29.4-21,9.63-5.25,19.32-11.23,29-17.63,9.74,6.48,19.5,13.37,29.24,20.38C430.45,700.25,420.81,706.43,411.25,712Zm2.59,1.94c9.56-5.59,19.2-11.81,28.88-18.34,9.74,7,19.47,14.16,29.14,21.1-9.67,6.86-19.27,13.49-28.79,19.61C433.38,728.85,423.63,721.3,413.84,713.94Zm30,66.68c-9.51-7.91-19.15-16.13-28.87-24.37,9.27-4.72,18.67-10.27,28.17-16.34,9.68,7.49,19.28,14.87,28.79,21.84C462.43,768.58,453.05,775,443.82,780.62Zm1.82-42.34c9.51-6.17,19.12-12.85,28.78-19.75,9.67,6.9,19.28,13.58,28.79,19.75-9.68,7.44-19.28,14.75-28.79,21.65C464.92,753,455.31,745.72,445.64,738.28Zm88.26,18c-9.72,8.24-19.36,16.46-28.88,24.37-9.22-5.66-18.59-12-28.08-18.87,9.51-7,19.11-14.35,28.79-21.84C515.23,746,524.63,751.53,533.9,756.25Zm-28.12-19.94c-9.52-6.12-19.13-12.75-28.79-19.61,9.67-6.94,19.4-14.07,29.14-21.1,9.68,6.53,19.32,12.75,28.87,18.34C525.22,721.3,515.47,728.85,505.78,736.31ZM537.6,712c-9.56-5.57-19.2-11.75-28.89-18.27,9.75-7,19.51-13.9,29.24-20.38,9.72,6.4,19.42,12.38,29,17.63C557.2,697.57,547.39,704.68,537.6,712Z"/></g></g></g></svg>