<svg xmlns="http://www.w3.org/2000/svg" viewBox="0 0 643 885"><defs><style>.cls-1{isolation:isolate;}.cls-2{fill:#fff;}.cls-3,.cls-4{fill:#5d9c4d;}.cls-4,.cls-6{opacity:0.3;mix-blend-mode:multiply;}.cls-5,.cls-6{fill:#a6613a;}.cls-7{fill:none;}.cls-8{fill:#8c5231;}</style></defs><title>pineapple_3</title><g class="cls-1"><g id="레이어_1" data-name="레이어 1"><rect class="cls-2" width="643" height="885" rx="50"/><g id="_3개" data-name="3개"><g id="_1개" data-name="1개"><path class="cls-3" d="M172.15,133.26c-.47-15.32,23.46-30.64,23.46-30.64C178.37,96.23,161,112.83,161,112.83c-2.08-22.35,20-51.72,20-51.72C150.28,66.86,141,112.83,141,112.83s-9.26-46-39.91-51.72c0,0,22,29.37,20,51.72,0,0-17.4-16.6-34.63-10.21,0,0,23.93,15.32,23.46,30.64,0,0-13.25-10.21-32.4,0,0,0,32.88,8.94,31.77,39.59h63.53c-1.12-30.65,31.76-39.59,31.76-39.59C185.39,123.05,172.15,133.26,172.15,133.26Z"/><path class="cls-4" d="M204.55,133.26c-14.59-7.78-25.75-3.7-30.24-1.32a107.12,107.12,0,0,1-29.2,40.91h27.68C171.67,142.2,204.55,133.26,204.55,133.26Z"/><path class="cls-5" d="M230.09,260.32c0,54.66-39.88,99-89.07,99S52,315,52,260.32s39.88-99,89.07-99S230.09,205.66,230.09,260.32Z"/><path class="cls-6" d="M215.88,206.72a102.45,102.45,0,0,1,2.88,24c0,57.31-47.82,105.13-105.13,105.13A102.56,102.56,0,0,1,77,329.05c16.2,18.64,38.9,30.24,64.06,30.24,49.19,0,89.07-44.31,89.07-99A106.52,106.52,0,0,0,215.88,206.72Z"/><path class="cls-7" d="M138.75,212.54c-8.57-6.08-17.08-12-25.52-17.38-8.58,6.61-17.23,13.3-25.9,19.82,8.47,5,17,10.47,25.59,16.26C121.55,225,130.18,218.69,138.75,212.54Z"/><path class="cls-7" d="M166.53,193.41c-8.58-6.59-17.09-13.07-25.51-19.19-8.42,6.12-16.94,12.6-25.51,19.19,8.43,5.47,17,11.39,25.51,17.5C149.59,204.8,158.1,198.88,166.53,193.41Z"/><path class="cls-7" d="M143.25,332.33c8.41,6.05,16.71,11.71,24.89,16.73,8.43-7,17-14.3,25.59-21.61-8.22-4.18-16.55-9.09-25-14.48C160.19,319.61,151.67,326.15,143.25,332.33Z"/><path class="cls-7" d="M169.12,231.24c8.58-5.79,17.12-11.3,25.59-16.26-8.67-6.52-17.31-13.21-25.9-19.82-8.44,5.42-16.95,11.3-25.52,17.38C151.87,218.69,160.49,225,169.12,231.24Z"/><path class="cls-7" d="M195,252.47c-8.62-5.74-17.27-11.84-25.91-18-8.59,5.83-17.2,11.93-25.82,18,8.62,6.12,17.23,12.22,25.82,18C177.77,264.31,186.42,258.21,195,252.47Z"/><path class="cls-7" d="M141,294c-8.56,6.12-17.08,12-25.51,17.5,8.57,6.59,17.09,13.08,25.51,19.19,8.42-6.11,16.93-12.6,25.51-19.19C158.1,306.06,149.59,300.15,141,294Z"/><path class="cls-7" d="M88.31,327.45c8.61,7.31,17.15,14.59,25.59,21.61,8.18-5,16.49-10.68,24.89-16.73-8.42-6.18-16.94-12.72-25.52-19.36C104.86,318.36,96.53,323.27,88.31,327.45Z"/><path class="cls-7" d="M110.63,232.89c-8.58-5.78-17.13-11.26-25.6-16.19-8.68,6.49-17.37,12.79-26.05,18.63C67.51,240,76.1,245.28,84.71,251,93.34,245.22,102,239.11,110.63,232.89Z"/><path class="cls-7" d="M138.75,292.4c-8.57-6.15-17.2-12.47-25.83-18.7C104.34,279.5,95.8,285,87.33,290c8.67,6.52,17.32,13.22,25.9,19.83C121.67,304.36,130.18,298.48,138.75,292.4Z"/><path class="cls-7" d="M84.71,254c-8.61,5.68-17.2,11-25.73,15.63,8.68,5.85,17.37,12.14,26.05,18.63,8.47-4.93,17-10.41,25.6-16.19C102,265.83,93.34,259.73,84.71,254Z"/><path class="cls-7" d="M87,252.47c8.63,5.74,17.27,11.84,25.9,18,8.59-5.82,17.21-11.92,25.83-18-8.62-6.11-17.24-12.21-25.83-18C104.27,240.63,95.63,246.73,87,252.47Z"/><path class="cls-7" d="M197.32,251c8.62-5.68,17.21-11,25.74-15.63-8.68-5.84-17.38-12.14-26.05-18.63-8.48,4.93-17,10.41-25.6,16.19C180.05,239.11,188.7,245.21,197.32,251Z"/><path class="cls-7" d="M166.85,232.78c-8.64-6.21-17.26-12.51-25.83-18.63-8.57,6.12-17.19,12.42-25.83,18.63,8.59,5.85,17.21,11.95,25.83,18.07C149.64,244.73,158.26,238.63,166.85,232.78Z"/><path class="cls-7" d="M171.41,272.05c8.58,5.78,17.12,11.26,25.6,16.19,8.67-6.49,17.37-12.78,26.05-18.63-8.53-4.65-17.12-9.95-25.74-15.63C188.7,259.73,180.05,265.83,171.41,272.05Z"/><path class="cls-7" d="M143.29,292.4c8.57,6.08,17.08,12,25.52,17.39,8.59-6.61,17.23-13.31,25.9-19.83-8.47-5-17-10.46-25.59-16.26C160.49,279.93,151.87,286.25,143.29,292.4Z"/><path class="cls-7" d="M166.85,272.16c-8.59-5.85-17.21-12-25.83-18.07-8.62,6.12-17.24,12.22-25.83,18.07,8.64,6.22,17.26,12.51,25.83,18.63C149.59,284.67,158.21,278.38,166.85,272.16Z"/><path class="cls-8" d="M230,265.07c-1.53,1-3.07,2-4.62,3-8.53-4.64-17.13-9.93-25.75-15.6,8.62-5.67,17.22-11,25.75-15.6l2.53,1.64q-.52-2.58-1.16-5.12c-.47.25-.94.47-1.4.72-8.7-5.86-17.4-12.18-26.07-18.7q8.36-4.77,16.62-8.69c-.45-.77-.89-1.53-1.35-2.28q-8.73,4.13-17.58,9.24c-8.67-6.56-17.32-13.29-25.91-20,7.66-4.85,15.24-9.28,22.73-13.14-.78-.64-1.57-1.26-2.37-1.87-7.46,3.91-15,8.37-22.63,13.25-8.58-6.64-17.1-13.19-25.52-19.36q7-5,13.84-9.62c-1.26-.25-2.53-.48-3.81-.68Q147.19,166.48,141,171q-6.17-4.48-12.26-8.67c-1.28.2-2.55.43-3.81.68q6.87,4.59,13.84,9.62c-8.42,6.17-16.94,12.72-25.52,19.36-7.62-4.88-15.17-9.34-22.63-13.25-.8.61-1.59,1.23-2.37,1.87,7.49,3.86,15.07,8.29,22.73,13.14-8.59,6.66-17.24,13.39-25.91,20q-8.85-5.1-17.58-9.24c-.46.75-.9,1.51-1.35,2.28q8.27,3.92,16.63,8.69c-8.68,6.52-17.38,12.84-26.08,18.7-.46-.25-.93-.47-1.39-.72q-.65,2.54-1.18,5.12c.85-.54,1.69-1.08,2.53-1.64,8.54,4.64,17.14,9.93,25.76,15.6-8.62,5.67-17.22,11-25.76,15.6-1.53-1-3.08-2-4.61-3,0,.93.11,1.86.17,2.79l2.18,1.43-2,1c.08.87.19,1.72.29,2.59,1.34-.69,2.68-1.36,4-2.08,8.7,5.86,17.4,12.18,26.08,18.7a229.08,229.08,0,0,1-22.94,11.54c.33.81.66,1.63,1,2.43a229.49,229.49,0,0,0,24.23-12.23c8.67,6.55,17.32,13.28,25.91,19.94a286.83,286.83,0,0,1-25,14.31c-8.07-6.83-16.2-13.64-24.36-20.24.71,1.52,1.44,3,2.21,4.51,6.69,5.51,13.35,11.15,20,16.8-2.16,1.05-4.3,2-6.45,3,.65.73,1.31,1.44,2,2.15,2.25-1,4.5-2.06,6.77-3.17,8.61,7.36,17.16,14.73,25.6,21.82-1.14.69-2.28,1.35-3.41,2,1,.46,2.1.91,3.18,1.32.82-.49,1.63-.95,2.46-1.46,1.57,1.32,3.13,2.61,4.69,3.91,1.83.52,3.68,1,5.55,1.36-2.68-2.17-5.37-4.36-8.08-6.6,8.18-5.09,16.49-10.83,24.89-16.94,8.4,6.11,16.71,11.85,24.89,16.94-2.71,2.24-5.39,4.43-8.07,6.6,1.86-.4,3.71-.84,5.53-1.36,1.57-1.3,3.13-2.59,4.7-3.91.83.51,1.64,1,2.46,1.46,1.07-.41,2.13-.86,3.18-1.32-1.13-.66-2.27-1.32-3.41-2,8.44-7.09,17-14.46,25.6-21.82,2.27,1.11,4.52,2.17,6.77,3.17.66-.71,1.32-1.42,2-2.15-2.14-.94-4.28-1.93-6.44-3,6.62-5.65,13.28-11.29,20-16.8.77-1.48,1.5-3,2.2-4.51-8.16,6.6-16.28,13.41-24.34,20.24a285.49,285.49,0,0,1-25-14.31c8.59-6.66,17.24-13.39,25.91-19.94a228.53,228.53,0,0,0,24.23,12.23c.35-.8.67-1.62,1-2.43a228.81,228.81,0,0,1-22.92-11.54c8.67-6.52,17.37-12.84,26.07-18.7,1.34.72,2.68,1.39,4,2.08.09-.87.21-1.72.29-2.59l-2-1,2.18-1.43C229.87,266.93,229.94,266,230,265.07ZM197,216.7c8.67,6.49,17.37,12.79,26.05,18.63-8.53,4.66-17.12,9.95-25.74,15.63-8.62-5.75-17.27-11.85-25.91-18.07C180,227.11,188.53,221.63,197,216.7Zm-58.28,35.77c-8.62,6.12-17.24,12.22-25.83,18-8.63-6.2-17.27-12.3-25.9-18,8.63-5.74,17.27-11.84,25.9-18C121.49,240.26,130.11,246.36,138.73,252.47Zm-23.54-19.69c8.64-6.21,17.26-12.51,25.83-18.63,8.57,6.12,17.19,12.42,25.83,18.63-8.59,5.85-17.21,11.95-25.83,18.07C132.4,244.73,123.78,238.63,115.19,232.78ZM141,254.09c8.62,6.12,17.24,12.22,25.83,18.07-8.64,6.22-17.26,12.51-25.83,18.63-8.57-6.12-17.19-12.41-25.83-18.63C123.78,266.31,132.4,260.21,141,254.09Zm2.29-1.62c8.62-6.11,17.23-12.21,25.82-18,8.64,6.2,17.29,12.3,25.91,18-8.62,5.74-17.27,11.84-25.91,18C160.54,264.69,151.93,258.59,143.31,252.47Zm25.5-57.31c8.59,6.61,17.23,13.3,25.9,19.82-8.47,5-17,10.47-25.59,16.26-8.63-6.23-17.25-12.55-25.83-18.7C151.86,206.46,160.37,200.58,168.81,195.16ZM141,174.22c8.42,6.12,16.93,12.6,25.51,19.19-8.43,5.47-16.94,11.39-25.51,17.5-8.56-6.11-17.08-12-25.51-17.5C124.08,186.82,132.6,180.34,141,174.22Zm-27.79,20.94c8.44,5.42,17,11.3,25.52,17.38-8.57,6.15-17.2,12.47-25.83,18.7-8.58-5.79-17.12-11.3-25.59-16.26C96,208.46,104.65,201.77,113.23,195.16ZM59,235.33c8.68-5.84,17.37-12.14,26.05-18.63,8.47,4.93,17,10.41,25.6,16.19C102,239.11,93.34,245.22,84.71,251,76.1,245.28,67.51,240,59,235.33ZM85,288.24c-8.68-6.49-17.37-12.78-26.05-18.63C67.51,265,76.1,259.66,84.71,254c8.63,5.75,17.28,11.85,25.92,18.07C102.05,277.83,93.5,283.31,85,288.24Zm2.3,1.72c8.47-5,17-10.46,25.59-16.26,8.63,6.23,17.26,12.55,25.83,18.7-8.57,6.08-17.08,12-25.52,17.39C104.65,303.18,96,296.48,87.33,290Zm26.57,59.1c-8.44-7-17-14.3-25.59-21.61,8.22-4.18,16.55-9.09,25-14.48,8.58,6.64,17.1,13.18,25.52,19.36C130.39,338.38,122.08,344,113.9,349.06Zm1.61-37.53c8.43-5.47,17-11.38,25.51-17.5,8.57,6.12,17.08,12,25.51,17.5-8.58,6.59-17.09,13.08-25.51,19.19C132.6,324.61,124.08,318.12,115.51,311.53Zm78.22,15.92c-8.62,7.31-17.16,14.59-25.59,21.61-8.18-5-16.48-10.68-24.89-16.73,8.42-6.18,16.94-12.72,25.52-19.36C177.18,318.36,185.51,323.27,193.73,327.45Zm-24.92-17.66c-8.44-5.43-16.95-11.31-25.52-17.39,8.58-6.15,17.2-12.47,25.83-18.7,8.58,5.8,17.12,11.3,25.59,16.26C186,296.48,177.4,303.18,168.81,309.79ZM197,288.24c-8.48-4.93-17-10.41-25.6-16.19,8.64-6.22,17.29-12.32,25.91-18.07,8.62,5.68,17.21,11,25.74,15.63C214.38,275.46,205.68,281.75,197,288.24Z"/></g><g id="_1개-2" data-name="1개"><path class="cls-3" d="M352.15,360.26c-.47-15.32,23.46-30.64,23.46-30.64C358.37,323.23,341,339.83,341,339.83c-2.08-22.35,19.95-51.72,19.95-51.72C330.28,293.86,321,339.83,321,339.83s-9.26-46-39.91-51.72c0,0,22,29.37,19.95,51.72,0,0-17.4-16.6-34.63-10.21,0,0,23.93,15.32,23.46,30.64,0,0-13.25-10.21-32.4,0,0,0,32.88,8.94,31.77,39.59h63.53c-1.12-30.65,31.76-39.59,31.76-39.59C365.39,350.05,352.15,360.26,352.15,360.26Z"/><path class="cls-4" d="M384.55,360.26c-14.59-7.78-25.75-3.7-30.24-1.32a107.12,107.12,0,0,1-29.2,40.91h27.68C351.67,369.2,384.55,360.26,384.55,360.26Z"/><path class="cls-5" d="M410.09,487.32c0,54.66-39.88,99-89.07,99S232,542,232,487.32s39.88-99,89.07-99S410.09,432.66,410.09,487.32Z"/><path class="cls-6" d="M395.88,433.72a102.45,102.45,0,0,1,2.88,24c0,57.31-47.82,105.13-105.13,105.13a102.56,102.56,0,0,1-36.67-6.8c16.2,18.64,38.9,30.24,64.06,30.24,49.19,0,89.07-44.31,89.07-99A106.52,106.52,0,0,0,395.88,433.72Z"/><path class="cls-7" d="M318.75,439.54c-8.57-6.08-17.08-12-25.52-17.38-8.58,6.61-17.23,13.3-25.9,19.82,8.47,5,17,10.47,25.59,16.26C301.55,452,310.18,445.69,318.75,439.54Z"/><path class="cls-7" d="M346.53,420.41c-8.58-6.59-17.09-13.07-25.51-19.19-8.42,6.12-16.94,12.6-25.51,19.19,8.43,5.47,16.95,11.39,25.51,17.5C329.59,431.8,338.1,425.88,346.53,420.41Z"/><path class="cls-7" d="M323.25,559.33c8.41,6,16.71,11.71,24.89,16.73,8.43-7,17-14.3,25.59-21.61-8.22-4.18-16.55-9.09-25-14.48C340.19,546.61,331.67,553.15,323.25,559.33Z"/><path class="cls-7" d="M349.12,458.24c8.58-5.79,17.12-11.3,25.59-16.26-8.67-6.52-17.31-13.21-25.9-19.82-8.44,5.42-16.95,11.3-25.52,17.38C331.87,445.69,340.49,452,349.12,458.24Z"/><path class="cls-7" d="M375,479.47c-8.62-5.74-17.27-11.84-25.91-18-8.59,5.83-17.2,11.93-25.82,18,8.62,6.12,17.23,12.22,25.82,18C357.77,491.31,366.42,485.21,375,479.47Z"/><path class="cls-7" d="M321,521c-8.56,6.12-17.08,12-25.51,17.5,8.57,6.59,17.09,13.08,25.51,19.19,8.42-6.11,16.93-12.6,25.51-19.19C338.1,533.06,329.59,527.15,321,521Z"/><path class="cls-7" d="M268.31,554.45c8.61,7.31,17.15,14.59,25.59,21.61,8.18-5,16.49-10.68,24.89-16.73-8.42-6.18-16.94-12.72-25.52-19.36C284.86,545.36,276.53,550.27,268.31,554.45Z"/><path class="cls-7" d="M290.63,459.89c-8.58-5.78-17.13-11.26-25.6-16.19-8.68,6.49-17.37,12.79-26,18.63,8.53,4.66,17.12,9.95,25.73,15.63C273.34,472.22,282,466.11,290.63,459.89Z"/><path class="cls-7" d="M318.75,519.4c-8.57-6.15-17.2-12.47-25.83-18.7-8.58,5.8-17.12,11.3-25.59,16.26,8.67,6.52,17.32,13.22,25.9,19.83C301.67,531.36,310.18,525.48,318.75,519.4Z"/><path class="cls-7" d="M264.71,481c-8.61,5.68-17.2,11-25.73,15.63,8.68,5.85,17.37,12.14,26,18.63,8.47-4.93,17-10.41,25.6-16.19C282,492.83,273.34,486.73,264.71,481Z"/><path class="cls-7" d="M267,479.47c8.63,5.74,17.27,11.84,25.9,18,8.59-5.82,17.21-11.92,25.83-18-8.62-6.11-17.24-12.21-25.83-18C284.27,467.63,275.63,473.73,267,479.47Z"/><path class="cls-7" d="M377.32,478c8.62-5.68,17.21-11,25.74-15.63-8.68-5.84-17.38-12.14-26.05-18.63-8.48,4.93-17,10.41-25.6,16.19C360.05,466.11,368.7,472.21,377.32,478Z"/><path class="cls-7" d="M346.85,459.78c-8.64-6.21-17.26-12.51-25.83-18.63-8.57,6.12-17.19,12.42-25.83,18.63,8.59,5.85,17.21,12,25.83,18.07C329.64,471.73,338.26,465.63,346.85,459.78Z"/><path class="cls-7" d="M351.41,499.05c8.58,5.78,17.12,11.26,25.6,16.19,8.67-6.49,17.37-12.78,26.05-18.63-8.53-4.65-17.12-9.95-25.74-15.63C368.7,486.73,360.05,492.83,351.41,499.05Z"/><path class="cls-7" d="M323.29,519.4c8.57,6.08,17.08,12,25.52,17.39,8.59-6.61,17.23-13.31,25.9-19.83-8.47-5-17-10.46-25.59-16.26C340.49,506.93,331.87,513.25,323.29,519.4Z"/><path class="cls-7" d="M346.85,499.16c-8.59-5.85-17.21-12-25.83-18.07-8.62,6.12-17.24,12.22-25.83,18.07,8.64,6.22,17.26,12.51,25.83,18.63C329.59,511.67,338.21,505.38,346.85,499.16Z"/><path class="cls-8" d="M410,492.07c-1.53,1-3.07,2-4.62,3-8.53-4.64-17.13-9.93-25.75-15.6,8.62-5.67,17.22-11,25.75-15.6l2.53,1.64q-.52-2.58-1.16-5.12c-.47.25-.94.47-1.4.72-8.7-5.86-17.4-12.18-26.07-18.7q8.36-4.77,16.62-8.69c-.45-.77-.89-1.53-1.35-2.28q-8.73,4.13-17.58,9.24c-8.67-6.56-17.32-13.29-25.91-19.95,7.66-4.85,15.24-9.28,22.73-13.14-.78-.64-1.57-1.26-2.37-1.87-7.46,3.91-15,8.37-22.63,13.25-8.58-6.64-17.1-13.19-25.52-19.36q7-5,13.84-9.62c-1.26-.25-2.53-.48-3.81-.68Q327.19,393.48,321,398q-6.16-4.49-12.26-8.67c-1.28.2-2.55.43-3.81.68q6.87,4.59,13.84,9.62c-8.42,6.17-16.94,12.72-25.52,19.36-7.62-4.88-15.17-9.34-22.63-13.25-.8.61-1.59,1.23-2.37,1.87,7.49,3.86,15.07,8.29,22.73,13.14-8.59,6.66-17.24,13.39-25.91,19.95q-8.85-5.1-17.58-9.24c-.46.75-.9,1.51-1.35,2.28q8.26,3.91,16.63,8.69c-8.68,6.52-17.38,12.84-26.08,18.7-.46-.25-.93-.47-1.39-.72q-.65,2.53-1.18,5.12c.85-.54,1.69-1.08,2.53-1.64,8.54,4.64,17.14,9.93,25.76,15.6-8.62,5.67-17.22,11-25.76,15.6-1.53-1-3.08-2-4.61-3,0,.93.11,1.86.17,2.79l2.18,1.43-2,1c.08.87.19,1.72.29,2.59,1.34-.69,2.68-1.36,4-2.08,8.7,5.86,17.4,12.18,26.08,18.7a229.08,229.08,0,0,1-22.94,11.54c.33.81.66,1.63,1,2.43a229.49,229.49,0,0,0,24.23-12.23c8.67,6.55,17.32,13.28,25.91,19.94a286.83,286.83,0,0,1-25,14.31c-8.07-6.83-16.2-13.64-24.36-20.24.71,1.52,1.44,3,2.21,4.51,6.69,5.51,13.35,11.15,20,16.8-2.16,1-4.3,2-6.45,3,.65.73,1.31,1.44,2,2.15,2.25-1,4.5-2.06,6.77-3.17,8.61,7.36,17.16,14.73,25.6,21.82-1.14.69-2.28,1.35-3.41,2,1.05.46,2.1.91,3.18,1.32.82-.49,1.63-1,2.46-1.46,1.57,1.32,3.13,2.61,4.69,3.91,1.83.52,3.68,1,5.55,1.36-2.68-2.17-5.37-4.36-8.08-6.6,8.18-5.09,16.49-10.83,24.89-16.94,8.4,6.11,16.71,11.85,24.89,16.94-2.71,2.24-5.39,4.43-8.07,6.6,1.86-.4,3.71-.84,5.53-1.36,1.57-1.3,3.13-2.59,4.7-3.91.83.51,1.64,1,2.46,1.46,1.07-.41,2.13-.86,3.18-1.32-1.13-.66-2.27-1.32-3.41-2,8.44-7.09,17-14.46,25.6-21.82,2.27,1.11,4.52,2.17,6.77,3.17.66-.71,1.32-1.42,2-2.15-2.14-.94-4.28-1.93-6.44-3,6.62-5.65,13.28-11.29,20-16.8.77-1.48,1.5-3,2.2-4.51-8.16,6.6-16.28,13.41-24.34,20.24a285.49,285.49,0,0,1-25-14.31c8.59-6.66,17.24-13.39,25.91-19.94a228.53,228.53,0,0,0,24.23,12.23c.35-.8.67-1.62,1-2.43a228.81,228.81,0,0,1-22.92-11.54c8.67-6.52,17.37-12.84,26.07-18.7,1.34.72,2.68,1.39,4,2.08.09-.87.21-1.72.29-2.59l-2-1,2.18-1.43C409.87,493.93,409.94,493,410,492.07ZM377,443.7c8.67,6.49,17.37,12.79,26.05,18.63-8.53,4.66-17.12,9.95-25.74,15.63-8.62-5.75-17.27-11.85-25.91-18.07C360,454.11,368.53,448.63,377,443.7Zm-58.28,35.77c-8.62,6.12-17.24,12.22-25.83,18-8.63-6.2-17.27-12.3-25.9-18,8.63-5.74,17.27-11.84,25.9-18C301.49,467.26,310.11,473.36,318.73,479.47Zm-23.54-19.69c8.64-6.21,17.26-12.51,25.83-18.63,8.57,6.12,17.19,12.42,25.83,18.63-8.59,5.85-17.21,12-25.83,18.07C312.4,471.73,303.78,465.63,295.19,459.78ZM321,481.09c8.62,6.12,17.24,12.22,25.83,18.07-8.64,6.22-17.26,12.51-25.83,18.63-8.57-6.12-17.19-12.41-25.83-18.63C303.78,493.31,312.4,487.21,321,481.09Zm2.29-1.62c8.62-6.11,17.23-12.21,25.82-18,8.64,6.2,17.29,12.3,25.91,18-8.62,5.74-17.27,11.84-25.91,18C340.54,491.69,331.93,485.59,323.31,479.47Zm25.5-57.31c8.59,6.61,17.23,13.3,25.9,19.82-8.47,5-17,10.47-25.59,16.26-8.63-6.23-17.25-12.55-25.83-18.7C331.86,433.46,340.37,427.58,348.81,422.16ZM321,401.22c8.42,6.12,16.93,12.6,25.51,19.19-8.43,5.47-16.94,11.39-25.51,17.5-8.56-6.11-17.08-12-25.51-17.5C304.08,413.82,312.6,407.34,321,401.22Zm-27.79,20.94c8.44,5.42,16.95,11.3,25.52,17.38-8.57,6.15-17.2,12.47-25.83,18.7-8.58-5.79-17.12-11.3-25.59-16.26C276,435.46,284.65,428.77,293.23,422.16ZM239,462.33c8.68-5.84,17.37-12.14,26-18.63,8.47,4.93,17,10.41,25.6,16.19-8.64,6.22-17.29,12.33-25.92,18.07C256.1,472.28,247.51,467,239,462.33Zm26,52.91c-8.68-6.49-17.37-12.78-26-18.63,8.53-4.65,17.12-9.95,25.73-15.63,8.63,5.75,17.28,11.85,25.92,18.07C282.05,504.83,273.5,510.31,265,515.24Zm2.3,1.72c8.47-5,17-10.46,25.59-16.26,8.63,6.23,17.26,12.55,25.83,18.7-8.57,6.08-17.08,12-25.52,17.39C284.65,530.18,276,523.48,267.33,517Zm26.57,59.1c-8.44-7-17-14.3-25.59-21.61,8.22-4.18,16.55-9.09,25-14.48,8.58,6.64,17.1,13.18,25.52,19.36C310.39,565.38,302.08,571,293.9,576.06Zm1.61-37.53c8.43-5.47,16.95-11.38,25.51-17.5,8.57,6.12,17.08,12,25.51,17.5-8.58,6.59-17.09,13.08-25.51,19.19C312.6,551.61,304.08,545.12,295.51,538.53Zm78.22,15.92c-8.62,7.31-17.16,14.59-25.59,21.61-8.18-5-16.48-10.68-24.89-16.73,8.42-6.18,16.94-12.72,25.52-19.36C357.18,545.36,365.51,550.27,373.73,554.45Zm-24.92-17.66c-8.44-5.43-16.95-11.31-25.52-17.39,8.58-6.15,17.2-12.47,25.83-18.7,8.58,5.8,17.12,11.3,25.59,16.26C366,523.48,357.4,530.18,348.81,536.79ZM377,515.24c-8.48-4.93-17-10.41-25.6-16.19,8.64-6.22,17.29-12.32,25.91-18.07,8.62,5.68,17.21,11,25.74,15.63C394.38,502.46,385.68,508.75,377,515.24Z"/></g><g id="_1개-3" data-name="1개"><path class="cls-3" d="M536.15,599.26c-.47-15.32,23.46-30.64,23.46-30.64C542.37,562.23,525,578.83,525,578.83c-2.08-22.35,19.95-51.72,19.95-51.72C514.28,532.86,505,578.83,505,578.83s-9.26-46-39.91-51.72c0,0,22,29.37,19.95,51.72,0,0-17.4-16.6-34.63-10.21,0,0,23.93,15.32,23.46,30.64,0,0-13.25-10.21-32.4,0,0,0,32.88,8.94,31.77,39.59h63.53c-1.12-30.65,31.76-39.59,31.76-39.59C549.39,589.05,536.15,599.26,536.15,599.26Z"/><path class="cls-4" d="M568.55,599.26c-14.59-7.78-25.75-3.7-30.24-1.32a107.12,107.12,0,0,1-29.2,40.91h27.68C535.67,608.2,568.55,599.26,568.55,599.26Z"/><path class="cls-5" d="M594.09,726.32c0,54.66-39.88,99-89.07,99S416,781,416,726.32s39.88-99,89.07-99S594.09,671.66,594.09,726.32Z"/><path class="cls-6" d="M579.88,672.72a102.45,102.45,0,0,1,2.88,24c0,57.31-47.82,105.13-105.13,105.13a102.56,102.56,0,0,1-36.67-6.8c16.2,18.64,38.9,30.24,64.06,30.24,49.19,0,89.07-44.31,89.07-99A106.52,106.52,0,0,0,579.88,672.72Z"/><path class="cls-7" d="M502.75,678.54c-8.57-6.08-17.08-12-25.52-17.38-8.58,6.61-17.23,13.3-25.9,19.82,8.47,5,17,10.47,25.59,16.26C485.55,691,494.18,684.69,502.75,678.54Z"/><path class="cls-7" d="M530.53,659.41c-8.58-6.59-17.09-13.07-25.51-19.19-8.42,6.12-16.94,12.6-25.51,19.19,8.43,5.47,16.95,11.39,25.51,17.5C513.59,670.8,522.1,664.88,530.53,659.41Z"/><path class="cls-7" d="M507.25,798.33c8.41,6,16.71,11.71,24.89,16.73,8.43-7,17-14.3,25.59-21.61-8.22-4.18-16.55-9.09-25-14.48C524.19,785.61,515.67,792.15,507.25,798.33Z"/><path class="cls-7" d="M533.12,697.24c8.58-5.79,17.12-11.3,25.59-16.26-8.67-6.52-17.31-13.21-25.9-19.82-8.44,5.42-16.95,11.3-25.52,17.38C515.87,684.69,524.49,691,533.12,697.24Z"/><path class="cls-7" d="M559,718.47c-8.62-5.74-17.27-11.84-25.91-18-8.59,5.83-17.2,11.93-25.82,18,8.62,6.12,17.23,12.22,25.82,18C541.77,730.31,550.42,724.21,559,718.47Z"/><path class="cls-7" d="M505,760c-8.56,6.12-17.08,12-25.51,17.5,8.57,6.59,17.09,13.08,25.51,19.19,8.42-6.11,16.93-12.6,25.51-19.19C522.1,772.06,513.59,766.15,505,760Z"/><path class="cls-7" d="M452.31,793.45c8.61,7.31,17.15,14.59,25.59,21.61,8.18-5,16.49-10.68,24.89-16.73-8.42-6.18-16.94-12.72-25.52-19.36C468.86,784.36,460.53,789.27,452.31,793.45Z"/><path class="cls-7" d="M474.63,698.89c-8.58-5.78-17.13-11.26-25.6-16.19-8.68,6.49-17.37,12.79-26,18.63,8.53,4.66,17.12,9.95,25.73,15.63C457.34,711.22,466,705.11,474.63,698.89Z"/><path class="cls-7" d="M502.75,758.4c-8.57-6.15-17.2-12.47-25.83-18.7-8.58,5.8-17.12,11.3-25.59,16.26,8.67,6.52,17.32,13.22,25.9,19.83C485.67,770.36,494.18,764.48,502.75,758.4Z"/><path class="cls-7" d="M448.71,720c-8.61,5.68-17.2,11-25.73,15.63,8.68,5.85,17.37,12.14,26,18.63,8.47-4.93,17-10.41,25.6-16.19C466,731.83,457.34,725.73,448.71,720Z"/><path class="cls-7" d="M451,718.47c8.63,5.74,17.27,11.84,25.9,18,8.59-5.82,17.21-11.92,25.83-18-8.62-6.11-17.24-12.21-25.83-18C468.27,706.63,459.63,712.73,451,718.47Z"/><path class="cls-7" d="M561.32,717c8.62-5.68,17.21-11,25.74-15.63-8.68-5.84-17.38-12.14-26-18.63-8.48,4.93-17,10.41-25.6,16.19C544.05,705.11,552.7,711.21,561.32,717Z"/><path class="cls-7" d="M530.85,698.78c-8.64-6.21-17.26-12.51-25.83-18.63-8.57,6.12-17.19,12.42-25.83,18.63,8.59,5.85,17.21,12,25.83,18.07C513.64,710.73,522.26,704.63,530.85,698.78Z"/><path class="cls-7" d="M535.41,738.05c8.58,5.78,17.12,11.26,25.6,16.19,8.67-6.49,17.37-12.78,26-18.63-8.53-4.65-17.12-10-25.74-15.63C552.7,725.73,544.05,731.83,535.41,738.05Z"/><path class="cls-7" d="M507.29,758.4c8.57,6.08,17.08,12,25.52,17.39,8.59-6.61,17.23-13.31,25.9-19.83-8.47-5-17-10.46-25.59-16.26C524.49,745.93,515.87,752.25,507.29,758.4Z"/><path class="cls-7" d="M530.85,738.16c-8.59-5.85-17.21-11.95-25.83-18.07-8.62,6.12-17.24,12.22-25.83,18.07,8.64,6.22,17.26,12.51,25.83,18.63C513.59,750.67,522.21,744.38,530.85,738.16Z"/><path class="cls-8" d="M594,731.07c-1.53,1-3.07,2-4.62,3-8.53-4.64-17.13-9.93-25.75-15.6,8.62-5.67,17.22-11,25.75-15.6l2.53,1.64q-.52-2.58-1.16-5.12c-.47.25-.94.47-1.4.72-8.7-5.86-17.4-12.18-26.07-18.7q8.36-4.77,16.62-8.69c-.45-.77-.89-1.53-1.35-2.28q-8.73,4.13-17.58,9.24c-8.67-6.56-17.32-13.29-25.91-19.95,7.66-4.85,15.24-9.28,22.73-13.14-.78-.64-1.57-1.26-2.37-1.87-7.46,3.91-15,8.37-22.63,13.25-8.58-6.64-17.1-13.19-25.52-19.36q7-5,13.84-9.62c-1.26-.25-2.53-.48-3.81-.68Q511.19,632.48,505,637q-6.16-4.49-12.26-8.67c-1.28.2-2.55.43-3.81.68q6.87,4.59,13.84,9.62c-8.42,6.17-16.94,12.72-25.52,19.36-7.62-4.88-15.17-9.34-22.63-13.25-.8.61-1.59,1.23-2.37,1.87,7.49,3.86,15.07,8.29,22.73,13.14-8.59,6.66-17.24,13.39-25.91,19.95q-8.85-5.1-17.58-9.24c-.46.75-.9,1.51-1.35,2.28q8.26,3.91,16.63,8.69c-8.68,6.52-17.38,12.84-26.08,18.7-.46-.25-.93-.47-1.39-.72q-.65,2.54-1.18,5.12c.85-.54,1.69-1.08,2.53-1.64,8.54,4.64,17.14,9.93,25.76,15.6-8.62,5.67-17.22,11-25.76,15.6-1.53-1-3.08-2-4.61-3,0,.93.11,1.86.17,2.79l2.18,1.43-2,1c.08.87.19,1.72.29,2.59,1.34-.69,2.68-1.36,4-2.08,8.7,5.86,17.4,12.18,26.08,18.7a229.08,229.08,0,0,1-22.94,11.54c.33.81.66,1.63,1,2.43a229.49,229.49,0,0,0,24.23-12.23c8.67,6.55,17.32,13.28,25.91,19.94a286.83,286.83,0,0,1-25,14.31c-8.07-6.83-16.2-13.64-24.36-20.24.71,1.52,1.44,3,2.21,4.51,6.69,5.51,13.35,11.15,20,16.8-2.16,1-4.3,2-6.45,3,.65.73,1.31,1.44,2,2.15,2.25-1,4.5-2.06,6.77-3.17,8.61,7.36,17.16,14.73,25.6,21.82-1.14.69-2.28,1.35-3.41,2,1.05.46,2.1.91,3.18,1.32.82-.49,1.63-1,2.46-1.46,1.57,1.32,3.13,2.61,4.69,3.91,1.83.52,3.68,1,5.55,1.36-2.68-2.17-5.37-4.36-8.08-6.6,8.18-5.09,16.49-10.83,24.89-16.94,8.4,6.11,16.71,11.85,24.89,16.94-2.71,2.24-5.39,4.43-8.07,6.6,1.86-.4,3.71-.84,5.53-1.36,1.57-1.3,3.13-2.59,4.7-3.91.83.51,1.64,1,2.46,1.46,1.07-.41,2.13-.86,3.18-1.32-1.13-.66-2.27-1.32-3.41-2,8.44-7.09,17-14.46,25.6-21.82,2.27,1.11,4.52,2.17,6.77,3.17.66-.71,1.32-1.42,2-2.15-2.14-.94-4.28-1.93-6.44-3,6.62-5.65,13.28-11.29,20-16.8.77-1.48,1.5-3,2.2-4.51-8.16,6.6-16.28,13.41-24.34,20.24a285.49,285.49,0,0,1-25-14.31c8.59-6.66,17.24-13.39,25.91-19.94a228.53,228.53,0,0,0,24.23,12.23c.35-.8.67-1.62,1-2.43a228.81,228.81,0,0,1-22.92-11.54c8.67-6.52,17.37-12.84,26.07-18.7,1.34.72,2.68,1.39,4,2.08.09-.87.21-1.72.29-2.59l-2-1,2.18-1.43C593.87,732.93,593.94,732,594,731.07ZM561,682.7c8.67,6.49,17.37,12.79,26,18.63-8.53,4.66-17.12,9.95-25.74,15.63-8.62-5.75-17.27-11.85-25.91-18.07C544,693.11,552.53,687.63,561,682.7Zm-58.28,35.77c-8.62,6.12-17.24,12.22-25.83,18-8.63-6.2-17.27-12.3-25.9-18,8.63-5.74,17.27-11.84,25.9-18C485.49,706.26,494.11,712.36,502.73,718.47Zm-23.54-19.69c8.64-6.21,17.26-12.51,25.83-18.63,8.57,6.12,17.19,12.42,25.83,18.63-8.59,5.85-17.21,12-25.83,18.07C496.4,710.73,487.78,704.63,479.19,698.78ZM505,720.09c8.62,6.12,17.24,12.22,25.83,18.07-8.64,6.22-17.26,12.51-25.83,18.63-8.57-6.12-17.19-12.41-25.83-18.63C487.78,732.31,496.4,726.21,505,720.09Zm2.29-1.62c8.62-6.11,17.23-12.21,25.82-18,8.64,6.2,17.29,12.3,25.91,18-8.62,5.74-17.27,11.84-25.91,18C524.54,730.69,515.93,724.59,507.31,718.47Zm25.5-57.31c8.59,6.61,17.23,13.3,25.9,19.82-8.47,5-17,10.47-25.59,16.26-8.63-6.23-17.25-12.55-25.83-18.7C515.86,672.46,524.37,666.58,532.81,661.16ZM505,640.22c8.42,6.12,16.93,12.6,25.51,19.19-8.43,5.47-16.94,11.39-25.51,17.5-8.56-6.11-17.08-12-25.51-17.5C488.08,652.82,496.6,646.34,505,640.22Zm-27.79,20.94c8.44,5.42,16.95,11.3,25.52,17.38-8.57,6.15-17.2,12.47-25.83,18.7-8.58-5.79-17.12-11.3-25.59-16.26C460,674.46,468.65,667.77,477.23,661.16ZM423,701.33c8.68-5.84,17.37-12.14,26-18.63,8.47,4.93,17,10.41,25.6,16.19-8.64,6.22-17.29,12.33-25.92,18.07C440.1,711.28,431.51,706,423,701.33Zm26,52.91c-8.68-6.49-17.37-12.78-26-18.63,8.53-4.65,17.12-10,25.73-15.63,8.63,5.75,17.28,11.85,25.92,18.07C466.05,743.83,457.5,749.31,449,754.24Zm2.3,1.72c8.47-5,17-10.46,25.59-16.26,8.63,6.23,17.26,12.55,25.83,18.7-8.57,6.08-17.08,12-25.52,17.39C468.65,769.18,460,762.48,451.33,756Zm26.57,59.1c-8.44-7-17-14.3-25.59-21.61,8.22-4.18,16.55-9.09,25-14.48,8.58,6.64,17.1,13.18,25.52,19.36C494.39,804.38,486.08,810,477.9,815.06Zm1.61-37.53c8.43-5.47,16.95-11.38,25.51-17.5,8.57,6.12,17.08,12,25.51,17.5-8.58,6.59-17.09,13.08-25.51,19.19C496.6,790.61,488.08,784.12,479.51,777.53Zm78.22,15.92c-8.62,7.31-17.16,14.59-25.59,21.61-8.18-5-16.48-10.68-24.89-16.73,8.42-6.18,16.94-12.72,25.52-19.36C541.18,784.36,549.51,789.27,557.73,793.45Zm-24.92-17.66c-8.44-5.43-16.95-11.31-25.52-17.39,8.58-6.15,17.2-12.47,25.83-18.7,8.58,5.8,17.12,11.3,25.59,16.26C550,762.48,541.4,769.18,532.81,775.79ZM561,754.24c-8.48-4.93-17-10.41-25.6-16.19,8.64-6.22,17.29-12.32,25.91-18.07,8.62,5.68,17.21,11,25.74,15.63C578.38,741.46,569.68,747.75,561,754.24Z"/></g></g></g></g></svg>