<svg xmlns="http://www.w3.org/2000/svg" viewBox="0 0 643 885"><defs><style>.cls-1{isolation:isolate;}.cls-2{fill:#fff;}.cls-3,.cls-4{fill:#5d9c4d;}.cls-4,.cls-6{opacity:0.3;mix-blend-mode:multiply;}.cls-5,.cls-6{fill:#a6613a;}.cls-7{fill:none;}.cls-8{fill:#8c5231;}</style></defs><title>pineapple_1</title><g class="cls-1"><g id="레이어_1" data-name="레이어 1"><rect class="cls-2" width="643" height="885" rx="50"/><g id="_1개" data-name="1개"><path class="cls-3" d="M362.6,345.71c-.59-19.08,29.21-38.16,29.21-38.16-21.46-7.95-43.12,12.72-43.12,12.72-2.58-27.83,24.84-64.4,24.84-64.4-38.15,7.16-49.69,64.4-49.69,64.4s-11.53-57.24-49.69-64.4c0,0,27.42,36.57,24.84,64.4,0,0-21.66-20.67-43.12-12.72,0,0,29.8,19.08,29.21,38.16,0,0-16.49-12.72-40.34,0,0,0,40.95,11.13,39.55,49.29h79.1c-1.39-38.16,39.55-49.29,39.55-49.29C379.09,333,362.6,345.71,362.6,345.71Z"/><path class="cls-4" d="M402.94,345.71c-18.17-9.69-32.06-4.62-37.65-1.65A133.42,133.42,0,0,1,328.93,395h34.46C362,356.84,402.94,345.71,402.94,345.71Z"/><path class="cls-5" d="M434.75,503.91c0,68.06-49.66,123.23-110.91,123.23S212.94,572,212.94,503.91s49.65-123.22,110.9-123.22S434.75,435.86,434.75,503.91Z"/><path class="cls-6" d="M417.05,437.18a127.28,127.28,0,0,1,3.59,29.87c0,71.36-59.55,130.9-130.9,130.9a128,128,0,0,1-45.66-8.46c20.17,23.2,48.44,37.65,79.76,37.65,61.25,0,110.91-55.17,110.91-123.23A132.61,132.61,0,0,0,417.05,437.18Z"/><path class="cls-7" d="M321,444.42c-10.66-7.58-21.26-14.9-31.77-21.65C278.55,431,267.79,439.34,257,447.46c10.55,6.17,21.18,13,31.86,20.24C299.6,459.94,310.34,452.07,321,444.42Z"/><path class="cls-7" d="M355.6,420.59c-10.67-8.2-21.27-16.27-31.76-23.89-10.48,7.62-21.09,15.69-31.76,23.89,10.5,6.82,21.1,14.19,31.76,21.8C334.51,434.78,345.11,427.41,355.6,420.59Z"/><path class="cls-7" d="M326.62,593.57c10.47,7.53,20.81,14.58,31,20.83,10.5-8.74,21.13-17.81,31.86-26.9-10.23-5.21-20.6-11.33-31.08-18C347.71,577.74,337.11,585.88,326.62,593.57Z"/><path class="cls-7" d="M358.83,467.7c10.68-7.21,21.31-14.07,31.86-20.24-10.8-8.12-21.56-16.46-32.25-24.69-10.5,6.75-21.11,14.07-31.77,21.65C337.35,452.07,348.08,459.94,358.83,467.7Z"/><path class="cls-7" d="M391.1,494.14c-10.73-7.15-21.5-14.75-32.25-22.47-10.7,7.26-21.43,14.85-32.16,22.47,10.73,7.61,21.46,15.2,32.16,22.46C369.6,508.88,380.37,501.28,391.1,494.14Z"/><path class="cls-7" d="M323.84,545.88c-10.66,7.61-21.26,15-31.76,21.79,10.67,8.21,21.28,16.28,31.76,23.9,10.49-7.62,21.09-15.69,31.76-23.9C345.11,560.86,334.51,553.49,323.84,545.88Z"/><path class="cls-7" d="M258.22,587.5c10.72,9.09,21.35,18.16,31.85,26.9,10.19-6.25,20.53-13.3,31-20.83-10.48-7.69-21.08-15.83-31.77-24.1C278.82,576.17,268.44,582.29,258.22,587.5Z"/><path class="cls-7" d="M286,469.76c-10.68-7.2-21.32-14-31.87-20.16-10.8,8.08-21.63,15.92-32.44,23.19,10.62,5.8,21.32,12.39,32.05,19.46C264.48,485.1,275.25,477.5,286,469.76Z"/><path class="cls-7" d="M321,543.86c-10.67-7.66-21.41-15.53-32.16-23.29-10.68,7.21-21.31,14.07-31.86,20.25,10.8,8.12,21.56,16.45,32.25,24.68C299.75,558.75,310.35,551.43,321,543.86Z"/><path class="cls-7" d="M253.74,496c-10.73,7.07-21.43,13.66-32.05,19.46,10.81,7.27,21.64,15.11,32.44,23.19,10.55-6.14,21.19-13,31.87-20.16C275.25,510.77,264.48,503.17,253.74,496Z"/><path class="cls-7" d="M256.58,494.14c10.74,7.14,21.51,14.74,32.26,22.46,10.69-7.26,21.42-14.85,32.15-22.46-10.73-7.62-21.46-15.21-32.15-22.47C278.09,479.39,267.32,487,256.58,494.14Z"/><path class="cls-7" d="M393.94,492.25c10.73-7.07,21.43-13.66,32.05-19.46-10.81-7.27-21.64-15.11-32.43-23.19-10.56,6.14-21.2,13-31.88,20.16C372.43,477.5,383.2,485.1,393.94,492.25Z"/><path class="cls-7" d="M356,469.62c-10.75-7.74-21.48-15.58-32.16-23.19-10.67,7.61-21.41,15.45-32.15,23.19,10.69,7.28,21.42,14.88,32.15,22.5C334.57,484.5,345.31,476.9,356,469.62Z"/><path class="cls-7" d="M361.68,518.51c10.68,7.2,21.32,14,31.88,20.16,10.79-8.08,21.62-15.92,32.43-23.19-10.62-5.8-21.32-12.39-32.05-19.46C383.2,503.17,372.43,510.77,361.68,518.51Z"/><path class="cls-7" d="M326.67,543.86c10.66,7.57,21.27,14.89,31.77,21.64,10.69-8.23,21.45-16.56,32.25-24.68-10.55-6.18-21.18-13-31.86-20.25C348.08,528.33,337.35,536.2,326.67,543.86Z"/><path class="cls-7" d="M356,518.65c-10.69-7.28-21.43-14.88-32.16-22.49-10.73,7.61-21.46,15.21-32.15,22.49,10.74,7.74,21.48,15.58,32.15,23.19C334.52,534.23,345.25,526.39,356,518.65Z"/><path class="cls-8" d="M434.61,509.82c-1.91,1.23-3.83,2.47-5.75,3.74-10.63-5.77-21.34-12.36-32.07-19.42,10.73-7.07,21.44-13.66,32.07-19.43,1.05.7,2.1,1.37,3.15,2.05q-.66-3.22-1.46-6.38l-1.74.9C418,464,407.16,456.11,396.35,448q10.41-5.94,20.7-10.82c-.56-.95-1.11-1.91-1.69-2.84q-10.86,5.15-21.88,11.5c-10.8-8.16-21.56-16.54-32.26-24.83,9.54-6.05,19-11.55,28.3-16.37-1-.79-1.95-1.57-2.95-2.33-9.29,4.87-18.68,10.43-28.18,16.5-10.68-8.27-21.28-16.41-31.77-24.1q8.69-6.26,17.23-12c-1.57-.32-3.15-.61-4.75-.86q-7.58,5.2-15.26,10.8-7.68-5.6-15.26-10.8c-1.59.25-3.18.54-4.74.86q8.55,5.72,17.22,12c-10.48,7.69-21.08,15.83-31.77,24.1-9.49-6.07-18.89-11.63-28.18-16.5-1,.76-2,1.54-2.95,2.33,9.33,4.82,18.77,10.32,28.3,16.37-10.69,8.29-21.46,16.67-32.26,24.83q-11-6.33-21.88-11.5c-.58.93-1.13,1.89-1.68,2.84Q240.92,442,251.34,448c-10.81,8.12-21.65,16-32.47,23.29l-1.74-.9q-.8,3.15-1.46,6.38c1.05-.68,2.1-1.35,3.15-2.05,10.63,5.77,21.34,12.36,32.07,19.43-10.73,7.06-21.44,13.65-32.07,19.42-1.91-1.27-3.83-2.51-5.75-3.74.05,1.17.14,2.32.22,3.48.91.59,1.81,1.17,2.71,1.77-.83.45-1.67.86-2.5,1.29.1,1.08.24,2.15.36,3.22,1.67-.85,3.34-1.69,5-2.58,10.82,7.29,21.66,15.16,32.47,23.28a284.89,284.89,0,0,1-28.56,14.37c.41,1,.81,2,1.25,3a283.71,283.71,0,0,0,30.17-15.23c10.8,8.16,21.57,16.54,32.26,24.83a357.34,357.34,0,0,1-31.09,17.82c-10-8.5-20.16-17-30.32-25.2.87,1.89,1.79,3.77,2.75,5.61,8.32,6.87,16.62,13.89,24.86,20.92-2.69,1.31-5.36,2.54-8,3.71.81.91,1.63,1.8,2.46,2.68q4.18-1.86,8.42-3.95C266.24,598,276.87,607.2,287.38,616c-1.42.85-2.83,1.68-4.25,2.5q2,.87,4,1.65c1-.61,2-1.19,3.07-1.82,2,1.64,3.9,3.25,5.85,4.86,2.27.66,4.57,1.2,6.9,1.69q-5-4-10.06-8.21c10.18-6.34,20.53-13.48,31-21.1,10.46,7.62,20.81,14.76,31,21.1q-5.06,4.18-10.05,8.21c2.32-.49,4.62-1,6.89-1.69,1.95-1.61,3.89-3.22,5.85-4.86,1,.63,2,1.21,3.07,1.82q2-.78,4-1.65-2.12-1.23-4.25-2.5c10.51-8.83,21.15-18,31.88-27.17q4.23,2.08,8.42,3.95c.83-.88,1.64-1.77,2.45-2.68-2.67-1.17-5.34-2.4-8-3.71,8.25-7,16.54-14,24.86-20.92,1-1.84,1.88-3.72,2.75-5.61-10.16,8.21-20.27,16.7-30.31,25.2a356,356,0,0,1-31.1-17.82c10.7-8.29,21.46-16.67,32.26-24.83a283.71,283.71,0,0,0,30.17,15.23c.44-1,.84-2,1.25-3a284.75,284.75,0,0,1-28.55-14.37c10.8-8.12,21.64-16,32.46-23.28,1.67.89,3.34,1.73,5,2.58.12-1.07.26-2.14.36-3.22-.83-.43-1.67-.84-2.5-1.29.9-.6,1.8-1.18,2.71-1.77C434.47,512.14,434.56,511,434.61,509.82ZM393.56,449.6c10.79,8.08,21.62,15.92,32.43,23.19-10.62,5.8-21.32,12.39-32.05,19.46-10.74-7.15-21.51-14.75-32.26-22.49C372.36,462.56,383,455.74,393.56,449.6ZM321,494.14c-10.73,7.61-21.46,15.2-32.15,22.46-10.75-7.72-21.52-15.32-32.26-22.46,10.74-7.15,21.51-14.75,32.26-22.47C299.53,478.93,310.26,486.52,321,494.14Zm-29.3-24.52c10.74-7.74,21.48-15.58,32.15-23.19,10.68,7.61,21.41,15.45,32.16,23.19-10.69,7.28-21.43,14.88-32.16,22.5C313.11,484.5,302.38,476.9,291.69,469.62Zm32.15,26.54c10.73,7.61,21.47,15.21,32.16,22.49-10.75,7.74-21.48,15.58-32.16,23.19-10.67-7.61-21.41-15.45-32.15-23.19C302.38,511.37,313.11,503.77,323.84,496.16Zm2.85-2c10.73-7.62,21.46-15.21,32.16-22.47,10.75,7.72,21.52,15.32,32.25,22.47-10.73,7.14-21.5,14.74-32.25,22.46C348.15,509.34,337.42,501.75,326.69,494.14Zm31.75-71.37c10.69,8.23,21.45,16.57,32.25,24.69-10.55,6.17-21.18,13-31.86,20.24-10.75-7.76-21.48-15.63-32.16-23.28C337.33,436.84,347.94,429.52,358.44,422.77Zm-34.6-26.07c10.49,7.62,21.09,15.69,31.76,23.89-10.49,6.82-21.09,14.19-31.76,21.8-10.66-7.61-21.26-15-31.76-21.8C302.75,412.39,313.36,404.32,323.84,396.7Zm-34.6,26.07c10.51,6.75,21.11,14.07,31.77,21.65-10.67,7.65-21.41,15.52-32.16,23.28-10.68-7.21-21.31-14.07-31.86-20.24C267.79,439.34,278.55,431,289.24,422.77Zm-67.55,50c10.81-7.27,21.64-15.11,32.44-23.19,10.55,6.14,21.19,13,31.87,20.16-10.75,7.74-21.52,15.34-32.26,22.49C243,485.18,232.31,478.59,221.69,472.79Zm32.44,65.88c-10.8-8.08-21.63-15.92-32.44-23.19,10.62-5.8,21.32-12.39,32.05-19.46,10.74,7.15,21.51,14.75,32.26,22.49C275.32,525.71,264.68,532.53,254.13,538.67Zm2.86,2.15c10.55-6.18,21.18-13,31.86-20.25,10.75,7.76,21.49,15.63,32.16,23.29-10.66,7.57-21.26,14.89-31.77,21.64C278.55,557.27,267.79,548.94,257,540.82Zm33.08,73.58c-10.5-8.74-21.13-17.81-31.85-26.9,10.22-5.21,20.6-11.33,31.07-18,10.69,8.27,21.29,16.41,31.77,24.1C310.6,601.1,300.26,608.15,290.07,614.4Zm2-46.73c10.5-6.81,21.1-14.18,31.76-21.79,10.67,7.61,21.27,15,31.76,21.79-10.67,8.21-21.27,16.28-31.76,23.9C313.36,584,302.75,575.88,292.08,567.67Zm97.39,19.83c-10.73,9.09-21.36,18.16-31.86,26.9-10.18-6.25-20.52-13.3-31-20.83,10.49-7.69,21.09-15.83,31.77-24.1C368.87,576.17,379.24,582.29,389.47,587.5Zm-31-22c-10.5-6.75-21.11-14.07-31.77-21.64,10.68-7.66,21.41-15.53,32.16-23.29,10.68,7.21,21.31,14.07,31.86,20.25C379.89,548.94,369.13,557.27,358.44,565.5Zm35.12-26.83c-10.56-6.14-21.2-13-31.88-20.16,10.75-7.74,21.52-15.34,32.26-22.49,10.73,7.07,21.43,13.66,32.05,19.46C415.18,522.75,404.35,530.59,393.56,538.67Z"/></g></g></g></svg>