<svg xmlns="http://www.w3.org/2000/svg" viewBox="0 0 643 885"><defs><style>.cls-1{isolation:isolate;}.cls-2{fill:#fff;}.cls-3,.cls-4{fill:#5d9c4d;}.cls-4,.cls-6{opacity:0.3;mix-blend-mode:multiply;}.cls-5,.cls-6{fill:#a6613a;}.cls-7{fill:none;}.cls-8{fill:#8c5231;}</style></defs><title>pineapple_2</title><g class="cls-1"><g id="레이어_1" data-name="레이어 1"><rect class="cls-2" width="643" height="885" rx="50"/><g id="_2개" data-name="2개"><path class="cls-3" d="M240.6,152.71c-.59-19.08,29.21-38.16,29.21-38.16-21.46-8-43.12,12.72-43.12,12.72-2.58-27.83,24.84-64.4,24.84-64.4-38.15,7.16-49.69,64.4-49.69,64.4S190.31,70,152.15,62.87c0,0,27.42,36.57,24.84,64.4,0,0-21.66-20.67-43.12-12.72,0,0,29.8,19.08,29.21,38.16,0,0-16.49-12.72-40.34,0,0,0,41,11.13,39.55,49.29h79.1c-1.39-38.16,39.55-49.29,39.55-49.29C257.09,140,240.6,152.71,240.6,152.71Z"/><path class="cls-4" d="M280.94,152.71c-18.17-9.69-32.06-4.62-37.65-1.65A133.42,133.42,0,0,1,206.93,202h34.46C240,163.84,280.94,152.71,280.94,152.71Z"/><path class="cls-5" d="M312.75,310.91c0,68.06-49.66,123.23-110.91,123.23S90.94,379,90.94,310.91s49.65-123.22,110.9-123.22S312.75,242.86,312.75,310.91Z"/><path class="cls-6" d="M295.05,244.18a127.28,127.28,0,0,1,3.59,29.87c0,71.36-59.55,130.9-130.9,130.9a128,128,0,0,1-45.66-8.46c20.17,23.2,48.44,37.65,79.76,37.65,61.25,0,110.91-55.17,110.91-123.23A132.61,132.61,0,0,0,295.05,244.18Z"/><path class="cls-7" d="M199,251.42c-10.66-7.58-21.26-14.9-31.77-21.65C156.55,238,145.79,246.34,135,254.46c10.55,6.17,21.18,13,31.86,20.24C177.6,266.94,188.34,259.07,199,251.42Z"/><path class="cls-7" d="M233.6,227.59c-10.67-8.2-21.27-16.27-31.76-23.89-10.48,7.62-21.09,15.69-31.76,23.89,10.5,6.82,21.1,14.19,31.76,21.8C212.51,241.78,223.11,234.41,233.6,227.59Z"/><path class="cls-7" d="M204.62,400.57c10.47,7.53,20.81,14.58,31,20.83,10.5-8.74,21.13-17.81,31.86-26.9-10.23-5.21-20.6-11.33-31.08-18C225.71,384.74,215.11,392.88,204.62,400.57Z"/><path class="cls-7" d="M236.83,274.7c10.68-7.21,21.31-14.07,31.86-20.24-10.8-8.12-21.56-16.46-32.25-24.69-10.5,6.75-21.11,14.07-31.77,21.65C215.35,259.07,226.08,266.94,236.83,274.7Z"/><path class="cls-7" d="M269.1,301.14c-10.73-7.15-21.5-14.75-32.25-22.47-10.7,7.26-21.43,14.85-32.16,22.47,10.73,7.61,21.46,15.2,32.16,22.46C247.6,315.88,258.37,308.28,269.1,301.14Z"/><path class="cls-7" d="M201.84,352.88c-10.66,7.61-21.26,15-31.76,21.79,10.67,8.21,21.28,16.28,31.76,23.9,10.49-7.62,21.09-15.69,31.76-23.9C223.11,367.86,212.51,360.49,201.84,352.88Z"/><path class="cls-7" d="M136.22,394.5c10.72,9.09,21.35,18.16,31.85,26.9,10.19-6.25,20.53-13.3,31-20.83-10.48-7.69-21.08-15.83-31.77-24.1C156.82,383.17,146.44,389.29,136.22,394.5Z"/><path class="cls-7" d="M164,276.76c-10.68-7.2-21.32-14-31.87-20.16-10.8,8.08-21.63,15.92-32.44,23.19,10.62,5.8,21.32,12.39,32.05,19.46C142.48,292.1,153.25,284.5,164,276.76Z"/><path class="cls-7" d="M199,350.86c-10.67-7.66-21.41-15.53-32.16-23.29-10.68,7.21-21.31,14.07-31.86,20.25,10.8,8.12,21.56,16.45,32.25,24.68C177.75,365.75,188.35,358.43,199,350.86Z"/><path class="cls-7" d="M131.74,303c-10.73,7.07-21.43,13.66-32.05,19.46,10.81,7.27,21.64,15.11,32.44,23.19,10.55-6.14,21.19-13,31.87-20.16C153.25,317.77,142.48,310.17,131.74,303Z"/><path class="cls-7" d="M134.58,301.14c10.74,7.14,21.51,14.74,32.26,22.46,10.69-7.26,21.42-14.85,32.15-22.46-10.73-7.62-21.46-15.21-32.15-22.47C156.09,286.39,145.32,294,134.58,301.14Z"/><path class="cls-7" d="M271.94,299.25c10.73-7.07,21.43-13.66,32.05-19.46-10.81-7.27-21.64-15.11-32.43-23.19-10.56,6.14-21.2,13-31.88,20.16C250.43,284.5,261.2,292.1,271.94,299.25Z"/><path class="cls-7" d="M234,276.62c-10.75-7.74-21.48-15.58-32.16-23.19-10.67,7.61-21.41,15.45-32.15,23.19,10.69,7.28,21.42,14.88,32.15,22.5C212.57,291.5,223.31,283.9,234,276.62Z"/><path class="cls-7" d="M239.68,325.51c10.68,7.2,21.32,14,31.88,20.16,10.79-8.08,21.62-15.92,32.43-23.19-10.62-5.8-21.32-12.39-32.05-19.46C261.2,310.17,250.43,317.77,239.68,325.51Z"/><path class="cls-7" d="M204.67,350.86c10.66,7.57,21.27,14.89,31.77,21.64,10.69-8.23,21.45-16.56,32.25-24.68-10.55-6.18-21.18-13-31.86-20.25C226.08,335.33,215.35,343.2,204.67,350.86Z"/><path class="cls-7" d="M234,325.65c-10.69-7.28-21.43-14.88-32.16-22.49-10.73,7.61-21.46,15.21-32.15,22.49,10.74,7.74,21.48,15.58,32.15,23.19C212.52,341.23,223.25,333.39,234,325.65Z"/><path class="cls-8" d="M312.61,316.82c-1.91,1.23-3.83,2.47-5.75,3.74-10.63-5.77-21.34-12.36-32.07-19.42,10.73-7.07,21.44-13.66,32.07-19.43,1.05.7,2.1,1.37,3.15,2.05q-.66-3.22-1.46-6.38l-1.74.9C296,271,285.16,263.11,274.35,255q10.41-5.94,20.7-10.82c-.56-.95-1.11-1.91-1.69-2.84q-10.86,5.14-21.88,11.5c-10.8-8.16-21.56-16.54-32.26-24.83,9.54-6.05,19-11.55,28.3-16.37-1-.79-1.95-1.57-2.95-2.33-9.29,4.87-18.68,10.43-28.18,16.5-10.68-8.27-21.28-16.41-31.77-24.1q8.69-6.25,17.23-12c-1.57-.32-3.15-.61-4.75-.86q-7.57,5.2-15.26,10.8-7.68-5.59-15.26-10.8c-1.59.25-3.18.54-4.74.86q8.55,5.72,17.22,12c-10.48,7.69-21.08,15.83-31.77,24.1-9.49-6.07-18.89-11.63-28.18-16.5-1,.76-2,1.54-3,2.33,9.33,4.82,18.77,10.32,28.3,16.37-10.69,8.29-21.46,16.67-32.26,24.83q-11-6.33-21.88-11.5c-.58.93-1.13,1.89-1.68,2.84Q118.92,249,129.34,255c-10.81,8.12-21.65,16-32.47,23.29l-1.74-.9q-.8,3.15-1.46,6.38c1-.68,2.1-1.35,3.15-2.05,10.63,5.77,21.34,12.36,32.07,19.43-10.73,7.06-21.44,13.65-32.07,19.42-1.91-1.27-3.83-2.51-5.75-3.74.05,1.17.14,2.32.22,3.48.91.59,1.81,1.17,2.71,1.77-.83.45-1.67.86-2.5,1.29.1,1.08.24,2.15.36,3.22,1.67-.85,3.34-1.69,5-2.58,10.82,7.29,21.66,15.16,32.47,23.28a284.89,284.89,0,0,1-28.56,14.37c.41,1,.81,2,1.25,3a283.71,283.71,0,0,0,30.17-15.23c10.8,8.16,21.57,16.54,32.26,24.83a357.34,357.34,0,0,1-31.09,17.82c-10-8.5-20.16-17-30.32-25.2.87,1.89,1.79,3.77,2.75,5.61,8.32,6.87,16.62,13.89,24.86,20.92-2.69,1.31-5.36,2.54-8,3.71.81.91,1.63,1.8,2.46,2.68q4.18-1.86,8.42-3.95C144.24,405,154.87,414.2,165.38,423c-1.42.85-2.83,1.68-4.25,2.5q2,.87,4,1.65c1-.61,2-1.19,3.07-1.82,2,1.64,3.9,3.25,5.85,4.86,2.27.66,4.57,1.2,6.9,1.69q-5-4-10.06-8.21c10.18-6.34,20.53-13.48,31-21.1,10.46,7.62,20.81,14.76,31,21.1q-5.06,4.19-10.05,8.21c2.32-.49,4.62-1,6.89-1.69,2-1.61,3.89-3.22,5.85-4.86,1,.63,2,1.21,3.07,1.82q2-.78,4-1.65-2.12-1.23-4.25-2.5c10.51-8.83,21.15-18,31.88-27.17q4.23,2.08,8.42,3.95c.83-.88,1.64-1.77,2.45-2.68-2.67-1.17-5.34-2.4-8-3.71,8.25-7,16.54-14.05,24.86-20.92,1-1.84,1.88-3.72,2.75-5.61-10.16,8.21-20.27,16.7-30.31,25.2a356,356,0,0,1-31.1-17.82c10.7-8.29,21.46-16.67,32.26-24.83a283.71,283.71,0,0,0,30.17,15.23c.44-1,.84-2,1.25-3a284.75,284.75,0,0,1-28.55-14.37c10.8-8.12,21.64-16,32.46-23.28,1.67.89,3.34,1.73,5,2.58.12-1.07.26-2.14.36-3.22-.83-.43-1.67-.84-2.5-1.29.9-.6,1.8-1.18,2.71-1.77C312.47,319.14,312.56,318,312.61,316.82ZM271.56,256.6c10.79,8.08,21.62,15.92,32.43,23.19-10.62,5.8-21.32,12.39-32.05,19.46-10.74-7.15-21.51-14.75-32.26-22.49C250.36,269.56,261,262.74,271.56,256.6ZM199,301.14c-10.73,7.61-21.46,15.2-32.15,22.46-10.75-7.72-21.52-15.32-32.26-22.46,10.74-7.15,21.51-14.75,32.26-22.47C177.53,285.93,188.26,293.52,199,301.14Zm-29.3-24.52c10.74-7.74,21.48-15.58,32.15-23.19,10.68,7.61,21.41,15.45,32.16,23.19-10.69,7.28-21.43,14.88-32.16,22.5C191.11,291.5,180.38,283.9,169.69,276.62Zm32.15,26.54c10.73,7.61,21.47,15.21,32.16,22.49-10.75,7.74-21.48,15.58-32.16,23.19-10.67-7.61-21.41-15.45-32.15-23.19C180.38,318.37,191.11,310.77,201.84,303.16Zm2.85-2c10.73-7.62,21.46-15.21,32.16-22.47,10.75,7.72,21.52,15.32,32.25,22.47-10.73,7.14-21.5,14.74-32.25,22.46C226.15,316.34,215.42,308.75,204.69,301.14Zm31.75-71.37c10.69,8.23,21.45,16.57,32.25,24.69-10.55,6.17-21.18,13-31.86,20.24-10.75-7.76-21.48-15.63-32.16-23.28C215.33,243.84,225.94,236.52,236.44,229.77Zm-34.6-26.07c10.49,7.62,21.09,15.69,31.76,23.89-10.49,6.82-21.09,14.19-31.76,21.8-10.66-7.61-21.26-15-31.76-21.8C180.75,219.39,191.36,211.32,201.84,203.7Zm-34.6,26.07c10.51,6.75,21.11,14.07,31.77,21.65-10.67,7.65-21.41,15.52-32.16,23.28-10.68-7.21-21.31-14.07-31.86-20.24C145.79,246.34,156.55,238,167.24,229.77Zm-67.55,50c10.81-7.27,21.64-15.11,32.44-23.19,10.55,6.14,21.19,13,31.87,20.16-10.75,7.74-21.52,15.34-32.26,22.49C121,292.18,110.31,285.59,99.69,279.79Zm32.44,65.88c-10.8-8.08-21.63-15.92-32.44-23.19,10.62-5.8,21.32-12.39,32.05-19.46,10.74,7.15,21.51,14.75,32.26,22.49C153.32,332.71,142.68,339.53,132.13,345.67Zm2.86,2.15c10.55-6.18,21.18-13,31.86-20.25,10.75,7.76,21.49,15.63,32.16,23.29-10.66,7.57-21.26,14.89-31.77,21.64C156.55,364.27,145.79,355.94,135,347.82Zm33.08,73.58c-10.5-8.74-21.13-17.81-31.85-26.9,10.22-5.21,20.6-11.33,31.07-18,10.69,8.27,21.29,16.41,31.77,24.1C188.6,408.1,178.26,415.15,168.07,421.4Zm2-46.73c10.5-6.81,21.1-14.18,31.76-21.79,10.67,7.61,21.27,15,31.76,21.79-10.67,8.21-21.27,16.28-31.76,23.9C191.36,391,180.75,382.88,170.08,374.67Zm97.39,19.83c-10.73,9.09-21.36,18.16-31.86,26.9-10.18-6.25-20.52-13.3-31-20.83,10.49-7.69,21.09-15.83,31.77-24.1C246.87,383.17,257.24,389.29,267.47,394.5Zm-31-22c-10.5-6.75-21.11-14.07-31.77-21.64,10.68-7.66,21.41-15.53,32.16-23.29,10.68,7.21,21.31,14.07,31.86,20.25C257.89,355.94,247.13,364.27,236.44,372.5Zm35.12-26.83c-10.56-6.14-21.2-13-31.88-20.16,10.75-7.74,21.52-15.34,32.26-22.49,10.73,7.07,21.43,13.66,32.05,19.46C293.18,329.75,282.35,337.59,271.56,345.67Z"/><path class="cls-3" d="M481.6,535.71c-.59-19.08,29.21-38.16,29.21-38.16-21.46-7.95-43.12,12.72-43.12,12.72-2.58-27.83,24.84-64.4,24.84-64.4-38.15,7.16-49.69,64.4-49.69,64.4s-11.53-57.24-49.69-64.4c0,0,27.42,36.57,24.84,64.4,0,0-21.66-20.67-43.12-12.72,0,0,29.8,19.08,29.21,38.16,0,0-16.49-12.72-40.34,0,0,0,40.95,11.13,39.55,49.29h79.1c-1.39-38.16,39.55-49.29,39.55-49.29C498.09,523,481.6,535.71,481.6,535.71Z"/><path class="cls-4" d="M521.94,535.71c-18.17-9.69-32.06-4.62-37.65-1.65A133.42,133.42,0,0,1,447.93,585h34.46C481,546.84,521.94,535.71,521.94,535.71Z"/><path class="cls-5" d="M553.75,693.91c0,68.06-49.66,123.23-110.91,123.23S331.94,762,331.94,693.91s49.65-123.22,110.9-123.22S553.75,625.86,553.75,693.91Z"/><path class="cls-6" d="M536.05,627.18a127.28,127.28,0,0,1,3.59,29.87c0,71.36-59.55,130.9-130.9,130.9a128,128,0,0,1-45.66-8.46c20.17,23.2,48.44,37.65,79.76,37.65,61.25,0,110.91-55.17,110.91-123.23A132.61,132.61,0,0,0,536.05,627.18Z"/><path class="cls-7" d="M440,634.42c-10.66-7.58-21.26-14.9-31.77-21.65C397.55,621,386.79,629.34,376,637.46c10.55,6.17,21.18,13,31.86,20.24C418.6,649.94,429.34,642.07,440,634.42Z"/><path class="cls-7" d="M474.6,610.59c-10.67-8.2-21.27-16.27-31.76-23.89-10.48,7.62-21.09,15.69-31.76,23.89,10.5,6.82,21.1,14.19,31.76,21.8C453.51,624.78,464.11,617.41,474.6,610.59Z"/><path class="cls-7" d="M445.62,783.57c10.47,7.53,20.81,14.58,31,20.83,10.5-8.74,21.13-17.81,31.86-26.9-10.23-5.21-20.6-11.33-31.08-18C466.71,767.74,456.11,775.88,445.62,783.57Z"/><path class="cls-7" d="M477.83,657.7c10.68-7.21,21.31-14.07,31.86-20.24-10.8-8.12-21.56-16.46-32.25-24.69-10.5,6.75-21.11,14.07-31.77,21.65C456.35,642.07,467.08,649.94,477.83,657.7Z"/><path class="cls-7" d="M510.1,684.14c-10.73-7.15-21.5-14.75-32.25-22.47-10.7,7.26-21.43,14.85-32.16,22.47,10.73,7.61,21.46,15.2,32.16,22.46C488.6,698.88,499.37,691.28,510.1,684.14Z"/><path class="cls-7" d="M442.84,735.88c-10.66,7.61-21.26,15-31.76,21.79,10.67,8.21,21.28,16.28,31.76,23.9,10.49-7.62,21.09-15.69,31.76-23.9C464.11,750.86,453.51,743.49,442.84,735.88Z"/><path class="cls-7" d="M377.22,777.5c10.72,9.09,21.35,18.16,31.85,26.9,10.19-6.25,20.53-13.3,31-20.83-10.48-7.69-21.08-15.83-31.77-24.1C397.82,766.17,387.44,772.29,377.22,777.5Z"/><path class="cls-7" d="M405,659.76c-10.68-7.2-21.32-14-31.87-20.16-10.8,8.08-21.63,15.92-32.44,23.19,10.62,5.8,21.32,12.39,32.05,19.46C383.48,675.1,394.25,667.5,405,659.76Z"/><path class="cls-7" d="M440,733.86c-10.67-7.66-21.41-15.53-32.16-23.29-10.68,7.21-21.31,14.07-31.86,20.25,10.8,8.12,21.56,16.45,32.25,24.68C418.75,748.75,429.35,741.43,440,733.86Z"/><path class="cls-7" d="M372.74,686c-10.73,7.07-21.43,13.66-32.05,19.46,10.81,7.27,21.64,15.11,32.44,23.19,10.55-6.14,21.19-13,31.87-20.16C394.25,700.77,383.48,693.17,372.74,686Z"/><path class="cls-7" d="M375.58,684.14c10.74,7.14,21.51,14.74,32.26,22.46,10.69-7.26,21.42-14.85,32.15-22.46-10.73-7.62-21.46-15.21-32.15-22.47C397.09,669.39,386.32,677,375.58,684.14Z"/><path class="cls-7" d="M512.94,682.25c10.73-7.07,21.43-13.66,32-19.46-10.81-7.27-21.64-15.11-32.43-23.19-10.56,6.14-21.2,13-31.88,20.16C491.43,667.5,502.2,675.1,512.94,682.25Z"/><path class="cls-7" d="M475,659.62c-10.75-7.74-21.48-15.58-32.16-23.19-10.67,7.61-21.41,15.45-32.15,23.19,10.69,7.28,21.42,14.88,32.15,22.5C453.57,674.5,464.31,666.9,475,659.62Z"/><path class="cls-7" d="M480.68,708.51c10.68,7.2,21.32,14,31.88,20.16,10.79-8.08,21.62-15.92,32.43-23.19-10.62-5.8-21.32-12.39-32-19.46C502.2,693.17,491.43,700.77,480.68,708.51Z"/><path class="cls-7" d="M445.67,733.86c10.66,7.57,21.27,14.89,31.77,21.64,10.69-8.23,21.45-16.56,32.25-24.68-10.55-6.18-21.18-13-31.86-20.25C467.08,718.33,456.35,726.2,445.67,733.86Z"/><path class="cls-7" d="M475,708.65c-10.69-7.28-21.43-14.88-32.16-22.49-10.73,7.61-21.46,15.21-32.15,22.49,10.74,7.74,21.48,15.58,32.15,23.19C453.52,724.23,464.25,716.39,475,708.65Z"/><path class="cls-8" d="M553.61,699.82c-1.91,1.23-3.83,2.47-5.75,3.74-10.63-5.77-21.34-12.36-32.07-19.42,10.73-7.07,21.44-13.66,32.07-19.43,1,.7,2.1,1.37,3.15,2q-.66-3.22-1.46-6.38l-1.74.9C537,654,526.16,646.11,515.35,638q10.41-5.94,20.7-10.82c-.56-.95-1.11-1.91-1.69-2.84q-10.86,5.14-21.88,11.5c-10.8-8.16-21.56-16.54-32.26-24.83,9.54-6,19-11.55,28.3-16.37-1-.79-1.95-1.57-2.95-2.33-9.29,4.87-18.68,10.43-28.18,16.5-10.68-8.27-21.28-16.41-31.77-24.1q8.69-6.26,17.23-12c-1.57-.32-3.15-.61-4.75-.86q-7.58,5.21-15.26,10.8-7.68-5.59-15.26-10.8c-1.59.25-3.18.54-4.74.86q8.55,5.71,17.22,12c-10.48,7.69-21.08,15.83-31.77,24.1-9.49-6.07-18.89-11.63-28.18-16.5-1,.76-2,1.54-2.95,2.33,9.33,4.82,18.77,10.32,28.3,16.37-10.69,8.29-21.46,16.67-32.26,24.83q-11-6.33-21.88-11.5c-.58.93-1.13,1.89-1.68,2.84Q359.92,632,370.34,638c-10.81,8.12-21.65,16-32.47,23.29l-1.74-.9q-.79,3.15-1.46,6.38c1.05-.68,2.1-1.35,3.15-2,10.63,5.77,21.34,12.36,32.07,19.43-10.73,7.06-21.44,13.65-32.07,19.42-1.91-1.27-3.83-2.51-5.75-3.74.05,1.17.14,2.32.22,3.48.91.59,1.81,1.17,2.71,1.77-.83.45-1.67.86-2.5,1.29.1,1.08.24,2.15.36,3.22,1.67-.85,3.34-1.69,5-2.58,10.82,7.29,21.66,15.16,32.47,23.28a284.89,284.89,0,0,1-28.56,14.37c.41,1,.81,2,1.25,3a283.71,283.71,0,0,0,30.17-15.23c10.8,8.16,21.57,16.54,32.26,24.83a357.34,357.34,0,0,1-31.09,17.82c-10-8.5-20.16-17-30.32-25.2.87,1.89,1.79,3.77,2.75,5.61,8.32,6.87,16.62,13.89,24.86,20.92-2.69,1.31-5.36,2.54-8,3.71.81.91,1.63,1.8,2.46,2.68q4.19-1.86,8.42-3.95C385.24,788,395.87,797.2,406.38,806c-1.42.85-2.83,1.68-4.25,2.5q2,.87,4,1.65c1-.61,2-1.19,3.07-1.82,2,1.64,3.9,3.25,5.85,4.86,2.27.66,4.57,1.2,6.9,1.69q-5-4-10.06-8.21c10.18-6.34,20.53-13.48,31-21.1,10.46,7.62,20.81,14.76,31,21.1q-5.06,4.18-10.05,8.21c2.32-.49,4.62-1,6.89-1.69,1.95-1.61,3.89-3.22,5.85-4.86,1,.63,2,1.21,3.07,1.82q2-.78,4-1.65-2.12-1.23-4.25-2.5c10.51-8.83,21.15-18,31.88-27.17q4.23,2.08,8.42,3.95c.83-.88,1.64-1.77,2.45-2.68-2.67-1.17-5.34-2.4-8-3.71,8.25-7,16.54-14,24.86-20.92,1-1.84,1.88-3.72,2.75-5.61-10.16,8.21-20.27,16.7-30.31,25.2a356,356,0,0,1-31.1-17.82c10.7-8.29,21.46-16.67,32.26-24.83a283.71,283.71,0,0,0,30.17,15.23c.44-1,.84-2,1.25-3a284.75,284.75,0,0,1-28.55-14.37c10.8-8.12,21.64-16,32.46-23.28,1.67.89,3.34,1.73,5,2.58.12-1.07.26-2.14.36-3.22-.83-.43-1.67-.84-2.5-1.29.9-.6,1.8-1.18,2.71-1.77C553.47,702.14,553.56,701,553.61,699.82ZM512.56,639.6c10.79,8.08,21.62,15.92,32.43,23.19-10.62,5.8-21.32,12.39-32,19.46-10.74-7.15-21.51-14.75-32.26-22.49C491.36,652.56,502,645.74,512.56,639.6ZM440,684.14c-10.73,7.61-21.46,15.2-32.15,22.46-10.75-7.72-21.52-15.32-32.26-22.46,10.74-7.15,21.51-14.75,32.26-22.47C418.53,668.93,429.26,676.52,440,684.14Zm-29.3-24.52c10.74-7.74,21.48-15.58,32.15-23.19,10.68,7.61,21.41,15.45,32.16,23.19-10.69,7.28-21.43,14.88-32.16,22.5C432.11,674.5,421.38,666.9,410.69,659.62Zm32.15,26.54c10.73,7.61,21.47,15.21,32.16,22.49-10.75,7.74-21.48,15.58-32.16,23.19-10.67-7.61-21.41-15.45-32.15-23.19C421.38,701.37,432.11,693.77,442.84,686.16Zm2.85-2c10.73-7.62,21.46-15.21,32.16-22.47,10.75,7.72,21.52,15.32,32.25,22.47-10.73,7.14-21.5,14.74-32.25,22.46C467.15,699.34,456.42,691.75,445.69,684.14Zm31.75-71.37c10.69,8.23,21.45,16.57,32.25,24.69-10.55,6.17-21.18,13-31.86,20.24-10.75-7.76-21.48-15.63-32.16-23.28C456.33,626.84,466.94,619.52,477.44,612.77Zm-34.6-26.07c10.49,7.62,21.09,15.69,31.76,23.89-10.49,6.82-21.09,14.19-31.76,21.8-10.66-7.61-21.26-15-31.76-21.8C421.75,602.39,432.36,594.32,442.84,586.7Zm-34.6,26.07c10.51,6.75,21.11,14.07,31.77,21.65-10.67,7.65-21.41,15.52-32.16,23.28-10.68-7.21-21.31-14.07-31.86-20.24C386.79,629.34,397.55,621,408.24,612.77Zm-67.55,50c10.81-7.27,21.64-15.11,32.44-23.19,10.55,6.14,21.19,13,31.87,20.16-10.75,7.74-21.52,15.34-32.26,22.49C362,675.18,351.31,668.59,340.69,662.79Zm32.44,65.88c-10.8-8.08-21.63-15.92-32.44-23.19,10.62-5.8,21.32-12.39,32.05-19.46,10.74,7.15,21.51,14.75,32.26,22.49C394.32,715.71,383.68,722.53,373.13,728.67Zm2.86,2.15c10.55-6.18,21.18-13,31.86-20.25,10.75,7.76,21.49,15.63,32.16,23.29-10.66,7.57-21.26,14.89-31.77,21.64C397.55,747.27,386.79,738.94,376,730.82Zm33.08,73.58c-10.5-8.74-21.13-17.81-31.85-26.9,10.22-5.21,20.6-11.33,31.07-18,10.69,8.27,21.29,16.41,31.77,24.1C429.6,791.1,419.26,798.15,409.07,804.4Zm2-46.73c10.5-6.81,21.1-14.18,31.76-21.79,10.67,7.61,21.27,15,31.76,21.79-10.67,8.21-21.27,16.28-31.76,23.9C432.36,774,421.75,765.88,411.08,757.67Zm97.39,19.83c-10.73,9.09-21.36,18.16-31.86,26.9-10.18-6.25-20.52-13.3-31-20.83,10.49-7.69,21.09-15.83,31.77-24.1C487.87,766.17,498.24,772.29,508.47,777.5Zm-31-22c-10.5-6.75-21.11-14.07-31.77-21.64,10.68-7.66,21.41-15.53,32.16-23.29,10.68,7.21,21.31,14.07,31.86,20.25C498.89,738.94,488.13,747.27,477.44,755.5Zm35.12-26.83c-10.56-6.14-21.2-13-31.88-20.16,10.75-7.74,21.52-15.34,32.26-22.49,10.73,7.07,21.43,13.66,32,19.46C534.18,712.75,523.35,720.59,512.56,728.67Z"/></g></g></g></svg>