<svg xmlns="http://www.w3.org/2000/svg" viewBox="0 0 643 885"><defs><style>.cls-1{isolation:isolate;}.cls-2{fill:#fff;}.cls-3,.cls-4{fill:#5d9c4d;}.cls-4,.cls-6{opacity:0.3;mix-blend-mode:multiply;}.cls-5,.cls-6{fill:#a6613a;}.cls-7{fill:none;}.cls-8{fill:#8c5231;}</style></defs><title>pineapple_5</title><g class="cls-1"><g id="레이어_1" data-name="레이어 1"><rect class="cls-2" width="643" height="885" rx="50"/><g id="_5개" data-name="5개"><path class="cls-3" d="M179.7,110.11c-.48-15.3,23.41-30.59,23.41-30.59-17.2-6.37-34.56,10.19-34.56,10.19-2.07-22.3,19.91-51.61,19.91-51.61-30.59,5.74-39.83,51.61-39.83,51.61s-9.24-45.87-39.82-51.61c0,0,22,29.31,19.9,51.61,0,0-17.36-16.56-34.56-10.19,0,0,23.89,15.29,23.41,30.59,0,0-13.21-10.19-32.33,0,0,0,32.82,8.92,31.7,39.5h63.4c-1.12-30.58,31.7-39.5,31.7-39.5C192.91,99.92,179.7,110.11,179.7,110.11Z"/><path class="cls-4" d="M212,110.11c-14.57-7.77-25.7-3.7-30.18-1.33a106.88,106.88,0,0,1-29.14,40.83h27.62C179.21,119,212,110.11,212,110.11Z"/><path class="cls-5" d="M237.52,236.9c0,54.55-39.8,98.77-88.89,98.77S59.75,291.45,59.75,236.9s39.79-98.76,88.88-98.76S237.52,182.36,237.52,236.9Z"/><path class="cls-6" d="M223.34,183.42a102.47,102.47,0,0,1,2.87,23.94c0,57.19-47.72,104.91-104.91,104.91a102.29,102.29,0,0,1-36.59-6.78c16.16,18.6,38.82,30.18,63.92,30.18,49.09,0,88.89-44.22,88.89-98.77A106.29,106.29,0,0,0,223.34,183.42Z"/><path class="cls-7" d="M146.36,189.22c-8.55-6.07-17-11.94-25.46-17.35-8.57,6.6-17.2,13.28-25.85,19.78,8.45,4.95,17,10.45,25.54,16.23C129.2,201.66,137.81,195.35,146.36,189.22Z"/><path class="cls-7" d="M174.09,170.13c-8.56-6.58-17.05-13-25.46-19.15-8.4,6.1-16.9,12.57-25.46,19.15,8.42,5.45,16.91,11.36,25.46,17.46C157.18,181.49,165.67,175.58,174.09,170.13Z"/><path class="cls-7" d="M150.86,308.77c8.39,6,16.67,11.68,24.83,16.68,8.42-7,16.94-14.27,25.54-21.55-8.2-4.18-16.51-9.08-24.91-14.46C167.76,296.07,159.26,302.6,150.86,308.77Z"/><path class="cls-7" d="M176.67,207.88c8.56-5.78,17.09-11.28,25.54-16.23-8.65-6.5-17.28-13.18-25.85-19.78-8.42,5.41-16.92,11.28-25.46,17.35C159.46,195.35,168.06,201.66,176.67,207.88Z"/><path class="cls-7" d="M202.54,229.07c-8.61-5.73-17.24-11.82-25.85-18-8.57,5.82-17.18,11.9-25.78,18,8.6,6.1,17.21,12.19,25.78,18C185.3,240.88,193.93,234.8,202.54,229.07Z"/><path class="cls-7" d="M148.63,270.54c-8.55,6.1-17,12-25.46,17.47,8.56,6.57,17.06,13,25.46,19.15,8.41-6.11,16.9-12.58,25.46-19.15C165.68,282.55,157.18,276.64,148.63,270.54Z"/><path class="cls-7" d="M96,303.9c8.6,7.28,17.12,14.55,25.54,21.55,8.16-5,16.45-10.65,24.83-16.68-8.4-6.17-16.9-12.7-25.46-19.33C112.54,294.82,104.23,299.72,96,303.9Z"/><path class="cls-7" d="M118.3,209.53c-8.56-5.77-17.09-11.24-25.54-16.15-8.66,6.47-17.33,12.75-26,18.58,8.51,4.65,17.08,9.93,25.68,15.6C101.05,221.83,109.68,215.73,118.3,209.53Z"/><path class="cls-7" d="M146.36,268.92c-8.55-6.14-17.16-12.45-25.77-18.66C112,256,103.5,261.53,95.05,266.48c8.65,6.51,17.28,13.19,25.85,19.78C129.32,280.85,137.81,275,146.36,268.92Z"/><path class="cls-7" d="M92.44,230.58c-8.6,5.66-17.17,10.95-25.68,15.59,8.67,5.83,17.34,12.12,26,18.59,8.45-4.92,17-10.39,25.54-16.15C109.68,242.4,101.05,236.31,92.44,230.58Z"/><path class="cls-7" d="M94.72,229.07c8.61,5.73,17.24,11.81,25.85,18,8.57-5.81,17.18-11.9,25.78-18-8.6-6.11-17.21-12.19-25.78-18C112,217.25,103.33,223.34,94.72,229.07Z"/><path class="cls-7" d="M204.82,227.56c8.59-5.67,17.17-10.95,25.68-15.6-8.66-5.83-17.34-12.11-26-18.58-8.46,4.91-17,10.38-25.55,16.15C187.58,215.73,196.21,221.83,204.82,227.56Z"/><path class="cls-7" d="M174.4,209.42c-8.61-6.2-17.21-12.49-25.77-18.59-8.55,6.1-17.16,12.39-25.77,18.59,8.57,5.83,17.17,11.93,25.77,18C157.23,221.35,165.83,215.25,174.4,209.42Z"/><path class="cls-7" d="M179,248.61c8.56,5.76,17.09,11.23,25.55,16.15,8.65-6.47,17.33-12.76,26-18.59-8.51-4.64-17.09-9.93-25.68-15.59C196.21,236.31,187.58,242.4,179,248.61Z"/><path class="cls-7" d="M150.9,268.92c8.54,6.07,17,11.93,25.46,17.34,8.57-6.59,17.2-13.27,25.85-19.78-8.45-5-17-10.44-25.54-16.22C168.06,256.47,159.46,262.78,150.9,268.92Z"/><path class="cls-7" d="M174.4,248.71c-8.57-5.83-17.17-11.92-25.77-18-8.6,6.1-17.2,12.19-25.77,18,8.61,6.21,17.22,12.49,25.77,18.59C157.19,261.2,165.79,254.92,174.4,248.71Z"/><path class="cls-8" d="M237.41,241.64c-1.53,1-3.07,2-4.61,3-8.52-4.63-17.1-9.91-25.7-15.57,8.6-5.66,17.18-10.94,25.7-15.57.84.56,1.68,1.09,2.52,1.64-.35-1.72-.74-3.43-1.16-5.11l-1.4.72c-8.67-5.85-17.35-12.16-26-18.67q8.34-4.76,16.58-8.67c-.44-.76-.88-1.53-1.34-2.27-5.81,2.74-11.66,5.83-17.54,9.21-8.66-6.54-17.29-13.26-25.86-19.9,7.64-4.85,15.21-9.26,22.68-13.12-.77-.63-1.56-1.25-2.36-1.86-7.45,3.9-15,8.35-22.59,13.22-8.56-6.63-17.06-13.16-25.46-19.32q6.94-5,13.81-9.59-1.89-.39-3.81-.69-6.08,4.17-12.23,8.65-6.15-4.47-12.23-8.65c-1.28.2-2.55.43-3.8.69q6.85,4.58,13.8,9.59c-8.4,6.16-16.9,12.69-25.46,19.32-7.61-4.87-15.14-9.32-22.59-13.22-.8.61-1.58,1.23-2.36,1.86,7.47,3.86,15,8.27,22.68,13.12-8.57,6.64-17.2,13.36-25.86,19.9-5.88-3.38-11.73-6.47-17.54-9.21-.45.74-.9,1.51-1.34,2.27q8.23,3.9,16.59,8.67c-8.66,6.51-17.35,12.82-26,18.67L63.11,210c-.43,1.68-.82,3.39-1.18,5.11.85-.55,1.69-1.08,2.53-1.64,8.52,4.63,17.1,9.91,25.7,15.57C81.56,234.73,73,240,64.46,244.64c-1.54-1-3.07-2-4.61-3,0,.93.11,1.86.18,2.79l2.17,1.42-2,1c.08.87.2,1.72.3,2.58,1.33-.68,2.67-1.36,4-2.07,8.67,5.85,17.36,12.15,26,18.66a225,225,0,0,1-22.89,11.52c.33.81.65,1.62,1,2.42a227.65,227.65,0,0,0,24.18-12.21c8.66,6.54,17.29,13.26,25.86,19.91A286.6,286.6,0,0,1,93.75,302c-8-6.81-16.16-13.61-24.3-20.19.7,1.52,1.44,3,2.2,4.5C78.33,291.77,85,297.4,91.58,303c-2.15,1.05-4.3,2-6.43,3,.64.73,1.3,1.45,2,2.15,2.24-1,4.49-2,6.75-3.16,8.6,7.35,17.13,14.69,25.55,21.78-1.14.68-2.27,1.34-3.41,2q1.57.69,3.18,1.32c.82-.49,1.63-.95,2.45-1.45l4.69,3.89c1.82.52,3.67,1,5.53,1.36-2.67-2.17-5.35-4.35-8.06-6.59,8.16-5.08,16.45-10.8,24.84-16.91,8.38,6.11,16.68,11.83,24.84,16.91-2.7,2.24-5.38,4.42-8.06,6.59,1.86-.4,3.71-.84,5.53-1.36l4.69-3.89c.82.5,1.63,1,2.45,1.45q1.6-.63,3.18-1.32c-1.14-.66-2.27-1.32-3.41-2,8.42-7.09,17-14.43,25.55-21.78,2.26,1.11,4.51,2.17,6.75,3.16.66-.7,1.32-1.42,2-2.15q-3.2-1.39-6.43-3c6.61-5.63,13.25-11.26,19.93-16.76q1.15-2.22,2.2-4.5c-8.14,6.58-16.25,13.38-24.3,20.19a286.6,286.6,0,0,1-24.92-14.27c8.57-6.65,17.2-13.37,25.86-19.91A226.71,226.71,0,0,0,228.63,280c.35-.8.67-1.61,1-2.42a224.88,224.88,0,0,1-22.88-11.52c8.65-6.51,17.34-12.81,26-18.66,1.34.71,2.68,1.39,4,2.07.09-.86.21-1.71.29-2.58l-2-1,2.17-1.42C237.29,243.5,237.37,242.57,237.41,241.64Zm-32.9-48.26c8.65,6.47,17.33,12.75,26,18.58-8.51,4.65-17.09,9.93-25.68,15.6-8.61-5.73-17.24-11.83-25.86-18C187.52,203.76,196.05,198.29,204.51,193.38Zm-58.16,35.69c-8.6,6.1-17.21,12.19-25.78,18-8.61-6.19-17.24-12.27-25.85-18,8.61-5.73,17.24-11.82,25.85-18C129.14,216.88,137.75,223,146.35,229.07Zm-23.49-19.65c8.61-6.2,17.22-12.49,25.77-18.59,8.56,6.1,17.16,12.39,25.77,18.59-8.57,5.83-17.17,11.93-25.77,18C140,221.35,131.43,215.25,122.86,209.42Zm25.77,21.27c8.6,6.1,17.2,12.19,25.77,18-8.61,6.21-17.21,12.49-25.77,18.59-8.55-6.1-17.16-12.38-25.77-18.59C131.43,242.88,140,236.79,148.63,230.69Zm2.28-1.62c8.6-6.11,17.21-12.19,25.78-18,8.61,6.19,17.24,12.28,25.85,18-8.61,5.73-17.24,11.81-25.85,18C168.12,241.26,159.51,235.17,150.91,229.07Zm25.45-57.2c8.57,6.6,17.2,13.28,25.85,19.78-8.45,4.95-17,10.45-25.54,16.23-8.61-6.22-17.21-12.53-25.77-18.66C159.44,183.15,167.94,177.28,176.36,171.87ZM148.63,151c8.41,6.1,16.9,12.57,25.46,19.15-8.42,5.45-16.91,11.36-25.46,17.46-8.55-6.1-17-12-25.46-17.46C131.73,163.55,140.23,157.08,148.63,151ZM120.9,171.87c8.42,5.41,16.91,11.28,25.46,17.35-8.55,6.13-17.16,12.44-25.77,18.66C112,202.1,103.5,196.6,95.05,191.65,103.7,185.15,112.33,178.47,120.9,171.87ZM66.76,212c8.67-5.83,17.34-12.11,26-18.58,8.45,4.91,17,10.38,25.54,16.15-8.62,6.2-17.25,12.3-25.86,18C83.84,221.89,75.27,216.61,66.76,212Zm26,52.8c-8.66-6.47-17.33-12.76-26-18.59,8.51-4.64,17.08-9.93,25.68-15.59,8.61,5.73,17.24,11.82,25.86,18C109.74,254.37,101.21,259.84,92.76,264.76Zm2.29,1.72c8.45-5,17-10.44,25.54-16.22,8.61,6.21,17.22,12.52,25.77,18.66-8.55,6.07-17,11.93-25.46,17.34C112.33,279.67,103.7,273,95.05,266.48Zm26.52,59c-8.42-7-16.94-14.27-25.54-21.55,8.2-4.18,16.51-9.08,24.91-14.46,8.56,6.63,17.06,13.16,25.46,19.33C138,314.8,129.73,320.45,121.57,325.45Zm1.6-37.44c8.42-5.46,16.91-11.37,25.46-17.47,8.55,6.1,17.05,12,25.46,17.47-8.56,6.57-17.05,13-25.46,19.15C140.23,301.05,131.73,294.58,123.17,288Zm78.06,15.89c-8.6,7.28-17.12,14.55-25.54,21.55-8.16-5-16.44-10.65-24.83-16.68,8.4-6.17,16.9-12.7,25.46-19.33C184.72,294.82,193,299.72,201.23,303.9Zm-24.87-17.64c-8.42-5.41-16.92-11.27-25.46-17.34,8.56-6.14,17.16-12.45,25.77-18.66,8.56,5.78,17.09,11.27,25.54,16.22C193.56,273,184.93,279.67,176.36,286.26Zm28.15-21.5c-8.46-4.92-17-10.39-25.55-16.15,8.62-6.21,17.25-12.3,25.86-18,8.59,5.66,17.17,10.95,25.68,15.59C221.84,252,213.16,258.29,204.51,264.76Z"/><path class="cls-3" d="M530.07,112.51c-.47-15.29,23.41-30.58,23.41-30.58-17.2-6.38-34.56,10.19-34.56,10.19-2.07-22.3,19.91-51.61,19.91-51.61C508.25,46.25,499,92.12,499,92.12s-9.25-45.87-39.83-51.61c0,0,22,29.31,19.91,51.61,0,0-17.36-16.57-34.56-10.19,0,0,23.88,15.29,23.41,30.58,0,0-13.22-10.19-32.33,0,0,0,32.81,8.92,31.7,39.51h63.4c-1.12-30.59,31.7-39.51,31.7-39.51C543.29,102.32,530.07,112.51,530.07,112.51Z"/><path class="cls-4" d="M562.41,112.51c-14.57-7.76-25.7-3.7-30.18-1.32A107.06,107.06,0,0,1,503.08,152h27.63C529.59,121.43,562.41,112.51,562.41,112.51Z"/><path class="cls-5" d="M587.89,239.31c0,54.55-39.8,98.76-88.88,98.76s-88.89-44.21-88.89-98.76,39.8-98.77,88.89-98.77S587.89,184.76,587.89,239.31Z"/><path class="cls-6" d="M573.71,185.82a102,102,0,0,1,2.88,24c0,57.18-47.73,104.91-104.91,104.91a102.39,102.39,0,0,1-36.6-6.79c16.17,18.6,38.82,30.18,63.93,30.18,49.08,0,88.88-44.21,88.88-98.76A106.32,106.32,0,0,0,573.71,185.82Z"/><path class="cls-7" d="M496.74,191.62c-8.55-6.07-17.05-11.93-25.47-17.34-8.56,6.59-17.19,13.27-25.84,19.78,8.45,4.95,17,10.44,25.53,16.22C479.58,204.06,488.18,197.76,496.74,191.62Z"/><path class="cls-7" d="M524.46,172.53c-8.56-6.57-17.05-13-25.45-19.15-8.41,6.11-16.9,12.58-25.46,19.15C482,178,490.46,183.9,499,190,507.55,183.9,516.05,178,524.46,172.53Z"/><path class="cls-7" d="M501.23,311.17c8.39,6,16.68,11.68,24.84,16.69,8.42-7,16.94-14.27,25.54-21.56-8.2-4.17-16.52-9.08-24.92-14.45C518.13,298.48,509.64,305,501.23,311.17Z"/><path class="cls-7" d="M527.05,210.28c8.56-5.78,17.08-11.27,25.53-16.22-8.65-6.51-17.27-13.19-25.84-19.78-8.42,5.41-16.92,11.27-25.47,17.34C509.83,197.76,518.43,204.06,527.05,210.28Z"/><path class="cls-7" d="M552.91,231.47c-8.6-5.73-17.23-11.82-25.85-18-8.57,5.81-17.17,11.9-25.77,18,8.6,6.1,17.2,12.19,25.77,18C535.68,243.29,544.31,237.2,552.91,231.47Z"/><path class="cls-7" d="M499,273c-8.55,6.1-17.05,12-25.46,17.46,8.56,6.58,17.05,13,25.46,19.15,8.4-6.1,16.89-12.57,25.45-19.15C516.05,285,507.55,279.05,499,273Z"/><path class="cls-7" d="M446.41,306.3c8.59,7.29,17.11,14.56,25.53,21.56,8.16-5,16.45-10.65,24.84-16.69-8.41-6.17-16.9-12.69-25.46-19.32C462.92,297.22,454.6,302.13,446.41,306.3Z"/><path class="cls-7" d="M468.68,211.93c-8.57-5.76-17.09-11.23-25.55-16.15-8.66,6.47-17.33,12.76-26,18.59,8.52,4.64,17.09,9.93,25.69,15.59C451.43,224.23,460.06,218.14,468.68,211.93Z"/><path class="cls-7" d="M496.74,271.32c-8.56-6.13-17.16-12.44-25.78-18.66-8.56,5.78-17.08,11.28-25.53,16.23,8.65,6.5,17.28,13.18,25.84,19.78C479.69,283.26,488.19,277.39,496.74,271.32Z"/><path class="cls-7" d="M442.82,233c-8.6,5.67-17.17,11-25.69,15.6,8.67,5.83,17.34,12.11,26,18.58,8.46-4.92,17-10.38,25.55-16.15C460.06,244.81,451.43,238.71,442.82,233Z"/><path class="cls-7" d="M445.1,231.47c8.61,5.73,17.23,11.82,25.85,18,8.57-5.82,17.17-11.91,25.77-18-8.6-6.1-17.2-12.19-25.77-18C462.33,219.65,453.71,225.74,445.1,231.47Z"/><path class="cls-7" d="M555.19,230c8.6-5.66,17.17-11,25.69-15.59-8.67-5.83-17.34-12.12-26-18.59-8.46,4.92-17,10.39-25.55,16.15C538,218.14,546.58,224.23,555.19,230Z"/><path class="cls-7" d="M524.78,211.82c-8.62-6.2-17.22-12.48-25.77-18.58-8.56,6.1-17.16,12.38-25.78,18.58,8.57,5.84,17.17,11.93,25.78,18C507.61,223.75,516.21,217.66,524.78,211.82Z"/><path class="cls-7" d="M529.33,251c8.57,5.77,17.09,11.23,25.55,16.15,8.66-6.47,17.33-12.75,26-18.58-8.52-4.65-17.09-9.93-25.69-15.6C546.58,238.71,538,244.81,529.33,251Z"/><path class="cls-7" d="M501.27,271.32c8.55,6.07,17.05,11.94,25.47,17.35,8.57-6.6,17.19-13.28,25.84-19.78-8.45-4.95-17-10.45-25.53-16.23C518.43,258.88,509.83,265.19,501.27,271.32Z"/><path class="cls-7" d="M524.78,251.12c-8.57-5.83-17.17-11.93-25.77-18-8.61,6.1-17.21,12.2-25.78,18,8.62,6.2,17.22,12.48,25.78,18.59C507.56,263.6,516.16,257.32,524.78,251.12Z"/><path class="cls-8" d="M587.78,244c-1.53,1-3.07,2-4.6,3-8.52-4.63-17.1-9.91-25.71-15.57,8.61-5.66,17.19-10.94,25.71-15.57.84.56,1.68,1.1,2.52,1.64q-.53-2.58-1.17-5.11c-.46.25-.93.47-1.39.72-8.68-5.85-17.36-12.15-26-18.66q8.34-4.77,16.59-8.68c-.45-.76-.89-1.52-1.35-2.27q-8.7,4.13-17.54,9.22c-8.65-6.54-17.28-13.26-25.85-19.91,7.64-4.84,15.2-9.25,22.68-13.11-.78-.64-1.57-1.26-2.36-1.87-7.45,3.9-15,8.35-22.6,13.22-8.56-6.62-17.05-13.15-25.46-19.32,4.64-3.33,9.24-6.54,13.81-9.59-1.26-.26-2.53-.49-3.8-.68q-6.09,4.16-12.23,8.65-6.17-4.49-12.24-8.65c-1.27.19-2.54.42-3.8.68,4.57,3,9.17,6.26,13.81,9.59-8.41,6.17-16.9,12.7-25.46,19.32-7.61-4.87-15.15-9.32-22.59-13.22-.8.61-1.59,1.23-2.37,1.87,7.48,3.86,15,8.27,22.68,13.11-8.57,6.65-17.2,13.37-25.85,19.91q-8.83-5.08-17.54-9.22c-.46.75-.9,1.51-1.34,2.27q8.24,3.91,16.58,8.68c-8.66,6.51-17.34,12.81-26,18.66-.46-.25-.92-.47-1.39-.72q-.64,2.53-1.17,5.11c.84-.54,1.68-1.08,2.52-1.64,8.53,4.63,17.11,9.91,25.71,15.57-8.6,5.66-17.18,10.94-25.71,15.57-1.53-1-3.07-2-4.6-3,0,.94.11,1.86.17,2.79l2.18,1.42c-.67.36-1.34.69-2,1,.08.87.19,1.72.29,2.58,1.34-.68,2.67-1.35,4-2.06,8.68,5.84,17.36,12.15,26,18.66A226.83,226.83,0,0,1,418,280c.33.81.65,1.63,1,2.43a229.56,229.56,0,0,0,24.18-12.21c8.65,6.54,17.28,13.26,25.85,19.9a286.63,286.63,0,0,1-24.91,14.28c-8.05-6.81-16.16-13.61-24.3-20.2q1.05,2.28,2.2,4.5c6.67,5.5,13.32,11.13,19.92,16.77q-3.22,1.56-6.43,3c.65.73,1.3,1.44,2,2.15,2.24-1,4.49-2.05,6.75-3.17,8.6,7.35,17.12,14.7,25.54,21.78-1.14.68-2.27,1.35-3.4,2,1.05.47,2.1.91,3.17,1.32.82-.48,1.64-.95,2.46-1.45l4.69,3.89c1.82.53,3.66,1,5.53,1.36q-4-3.24-8.06-6.58c8.16-5.09,16.45-10.81,24.84-16.91,8.38,6.1,16.67,11.82,24.83,16.91q-4.05,3.35-8.05,6.58c1.86-.39,3.7-.83,5.52-1.36,1.57-1.29,3.12-2.58,4.69-3.89.83.5,1.64,1,2.46,1.45,1.07-.41,2.12-.85,3.17-1.32-1.13-.65-2.26-1.32-3.4-2,8.42-7.08,16.95-14.43,25.55-21.78,2.26,1.12,4.5,2.17,6.75,3.17.66-.71,1.31-1.42,2-2.15q-3.21-1.41-6.43-3c6.6-5.64,13.25-11.27,19.92-16.77q1.15-2.22,2.21-4.5c-8.15,6.59-16.25,13.39-24.3,20.2A286.77,286.77,0,0,1,529,290.09c8.57-6.64,17.2-13.36,25.85-19.9A229.56,229.56,0,0,0,579,282.4c.35-.8.67-1.62,1-2.43a227.89,227.89,0,0,1-22.88-11.51c8.66-6.51,17.34-12.82,26-18.66,1.34.71,2.68,1.38,4,2.06.1-.86.21-1.71.29-2.58-.67-.34-1.34-.67-2-1l2.17-1.42C587.67,245.9,587.75,245,587.78,244Zm-32.9-48.26c8.66,6.47,17.33,12.76,26,18.59-8.52,4.64-17.09,9.93-25.69,15.59-8.61-5.73-17.24-11.82-25.86-18C537.9,206.17,546.42,200.7,554.88,195.78Zm-58.16,35.69c-8.6,6.1-17.2,12.19-25.77,18-8.62-6.19-17.24-12.28-25.85-18,8.61-5.73,17.23-11.82,25.85-18C479.52,219.28,488.12,225.37,496.72,231.47Zm-23.49-19.65c8.62-6.2,17.22-12.48,25.78-18.58,8.55,6.1,17.15,12.38,25.77,18.58-8.57,5.84-17.17,11.93-25.77,18C490.4,223.75,481.8,217.66,473.23,211.82ZM499,233.09c8.6,6.1,17.2,12.2,25.77,18-8.62,6.2-17.22,12.48-25.77,18.59-8.56-6.11-17.16-12.39-25.78-18.59C481.8,245.29,490.4,239.19,499,233.09Zm2.28-1.62c8.6-6.1,17.2-12.19,25.77-18,8.62,6.18,17.25,12.27,25.85,18-8.6,5.73-17.23,11.82-25.85,18C518.49,243.66,509.89,237.57,501.29,231.47Zm25.45-57.19c8.57,6.59,17.19,13.27,25.84,19.78-8.45,4.95-17,10.44-25.53,16.22-8.62-6.22-17.22-12.52-25.78-18.66C509.82,185.55,518.32,179.69,526.74,174.28ZM499,153.38c8.4,6.11,16.89,12.58,25.45,19.15C516.05,178,507.55,183.9,499,190c-8.55-6.1-17.05-12-25.46-17.47C482.11,166,490.6,159.49,499,153.38Zm-27.74,20.9c8.42,5.41,16.92,11.27,25.47,17.34-8.56,6.14-17.16,12.44-25.78,18.66-8.56-5.78-17.08-11.27-25.53-16.22C454.08,187.55,462.71,180.87,471.27,174.28Zm-54.14,40.09c8.67-5.83,17.34-12.12,26-18.59,8.46,4.92,17,10.39,25.55,16.15-8.62,6.21-17.25,12.3-25.86,18C434.22,224.3,425.65,219,417.13,214.37Zm26,52.79c-8.66-6.47-17.33-12.75-26-18.58,8.52-4.65,17.09-9.93,25.69-15.6,8.61,5.73,17.24,11.83,25.86,18C460.11,256.78,451.59,262.24,443.13,267.16Zm2.3,1.73c8.45-4.95,17-10.45,25.53-16.23,8.62,6.22,17.22,12.53,25.78,18.66-8.55,6.07-17.05,11.94-25.47,17.35C462.71,282.07,454.08,275.39,445.43,268.89Zm26.51,59c-8.42-7-16.94-14.27-25.53-21.56,8.19-4.17,16.51-9.08,24.91-14.45,8.56,6.63,17.05,13.15,25.46,19.32C488.39,317.21,480.1,322.85,471.94,327.86Zm1.61-37.45C482,285,490.46,279.05,499,273c8.54,6.1,17,12,25.45,17.46-8.56,6.58-17.05,13-25.45,19.15C490.6,303.46,482.11,297,473.55,290.41Zm78.06,15.89c-8.6,7.29-17.12,14.56-25.54,21.56-8.16-5-16.45-10.65-24.84-16.69,8.41-6.17,16.9-12.69,25.46-19.32C535.09,297.22,543.41,302.13,551.61,306.3Zm-24.87-17.63c-8.42-5.41-16.92-11.28-25.47-17.35,8.56-6.13,17.16-12.44,25.78-18.66,8.56,5.78,17.08,11.28,25.53,16.23C543.93,275.39,535.31,282.07,526.74,288.67Zm28.14-21.51c-8.46-4.92-17-10.38-25.55-16.15,8.62-6.2,17.25-12.3,25.86-18,8.6,5.67,17.17,11,25.69,15.6C572.21,254.41,563.54,260.69,554.88,267.16Z"/><path class="cls-3" d="M173.88,617.49c-.47-15.29,23.42-30.58,23.42-30.58-17.21-6.38-34.57,10.19-34.57,10.19-2.06-22.3,19.92-51.61,19.92-51.61-30.59,5.74-39.83,51.61-39.83,51.61s-9.24-45.87-39.83-51.61c0,0,22,29.31,19.91,51.61,0,0-17.36-16.57-34.56-10.19,0,0,23.89,15.29,23.41,30.58,0,0-13.22-10.19-32.33,0,0,0,32.82,8.92,31.7,39.51h63.4c-1.12-30.59,31.7-39.51,31.7-39.51C187.1,607.3,173.88,617.49,173.88,617.49Z"/><path class="cls-4" d="M206.22,617.49c-14.57-7.76-25.7-3.7-30.18-1.32A106.88,106.88,0,0,1,146.9,657h27.62C173.4,626.41,206.22,617.49,206.22,617.49Z"/><path class="cls-5" d="M231.71,744.29c0,54.55-39.8,98.76-88.89,98.76s-88.89-44.21-88.89-98.76,39.8-98.76,88.89-98.76S231.71,689.74,231.71,744.29Z"/><path class="cls-6" d="M217.52,690.8a102.1,102.1,0,0,1,2.88,24c0,57.19-47.72,104.91-104.91,104.91a102.6,102.6,0,0,1-36.6-6.78c16.17,18.59,38.82,30.17,63.93,30.17,49.09,0,88.89-44.21,88.89-98.76A106.33,106.33,0,0,0,217.52,690.8Z"/><path class="cls-7" d="M140.55,696.6c-8.55-6.07-17-11.93-25.46-17.34-8.57,6.59-17.2,13.27-25.85,19.78,8.45,5,17,10.45,25.53,16.23C123.39,709.05,132,702.74,140.55,696.6Z"/><path class="cls-7" d="M168.28,677.51c-8.56-6.57-17.06-13-25.46-19.14-8.4,6.1-16.9,12.57-25.46,19.14,8.41,5.46,16.91,11.37,25.46,17.47C151.37,688.88,159.86,683,168.28,677.51Z"/><path class="cls-7" d="M145.05,816.15c8.38,6,16.67,11.69,24.83,16.69,8.42-7,16.94-14.27,25.54-21.56-8.2-4.17-16.52-9.07-24.91-14.45C162,803.46,153.45,810,145.05,816.15Z"/><path class="cls-7" d="M170.86,715.27c8.56-5.78,17.08-11.28,25.53-16.23-8.65-6.51-17.27-13.19-25.84-19.78-8.42,5.41-16.92,11.27-25.46,17.34C153.64,702.74,162.24,709.05,170.86,715.27Z"/><path class="cls-7" d="M196.72,736.46c-8.6-5.74-17.23-11.82-25.85-18-8.57,5.82-17.17,11.9-25.77,18,8.6,6.1,17.2,12.18,25.77,18C179.49,748.27,188.12,742.18,196.72,736.46Z"/><path class="cls-7" d="M142.82,777.93c-8.55,6.1-17,12-25.46,17.46,8.56,6.58,17.06,13.05,25.46,19.15,8.4-6.1,16.9-12.57,25.46-19.15C159.87,789.94,151.37,784,142.82,777.93Z"/><path class="cls-7" d="M90.22,811.28c8.59,7.29,17.12,14.56,25.53,21.56,8.17-5,16.46-10.65,24.84-16.69-8.4-6.17-16.9-12.69-25.46-19.32C106.73,802.21,98.42,807.11,90.22,811.28Z"/><path class="cls-7" d="M112.49,716.91c-8.56-5.76-17.09-11.23-25.54-16.15-8.66,6.47-17.34,12.76-26,18.59C69.46,724,78,729.28,86.63,734.94,95.24,729.21,103.87,723.12,112.49,716.91Z"/><path class="cls-7" d="M140.55,776.3c-8.55-6.13-17.16-12.44-25.78-18.66-8.55,5.78-17.08,11.28-25.53,16.23,8.65,6.51,17.28,13.18,25.85,19.78C123.51,788.24,132,782.37,140.55,776.3Z"/><path class="cls-7" d="M86.63,738C78,743.63,69.46,748.91,61,753.56c8.66,5.83,17.34,12.11,26,18.59,8.45-4.92,17-10.39,25.54-16.16C103.87,749.79,95.24,743.69,86.63,738Z"/><path class="cls-7" d="M88.91,736.46c8.61,5.72,17.24,11.81,25.85,18,8.57-5.82,17.17-11.9,25.78-18-8.61-6.11-17.21-12.19-25.78-18C106.15,724.64,97.52,730.72,88.91,736.46Z"/><path class="cls-7" d="M199,734.94c8.6-5.66,17.18-10.94,25.69-15.59-8.67-5.83-17.34-12.12-26-18.59-8.46,4.92-17,10.39-25.54,16.15C181.76,723.12,190.4,729.21,199,734.94Z"/><path class="cls-7" d="M168.59,716.81c-8.61-6.21-17.22-12.49-25.77-18.59-8.56,6.1-17.16,12.38-25.77,18.59,8.56,5.83,17.17,11.92,25.77,18C151.42,728.73,160,722.64,168.59,716.81Z"/><path class="cls-7" d="M173.15,756c8.56,5.77,17.08,11.24,25.54,16.16,8.66-6.48,17.33-12.76,26-18.59-8.51-4.65-17.09-9.93-25.69-15.6C190.4,743.69,181.76,749.79,173.15,756Z"/><path class="cls-7" d="M145.09,776.3c8.54,6.07,17,11.94,25.46,17.35,8.57-6.6,17.19-13.27,25.84-19.78-8.45-5-17-10.45-25.53-16.23C162.24,763.86,153.64,770.17,145.09,776.3Z"/><path class="cls-7" d="M168.59,756.1c-8.57-5.83-17.17-11.93-25.77-18-8.6,6.1-17.21,12.2-25.77,18,8.61,6.21,17.21,12.49,25.77,18.59C151.37,768.59,160,762.31,168.59,756.1Z"/><path class="cls-8" d="M231.59,749c-1.53,1-3.06,2-4.6,3-8.52-4.62-17.1-9.91-25.7-15.56,8.6-5.67,17.18-11,25.7-15.57l2.52,1.64c-.35-1.73-.74-3.43-1.16-5.12-.47.25-.94.47-1.4.72-8.68-5.85-17.36-12.15-26-18.66q8.35-4.77,16.59-8.67c-.45-.77-.89-1.53-1.35-2.28q-8.7,4.13-17.54,9.22c-8.65-6.54-17.28-13.26-25.85-19.91,7.64-4.84,15.21-9.25,22.68-13.11-.78-.64-1.57-1.26-2.36-1.87-7.45,3.91-15,8.36-22.59,13.23-8.56-6.63-17.06-13.16-25.46-19.33q6.94-5,13.81-9.59c-1.26-.25-2.53-.48-3.81-.68q-6.08,4.15-12.23,8.65-6.15-4.49-12.23-8.65c-1.28.2-2.55.43-3.81.68q6.85,4.59,13.81,9.59c-8.4,6.17-16.9,12.7-25.46,19.33-7.61-4.87-15.14-9.32-22.59-13.23-.8.61-1.59,1.23-2.37,1.87,7.48,3.86,15,8.27,22.69,13.11-8.57,6.65-17.2,13.37-25.86,19.91q-8.82-5.09-17.54-9.22c-.46.75-.9,1.51-1.34,2.28q8.23,3.9,16.59,8.67c-8.67,6.51-17.35,12.81-26,18.66l-1.4-.72c-.43,1.69-.82,3.39-1.17,5.12l2.53-1.64c8.52,4.62,17.1,9.9,25.7,15.57-8.6,5.65-17.18,10.94-25.7,15.56-1.54-1-3.08-2-4.61-3,0,.93.11,1.86.17,2.78l2.18,1.42c-.67.36-1.34.69-2,1,.08.86.2,1.72.29,2.58,1.34-.68,2.68-1.36,4-2.07,8.67,5.84,17.35,12.15,26,18.66A230.29,230.29,0,0,1,61.82,785c.33.8.65,1.62,1,2.42A229.56,229.56,0,0,0,87,775.17c8.66,6.54,17.29,13.26,25.86,19.9a285.66,285.66,0,0,1-24.92,14.28c-8-6.81-16.16-13.61-24.3-20.2q1,2.28,2.2,4.5c6.67,5.51,13.32,11.13,19.93,16.77-2.16,1.05-4.3,2-6.44,3,.65.73,1.31,1.44,2,2.15,2.24-1,4.49-2,6.75-3.17,8.6,7.35,17.12,14.7,25.54,21.78-1.13.68-2.27,1.35-3.4,2q1.57.69,3.18,1.32c.82-.49,1.63-1,2.45-1.46l4.69,3.9c1.82.52,3.67,1,5.53,1.35q-4-3.24-8.06-6.58c8.16-5.08,16.45-10.81,24.84-16.91,8.38,6.1,16.67,11.83,24.83,16.91q-4,3.34-8.05,6.58c1.86-.39,3.71-.83,5.53-1.35l4.68-3.9c.83.51,1.64,1,2.46,1.46,1.07-.42,2.12-.86,3.17-1.32l-3.4-2c8.42-7.08,17-14.43,25.55-21.78,2.26,1.12,4.51,2.17,6.75,3.17.66-.71,1.32-1.42,2-2.15q-3.21-1.39-6.43-3c6.61-5.64,13.25-11.26,19.93-16.77.76-1.48,1.5-3,2.2-4.5-8.14,6.59-16.25,13.39-24.3,20.2a284.2,284.2,0,0,1-24.92-14.28c8.57-6.64,17.2-13.36,25.85-19.9a230.53,230.53,0,0,0,24.18,12.21c.35-.8.67-1.62,1-2.42a231.25,231.25,0,0,1-22.88-11.52c8.66-6.51,17.34-12.82,26-18.66,1.34.71,2.68,1.39,4,2.07.1-.86.21-1.72.29-2.58-.66-.35-1.34-.68-2-1l2.17-1.42C231.48,750.89,231.56,750,231.59,749Zm-32.9-48.27c8.66,6.47,17.33,12.76,26,18.59-8.51,4.65-17.09,9.93-25.69,15.59-8.6-5.73-17.24-11.82-25.85-18C181.71,711.15,190.23,705.68,198.69,700.76Zm-58.15,35.7c-8.61,6.1-17.21,12.18-25.78,18-8.61-6.19-17.24-12.28-25.85-18,8.61-5.74,17.24-11.82,25.85-18C123.33,724.27,131.93,730.35,140.54,736.46Zm-23.49-19.65c8.61-6.21,17.21-12.49,25.77-18.59,8.55,6.1,17.16,12.38,25.77,18.59-8.57,5.83-17.17,11.92-25.77,18C134.22,728.73,125.61,722.64,117.05,716.81Zm25.77,21.26c8.6,6.1,17.2,12.2,25.77,18-8.61,6.21-17.22,12.49-25.77,18.59-8.56-6.1-17.16-12.38-25.77-18.59C125.61,750.27,134.22,744.17,142.82,738.07Zm2.28-1.61c8.6-6.11,17.2-12.19,25.77-18,8.62,6.19,17.25,12.27,25.85,18-8.6,5.72-17.23,11.81-25.85,18C162.3,748.64,153.7,742.56,145.1,736.46Zm25.45-57.2c8.57,6.59,17.19,13.27,25.84,19.78-8.45,5-17,10.45-25.53,16.23-8.62-6.22-17.22-12.53-25.77-18.67C153.63,690.53,162.13,684.67,170.55,679.26Zm-27.73-20.89c8.4,6.1,16.9,12.57,25.46,19.14-8.42,5.46-16.91,11.37-25.46,17.47-8.55-6.1-17-12-25.46-17.47C125.92,670.94,134.42,664.47,142.82,658.37Zm-27.73,20.89c8.42,5.41,16.91,11.27,25.46,17.34-8.55,6.14-17.16,12.45-25.78,18.67C106.22,709.49,97.69,704,89.24,699,97.89,692.53,106.52,685.85,115.09,679.26ZM61,719.35c8.66-5.83,17.34-12.12,26-18.59,8.45,4.92,17,10.39,25.54,16.15-8.62,6.21-17.25,12.3-25.86,18C78,729.28,69.46,724,61,719.35Zm26,52.8c-8.66-6.48-17.34-12.76-26-18.59,8.51-4.65,17.08-9.93,25.68-15.6,8.61,5.73,17.24,11.83,25.86,18C103.93,761.76,95.4,767.23,87,772.15Zm2.29,1.72c8.45-5,17-10.45,25.53-16.23,8.62,6.22,17.23,12.53,25.78,18.66-8.55,6.07-17,11.94-25.46,17.35C106.52,787.05,97.89,780.38,89.24,773.87Zm26.51,59c-8.41-7-16.94-14.27-25.53-21.56,8.2-4.17,16.51-9.07,24.91-14.45,8.56,6.63,17.06,13.15,25.46,19.32C132.21,822.19,123.92,827.84,115.75,832.84Zm1.61-37.45c8.41-5.45,16.91-11.36,25.46-17.46,8.55,6.1,17.05,12,25.46,17.46-8.56,6.58-17.06,13.05-25.46,19.15C134.42,808.44,125.92,802,117.36,795.39Zm78.06,15.89c-8.6,7.29-17.12,14.56-25.54,21.56-8.16-5-16.45-10.65-24.83-16.69,8.4-6.17,16.9-12.69,25.46-19.32C178.9,802.21,187.22,807.11,195.42,811.28Zm-24.87-17.63c-8.42-5.41-16.92-11.28-25.46-17.35,8.55-6.13,17.15-12.44,25.77-18.66,8.56,5.78,17.08,11.28,25.53,16.23C187.74,780.38,179.12,787.05,170.55,793.65Zm28.14-21.5c-8.46-4.92-17-10.39-25.54-16.16,8.61-6.2,17.25-12.3,25.85-18,8.6,5.67,17.18,10.95,25.69,15.6C216,759.39,207.35,765.67,198.69,772.15Z"/><path class="cls-3" d="M527.46,617.49c-.47-15.29,23.42-30.58,23.42-30.58-17.2-6.38-34.56,10.19-34.56,10.19-2.07-22.3,19.91-51.61,19.91-51.61-30.59,5.74-39.83,51.61-39.83,51.61s-9.24-45.87-39.83-51.61c0,0,22,29.31,19.91,51.61,0,0-17.36-16.57-34.56-10.19,0,0,23.89,15.29,23.41,30.58,0,0-13.21-10.19-32.33,0,0,0,32.82,8.92,31.7,39.51h63.4c-1.12-30.59,31.7-39.51,31.7-39.51C540.68,607.3,527.46,617.49,527.46,617.49Z"/><path class="cls-4" d="M559.8,617.49c-14.57-7.76-25.7-3.7-30.18-1.32A106.88,106.88,0,0,1,500.48,657H528.1C527,626.41,559.8,617.49,559.8,617.49Z"/><path class="cls-5" d="M585.29,744.29c0,54.55-39.8,98.76-88.89,98.76s-88.89-44.21-88.89-98.76,39.8-98.76,88.89-98.76S585.29,689.74,585.29,744.29Z"/><path class="cls-6" d="M571.1,690.8a102.1,102.1,0,0,1,2.88,24c0,57.19-47.72,104.91-104.91,104.91a102.51,102.51,0,0,1-36.59-6.78c16.16,18.59,38.82,30.17,63.92,30.17,49.09,0,88.89-44.21,88.89-98.76A106.33,106.33,0,0,0,571.1,690.8Z"/><path class="cls-7" d="M494.13,696.6c-8.55-6.07-17-11.93-25.46-17.34-8.57,6.59-17.2,13.27-25.85,19.78,8.45,5,17,10.45,25.54,16.23C477,709.05,485.58,702.74,494.13,696.6Z"/><path class="cls-7" d="M521.86,677.51c-8.56-6.57-17.05-13-25.46-19.14-8.4,6.1-16.9,12.57-25.46,19.14,8.42,5.46,16.91,11.37,25.46,17.47C505,688.88,513.44,683,521.86,677.51Z"/><path class="cls-7" d="M498.63,816.15c8.38,6,16.67,11.69,24.83,16.69,8.42-7,16.94-14.27,25.54-21.56-8.2-4.17-16.51-9.07-24.91-14.45C515.53,803.46,507,810,498.63,816.15Z"/><path class="cls-7" d="M524.44,715.27C533,709.49,541.53,704,550,699c-8.66-6.51-17.28-13.19-25.85-19.78-8.42,5.41-16.92,11.27-25.46,17.34C507.22,702.74,515.83,709.05,524.44,715.27Z"/><path class="cls-7" d="M550.3,736.46c-8.6-5.74-17.23-11.82-25.85-18-8.57,5.82-17.17,11.9-25.77,18,8.6,6.1,17.2,12.18,25.77,18C533.07,748.27,541.7,742.18,550.3,736.46Z"/><path class="cls-7" d="M496.4,777.93c-8.55,6.1-17,12-25.46,17.46C479.5,802,488,808.44,496.4,814.54c8.41-6.1,16.9-12.57,25.46-19.15C513.45,789.94,505,784,496.4,777.93Z"/><path class="cls-7" d="M443.8,811.28c8.59,7.29,17.12,14.56,25.54,21.56,8.16-5,16.45-10.65,24.83-16.69-8.4-6.17-16.9-12.69-25.46-19.32C460.31,802.21,452,807.11,443.8,811.28Z"/><path class="cls-7" d="M466.07,716.91c-8.56-5.76-17.09-11.23-25.54-16.15-8.66,6.47-17.34,12.76-26,18.59,8.51,4.65,17.08,9.93,25.68,15.59C448.82,729.21,457.45,723.12,466.07,716.91Z"/><path class="cls-7" d="M494.13,776.3c-8.55-6.13-17.16-12.44-25.77-18.66-8.56,5.78-17.09,11.28-25.54,16.23,8.65,6.51,17.28,13.18,25.85,19.78C477.09,788.24,485.58,782.37,494.13,776.3Z"/><path class="cls-7" d="M440.21,738c-8.6,5.67-17.17,10.95-25.68,15.6,8.66,5.83,17.34,12.11,26,18.59,8.45-4.92,17-10.39,25.54-16.16C457.45,749.79,448.82,743.69,440.21,738Z"/><path class="cls-7" d="M442.49,736.46c8.61,5.72,17.24,11.81,25.85,18,8.57-5.82,17.18-11.9,25.78-18-8.6-6.11-17.21-12.19-25.78-18C459.73,724.64,451.1,730.72,442.49,736.46Z"/><path class="cls-7" d="M552.59,734.94c8.59-5.66,17.17-10.94,25.68-15.59-8.66-5.83-17.34-12.12-26-18.59-8.46,4.92-17,10.39-25.55,16.15C535.34,723.12,544,729.21,552.59,734.94Z"/><path class="cls-7" d="M522.17,716.81c-8.61-6.21-17.22-12.49-25.77-18.59-8.55,6.1-17.16,12.38-25.77,18.59,8.57,5.83,17.17,11.92,25.77,18C505,728.73,513.6,722.64,522.17,716.81Z"/><path class="cls-7" d="M526.73,756c8.56,5.77,17.09,11.24,25.55,16.16,8.65-6.48,17.33-12.76,26-18.59-8.51-4.65-17.09-9.93-25.68-15.6C544,743.69,535.34,749.79,526.73,756Z"/><path class="cls-7" d="M498.67,776.3c8.54,6.07,17,11.94,25.46,17.35,8.57-6.6,17.19-13.27,25.85-19.78-8.45-5-17-10.45-25.54-16.23C515.83,763.86,507.22,770.17,498.67,776.3Z"/><path class="cls-7" d="M522.17,756.1c-8.57-5.83-17.17-11.93-25.77-18-8.6,6.1-17.2,12.2-25.77,18,8.61,6.21,17.22,12.49,25.77,18.59C505,768.59,513.56,762.31,522.17,756.1Z"/><path class="cls-8" d="M585.18,749c-1.54,1-3.07,2-4.61,3-8.52-4.62-17.1-9.91-25.7-15.56,8.6-5.67,17.18-11,25.7-15.57l2.52,1.64c-.35-1.73-.74-3.43-1.16-5.12l-1.4.72c-8.67-5.85-17.36-12.15-26-18.66q8.36-4.77,16.59-8.67c-.44-.77-.88-1.53-1.35-2.28q-8.7,4.13-17.53,9.22c-8.66-6.54-17.29-13.26-25.86-19.91C534,673,541.57,668.58,549,664.72c-.78-.64-1.57-1.26-2.36-1.87-7.45,3.91-15,8.36-22.59,13.23-8.56-6.63-17.06-13.16-25.46-19.33q6.94-5,13.81-9.59c-1.26-.25-2.53-.48-3.81-.68q-6.08,4.15-12.23,8.65-6.15-4.49-12.23-8.65c-1.28.2-2.55.43-3.81.68q6.86,4.59,13.81,9.59c-8.4,6.17-16.9,12.7-25.46,19.33-7.61-4.87-15.14-9.32-22.59-13.23-.8.61-1.58,1.23-2.36,1.87,7.47,3.86,15,8.27,22.68,13.11-8.57,6.65-17.2,13.37-25.86,19.91q-8.82-5.09-17.54-9.22c-.46.75-.9,1.51-1.34,2.28q8.24,3.9,16.59,8.67c-8.66,6.51-17.35,12.81-26,18.66l-1.4-.72c-.42,1.69-.82,3.39-1.17,5.12l2.53-1.64c8.52,4.62,17.1,9.9,25.7,15.57-8.6,5.65-17.18,10.94-25.7,15.56-1.54-1-3.07-2-4.61-3,0,.93.11,1.86.18,2.78l2.17,1.42c-.67.36-1.34.69-2,1,.08.86.2,1.72.29,2.58,1.34-.68,2.68-1.36,4-2.07,8.67,5.84,17.36,12.15,26,18.66A229.21,229.21,0,0,1,415.4,785c.33.8.65,1.62,1,2.42a229.56,229.56,0,0,0,24.18-12.21c8.66,6.54,17.29,13.26,25.86,19.9a284.2,284.2,0,0,1-24.92,14.28c-8-6.81-16.16-13.61-24.3-20.2q1,2.28,2.2,4.5c6.68,5.51,13.32,11.13,19.93,16.77q-3.23,1.58-6.44,3c.65.73,1.31,1.44,2,2.15,2.24-1,4.49-2,6.75-3.17,8.6,7.35,17.12,14.7,25.55,21.78l-3.41,2q1.58.69,3.18,1.32c.82-.49,1.63-1,2.45-1.46l4.69,3.9c1.82.52,3.67,1,5.53,1.35q-4-3.24-8.06-6.58c8.16-5.08,16.45-10.81,24.84-16.91,8.38,6.1,16.68,11.83,24.84,16.91q-4.05,3.34-8.06,6.58c1.86-.39,3.71-.83,5.53-1.35l4.69-3.9c.82.51,1.63,1,2.45,1.46,1.07-.42,2.12-.86,3.17-1.32l-3.4-2c8.42-7.08,17-14.43,25.55-21.78,2.26,1.12,4.51,2.17,6.75,3.17.66-.71,1.32-1.42,2-2.15-2.13-.93-4.28-1.92-6.43-3,6.61-5.64,13.25-11.26,19.93-16.77.76-1.48,1.5-3,2.2-4.5-8.14,6.59-16.25,13.39-24.3,20.2a284.2,284.2,0,0,1-24.92-14.28c8.57-6.64,17.2-13.36,25.86-19.9a228.59,228.59,0,0,0,24.18,12.21c.34-.8.67-1.62,1-2.42a230.29,230.29,0,0,1-22.89-11.52c8.66-6.51,17.35-12.82,26-18.66,1.34.71,2.68,1.39,4,2.07.09-.86.21-1.72.29-2.58-.67-.35-1.34-.68-2-1l2.17-1.42C585.06,750.89,585.14,750,585.18,749Zm-32.9-48.27c8.65,6.47,17.33,12.76,26,18.59-8.51,4.65-17.09,9.93-25.68,15.59-8.61-5.73-17.25-11.82-25.86-18C535.29,711.15,543.82,705.68,552.28,700.76Zm-58.16,35.7c-8.6,6.1-17.21,12.18-25.78,18-8.61-6.19-17.24-12.28-25.85-18,8.61-5.74,17.24-11.82,25.85-18C476.91,724.27,485.52,730.35,494.12,736.46Zm-23.49-19.65c8.61-6.21,17.22-12.49,25.77-18.59,8.55,6.1,17.16,12.38,25.77,18.59-8.57,5.83-17.17,11.92-25.77,18C487.8,728.73,479.2,722.64,470.63,716.81Zm25.77,21.26c8.6,6.1,17.2,12.2,25.77,18-8.61,6.21-17.22,12.49-25.77,18.59-8.55-6.1-17.16-12.38-25.77-18.59C479.2,750.27,487.8,744.17,496.4,738.07Zm2.28-1.61c8.6-6.11,17.2-12.19,25.77-18,8.62,6.19,17.25,12.27,25.85,18-8.6,5.72-17.23,11.81-25.85,18C515.88,748.64,507.28,742.56,498.68,736.46Zm25.45-57.2c8.57,6.59,17.19,13.27,25.85,19.78-8.45,5-17,10.45-25.54,16.23-8.61-6.22-17.22-12.53-25.77-18.67C507.21,690.53,515.71,684.67,524.13,679.26ZM496.4,658.37c8.41,6.1,16.9,12.57,25.46,19.14C513.44,683,505,688.88,496.4,695c-8.55-6.1-17-12-25.46-17.47C479.5,670.94,488,664.47,496.4,658.37Zm-27.73,20.89c8.42,5.41,16.91,11.27,25.46,17.34-8.55,6.14-17.16,12.45-25.77,18.67C459.8,709.49,451.27,704,442.82,699,451.47,692.53,460.1,685.85,468.67,679.26Zm-54.14,40.09c8.66-5.83,17.34-12.12,26-18.59,8.45,4.92,17,10.39,25.54,16.15-8.62,6.21-17.25,12.3-25.86,18C431.61,729.28,423,724,414.53,719.35Zm26,52.8c-8.66-6.48-17.34-12.76-26-18.59,8.51-4.65,17.08-9.93,25.68-15.6,8.61,5.73,17.24,11.83,25.86,18C457.51,761.76,449,767.23,440.53,772.15Zm2.29,1.72c8.45-5,17-10.45,25.54-16.23,8.61,6.22,17.22,12.53,25.77,18.66-8.55,6.07-17,11.94-25.46,17.35C460.1,787.05,451.47,780.38,442.82,773.87Zm26.52,59c-8.42-7-16.95-14.27-25.54-21.56,8.2-4.17,16.51-9.07,24.91-14.45,8.56,6.63,17.06,13.15,25.46,19.32C485.79,822.19,477.5,827.84,469.34,832.84Zm1.6-37.45c8.42-5.45,16.91-11.36,25.46-17.46,8.55,6.1,17.05,12,25.46,17.46-8.56,6.58-17.05,13.05-25.46,19.15C488,808.44,479.5,802,470.94,795.39ZM549,811.28c-8.6,7.29-17.12,14.56-25.54,21.56-8.16-5-16.45-10.65-24.83-16.69,8.4-6.17,16.9-12.69,25.46-19.32C532.49,802.21,540.8,807.11,549,811.28Zm-24.87-17.63c-8.42-5.41-16.92-11.28-25.46-17.35,8.55-6.13,17.16-12.44,25.77-18.66,8.56,5.78,17.09,11.28,25.54,16.23C541.32,780.38,532.7,787.05,524.13,793.65Zm28.15-21.5c-8.46-4.92-17-10.39-25.55-16.16,8.61-6.2,17.25-12.3,25.86-18,8.59,5.67,17.17,10.95,25.68,15.6C569.61,759.39,560.93,765.67,552.28,772.15Z"/><path class="cls-3" d="M353.88,365.28c-.47-15.3,23.41-30.59,23.41-30.59-17.2-6.37-34.56,10.19-34.56,10.19-2.07-22.3,19.91-51.61,19.91-51.61-30.58,5.74-39.82,51.61-39.82,51.61S313.57,299,283,293.27c0,0,22,29.31,19.91,51.61,0,0-17.36-16.56-34.56-10.19,0,0,23.89,15.29,23.41,30.59,0,0-13.22-10.19-32.33,0,0,0,32.82,8.92,31.7,39.5h63.4c-1.12-30.58,31.7-39.5,31.7-39.5C367.1,355.09,353.88,365.28,353.88,365.28Z"/><path class="cls-4" d="M386.22,365.28c-14.57-7.77-25.7-3.7-30.18-1.33a106.8,106.8,0,0,1-29.15,40.83h27.63C353.4,374.2,386.22,365.28,386.22,365.28Z"/><path class="cls-5" d="M411.7,492.07c0,54.55-39.8,98.77-88.88,98.77s-88.89-44.22-88.89-98.77,39.8-98.76,88.89-98.76S411.7,437.53,411.7,492.07Z"/><path class="cls-6" d="M397.52,438.59a102,102,0,0,1,2.88,23.94c0,57.19-47.73,104.91-104.91,104.91a102.38,102.38,0,0,1-36.6-6.78c16.17,18.6,38.82,30.18,63.93,30.18,49.08,0,88.88-44.22,88.88-98.77A106.29,106.29,0,0,0,397.52,438.59Z"/><path class="cls-7" d="M320.55,444.39C312,438.32,303.5,432.45,295.08,427c-8.56,6.6-17.19,13.28-25.84,19.78,8.45,4.95,17,10.45,25.53,16.23C303.39,456.83,312,450.52,320.55,444.39Z"/><path class="cls-7" d="M348.27,425.3c-8.55-6.58-17-13.05-25.45-19.15-8.41,6.1-16.9,12.57-25.46,19.15,8.41,5.45,16.91,11.36,25.46,17.46C331.36,436.66,339.86,430.75,348.27,425.3Z"/><path class="cls-7" d="M325,563.94c8.39,6,16.68,11.68,24.84,16.68,8.42-7,16.94-14.27,25.54-21.55-8.2-4.18-16.52-9.08-24.91-14.46C341.94,551.24,333.45,557.77,325,563.94Z"/><path class="cls-7" d="M350.86,463.05c8.56-5.78,17.08-11.28,25.53-16.23-8.65-6.5-17.27-13.18-25.84-19.78-8.42,5.41-16.92,11.28-25.47,17.35C333.64,450.52,342.24,456.83,350.86,463.05Z"/><path class="cls-7" d="M376.72,484.24c-8.6-5.73-17.23-11.82-25.85-18-8.57,5.82-17.17,11.91-25.77,18,8.6,6.1,17.2,12.19,25.77,18C359.49,496.05,368.12,490,376.72,484.24Z"/><path class="cls-7" d="M322.82,525.71c-8.55,6.1-17.05,12-25.46,17.47,8.56,6.57,17.05,13,25.46,19.15,8.4-6.11,16.9-12.58,25.45-19.15C339.86,537.72,331.36,531.81,322.82,525.71Z"/><path class="cls-7" d="M270.22,559.07c8.59,7.28,17.11,14.55,25.53,21.55,8.16-5,16.45-10.65,24.84-16.68-8.41-6.17-16.9-12.7-25.46-19.33C286.73,550,278.41,554.89,270.22,559.07Z"/><path class="cls-7" d="M292.49,464.7c-8.57-5.77-17.09-11.23-25.55-16.15-8.66,6.47-17.33,12.75-26,18.58,8.52,4.65,17.09,9.93,25.69,15.6C275.24,477,283.87,470.9,292.49,464.7Z"/><path class="cls-7" d="M320.55,524.09c-8.56-6.14-17.16-12.45-25.78-18.66-8.56,5.78-17.08,11.27-25.53,16.22,8.65,6.51,17.28,13.19,25.84,19.78C303.5,536,312,530.16,320.55,524.09Z"/><path class="cls-7" d="M266.63,485.75c-8.6,5.66-17.17,10.95-25.69,15.59,8.67,5.84,17.34,12.12,26,18.59,8.46-4.92,17-10.39,25.55-16.15C283.87,497.57,275.24,491.48,266.63,485.75Z"/><path class="cls-7" d="M268.91,484.24c8.61,5.73,17.24,11.81,25.85,18,8.57-5.81,17.17-11.9,25.78-18-8.61-6.1-17.21-12.19-25.78-18C286.15,472.42,277.52,478.51,268.91,484.24Z"/><path class="cls-7" d="M379,482.73c8.6-5.67,17.18-11,25.69-15.6-8.67-5.83-17.34-12.11-26-18.58-8.46,4.92-17,10.38-25.55,16.15C361.76,470.9,370.39,477,379,482.73Z"/><path class="cls-7" d="M348.59,464.59c-8.62-6.2-17.22-12.49-25.77-18.59-8.56,6.1-17.16,12.39-25.78,18.59,8.57,5.83,17.17,11.93,25.78,18C331.42,476.52,340,470.42,348.59,464.59Z"/><path class="cls-7" d="M353.14,503.78c8.57,5.76,17.09,11.23,25.55,16.15,8.66-6.47,17.33-12.75,26-18.59-8.51-4.64-17.09-9.93-25.69-15.59C370.39,491.48,361.76,497.57,353.14,503.78Z"/><path class="cls-7" d="M325.08,524.09c8.55,6.07,17.05,11.93,25.47,17.34,8.57-6.59,17.19-13.27,25.84-19.78-8.45-4.95-17-10.44-25.53-16.22C342.24,511.64,333.64,518,325.08,524.09Z"/><path class="cls-7" d="M348.59,503.88c-8.57-5.83-17.17-11.92-25.77-18-8.61,6.1-17.21,12.19-25.78,18,8.62,6.21,17.22,12.49,25.78,18.59C331.37,516.37,340,510.09,348.59,503.88Z"/><path class="cls-8" d="M411.59,496.81c-1.53,1-3.07,2-4.6,3-8.52-4.63-17.1-9.91-25.7-15.57,8.6-5.66,17.18-10.94,25.7-15.57.84.56,1.68,1.09,2.52,1.64-.35-1.72-.74-3.43-1.17-5.11-.46.24-.93.47-1.39.72-8.68-5.85-17.36-12.16-26-18.67q8.34-4.75,16.59-8.67c-.45-.76-.89-1.53-1.35-2.27-5.8,2.74-11.65,5.83-17.54,9.21-8.65-6.54-17.28-13.26-25.85-19.9,7.64-4.84,15.21-9.26,22.68-13.12-.78-.63-1.57-1.25-2.36-1.86-7.45,3.9-15,8.35-22.59,13.22-8.57-6.63-17.06-13.16-25.47-19.32q7-5,13.81-9.59c-1.26-.26-2.52-.49-3.8-.69q-6.07,4.17-12.23,8.65-6.17-4.47-12.24-8.65c-1.27.2-2.54.43-3.8.69q6.86,4.57,13.81,9.59c-8.41,6.16-16.9,12.69-25.46,19.32-7.61-4.87-15.15-9.32-22.59-13.22q-1.2.92-2.37,1.86c7.48,3.86,15,8.28,22.68,13.12-8.56,6.64-17.19,13.36-25.85,19.9-5.89-3.38-11.73-6.47-17.54-9.21-.46.74-.9,1.51-1.34,2.27q8.24,3.9,16.58,8.67c-8.66,6.51-17.34,12.82-26,18.67-.46-.25-.92-.48-1.39-.72-.43,1.68-.82,3.39-1.17,5.11l2.53-1.64c8.52,4.63,17.1,9.91,25.7,15.57-8.6,5.66-17.18,10.94-25.7,15.57-1.54-1-3.08-2-4.61-3,0,.93.11,1.86.17,2.79l2.18,1.42-2,1c.08.87.19,1.72.29,2.58,1.34-.68,2.67-1.36,4-2.07,8.68,5.85,17.36,12.15,26,18.66a224.88,224.88,0,0,1-22.88,11.52c.33.81.65,1.62,1,2.42A227.65,227.65,0,0,0,267,523c8.66,6.54,17.29,13.26,25.85,19.91a286.46,286.46,0,0,1-24.91,14.27c-8.05-6.81-16.16-13.61-24.3-20.19q1.05,2.28,2.2,4.5c6.67,5.5,13.32,11.13,19.92,16.76q-3.22,1.57-6.43,3c.65.74,1.3,1.45,2,2.15,2.24-1,4.49-2.05,6.75-3.16,8.6,7.35,17.12,14.69,25.54,21.78-1.13.68-2.27,1.34-3.4,2,1.05.46,2.11.91,3.17,1.32.82-.49,1.64-1,2.46-1.45l4.69,3.89c1.82.52,3.66,1,5.53,1.36-2.68-2.17-5.36-4.35-8.06-6.59,8.16-5.08,16.45-10.8,24.84-16.91,8.38,6.11,16.67,11.83,24.83,16.91-2.7,2.24-5.38,4.42-8,6.59,1.86-.4,3.71-.84,5.52-1.36,1.57-1.29,3.12-2.58,4.69-3.89.83.5,1.64,1,2.46,1.45,1.07-.41,2.12-.86,3.17-1.32l-3.4-2c8.42-7.09,16.95-14.43,25.55-21.78,2.26,1.11,4.5,2.17,6.75,3.16.66-.7,1.31-1.41,2-2.15q-3.21-1.39-6.43-3c6.6-5.63,13.25-11.26,19.92-16.76q1.15-2.22,2.21-4.5c-8.15,6.58-16.25,13.38-24.3,20.19a286.6,286.6,0,0,1-24.92-14.27c8.57-6.65,17.2-13.37,25.85-19.91a227.65,227.65,0,0,0,24.18,12.21c.35-.8.67-1.61,1-2.42a225.92,225.92,0,0,1-22.88-11.52c8.66-6.51,17.34-12.81,26-18.66,1.34.71,2.68,1.39,4,2.07.1-.86.21-1.71.29-2.58-.67-.35-1.34-.68-2-1l2.17-1.42C411.48,498.67,411.56,497.74,411.59,496.81Zm-32.9-48.26c8.66,6.47,17.33,12.75,26,18.58-8.51,4.65-17.09,9.93-25.69,15.6-8.61-5.73-17.24-11.83-25.86-18C361.71,458.93,370.23,453.47,378.69,448.55Zm-58.15,35.69c-8.61,6.1-17.21,12.19-25.78,18-8.61-6.19-17.24-12.27-25.85-18,8.61-5.73,17.24-11.82,25.85-18C303.33,472.05,311.93,478.14,320.54,484.24ZM297,464.59c8.62-6.2,17.22-12.49,25.78-18.59,8.55,6.1,17.15,12.39,25.77,18.59-8.57,5.83-17.17,11.93-25.77,18C314.21,476.52,305.61,470.42,297,464.59Zm25.78,21.27c8.6,6.1,17.2,12.19,25.77,18-8.62,6.21-17.22,12.49-25.77,18.59-8.56-6.1-17.16-12.38-25.78-18.59C305.61,498.05,314.21,492,322.82,485.86Zm2.28-1.62c8.6-6.1,17.2-12.19,25.77-18,8.62,6.19,17.25,12.28,25.85,18-8.6,5.73-17.23,11.81-25.85,18C342.3,496.43,333.7,490.34,325.1,484.24ZM350.55,427c8.57,6.6,17.19,13.28,25.84,19.78-8.45,4.95-17,10.45-25.53,16.23-8.62-6.22-17.22-12.53-25.78-18.66C333.63,438.32,342.13,432.45,350.55,427Zm-27.73-20.89c8.4,6.1,16.9,12.57,25.45,19.15-8.41,5.45-16.91,11.36-25.45,17.46-8.55-6.1-17.05-12-25.46-17.46C305.92,418.72,314.41,412.25,322.82,406.15ZM295.08,427c8.42,5.41,16.92,11.28,25.47,17.35-8.56,6.13-17.16,12.44-25.78,18.66-8.56-5.78-17.08-11.28-25.53-16.23C277.89,440.32,286.52,433.64,295.08,427Zm-54.14,40.09c8.67-5.83,17.34-12.11,26-18.58,8.46,4.92,17,10.38,25.55,16.15-8.62,6.2-17.25,12.3-25.86,18C258,477.06,249.46,471.78,240.94,467.13Zm26,52.8c-8.66-6.47-17.33-12.75-26-18.59,8.52-4.64,17.09-9.93,25.69-15.59,8.61,5.73,17.24,11.82,25.86,18C283.92,509.54,275.4,515,266.94,519.93Zm2.3,1.72c8.45-4.95,17-10.44,25.53-16.22,8.62,6.21,17.22,12.52,25.78,18.66C312,530.16,303.5,536,295.08,541.43,286.52,534.84,277.89,528.16,269.24,521.65Zm26.51,59c-8.42-7-16.94-14.27-25.53-21.55,8.19-4.18,16.51-9.08,24.91-14.46,8.56,6.63,17.05,13.16,25.46,19.33C312.2,570,303.91,575.62,295.75,580.62Zm1.61-37.44c8.41-5.46,16.91-11.37,25.46-17.47,8.54,6.1,17,12,25.45,17.47-8.55,6.57-17,13-25.45,19.15C314.41,556.22,305.92,549.75,297.36,543.18Zm78.06,15.89c-8.6,7.28-17.12,14.55-25.54,21.55-8.16-5-16.45-10.65-24.84-16.68,8.41-6.17,16.9-12.7,25.47-19.33C358.9,550,367.22,554.89,375.42,559.07Zm-24.87-17.64c-8.42-5.41-16.92-11.27-25.47-17.34,8.56-6.14,17.16-12.45,25.78-18.66,8.56,5.78,17.08,11.27,25.53,16.22C367.74,528.16,359.12,534.84,350.55,541.43Zm28.14-21.5c-8.46-4.92-17-10.39-25.55-16.15,8.62-6.21,17.25-12.3,25.86-18,8.6,5.66,17.18,10.95,25.69,15.59C396,507.18,387.35,513.46,378.69,519.93Z"/></g></g></g></svg>