<svg xmlns="http://www.w3.org/2000/svg" viewBox="0 0 643 885"><defs><style>.cls-1{isolation:isolate;}.cls-2{fill:#fff;}.cls-3,.cls-4{fill:#ff4e4f;}.cls-4,.cls-6{opacity:0.3;mix-blend-mode:multiply;}.cls-5,.cls-6{fill:#5d9c4d;}.cls-7{fill:#4c803f;}.cls-8{fill:#ffca00;}</style></defs><title>strawberry_2</title><g class="cls-1"><g id="레이어_1" data-name="레이어 1"><rect class="cls-2" width="643" height="885" rx="50"/><g id="_2개" data-name="2개"><path class="cls-3" d="M312.05,222.75C274.79,155.36,201.85,176,201.85,176S128.9,155.36,91.64,222.75,151.11,426.5,201.85,426.5,349.3,290.14,312.05,222.75Z"/><path class="cls-4" d="M312.05,222.75c-20.49-37-51.73-47.47-75.73-49.38,34.12,23,56.93,61.94,56.93,105.44,0,69.25-57.79,127-127,127q-3.24,0-6.45-.17c15,12.92,29.88,20.82,42.09,20.82C252.58,426.5,349.3,290.14,312.05,222.75Z"/><path class="cls-5" d="M294.6,173c-12.68-14.06-42-20.81-42-20.81l4.75-23c-33.31,2.39-55.49,31.72-55.49,31.72s-22.2-29.33-55.51-31.72l4.76,23s-29.34,6.75-42,20.81c0,0,27.75,4.56,37.26,11.69,0,0-7.92,19.83,4,32.51,0,0,16.64-21.41,34.09-21.41l5.54,21.41,11.91-16.65,11.89,16.65,5.55-21.41c17.45,0,34.08,21.41,34.08,21.41,11.9-12.68,4-32.51,4-32.51C266.85,177.56,294.6,173,294.6,173Z"/><path class="cls-6" d="M294.6,173c-12.68-14.06-42-20.81-42-20.81l4.75-23c-12.34.88-23.14,5.48-31.87,10.89a74.83,74.83,0,0,1,22.95,53.59,73.51,73.51,0,0,1-1.83,16.19,78.84,78.84,0,0,1,6.78,7.34c11.9-12.68,4-32.51,4-32.51C266.85,177.56,294.6,173,294.6,173Z"/><path class="cls-7" d="M201.84,179.78a6.59,6.59,0,0,1-6.56-6.11c-6.73-92.18,40.41-97.61,42.43-97.8A6.58,6.58,0,0,1,239,89c-1.68.21-36.31,5.57-30.6,83.76a6.58,6.58,0,0,1-6.08,7Z"/><path class="cls-8" d="M120,226.21c-1.15,4-4.48,6.64-7.45,5.8s-4.43-4.81-3.28-8.85,4.49-6.65,7.45-5.8S121.18,222.17,120,226.21Z"/><path class="cls-8" d="M160.79,245.51c-1.16,4.05-4.49,6.64-7.45,5.8s-4.44-4.81-3.29-8.85,4.49-6.64,7.45-5.8S161.94,241.46,160.79,245.51Z"/><path class="cls-8" d="M284,226.21c1.15,4,4.49,6.64,7.45,5.8s4.43-4.81,3.28-8.85-4.49-6.65-7.45-5.8S282.8,222.17,284,226.21Z"/><path class="cls-8" d="M243.19,245.51c1.15,4.05,4.49,6.64,7.45,5.8s4.43-4.81,3.28-8.85-4.49-6.64-7.45-5.8S242,241.46,243.19,245.51Z"/><path class="cls-8" d="M207.42,248.82c-.08,4.21-2.65,7.57-5.72,7.51s-5.52-3.51-5.44-7.72,2.65-7.56,5.72-7.5S207.5,244.62,207.42,248.82Z"/><path class="cls-8" d="M145.51,324.22c-1.15,4-4.49,6.64-7.45,5.8s-4.44-4.81-3.29-8.85,4.49-6.65,7.45-5.8S146.66,320.17,145.51,324.22Z"/><path class="cls-8" d="M261.26,324.22c1.15,4,4.49,6.64,7.45,5.8s4.43-4.81,3.28-8.85-4.49-6.65-7.45-5.8S260.11,320.17,261.26,324.22Z"/><path class="cls-8" d="M207.42,327.53c-.08,4.21-2.65,7.57-5.72,7.51s-5.52-3.52-5.44-7.72,2.65-7.56,5.72-7.51S207.5,323.33,207.42,327.53Z"/><path class="cls-8" d="M207.42,397.17c-.08,4.21-2.65,7.57-5.72,7.51s-5.52-3.52-5.44-7.72,2.65-7.57,5.72-7.51S207.5,393,207.42,397.17Z"/><path class="cls-8" d="M125.76,270.91c-1.2,4-4.58,6.58-7.53,5.7s-4.37-4.87-3.16-8.9,4.58-6.58,7.53-5.69S127,266.88,125.76,270.91Z"/><path class="cls-8" d="M174.7,286c-1.36,4-4.82,6.4-7.74,5.4s-4.18-5-2.82-9S169,276,171.88,277,176.06,282,174.7,286Z"/><path class="cls-8" d="M278.21,270.91c1.21,4,4.58,6.58,7.53,5.7s4.37-4.87,3.16-8.9-4.58-6.58-7.53-5.69S277,266.88,278.21,270.91Z"/><path class="cls-8" d="M229.27,286c1.36,4,4.83,6.4,7.74,5.4s4.18-5,2.82-9S235,276,232.09,277,227.91,282,229.27,286Z"/><path class="cls-8" d="M229.87,365.73c1.6-3.89,5.2-6.1,8-4.93s3.87,5.26,2.28,9.16-5.19,6.09-8,4.93S228.28,369.63,229.87,365.73Z"/><path class="cls-8" d="M175.4,362.48c-1.12-4.06-4.43-6.68-7.4-5.86s-4.47,4.77-3.35,8.83,4.43,6.67,7.39,5.85S176.52,366.54,175.4,362.48Z"/><path class="cls-3" d="M553.05,605.75C515.79,538.36,442.85,559,442.85,559s-73-20.61-110.21,46.78S392.11,809.5,442.85,809.5,590.3,673.14,553.05,605.75Z"/><path class="cls-4" d="M553.05,605.75c-20.49-37-51.73-47.47-75.73-49.38,34.12,23,56.93,61.94,56.93,105.44,0,69.25-57.79,127-127,127q-3.24,0-6.45-.17c15,12.92,29.88,20.82,42.09,20.82C493.58,809.5,590.3,673.14,553.05,605.75Z"/><path class="cls-5" d="M535.6,556c-12.68-14.06-42-20.81-42-20.81l4.75-23c-33.31,2.39-55.49,31.72-55.49,31.72s-22.2-29.33-55.51-31.72l4.76,23s-29.34,6.75-42,20.81c0,0,27.75,4.56,37.26,11.69,0,0-7.92,19.83,4,32.51,0,0,16.64-21.41,34.09-21.41l5.54,21.41,11.91-16.65,11.89,16.65,5.55-21.41c17.45,0,34.08,21.41,34.08,21.41,11.9-12.68,4-32.51,4-32.51C507.85,560.56,535.6,556,535.6,556Z"/><path class="cls-6" d="M535.6,556c-12.68-14.06-42-20.81-42-20.81l4.75-23c-12.34.88-23.14,5.48-31.87,10.89a74.83,74.83,0,0,1,22.95,53.59,73.51,73.51,0,0,1-1.83,16.19,78.84,78.84,0,0,1,6.78,7.34c11.9-12.68,4-32.51,4-32.51C507.85,560.56,535.6,556,535.6,556Z"/><path class="cls-7" d="M442.84,562.78a6.59,6.59,0,0,1-6.56-6.11c-6.73-92.18,40.41-97.61,42.43-97.8A6.58,6.58,0,0,1,480,472c-1.68.21-36.31,5.57-30.6,83.76a6.58,6.58,0,0,1-6.08,7Z"/><path class="cls-8" d="M361,609.21c-1.15,4-4.48,6.64-7.45,5.8s-4.43-4.81-3.28-8.85,4.49-6.65,7.45-5.8S362.18,605.17,361,609.21Z"/><path class="cls-8" d="M401.79,628.51c-1.16,4-4.49,6.64-7.45,5.8s-4.44-4.81-3.29-8.85,4.49-6.64,7.45-5.8S402.94,624.46,401.79,628.51Z"/><path class="cls-8" d="M525,609.21c1.15,4,4.49,6.64,7.45,5.8s4.43-4.81,3.28-8.85-4.49-6.65-7.45-5.8S523.8,605.17,525,609.21Z"/><path class="cls-8" d="M484.19,628.51c1.15,4,4.49,6.64,7.45,5.8s4.43-4.81,3.28-8.85-4.49-6.64-7.45-5.8S483,624.46,484.19,628.51Z"/><path class="cls-8" d="M448.42,631.82c-.08,4.21-2.65,7.57-5.72,7.51s-5.52-3.51-5.44-7.72,2.65-7.56,5.72-7.5S448.5,627.62,448.42,631.82Z"/><path class="cls-8" d="M386.51,707.22c-1.15,4-4.49,6.64-7.45,5.8s-4.44-4.81-3.29-8.85,4.49-6.65,7.45-5.8S387.66,703.17,386.51,707.22Z"/><path class="cls-8" d="M502.26,707.22c1.15,4,4.49,6.64,7.45,5.8s4.43-4.81,3.28-8.85-4.49-6.65-7.45-5.8S501.11,703.17,502.26,707.22Z"/><path class="cls-8" d="M448.42,710.53c-.08,4.21-2.65,7.57-5.72,7.51s-5.52-3.52-5.44-7.72,2.65-7.56,5.72-7.51S448.5,706.33,448.42,710.53Z"/><path class="cls-8" d="M448.42,780.17c-.08,4.21-2.65,7.57-5.72,7.51s-5.52-3.52-5.44-7.72,2.65-7.57,5.72-7.51S448.5,776,448.42,780.17Z"/><path class="cls-8" d="M366.76,653.91c-1.2,4-4.58,6.58-7.53,5.7s-4.37-4.87-3.16-8.9,4.58-6.58,7.53-5.69S368,649.88,366.76,653.91Z"/><path class="cls-8" d="M415.7,669c-1.36,4-4.82,6.4-7.74,5.4s-4.18-5-2.82-9S410,659,412.88,660,417.06,665,415.7,669Z"/><path class="cls-8" d="M519.21,653.91c1.21,4,4.58,6.58,7.53,5.7s4.37-4.87,3.16-8.9-4.58-6.58-7.53-5.69S518,649.88,519.21,653.91Z"/><path class="cls-8" d="M470.27,669c1.36,4,4.83,6.4,7.74,5.4s4.18-5,2.82-9S476,659,473.09,660,468.91,665,470.27,669Z"/><path class="cls-8" d="M470.87,748.73c1.6-3.89,5.2-6.1,8.05-4.93s3.87,5.26,2.28,9.16-5.19,6.09-8.05,4.93S469.28,752.63,470.87,748.73Z"/><path class="cls-8" d="M416.4,745.48c-1.12-4.06-4.43-6.68-7.4-5.86s-4.47,4.77-3.35,8.83,4.43,6.67,7.39,5.85S417.52,749.54,416.4,745.48Z"/></g></g></g></svg>