<svg xmlns="http://www.w3.org/2000/svg" viewBox="0 0 643 885"><defs><style>.cls-1{isolation:isolate;}.cls-2{fill:#fff;}.cls-3,.cls-4{fill:#ff4e4f;}.cls-4,.cls-6{opacity:0.3;mix-blend-mode:multiply;}.cls-5,.cls-6{fill:#5d9c4d;}.cls-7{fill:#4c803f;}.cls-8{fill:#ffca00;}</style></defs><title>strawberry_1</title><g class="cls-1"><g id="레이어_1" data-name="레이어 1"><rect class="cls-2" width="643" height="885" rx="50"/><g id="_1개" data-name="1개"><path class="cls-3" d="M434.05,415.75C396.79,348.36,323.85,369,323.85,369s-73-20.61-110.21,46.78S273.11,619.5,323.85,619.5,471.3,483.14,434.05,415.75Z"/><path class="cls-4" d="M434.05,415.75c-20.49-37-51.73-47.47-75.73-49.38,34.12,23,56.93,61.94,56.93,105.44,0,69.25-57.79,127-127,127q-3.24,0-6.45-.17c15,12.92,29.88,20.82,42.09,20.82C374.58,619.5,471.3,483.14,434.05,415.75Z"/><path class="cls-5" d="M416.6,366c-12.68-14.06-42-20.81-42-20.81l4.75-23c-33.31,2.39-55.49,31.72-55.49,31.72s-22.2-29.33-55.51-31.72l4.76,23s-29.34,6.75-42,20.81c0,0,27.75,4.56,37.26,11.69,0,0-7.92,19.83,4,32.51,0,0,16.64-21.41,34.09-21.41l5.54,21.41,11.91-16.65,11.89,16.65,5.55-21.41c17.45,0,34.08,21.41,34.08,21.41,11.9-12.68,4-32.51,4-32.51C388.85,370.56,416.6,366,416.6,366Z"/><path class="cls-6" d="M416.6,366c-12.68-14.06-42-20.81-42-20.81l4.75-23c-12.34.88-23.14,5.48-31.87,10.89a74.83,74.83,0,0,1,22.95,53.59,73.51,73.51,0,0,1-1.83,16.19,78.84,78.84,0,0,1,6.78,7.34c11.9-12.68,4-32.51,4-32.51C388.85,370.56,416.6,366,416.6,366Z"/><path class="cls-7" d="M323.84,372.78a6.59,6.59,0,0,1-6.56-6.11c-6.73-92.18,40.41-97.61,42.43-97.8A6.58,6.58,0,0,1,361,282c-1.68.21-36.31,5.57-30.6,83.76a6.58,6.58,0,0,1-6.08,7Z"/><path class="cls-8" d="M242,419.21c-1.15,4-4.48,6.64-7.45,5.8s-4.43-4.81-3.28-8.85,4.49-6.65,7.45-5.8S243.18,415.17,242,419.21Z"/><path class="cls-8" d="M282.79,438.51c-1.16,4.05-4.49,6.64-7.45,5.8s-4.44-4.81-3.29-8.85,4.49-6.64,7.45-5.8S283.94,434.46,282.79,438.51Z"/><path class="cls-8" d="M406,419.21c1.15,4,4.49,6.64,7.45,5.8s4.43-4.81,3.28-8.85-4.49-6.65-7.45-5.8S404.8,415.17,406,419.21Z"/><path class="cls-8" d="M365.19,438.51c1.15,4.05,4.49,6.64,7.45,5.8s4.43-4.81,3.28-8.85-4.49-6.64-7.45-5.8S364,434.46,365.19,438.51Z"/><path class="cls-8" d="M329.42,441.82c-.08,4.21-2.65,7.57-5.72,7.51s-5.52-3.51-5.44-7.72,2.65-7.56,5.72-7.5S329.5,437.62,329.42,441.82Z"/><path class="cls-8" d="M267.51,517.22c-1.15,4-4.49,6.64-7.45,5.8s-4.44-4.81-3.29-8.85,4.49-6.65,7.45-5.8S268.66,513.17,267.51,517.22Z"/><path class="cls-8" d="M383.26,517.22c1.15,4,4.49,6.64,7.45,5.8s4.43-4.81,3.28-8.85-4.49-6.65-7.45-5.8S382.11,513.17,383.26,517.22Z"/><path class="cls-8" d="M329.42,520.53c-.08,4.21-2.65,7.57-5.72,7.51s-5.52-3.52-5.44-7.72,2.65-7.56,5.72-7.51S329.5,516.33,329.42,520.53Z"/><path class="cls-8" d="M329.42,590.17c-.08,4.21-2.65,7.57-5.72,7.51s-5.52-3.52-5.44-7.72,2.65-7.57,5.72-7.51S329.5,586,329.42,590.17Z"/><path class="cls-8" d="M247.76,463.91c-1.2,4-4.58,6.58-7.53,5.7s-4.37-4.87-3.16-8.9,4.58-6.58,7.53-5.69S249,459.88,247.76,463.91Z"/><path class="cls-8" d="M296.7,479c-1.36,4-4.82,6.4-7.74,5.4s-4.18-5-2.82-9S291,469,293.88,470,298.06,475,296.7,479Z"/><path class="cls-8" d="M400.21,463.91c1.21,4,4.58,6.58,7.53,5.7s4.37-4.87,3.16-8.9-4.58-6.58-7.53-5.69S399,459.88,400.21,463.91Z"/><path class="cls-8" d="M351.27,479c1.36,4,4.83,6.4,7.74,5.4s4.18-5,2.82-9S357,469,354.09,470,349.91,475,351.27,479Z"/><path class="cls-8" d="M351.87,558.73c1.6-3.89,5.2-6.1,8.05-4.93s3.87,5.26,2.28,9.16-5.19,6.09-8.05,4.93S350.28,562.63,351.87,558.73Z"/><path class="cls-8" d="M297.4,555.48c-1.12-4.06-4.43-6.68-7.4-5.86s-4.47,4.77-3.35,8.83,4.43,6.67,7.39,5.85S298.52,559.54,297.4,555.48Z"/></g></g></g></svg>