<svg xmlns="http://www.w3.org/2000/svg" viewBox="0 0 643 885"><defs><style>.cls-1{isolation:isolate;}.cls-2{fill:#fff;}.cls-3,.cls-4{fill:#ff4e4f;}.cls-4,.cls-6{opacity:0.3;mix-blend-mode:multiply;}.cls-5,.cls-6{fill:#5d9c4d;}.cls-7{fill:#4c803f;}.cls-8{fill:#ffca00;}</style></defs><title>strawberry_4</title><g class="cls-1"><g id="레이어_1" data-name="레이어 1"><rect class="cls-2" width="643" height="885" rx="50"/><g id="_4개" data-name="4개"><path class="cls-3" d="M267.9,235.39C234.13,174.33,168,193,168,193s-66.11-18.67-99.87,42.39S122.05,420,168,420,301.66,296.46,267.9,235.39Z"/><path class="cls-4" d="M267.9,235.39c-18.57-33.56-46.88-43-68.63-44.74,30.92,20.81,51.59,56.12,51.59,95.55,0,62.75-52.37,115.12-115.12,115.12q-2.94,0-5.85-.15C143.5,412.88,157,420,168,420,214,420,301.66,296.46,267.9,235.39Z"/><path class="cls-5" d="M252.09,190.31C240.59,177.56,214,171.45,214,171.45l4.31-20.84C188.14,152.77,168,179.35,168,179.35s-20.12-26.58-50.3-28.74L122,171.45S95.45,177.56,84,190.31c0,0,25.15,4.13,33.77,10.59,0,0-7.18,18,3.59,29.47,0,0,15.08-19.41,30.9-19.41l5,19.41L168,215.27l10.78,15.1,5-19.41c15.81,0,30.88,19.41,30.88,19.41,10.78-11.5,3.6-29.47,3.6-29.47C226.94,194.44,252.09,190.31,252.09,190.31Z"/><path class="cls-6" d="M252.09,190.31C240.59,177.56,214,171.45,214,171.45l4.31-20.84c-11.18.8-21,5-28.88,9.87A67.82,67.82,0,0,1,210.24,209a65.91,65.91,0,0,1-1.67,14.67,69,69,0,0,1,6.15,6.66c10.78-11.5,3.6-29.47,3.6-29.47C226.94,194.44,252.09,190.31,252.09,190.31Z"/><path class="cls-7" d="M168,196.45a6,6,0,0,1-5.94-5.53c-6.1-83.54,36.62-88.46,38.45-88.63a6,6,0,0,1,1.17,11.86c-1.52.19-32.91,5-27.73,75.9a6,6,0,0,1-5.51,6.39Z"/><path class="cls-8" d="M93.88,238.53c-1,3.67-4.07,6-6.75,5.25s-4-4.35-3-8,4.07-6,6.76-5.26S94.92,234.87,93.88,238.53Z"/><path class="cls-8" d="M130.82,256c-1,3.67-4.07,6-6.75,5.25s-4-4.35-3-8,4.07-6,6.75-5.26S131.86,252.35,130.82,256Z"/><path class="cls-8" d="M242.43,238.53c1,3.67,4.07,6,6.75,5.25s4-4.35,3-8-4.07-6-6.75-5.26S241.39,234.87,242.43,238.53Z"/><path class="cls-8" d="M205.49,256c1,3.67,4.07,6,6.75,5.25s4-4.35,3-8-4.07-6-6.75-5.26S204.45,252.35,205.49,256Z"/><path class="cls-8" d="M173.08,259c-.07,3.82-2.4,6.86-5.19,6.81s-5-3.19-4.92-7,2.4-6.85,5.18-6.8S173.15,255.22,173.08,259Z"/><path class="cls-8" d="M117,327.35c-1,3.66-4.07,6-6.75,5.25s-4-4.36-3-8,4.06-6,6.75-5.25S118,323.68,117,327.35Z"/><path class="cls-8" d="M221.87,327.35c1,3.66,4.07,6,6.75,5.25s4-4.36,3-8-4.07-6-6.75-5.25S220.83,323.68,221.87,327.35Z"/><path class="cls-8" d="M173.08,330.35c-.07,3.81-2.4,6.86-5.19,6.8s-5-3.18-4.92-7,2.4-6.86,5.18-6.8S173.15,326.54,173.08,330.35Z"/><path class="cls-8" d="M173.08,393.46c-.07,3.81-2.4,6.86-5.19,6.81s-5-3.19-4.92-7,2.4-6.86,5.18-6.8S173.15,389.65,173.08,393.46Z"/><path class="cls-8" d="M99.08,279c-1.09,3.65-4.15,6-6.82,5.16s-4-4.41-2.87-8.06,4.15-6,6.82-5.16S100.17,275.39,99.08,279Z"/><path class="cls-8" d="M143.43,292.72c-1.23,3.61-4.37,5.81-7,4.9s-3.79-4.56-2.56-8.16,4.37-5.8,7-4.9S144.66,289.12,143.43,292.72Z"/><path class="cls-8" d="M237.23,279c1.1,3.65,4.15,6,6.82,5.16s4-4.41,2.87-8.06-4.15-6-6.82-5.16S236.14,275.39,237.23,279Z"/><path class="cls-8" d="M192.88,292.72c1.23,3.61,4.37,5.81,7,4.9s3.79-4.56,2.56-8.16-4.37-5.8-7-4.9S191.65,289.12,192.88,292.72Z"/><path class="cls-8" d="M193.43,365c1.44-3.53,4.71-5.53,7.29-4.47s3.51,4.77,2.07,8.3-4.71,5.52-7.29,4.47S192,368.5,193.43,365Z"/><path class="cls-8" d="M144.07,362c-1-3.67-4-6-6.72-5.3s-4,4.32-3,8,4,6.05,6.7,5.31S145.08,365.7,144.07,362Z"/><path class="cls-3" d="M575.2,238.11c-33.77-61.06-99.87-42.39-99.87-42.39s-66.1-18.67-99.87,42.39,53.89,184.65,99.87,184.65S609,299.18,575.2,238.11Z"/><path class="cls-4" d="M575.2,238.11c-18.56-33.56-46.88-43-68.63-44.74,30.92,20.81,51.6,56.12,51.6,95.55C558.17,351.67,505.8,404,443,404q-2.94,0-5.85-.15c13.62,11.71,27.08,18.87,38.14,18.87C521.31,422.76,609,299.18,575.2,238.11Z"/><path class="cls-5" d="M559.39,193c-11.49-12.75-38.07-18.86-38.07-18.86l4.3-20.84c-30.18,2.16-50.29,28.74-50.29,28.74S455.22,155.49,425,153.33l4.31,20.84s-26.59,6.11-38.08,18.86c0,0,25.15,4.13,33.77,10.59,0,0-7.19,18,3.59,29.47,0,0,15.08-19.41,30.89-19.41l5,19.41L475.33,218l10.78,15.1,5-19.41c15.8,0,30.88,19.41,30.88,19.41,10.78-11.5,3.59-29.47,3.59-29.47C534.24,197.16,559.39,193,559.39,193Z"/><path class="cls-6" d="M559.39,193c-11.49-12.75-38.07-18.86-38.07-18.86l4.3-20.84a63.5,63.5,0,0,0-28.87,9.87,67.83,67.83,0,0,1,20.79,48.56,66,66,0,0,1-1.66,14.67,70.67,70.67,0,0,1,6.15,6.66c10.78-11.5,3.59-29.47,3.59-29.47C534.24,197.16,559.39,193,559.39,193Z"/><path class="cls-7" d="M475.33,199.17a6,6,0,0,1-5.94-5.53C463.29,110.1,506,105.18,507.83,105A6,6,0,0,1,509,116.87c-1.52.19-32.9,5-27.72,75.9a6,6,0,0,1-5.51,6.39Z"/><path class="cls-8" d="M401.18,241.25c-1,3.66-4.06,6-6.75,5.25s-4-4.35-3-8,4.07-6,6.75-5.25S402.23,237.58,401.18,241.25Z"/><path class="cls-8" d="M438.12,258.74c-1,3.67-4.06,6-6.74,5.25s-4-4.35-3-8,4.07-6,6.75-5.26S439.17,255.07,438.12,258.74Z"/><path class="cls-8" d="M549.74,241.25c1,3.66,4.06,6,6.75,5.25s4-4.35,3-8-4.07-6-6.76-5.25S548.69,237.58,549.74,241.25Z"/><path class="cls-8" d="M512.8,258.74c1,3.67,4.07,6,6.75,5.25s4-4.35,3-8-4.06-6-6.75-5.26S511.76,255.07,512.8,258.74Z"/><path class="cls-8" d="M480.39,261.74c-.08,3.81-2.4,6.86-5.19,6.81s-5-3.19-4.92-7,2.39-6.85,5.18-6.8S480.46,257.93,480.39,261.74Z"/><path class="cls-8" d="M424.28,330.07c-1,3.66-4.07,6-6.75,5.25s-4-4.36-3-8,4.07-6,6.75-5.26S425.32,326.4,424.28,330.07Z"/><path class="cls-8" d="M529.18,330.07c1,3.66,4.06,6,6.74,5.25s4-4.36,3-8-4.07-6-6.75-5.26S528.13,326.4,529.18,330.07Z"/><path class="cls-8" d="M480.39,333.07c-.08,3.81-2.4,6.86-5.19,6.8s-5-3.18-4.92-7,2.39-6.86,5.18-6.81S480.46,329.26,480.39,333.07Z"/><path class="cls-8" d="M480.39,396.18c-.08,3.81-2.4,6.86-5.19,6.8s-5-3.18-4.92-7,2.39-6.86,5.18-6.8S480.46,392.37,480.39,396.18Z"/><path class="cls-8" d="M406.38,281.76c-1.09,3.65-4.15,6-6.82,5.16s-4-4.41-2.86-8.06,4.15-6,6.82-5.16S407.48,278.1,406.38,281.76Z"/><path class="cls-8" d="M450.74,295.44c-1.23,3.61-4.38,5.8-7,4.9s-3.79-4.56-2.55-8.16,4.37-5.8,7-4.9S452,291.84,450.74,295.44Z"/><path class="cls-8" d="M544.54,281.76c1.09,3.65,4.15,6,6.82,5.16s4-4.41,2.87-8.06-4.15-6-6.83-5.16S543.45,278.1,544.54,281.76Z"/><path class="cls-8" d="M500.19,295.44c1.23,3.61,4.37,5.8,7,4.9s3.79-4.56,2.56-8.16-4.38-5.8-7-4.9S499,291.84,500.19,295.44Z"/><path class="cls-8" d="M500.73,367.69c1.45-3.53,4.71-5.53,7.3-4.47s3.5,4.77,2.06,8.3S505.38,377,502.8,376,499.29,371.22,500.73,367.69Z"/><path class="cls-8" d="M451.37,364.74c-1-3.68-4-6.05-6.71-5.31s-4.05,4.32-3,8,4,6.05,6.7,5.31S452.39,368.42,451.37,364.74Z"/><path class="cls-3" d="M263.37,600.6c-33.77-61.06-99.87-42.39-99.87-42.39S97.39,539.54,63.62,600.6s53.9,184.65,99.88,184.65S297.13,661.67,263.37,600.6Z"/><path class="cls-4" d="M263.37,600.6c-18.57-33.56-46.88-43-68.63-44.74,30.92,20.81,51.59,56.12,51.59,95.55,0,62.75-52.37,115.12-115.13,115.12-2,0-3.9,0-5.84-.15,13.61,11.71,27.08,18.87,38.14,18.87C209.47,785.25,297.13,661.67,263.37,600.6Z"/><path class="cls-5" d="M247.56,555.52c-11.5-12.75-38.08-18.86-38.08-18.86l4.31-20.84c-30.18,2.16-50.29,28.74-50.29,28.74S143.38,518,113.2,515.82l4.31,20.84s-26.59,6.11-38.08,18.86c0,0,25.15,4.13,33.77,10.59,0,0-7.18,18,3.59,29.47,0,0,15.08-19.41,30.89-19.41l5,19.41,10.79-15.1,10.78,15.1,5-19.41c15.81,0,30.88,19.41,30.88,19.41,10.78-11.5,3.6-29.47,3.6-29.47C222.41,559.65,247.56,555.52,247.56,555.52Z"/><path class="cls-6" d="M247.56,555.52c-11.5-12.75-38.08-18.86-38.08-18.86l4.31-20.84c-11.19.8-21,5-28.88,9.87a67.86,67.86,0,0,1,20.8,48.56A66,66,0,0,1,204,588.92a69,69,0,0,1,6.15,6.66c10.78-11.5,3.6-29.47,3.6-29.47C222.41,559.65,247.56,555.52,247.56,555.52Z"/><path class="cls-7" d="M163.49,561.66a6,6,0,0,1-5.94-5.53c-6.1-83.54,36.62-88.46,38.45-88.63a6,6,0,0,1,1.17,11.86c-1.52.19-32.91,5.05-27.73,75.9a6,6,0,0,1-5.51,6.39Z"/><path class="cls-8" d="M89.35,603.74c-1,3.67-4.07,6-6.75,5.25s-4-4.35-3-8,4.07-6,6.75-5.25S90.39,600.07,89.35,603.74Z"/><path class="cls-8" d="M126.29,621.23c-1.05,3.67-4.07,6-6.75,5.25s-4-4.35-3-8,4.07-6,6.75-5.26S127.33,617.56,126.29,621.23Z"/><path class="cls-8" d="M237.9,603.74c1,3.67,4.07,6,6.75,5.25s4-4.35,3-8-4.07-6-6.75-5.25S236.86,600.07,237.9,603.74Z"/><path class="cls-8" d="M201,621.23c1,3.67,4.07,6,6.75,5.25s4-4.35,3-8-4.07-6-6.75-5.26S199.92,617.56,201,621.23Z"/><path class="cls-8" d="M168.55,624.23c-.07,3.82-2.4,6.86-5.19,6.81s-5-3.19-4.92-7,2.39-6.85,5.18-6.8S168.62,620.43,168.55,624.23Z"/><path class="cls-8" d="M112.44,692.56c-1,3.66-4.07,6-6.75,5.25s-4-4.36-3-8,4.06-6,6.75-5.25S113.48,688.89,112.44,692.56Z"/><path class="cls-8" d="M217.34,692.56c1,3.66,4.07,6,6.75,5.25s4-4.36,3-8-4.06-6-6.75-5.25S216.3,688.89,217.34,692.56Z"/><path class="cls-8" d="M168.55,695.56c-.07,3.81-2.4,6.86-5.19,6.8s-5-3.18-4.92-7,2.39-6.86,5.18-6.81S168.62,691.75,168.55,695.56Z"/><path class="cls-8" d="M168.55,758.67c-.07,3.81-2.4,6.86-5.19,6.8s-5-3.18-4.92-7,2.39-6.86,5.18-6.8S168.62,754.86,168.55,758.67Z"/><path class="cls-8" d="M94.55,644.25c-1.09,3.65-4.15,6-6.82,5.16s-4-4.41-2.87-8.06,4.15-6,6.82-5.16S95.64,640.6,94.55,644.25Z"/><path class="cls-8" d="M138.9,657.93c-1.23,3.61-4.37,5.81-7,4.9s-3.78-4.56-2.55-8.16,4.37-5.8,7-4.9S140.13,654.33,138.9,657.93Z"/><path class="cls-8" d="M232.7,644.25c1.1,3.65,4.15,6,6.82,5.16s4-4.41,2.87-8.06-4.15-6-6.82-5.16S231.61,640.6,232.7,644.25Z"/><path class="cls-8" d="M188.35,657.93c1.23,3.61,4.37,5.81,7,4.9s3.79-4.56,2.56-8.16-4.37-5.8-7-4.9S187.12,654.33,188.35,657.93Z"/><path class="cls-8" d="M188.9,730.18c1.44-3.53,4.71-5.53,7.29-4.47s3.51,4.77,2.06,8.3-4.7,5.52-7.29,4.47S187.46,733.71,188.9,730.18Z"/><path class="cls-8" d="M139.53,727.23c-1-3.67-4-6.05-6.71-5.31s-4,4.33-3,8,4,6.05,6.7,5.31S140.55,730.91,139.53,727.23Z"/><path class="cls-3" d="M574.3,600.6c-33.77-61.06-99.87-42.39-99.87-42.39s-66.11-18.67-99.87,42.39,53.89,184.65,99.87,184.65S608.06,661.67,574.3,600.6Z"/><path class="cls-4" d="M574.3,600.6c-18.57-33.56-46.88-43-68.63-44.74,30.92,20.81,51.59,56.12,51.59,95.55,0,62.75-52.37,115.12-115.12,115.12-2,0-3.91,0-5.85-.15,13.61,11.71,27.08,18.87,38.14,18.87C520.4,785.25,608.06,661.67,574.3,600.6Z"/><path class="cls-5" d="M558.49,555.52c-11.5-12.75-38.08-18.86-38.08-18.86l4.31-20.84c-30.18,2.16-50.29,28.74-50.29,28.74s-20.12-26.58-50.3-28.74l4.31,20.84s-26.59,6.11-38.08,18.86c0,0,25.15,4.13,33.77,10.59,0,0-7.18,18,3.59,29.47,0,0,15.08-19.41,30.9-19.41l5,19.41,10.79-15.1,10.78,15.1,5-19.41c15.81,0,30.88,19.41,30.88,19.41,10.78-11.5,3.6-29.47,3.6-29.47C533.34,559.65,558.49,555.52,558.49,555.52Z"/><path class="cls-6" d="M558.49,555.52c-11.5-12.75-38.08-18.86-38.08-18.86l4.31-20.84c-11.18.8-21,5-28.88,9.87a67.86,67.86,0,0,1,20.8,48.56A66,66,0,0,1,515,588.92a69,69,0,0,1,6.15,6.66c10.78-11.5,3.6-29.47,3.6-29.47C533.34,559.65,558.49,555.52,558.49,555.52Z"/><path class="cls-7" d="M474.42,561.66a6,6,0,0,1-5.94-5.53c-6.1-83.54,36.62-88.46,38.45-88.63a6,6,0,0,1,1.17,11.86c-1.52.19-32.91,5.05-27.73,75.9a6,6,0,0,1-5.51,6.39Z"/><path class="cls-8" d="M400.28,603.74c-1,3.67-4.07,6-6.75,5.25s-4-4.35-3-8,4.07-6,6.75-5.25S401.32,600.07,400.28,603.74Z"/><path class="cls-8" d="M437.22,621.23c-1.05,3.67-4.07,6-6.75,5.25s-4-4.35-3-8,4.07-6,6.75-5.26S438.26,617.56,437.22,621.23Z"/><path class="cls-8" d="M548.83,603.74c1,3.67,4.07,6,6.75,5.25s4-4.35,3-8-4.07-6-6.75-5.25S547.79,600.07,548.83,603.74Z"/><path class="cls-8" d="M511.89,621.23c1,3.67,4.07,6,6.75,5.25s4-4.35,3-8-4.07-6-6.75-5.26S510.85,617.56,511.89,621.23Z"/><path class="cls-8" d="M479.48,624.23c-.07,3.82-2.4,6.86-5.19,6.81s-5-3.19-4.92-7,2.4-6.85,5.18-6.8S479.55,620.43,479.48,624.23Z"/><path class="cls-8" d="M423.37,692.56c-1,3.66-4.07,6-6.75,5.25s-4-4.36-3-8,4.06-6,6.75-5.25S424.41,688.89,423.37,692.56Z"/><path class="cls-8" d="M528.27,692.56c1,3.66,4.07,6,6.75,5.25s4-4.36,3-8-4.07-6-6.76-5.25S527.23,688.89,528.27,692.56Z"/><path class="cls-8" d="M479.48,695.56c-.07,3.81-2.4,6.86-5.19,6.8s-5-3.18-4.92-7,2.4-6.86,5.18-6.81S479.55,691.75,479.48,695.56Z"/><path class="cls-8" d="M479.48,758.67c-.07,3.81-2.4,6.86-5.19,6.8s-5-3.18-4.92-7,2.4-6.86,5.18-6.8S479.55,754.86,479.48,758.67Z"/><path class="cls-8" d="M405.48,644.25c-1.09,3.65-4.15,6-6.82,5.16s-4-4.41-2.87-8.06,4.15-6,6.82-5.16S406.57,640.6,405.48,644.25Z"/><path class="cls-8" d="M449.83,657.93c-1.23,3.61-4.37,5.81-7,4.9s-3.79-4.56-2.56-8.16,4.37-5.8,7-4.9S451.06,654.33,449.83,657.93Z"/><path class="cls-8" d="M543.63,644.25c1.1,3.65,4.15,6,6.82,5.16s4-4.41,2.87-8.06-4.15-6-6.82-5.16S542.54,640.6,543.63,644.25Z"/><path class="cls-8" d="M499.28,657.93c1.23,3.61,4.37,5.81,7,4.9s3.79-4.56,2.56-8.16-4.37-5.8-7-4.9S498.05,654.33,499.28,657.93Z"/><path class="cls-8" d="M499.83,730.18c1.44-3.53,4.71-5.53,7.29-4.47s3.51,4.77,2.07,8.3-4.71,5.52-7.3,4.47S498.39,733.71,499.83,730.18Z"/><path class="cls-8" d="M450.47,727.23c-1-3.67-4-6.05-6.72-5.31s-4.05,4.33-3,8,4,6.05,6.7,5.31S451.48,730.91,450.47,727.23Z"/></g></g></g></svg>