<svg xmlns="http://www.w3.org/2000/svg" viewBox="0 0 1237.19 694.67"><defs><style>.cls-1{isolation:isolate;}.cls-2{fill:#fff;}.cls-3{fill:#e5e5e5;}.cls-4,.cls-5{fill:#ff4e4f;}.cls-10,.cls-12,.cls-14,.cls-5,.cls-7{opacity:0.3;mix-blend-mode:multiply;}.cls-6,.cls-7{fill:#5d9c4d;}.cls-8{fill:#4c803f;}.cls-10,.cls-9{fill:#ffca00;}.cls-11,.cls-12{fill:#b6d177;}.cls-13,.cls-14{fill:#a6613a;}.cls-15{fill:none;}.cls-16{fill:#8c5231;}.cls-17{fill:#161616;}.cls-18{fill:#f3ff00;}</style></defs><title>title2</title><g class="cls-1"><g id="레이어_1" data-name="레이어 1"><path class="cls-2" d="M240.61,684.81a49.93,49.93,0,0,1-46.22-31.43L32.9,241a49.63,49.63,0,0,1,28-64.14L335.07,69.53A48.91,48.91,0,0,1,353,66.14a49.93,49.93,0,0,1,46.22,31.43L560.7,509.92a49.64,49.64,0,0,1-28,64.14L258.53,681.42A48.91,48.91,0,0,1,240.61,684.81Z" transform="translate(-29.01 -36.67)"/><path class="cls-3" d="M353,65.64v1A49.19,49.19,0,0,1,380.38,75a48.55,48.55,0,0,1,18.36,22.79L560.23,510.1a49,49,0,0,1-27.75,63.49L258.35,681a48.43,48.43,0,0,1-17.74,3.36,49.22,49.22,0,0,1-27.4-8.33,48.56,48.56,0,0,1-18.35-22.78L33.36,240.85a49.15,49.15,0,0,1,27.76-63.49L335.25,70A48.39,48.39,0,0,1,353,66.64v-1m0,0a49.49,49.49,0,0,0-18.11,3.43L60.76,176.43a50.14,50.14,0,0,0-28.33,64.79L193.92,653.56a50.2,50.2,0,0,0,46.69,31.75,49.69,49.69,0,0,0,18.11-3.42L532.84,574.52a50.15,50.15,0,0,0,28.33-64.79L399.67,97.39A50.18,50.18,0,0,0,353,65.64Z" transform="translate(-29.01 -36.67)"/><g id="_1개" data-name="1개"><path class="cls-4" d="M354.73,336.65c-36.35-30.15-73.4-2.07-73.4-2.07s-46.28,4.55-52.48,51.37S308.39,489,337.37,477.67,391.08,366.8,354.73,336.65Z" transform="translate(-29.01 -36.67)"/><path class="cls-5" d="M354.73,336.65c-20-16.57-40.16-15.54-54.3-11.26,24.63,5.48,46.37,22.64,56.1,47.48,15.49,39.55-4.58,85.48-44.14,101q-1.84.74-3.72,1.35c11.47,4,21.73,5.21,28.7,2.48C366.34,466.32,391.08,366.8,354.73,336.65Z" transform="translate(-29.01 -36.67)"/><path class="cls-6" d="M333.64,312.14c-10.39-5.2-28.65-2.49-28.65-2.49l-2.43-14.2C284.07,304.26,278,326,278,326s-19.24-11.79-38.79-5.7L247,332.35s-15.24,10.42-19.34,21.29c0,0,16.87-3.61,23.9-1.66,0,0-.09,13.09,9.54,17.68,0,0,4.71-16,14.68-19.85l7.95,11,3.07-12.17,10.52,6.85L295.73,342c10-3.9,24.25,4.61,24.25,4.61,3.95-9.91-5-19.46-5-19.46C318.81,321,333.64,312.14,333.64,312.14Z" transform="translate(-29.01 -36.67)"/><path class="cls-7" d="M333.64,312.14c-10.39-5.2-28.65-2.49-28.65-2.49l-2.43-14.2a43.22,43.22,0,0,0-15.77,13.35,45.92,45.92,0,0,1,25.1,25.47,44.82,44.82,0,0,1,2.57,9.66,47.76,47.76,0,0,1,5.52,2.68c3.95-9.91-5-19.46-5-19.46C318.81,321,333.64,312.14,333.64,312.14Z" transform="translate(-29.01 -36.67)"/><path class="cls-8" d="M282.17,336.76a4,4,0,0,1-5.1-2c-24.47-51.14,1.24-64.79,2.35-65.35a4,4,0,0,1,3.66,7.19c-.91.49-19.49,11.3,1.27,54.68a4,4,0,0,1-1.9,5.38Z" transform="translate(-29.01 -36.67)"/><path class="cls-9" d="M245.83,381.58c.25,2.57-1.07,4.8-3,5s-3.61-1.76-3.86-4.32,1.08-4.8,3-5S245.59,379,245.83,381.58Z" transform="translate(-29.01 -36.67)"/><path class="cls-9" d="M273.43,383.48c.25,2.57-1.08,4.8-3,5s-3.6-1.75-3.85-4.32,1.08-4.8,3-5S273.18,380.91,273.43,383.48Z" transform="translate(-29.01 -36.67)"/><path class="cls-9" d="M339.46,344.91c1.56,2,4.05,2.79,5.55,1.65s1.45-3.74-.11-5.79-4-2.79-5.55-1.65S337.89,342.86,339.46,344.91Z" transform="translate(-29.01 -36.67)"/><path class="cls-9" d="M320.49,365.05c1.57,2.06,4.05,2.79,5.55,1.65s1.46-3.74-.1-5.79-4.05-2.79-5.55-1.65S318.93,363,320.49,365.05Z" transform="translate(-29.01 -36.67)"/><path class="cls-9" d="M300.81,375c.89,2.42.18,4.91-1.59,5.56s-3.94-.77-4.83-3.19-.18-4.91,1.59-5.57S299.91,372.53,300.81,375Z" transform="translate(-29.01 -36.67)"/><path class="cls-9" d="M282.31,431.86c.25,2.56-1.08,4.79-3,5s-3.61-1.75-3.85-4.32,1.07-4.8,2.95-5S282.06,429.29,282.31,431.86Z" transform="translate(-29.01 -36.67)"/><path class="cls-9" d="M348.42,406c1.56,2.06,4.05,2.79,5.55,1.65s1.46-3.74-.1-5.79-4.05-2.79-5.55-1.65S346.86,403.91,348.42,406Z" transform="translate(-29.01 -36.67)"/><path class="cls-9" d="M318.41,419.9c.9,2.42.18,4.91-1.59,5.56s-3.93-.77-4.83-3.19-.18-4.91,1.59-5.57S317.52,417.48,318.41,419.9Z" transform="translate(-29.01 -36.67)"/><path class="cls-9" d="M334,459.67c.89,2.42.18,4.91-1.59,5.57s-3.94-.77-4.83-3.19-.18-4.92,1.59-5.57S333.1,457.25,334,459.67Z" transform="translate(-29.01 -36.67)"/><path class="cls-9" d="M259.11,405.83c.21,2.56-1.14,4.78-3,4.93s-3.58-1.8-3.79-4.37,1.14-4.78,3-4.94S258.9,403.25,259.11,405.83Z" transform="translate(-29.01 -36.67)"/><path class="cls-9" d="M290.44,403.5c.11,2.58-1.33,4.74-3.21,4.82s-3.51-1.94-3.63-4.51,1.33-4.74,3.21-4.82S290.32,400.93,290.44,403.5Z" transform="translate(-29.01 -36.67)"/><path class="cls-9" d="M346.18,371.72c1.59,2,4.09,2.74,5.57,1.57s1.41-3.75-.18-5.78-4.09-2.74-5.57-1.57S344.59,369.69,346.18,371.72Z" transform="translate(-29.01 -36.67)"/><path class="cls-9" d="M321.6,391.29c1.67,2,4.19,2.58,5.63,1.36s1.27-3.81-.4-5.77-4.19-2.58-5.63-1.36S319.94,389.33,321.6,391.29Z" transform="translate(-29.01 -36.67)"/><path class="cls-9" d="M339.78,436.69c0-2.58,1.6-4.64,3.49-4.62s3.39,2.15,3.35,4.73-1.6,4.64-3.49,4.62S339.74,439.27,339.78,436.69Z" transform="translate(-29.01 -36.67)"/><path class="cls-9" d="M307.94,447c-1.54-2.07-4-2.82-5.54-1.69s-1.48,3.72.07,5.79,4,2.82,5.53,1.69S309.49,449.09,307.94,447Z" transform="translate(-29.01 -36.67)"/></g><path class="cls-2" d="M367.78,630.31a49.68,49.68,0,0,1-48.55-39.62L230.88,156.75a49.65,49.65,0,0,1,38.63-58.38L558,39.64a49.47,49.47,0,0,1,58.38,38.62L704.72,512.2a49.54,49.54,0,0,1-38.63,58.38L377.61,629.32A49.37,49.37,0,0,1,367.78,630.31Z" transform="translate(-29.01 -36.67)"/><path class="cls-3" d="M567.82,38.14v1h0a49.2,49.2,0,0,1,48.06,39.22L704.23,512.3A49.15,49.15,0,0,1,666,570.09L377.51,628.83a49,49,0,0,1-57.79-38.24L231.37,156.65a49.15,49.15,0,0,1,38.24-57.79L558.09,40.13a48.39,48.39,0,0,1,9.73-1v-1m0,0a49.58,49.58,0,0,0-9.93,1L269.41,97.88a50.15,50.15,0,0,0-39,59l88.35,433.94a50.19,50.19,0,0,0,49,40,49.63,49.63,0,0,0,9.93-1l288.48-58.74a50.14,50.14,0,0,0,39-59L616.86,78.17a50.2,50.2,0,0,0-49-40Z" transform="translate(-29.01 -36.67)"/><g id="_2개" data-name="2개"><path class="cls-6" d="M423.75,165.19s-18.51,5.32-34.9-2.17-24.46-25-24.46-25,18.49-5.32,34.88,2.18S423.75,165.19,423.75,165.19Z" transform="translate(-29.01 -36.67)"/><path class="cls-7" d="M401.85,161.15a50.88,50.88,0,0,1-15.23.75c.73.39,1.47.77,2.23,1.12,16.39,7.49,34.9,2.17,34.9,2.17a57.65,57.65,0,0,0-6.36-10A50.89,50.89,0,0,1,401.85,161.15Z" transform="translate(-29.01 -36.67)"/><path class="cls-9" d="M432.31,199.27l2.42-3.66a15.26,15.26,0,1,0-25.46-16.84l-2.41,3.66c-29.28-9.33-65.35,5.25-86.53,37.26s-20.49,70.91-.46,94.2l-2.42,3.66a15.26,15.26,0,1,0,25.45,16.84l2.42-3.66c29.27,9.33,65.35-5.25,86.52-37.26S452.33,222.56,432.31,199.27Z" transform="translate(-29.01 -36.67)"/><path class="cls-10" d="M367.58,321.38A98.83,98.83,0,0,1,339.23,323,29.42,29.42,0,0,1,320,336.68l-.58.1a15.22,15.22,0,0,0,23.49-2.39l2.42-3.66c29.27,9.33,65.35-5.25,86.52-37.26,11.57-17.48,16.6-37,15.53-55C440.35,278.6,409.37,312.87,367.58,321.38Z" transform="translate(-29.01 -36.67)"/><path class="cls-6" d="M615.47,365.89s-18.5,5.33-34.9-2.17-24.46-25-24.46-25,18.5-5.32,34.89,2.17S615.47,365.89,615.47,365.89Z" transform="translate(-29.01 -36.67)"/><path class="cls-7" d="M593.57,361.85a50.56,50.56,0,0,1-15.23.76c.73.39,1.47.76,2.23,1.11,16.4,7.5,34.9,2.17,34.9,2.17a57.82,57.82,0,0,0-6.36-10A50.52,50.52,0,0,1,593.57,361.85Z" transform="translate(-29.01 -36.67)"/><path class="cls-9" d="M624,400l2.42-3.66A15.26,15.26,0,1,0,601,379.48l-2.42,3.65c-29.28-9.32-65.35,5.26-86.53,37.27s-20.49,70.9-.46,94.2l-2.42,3.65a15.26,15.26,0,0,0,25.45,16.85l2.42-3.66c29.27,9.33,65.35-5.25,86.53-37.26S644.06,423.27,624,400Z" transform="translate(-29.01 -36.67)"/><path class="cls-10" d="M559.3,522.09A98.81,98.81,0,0,1,531,523.68a29.42,29.42,0,0,1-19.24,13.71l-.58.1a15.28,15.28,0,0,0,23.49-2.39l2.42-3.66c29.27,9.33,65.35-5.25,86.53-37.26,11.56-17.48,16.59-37,15.52-55C632.07,479.31,601.09,513.58,559.3,522.09Z" transform="translate(-29.01 -36.67)"/></g><rect class="cls-2" x="424.09" y="0.89" width="393.4" height="541.84" rx="49.5"/><path class="cls-3" d="M797,38.06a49.05,49.05,0,0,1,49,49V529.9a49.05,49.05,0,0,1-49,49H502.6a49.05,49.05,0,0,1-49-49V87.06a49.05,49.05,0,0,1,49-49H797m0-1H502.6a50.15,50.15,0,0,0-50,50V529.9a50.15,50.15,0,0,0,50,50H797a50.15,50.15,0,0,0,50-50V87.06a50.15,50.15,0,0,0-50-50Z" transform="translate(-29.01 -36.67)"/><g id="_3개" data-name="3개"><g id="_1개-2" data-name="1개"><path class="cls-11" d="M567.4,163.11V144.46a29.31,29.31,0,1,0-58.62,0v18.65a53.67,53.67,0,1,0,58.62,0Z" transform="translate(-29.01 -36.67)"/><path class="cls-12" d="M570.41,165.24a55.85,55.85,0,0,1,7.06,27.1c0,30.95-25.83,56.78-56.78,56.78a55.57,55.57,0,0,1-21.84-4.49,53.65,53.65,0,1,0,71.56-79.39Z" transform="translate(-29.01 -36.67)"/><path class="cls-6" d="M534,110.8s-18.33,1.46-32.24-8.68-18.14-28-18.14-28,18.32-1.46,32.23,8.68S534,110.8,534,110.8Z" transform="translate(-29.01 -36.67)"/><path class="cls-7" d="M525.24,102.7a56.24,56.24,0,0,1-33.73-11.34,43.65,43.65,0,0,0,10.22,10.76C515.64,112.26,534,110.8,534,110.8a51.78,51.78,0,0,0-3-8.39A56.9,56.9,0,0,1,525.24,102.7Z" transform="translate(-29.01 -36.67)"/></g><g id="_1개-3" data-name="1개"><path class="cls-11" d="M677.81,302.35V283.7a29.31,29.31,0,1,0-58.62,0v18.65a53.67,53.67,0,1,0,58.62,0Z" transform="translate(-29.01 -36.67)"/><path class="cls-12" d="M680.81,304.48a55.74,55.74,0,0,1,7.06,27.1c0,30.95-25.82,56.77-56.77,56.77a55.58,55.58,0,0,1-21.85-4.48,53.65,53.65,0,1,0,71.56-79.39Z" transform="translate(-29.01 -36.67)"/><path class="cls-6" d="M644.38,250s-18.33,1.46-32.25-8.69-18.14-28-18.14-28,18.33-1.45,32.24,8.68S644.38,250,644.38,250Z" transform="translate(-29.01 -36.67)"/><path class="cls-7" d="M635.65,241.94a56.14,56.14,0,0,1-33.73-11.35,43.25,43.25,0,0,0,10.21,10.76c13.92,10.15,32.25,8.69,32.25,8.69a53.27,53.27,0,0,0-3-8.4A54.08,54.08,0,0,1,635.65,241.94Z" transform="translate(-29.01 -36.67)"/></g><g id="_1개-4" data-name="1개"><path class="cls-11" d="M790.67,449V430.3a29.31,29.31,0,1,0-58.62,0V449a53.67,53.67,0,1,0,58.62,0Z" transform="translate(-29.01 -36.67)"/><path class="cls-12" d="M793.68,451.08a55.85,55.85,0,0,1,7.06,27.1c0,30.94-25.83,56.77-56.78,56.77a55.44,55.44,0,0,1-21.85-4.49,53.65,53.65,0,1,0,71.57-79.38Z" transform="translate(-29.01 -36.67)"/><path class="cls-6" d="M757.24,396.63S738.91,398.09,725,388s-18.13-28-18.13-28,18.32-1.46,32.23,8.68S757.24,396.63,757.24,396.63Z" transform="translate(-29.01 -36.67)"/><path class="cls-7" d="M748.51,388.54a56.2,56.2,0,0,1-33.73-11.35A43.42,43.42,0,0,0,725,388c13.92,10.14,32.25,8.68,32.25,8.68a52.16,52.16,0,0,0-3-8.39A54.08,54.08,0,0,1,748.51,388.54Z" transform="translate(-29.01 -36.67)"/></g></g><path class="cls-2" d="M954.33,619.79a49.41,49.41,0,0,1-7.76-.62L655.83,572.88a49.65,49.65,0,0,1-41.1-56.67L684.36,78.88a49.91,49.91,0,0,1,48.91-41.71,49.39,49.39,0,0,1,7.76.61l290.74,46.29a49.56,49.56,0,0,1,41.1,56.67l-69.63,437.33A49.91,49.91,0,0,1,954.33,619.79Z" transform="translate(-29.01 -36.67)"/><path class="cls-3" d="M733.27,37.67a48.39,48.39,0,0,1,7.68.61l290.74,46.29a49.13,49.13,0,0,1,40.68,56.09L1002.74,578a49.19,49.19,0,0,1-48.41,41.3,49.5,49.5,0,0,1-7.68-.61L655.91,572.39a49.07,49.07,0,0,1-40.69-56.1L684.85,79a49.19,49.19,0,0,1,48.42-41.29h0m0-1a50.18,50.18,0,0,0-49.4,42.13L614.24,516.13a50.13,50.13,0,0,0,41.51,57.24l290.74,46.3a51,51,0,0,0,7.84.62,50.19,50.19,0,0,0,49.4-42.14l69.63-437.33a50.14,50.14,0,0,0-41.51-57.24L741.11,37.29a49.78,49.78,0,0,0-7.84-.62Z" transform="translate(-29.01 -36.67)"/><g id="_4개" data-name="4개"><path class="cls-6" d="M797.07,154.38c1.34-10.53,19.37-18.4,19.37-18.4-11.09-6.24-24.79,3.21-24.79,3.21,1-15.5,19.27-33.17,19.27-33.17-21.57.59-32.91,31-32.91,31s-1.32-32.42-21.64-39.69c0,0,11.85,22.47,8,37.52,0,0-10.08-13.24-22.56-10.75,0,0,14.7,13.08,12.7,23.5,0,0-7.94-8.42-22.14-3.52,0,0,21.5,9.68,17.4,30.51l21.71,3.46,21.71,3.45c2.57-21.07,26-23.6,26-23.6C807.23,148.84,797.07,154.38,797.07,154.38Z" transform="translate(-29.01 -36.67)"/><path class="cls-7" d="M819.21,157.9c-9.13-6.9-17.19-5.33-20.52-4.19a74.16,74.16,0,0,1-24.41,24.78l18.91,3C795.76,160.43,819.21,157.9,819.21,157.9Z" transform="translate(-29.01 -36.67)"/><path class="cls-13" d="M822.84,247.53c-5.94,37.36-38,63.3-71.65,58s-56.05-40-50.1-77.34,38-63.3,71.64-57.95S828.79,210.17,822.84,247.53Z" transform="translate(-29.01 -36.67)"/><path class="cls-14" d="M819,209.35a70.68,70.68,0,0,1-.64,16.71c-6.24,39.17-44.13,66.65-83.29,60.41a70.87,70.87,0,0,1-24.33-8.63c9,14.5,23.3,24.9,40.49,27.64,33.62,5.35,65.71-20.59,71.65-58A73.67,73.67,0,0,0,819,209.35Z" transform="translate(-29.01 -36.67)"/><path class="cls-15" d="M765.61,204.93c-5.19-5.09-10.37-10-15.55-14.66-6.58,3.58-13.22,7.22-19.86,10.73,5.25,4.31,10.49,9,15.72,13.9C752.5,211.58,759.08,208.2,765.61,204.93Z" transform="translate(-29.01 -36.67)"/><path class="cls-15" d="M786.68,194.87c-5.14-5.43-10.25-10.79-15.35-15.89-6.42,3.27-12.94,6.77-19.52,10.34C757,194,762.15,199,767.34,204.06,773.86,200.81,780.32,197.69,786.68,194.87Z" transform="translate(-29.01 -36.67)"/><path class="cls-15" d="M755.65,287.3c5.09,5.05,10.15,9.82,15.19,14.13,6.53-3.87,13.16-7.92,19.84-12-5.16-3.75-10.32-8-15.48-12.61C768.61,280.45,762.08,284,755.65,287.3Z" transform="translate(-29.01 -36.67)"/><path class="cls-15" d="M784.33,221c6.5-3,12.94-5.86,19.26-8.32-5.21-5.41-10.39-10.92-15.54-16.37-6.36,2.78-12.82,5.88-19.33,9.1C773.91,210.56,779.11,215.81,784.33,221Z" transform="translate(-29.01 -36.67)"/><path class="cls-15" d="M799.74,238.35c-5.27-4.87-10.51-10-15.74-15.15-6.51,3-13.06,6.27-19.62,9.52,5.23,5.11,10.45,10.22,15.69,15.14C786.65,244.56,793.22,241.33,799.74,238.35Z" transform="translate(-29.01 -36.67)"/><path class="cls-15" d="M758.29,260.87c-6.51,3.25-13,6.37-19.34,9.19,5.15,5.44,10.26,10.79,15.35,15.89,6.43-3.26,13-6.77,19.53-10.34C768.66,271,763.48,266,758.29,260.87Z" transform="translate(-29.01 -36.67)"/><path class="cls-15" d="M718.63,278c5.09,5.93,10.14,11.84,15.14,17.55,6.14-2.54,12.43-5.5,18.83-8.72-5.08-5.14-10.19-10.54-15.33-16C730.93,273.57,724.7,276,718.63,278Z" transform="translate(-29.01 -36.67)"/><path class="cls-15" d="M744.18,215.78c-5.24-4.89-10.48-9.56-15.74-13.85-6.63,3.49-13.26,6.84-19.83,9.89,5.32,4.11,10.62,8.67,15.89,13.48C731,222.32,737.6,219.09,744.18,215.78Z" transform="translate(-29.01 -36.67)"/><path class="cls-15" d="M756.92,259.51c-5.19-5.13-10.4-10.39-15.62-15.59-6.49,3-12.93,5.86-19.26,8.33,5.22,5.4,10.4,10.92,15.55,16.37C743.94,265.83,750.4,262.74,756.92,259.51Z" transform="translate(-29.01 -36.67)"/><path class="cls-15" d="M724.17,227.37c-6.51,2.95-13,5.63-19.29,7.88,5.3,4.94,10.55,10.19,15.78,15.57,6.33-2.45,12.76-5.26,19.25-8.28C734.69,237.35,729.44,232.24,724.17,227.37Z" transform="translate(-29.01 -36.67)"/><path class="cls-15" d="M725.9,226.59c5.27,4.86,10.51,10,15.74,15.15,6.5-3.05,13.06-6.28,19.62-9.52C756,227.1,750.8,222,745.56,217.08,739,220.37,732.42,223.6,725.9,226.59Z" transform="translate(-29.01 -36.67)"/><path class="cls-15" d="M801.47,237.56c6.5-2.94,12.95-5.63,19.29-7.88-5.3-4.94-10.56-10.19-15.78-15.57-6.33,2.45-12.77,5.27-19.26,8.28C791,227.58,796.19,232.7,801.47,237.56Z" transform="translate(-29.01 -36.67)"/><path class="cls-15" d="M782.61,221.82c-5.22-5.19-10.43-10.43-15.62-15.54-6.53,3.25-13.11,6.61-19.68,9.92,5.23,4.93,10.46,10,15.68,15.16C769.55,228.12,776.11,224.88,782.61,221.82Z" transform="translate(-29.01 -36.67)"/><path class="cls-15" d="M781.46,249.16c5.23,4.88,10.48,9.55,15.74,13.85,6.63-3.49,13.26-6.85,19.83-9.9-5.33-4.11-10.62-8.66-15.89-13.48C794.61,242.61,788,245.85,781.46,249.16Z" transform="translate(-29.01 -36.67)"/><path class="cls-15" d="M760,260c5.19,5.09,10.37,10,15.54,14.66,6.59-3.59,13.23-7.22,19.86-10.74-5.25-4.31-10.48-9-15.72-13.89C773.13,253.36,766.56,256.74,760,260Z" transform="translate(-29.01 -36.67)"/><path class="cls-15" d="M778.33,248.73c-5.24-4.92-10.46-10-15.69-15.15-6.56,3.24-13.11,6.47-19.62,9.53,5.23,5.19,10.44,10.43,15.63,15.55C765.17,255.41,771.75,252,778.33,248.73Z" transform="translate(-29.01 -36.67)"/><path class="cls-16" d="M822.25,250.76c-1.16.51-2.32,1-3.48,1.55-5.33-4.1-10.63-8.65-15.91-13.47,6.51-2.94,13-5.62,19.3-7.86.52.48,1,.94,1.55,1.4q-.08-1.83-.24-3.63l-1,.34c-5.31-5-10.56-10.21-15.79-15.62q6.24-2.34,12.31-4.13c-.22-.57-.44-1.14-.67-1.7q-6.42,1.88-13,4.4c-5.22-5.43-10.39-11-15.54-16.45,5.76-2.49,11.43-4.69,17-6.51-.47-.52-.94-1-1.42-1.54-5.52,1.86-11.17,4.09-16.91,6.59-5.14-5.47-10.25-10.87-15.33-16q5.3-2.67,10.5-5.06c-.84-.31-1.68-.61-2.53-.88-3.08,1.45-6.19,3-9.32,4.59q-3.74-3.75-7.44-7.26c-.89,0-1.79,0-2.68.05q4.2,3.88,8.41,8.08c-6.43,3.3-13,6.85-19.54,10.45-4.68-4.16-9.36-8-14-11.52-.62.33-1.22.67-1.83,1,4.7,3.45,9.4,7.3,14.11,11.45-6.59,3.62-13.24,7.28-19.88,10.81q-5.49-4.44-11-8.22l-1.17,1.41q5.22,3.57,10.42,7.75c-6.64,3.51-13.28,6.88-19.86,9.94l-.87-.64c-.48,1.11-.93,2.23-1.36,3.37l1.91-.84c5.33,4.09,10.63,8.65,15.9,13.46-6.51,2.94-13,5.62-19.3,7.86-.94-.86-1.88-1.71-2.83-2.55-.07.64-.12,1.28-.18,1.93l1.33,1.21-1.49.48c0,.6,0,1.2-.08,1.8,1-.32,2-.64,3-1,5.3,4.95,10.56,10.22,15.78,15.62a155.62,155.62,0,0,1-16.93,5.39c.14.59.27,1.19.42,1.77a159.13,159.13,0,0,0,17.9-5.72c5.21,5.42,10.39,11,15.53,16.45-6.33,2.73-12.56,5.14-18.62,7.06-4.77-5.54-9.58-11.08-14.44-16.48.31,1.11.65,2.22,1,3.32,4,4.5,7.91,9.07,11.82,13.66q-2.38.72-4.73,1.33.54.86,1.11,1.68,2.46-.65,5-1.43c5.08,6,10.12,11.94,15.12,17.7l-2.55,1c.67.43,1.34.85,2,1.25l1.84-.73c.93,1.07,1.86,2.12,2.79,3.18,1.18.55,2.4,1.06,3.64,1.53-1.6-1.77-3.2-3.56-4.81-5.39,6.15-2.59,12.45-5.61,18.86-8.87,5.08,5.09,10.13,9.92,15.17,14.29-2.1,1.23-4.17,2.44-6.24,3.63,1.32-.07,2.63-.17,3.93-.33l3.64-2.15,1.52,1.26c.78-.17,1.55-.36,2.32-.56-.7-.57-1.41-1.15-2.11-1.74,6.54-3.93,13.18-8,19.87-12.13,1.43,1,2.85,2,4.28,2.9l1.58-1.25q-2-1.32-4.08-2.74c5.14-3.14,10.3-6.27,15.47-9.31.69-.93,1.36-1.88,2-2.84-6.29,3.62-12.59,7.39-18.84,11.18A197.58,197.58,0,0,1,777,275.88c6.59-3.61,13.23-7.27,19.87-10.81a157.64,157.64,0,0,0,15.24,11c.32-.51.63-1,.94-1.55a159.16,159.16,0,0,1-14.41-10.38c6.64-3.52,13.27-6.89,19.85-9.95.84.64,1.69,1.25,2.53,1.86.16-.58.33-1.15.48-1.74l-1.27-.92,1.65-.74C822,252,822.12,251.39,822.25,250.76ZM805,214.11c5.22,5.38,10.48,10.63,15.78,15.57-6.34,2.25-12.79,4.94-19.29,7.88-5.28-4.86-10.52-10-15.75-15.17C792.21,219.38,798.65,216.56,805,214.11Zm-43.72,18.11c-6.56,3.24-13.12,6.47-19.62,9.52-5.23-5.18-10.47-10.29-15.74-15.15,6.52-3,13.09-6.22,19.66-9.51C750.8,222,756,227.1,761.26,232.22Zm-14-16c6.57-3.31,13.15-6.67,19.68-9.92,5.19,5.11,10.4,10.35,15.62,15.54-6.5,3.06-13.06,6.3-19.62,9.54C757.77,226.24,752.54,221.13,747.31,216.2Zm15.33,17.38c5.23,5.11,10.45,10.23,15.69,15.15-6.58,3.31-13.16,6.68-19.68,9.93-5.19-5.12-10.4-10.36-15.63-15.55C749.53,240.05,756.08,236.82,762.64,233.58Zm1.74-.86c6.56-3.25,13.11-6.48,19.62-9.52,5.23,5.17,10.47,10.28,15.74,15.15-6.52,3-13.09,6.21-19.67,9.51C774.83,242.94,769.61,237.83,764.38,232.72Zm23.67-36.4c5.15,5.45,10.33,11,15.54,16.37-6.32,2.46-12.76,5.3-19.26,8.32-5.22-5.2-10.42-10.45-15.61-15.59C775.23,202.2,781.69,199.1,788.05,196.32ZM771.33,179c5.1,5.1,10.21,10.46,15.35,15.89-6.36,2.82-12.82,5.94-19.34,9.19C762.15,199,757,194,751.81,189.32,758.39,185.75,764.91,182.25,771.33,179Zm-21.27,11.29c5.18,4.62,10.36,9.57,15.55,14.66-6.53,3.27-13.11,6.65-19.69,10-5.23-4.9-10.47-9.59-15.72-13.9C736.84,197.49,743.48,193.85,750.06,190.27Zm-41.45,21.55c6.57-3,13.2-6.4,19.83-9.89,5.26,4.29,10.5,9,15.74,13.85-6.58,3.31-13.16,6.54-19.68,9.52C719.23,220.49,713.93,215.93,708.61,211.82Zm12,39c-5.23-5.38-10.48-10.63-15.78-15.57,6.33-2.25,12.78-4.93,19.29-7.88,5.27,4.87,10.52,10,15.74,15.17C733.42,245.56,727,248.37,720.66,250.82Zm1.38,1.43c6.33-2.47,12.77-5.3,19.26-8.33,5.22,5.2,10.43,10.46,15.62,15.59-6.52,3.23-13,6.32-19.33,9.11C732.44,263.17,727.26,257.65,722,252.25Zm11.73,43.28c-5-5.71-10-11.62-15.14-17.55,6.07-2,12.3-4.41,18.64-7.18,5.14,5.47,10.25,10.87,15.33,16C746.2,290,739.91,293,733.77,295.53ZM739,270.06c6.36-2.82,12.83-5.94,19.34-9.19,5.19,5.11,10.37,10.09,15.54,14.74-6.58,3.57-13.1,7.08-19.53,10.34C749.21,280.85,744.1,275.5,739,270.06Zm51.73,19.39c-6.68,4.06-13.31,8.11-19.84,12-5-4.31-10.1-9.08-15.19-14.13,6.43-3.31,13-6.85,19.55-10.46C780.36,281.44,785.52,285.7,790.68,289.45Zm-15.11-14.78C770.4,270,765.22,265.1,760,260c6.53-3.27,13.1-6.65,19.68-10,5.24,4.89,10.47,9.58,15.72,13.89C788.8,267.45,782.16,271.08,775.57,274.67ZM797.2,263c-5.26-4.3-10.51-9-15.74-13.85,6.58-3.31,13.15-6.55,19.68-9.53,5.27,4.82,10.56,9.37,15.89,13.48C810.46,256.16,803.83,259.52,797.2,263Z" transform="translate(-29.01 -36.67)"/><path class="cls-6" d="M983,185.66c1.35-10.52,19.38-18.39,19.38-18.39-11.09-6.24-24.79,3.21-24.79,3.21,1-15.5,19.27-33.18,19.27-33.18-21.57.6-32.91,31-32.91,31s-1.33-32.43-21.65-39.69c0,0,11.86,22.47,8,37.52,0,0-10.08-13.24-22.56-10.75,0,0,14.69,13.07,12.7,23.5,0,0-7.94-8.42-22.15-3.53,0,0,21.51,9.69,17.41,30.52l21.71,3.45,21.71,3.46c2.57-21.07,26-23.6,26-23.6C993.12,180.12,983,185.66,983,185.66Z" transform="translate(-29.01 -36.67)"/><path class="cls-7" d="M1005.1,189.19c-9.13-6.91-17.2-5.34-20.52-4.2a74.13,74.13,0,0,1-24.42,24.79l18.92,3C981.65,191.72,1005.1,189.19,1005.1,189.19Z" transform="translate(-29.01 -36.67)"/><path class="cls-13" d="M1008.73,278.81c-6,37.36-38,63.31-71.65,57.95S881,296.79,887,259.43s38-63.31,71.65-58S1014.68,241.45,1008.73,278.81Z" transform="translate(-29.01 -36.67)"/><path class="cls-14" d="M1004.85,240.63a71.28,71.28,0,0,1-.64,16.72c-6.24,39.17-44.13,66.65-83.3,60.41a71,71,0,0,1-24.32-8.64c9,14.5,23.3,24.91,40.49,27.64,33.62,5.36,65.7-20.59,71.65-57.95A73.69,73.69,0,0,0,1004.85,240.63Z" transform="translate(-29.01 -36.67)"/><path class="cls-15" d="M951.5,236.21c-5.2-5.09-10.37-10-15.55-14.66-6.59,3.59-13.23,7.22-19.86,10.74,5.25,4.31,10.49,9,15.72,13.89C938.39,242.86,945,239.48,951.5,236.21Z" transform="translate(-29.01 -36.67)"/><path class="cls-15" d="M972.57,226.16c-5.15-5.44-10.26-10.79-15.35-15.89-6.42,3.26-13,6.77-19.52,10.34,5.16,4.65,10.34,9.63,15.53,14.74C959.75,232.1,966.21,229,972.57,226.16Z" transform="translate(-29.01 -36.67)"/><path class="cls-15" d="M941.54,318.58c5.09,5.05,10.15,9.82,15.19,14.14,6.53-3.88,13.16-7.93,19.84-12-5.16-3.75-10.32-8-15.48-12.62C954.5,311.73,948,315.27,941.54,318.58Z" transform="translate(-29.01 -36.67)"/><path class="cls-15" d="M970.22,252.3c6.49-3,12.93-5.86,19.26-8.33-5.22-5.4-10.39-10.91-15.54-16.37-6.36,2.79-12.82,5.88-19.34,9.11C959.8,241.84,965,247.1,970.22,252.3Z" transform="translate(-29.01 -36.67)"/><path class="cls-15" d="M985.62,269.63c-5.26-4.86-10.51-10-15.74-15.15-6.5,3-13.06,6.28-19.61,9.52,5.22,5.12,10.45,10.23,15.69,15.14C972.54,275.84,979.11,272.62,985.62,269.63Z" transform="translate(-29.01 -36.67)"/><path class="cls-15" d="M944.18,292.16c-6.52,3.25-13,6.36-19.34,9.19,5.15,5.43,10.26,10.79,15.35,15.89,6.42-3.27,12.94-6.77,19.52-10.34C954.55,302.24,949.37,297.27,944.18,292.16Z" transform="translate(-29.01 -36.67)"/><path class="cls-15" d="M904.52,309.27c5.09,5.93,10.14,11.84,15.14,17.55,6.13-2.54,12.43-5.5,18.83-8.72-5.09-5.14-10.19-10.54-15.33-16C916.82,304.85,910.59,307.3,904.52,309.27Z" transform="translate(-29.01 -36.67)"/><path class="cls-15" d="M930.06,247.06c-5.23-4.88-10.48-9.56-15.73-13.85-6.64,3.49-13.26,6.85-19.83,9.9,5.32,4.11,10.62,8.66,15.89,13.48C916.91,253.61,923.48,250.37,930.06,247.06Z" transform="translate(-29.01 -36.67)"/><path class="cls-15" d="M942.81,290.8c-5.19-5.14-10.4-10.4-15.62-15.59-6.5,3-12.93,5.86-19.26,8.32,5.21,5.41,10.4,10.92,15.54,16.37C929.83,297.11,936.29,294,942.81,290.8Z" transform="translate(-29.01 -36.67)"/><path class="cls-15" d="M910.06,258.66c-6.51,2.94-13,5.63-19.3,7.88,5.31,4.94,10.56,10.19,15.79,15.57,6.32-2.45,12.76-5.27,19.25-8.28C920.58,268.64,915.33,263.52,910.06,258.66Z" transform="translate(-29.01 -36.67)"/><path class="cls-15" d="M911.78,257.88c5.27,4.86,10.52,10,15.75,15.14,6.5-3,13.05-6.28,19.61-9.52-5.22-5.11-10.45-10.22-15.69-15.14C924.88,251.66,918.3,254.89,911.78,257.88Z" transform="translate(-29.01 -36.67)"/><path class="cls-15" d="M987.35,268.84c6.51-2.94,13-5.62,19.29-7.87-5.29-4.94-10.55-10.19-15.77-15.57-6.33,2.45-12.77,5.26-19.26,8.28C976.83,258.86,982.08,264,987.35,268.84Z" transform="translate(-29.01 -36.67)"/><path class="cls-15" d="M968.5,253.11c-5.22-5.19-10.43-10.43-15.63-15.55-6.52,3.25-13.1,6.62-19.67,9.93,5.23,4.92,10.46,10,15.68,15.15C955.44,259.4,962,256.17,968.5,253.11Z" transform="translate(-29.01 -36.67)"/><path class="cls-15" d="M967.35,280.44c5.23,4.89,10.48,9.56,15.73,13.85,6.64-3.49,13.26-6.84,19.83-9.89-5.32-4.11-10.62-8.67-15.89-13.49C980.5,273.9,973.92,277.13,967.35,280.44Z" transform="translate(-29.01 -36.67)"/><path class="cls-15" d="M945.91,291.29c5.19,5.09,10.38,10,15.55,14.66,6.59-3.58,13.23-7.22,19.86-10.73-5.25-4.31-10.49-9-15.72-13.9C959,284.64,952.44,288,945.91,291.29Z" transform="translate(-29.01 -36.67)"/><path class="cls-15" d="M964.22,280c-5.24-4.93-10.47-10-15.69-15.16-6.56,3.24-13.11,6.48-19.62,9.54,5.22,5.19,10.43,10.43,15.62,15.54C951.06,286.69,957.64,283.33,964.22,280Z" transform="translate(-29.01 -36.67)"/><path class="cls-16" d="M1008.14,282c-1.16.51-2.32,1-3.48,1.55-5.33-4.09-10.63-8.65-15.91-13.46,6.51-2.94,13-5.62,19.3-7.86l1.55,1.4q-.08-1.83-.24-3.63l-1,.34c-5.31-4.95-10.57-10.22-15.79-15.62q6.24-2.35,12.31-4.13c-.22-.57-.44-1.15-.68-1.71-4.27,1.25-8.61,2.73-13,4.4-5.22-5.42-10.4-11-15.54-16.45,5.76-2.48,11.42-4.68,17-6.51q-.69-.78-1.41-1.53c-5.53,1.86-11.17,4.08-16.92,6.59-5.14-5.47-10.24-10.87-15.33-16q5.31-2.67,10.51-5.07c-.84-.31-1.68-.6-2.54-.88q-4.6,2.19-9.32,4.59-3.72-3.74-7.43-7.26c-.9,0-1.79,0-2.68.06q4.2,3.89,8.41,8.07c-6.43,3.31-13,6.85-19.54,10.46-4.69-4.17-9.36-8-14-11.52-.62.33-1.22.67-1.83,1,4.7,3.46,9.4,7.31,14.11,11.46-6.6,3.61-13.24,7.27-19.88,10.81q-5.49-4.44-11-8.23c-.4.47-.78.94-1.17,1.41q5.22,3.58,10.42,7.75c-6.65,3.52-13.28,6.89-19.86,9.95l-.88-.65c-.47,1.11-.93,2.24-1.35,3.38l1.9-.85c5.33,4.1,10.64,8.65,15.91,13.47-6.51,2.94-13,5.62-19.3,7.86-.94-.87-1.89-1.72-2.83-2.56-.08.65-.13,1.29-.19,1.93l1.34,1.21-1.49.49c0,.6-.05,1.2-.08,1.8,1-.32,2-.64,3-1,5.31,4.95,10.57,10.21,15.79,15.62a157.84,157.84,0,0,1-16.93,5.39c.14.59.27,1.18.42,1.77a158.44,158.44,0,0,0,17.89-5.73c5.22,5.43,10.4,11,15.54,16.45a197,197,0,0,1-18.62,7.06c-4.77-5.54-9.58-11.08-14.44-16.48.31,1.12.65,2.23,1,3.32,4,4.5,7.91,9.08,11.81,13.66-1.58.48-3.16.93-4.73,1.33.37.58.74,1.13,1.12,1.69,1.64-.44,3.29-.92,5-1.43,5.08,6,10.12,11.93,15.12,17.7l-2.55,1c.67.43,1.34.85,2,1.25.61-.24,1.22-.47,1.84-.73.93,1.07,1.85,2.13,2.78,3.18,1.19.56,2.41,1.06,3.64,1.53q-2.38-2.65-4.8-5.38c6.15-2.6,12.45-5.61,18.86-8.88,5.07,5.1,10.13,9.92,15.16,14.29-2.09,1.24-4.16,2.44-6.23,3.63,1.32-.06,2.63-.16,3.93-.32l3.64-2.16c.51.44,1,.84,1.52,1.27.78-.17,1.55-.36,2.32-.56-.71-.58-1.41-1.15-2.11-1.75,6.54-3.93,13.18-8,19.87-12.13q2.13,1.51,4.28,2.91c.53-.41,1-.83,1.58-1.26-1.37-.87-2.72-1.79-4.09-2.74,5.14-3.14,10.31-6.27,15.48-9.31.69-.93,1.35-1.87,2-2.84-6.3,3.62-12.59,7.4-18.84,11.18a197.5,197.5,0,0,1-15.52-12.49c6.6-3.62,13.24-7.28,19.88-10.81a160.53,160.53,0,0,0,15.23,11c.33-.51.64-1,.95-1.56a155.87,155.87,0,0,1-14.41-10.38c6.64-3.51,13.27-6.89,19.85-9.94.84.63,1.68,1.24,2.52,1.85.16-.58.33-1.15.48-1.73l-1.26-.93,1.65-.73C1007.86,283.31,1008,282.68,1008.14,282ZM990.87,245.4c5.22,5.38,10.48,10.63,15.77,15.57-6.33,2.25-12.78,4.93-19.29,7.87-5.27-4.86-10.52-10-15.74-15.16C978.1,250.66,984.54,247.85,990.87,245.4Zm-43.73,18.1C940.58,266.74,934,270,927.53,273c-5.23-5.17-10.48-10.28-15.75-15.14,6.52-3,13.1-6.22,19.67-9.52C936.69,253.28,941.92,258.39,947.14,263.5Zm-13.94-16c6.57-3.31,13.15-6.68,19.67-9.93,5.2,5.12,10.41,10.36,15.63,15.55-6.5,3.06-13.06,6.29-19.62,9.53C943.66,257.53,938.43,252.41,933.2,247.49Zm15.33,17.37C953.75,270,959,275.09,964.22,280c-6.58,3.31-13.16,6.67-19.69,9.92-5.19-5.11-10.4-10.35-15.62-15.54C935.42,271.34,942,268.1,948.53,264.86Zm1.74-.86c6.55-3.24,13.11-6.47,19.61-9.52,5.23,5.18,10.48,10.29,15.74,15.15-6.51,3-13.08,6.21-19.66,9.51C960.72,274.23,955.49,269.12,950.27,264Zm23.67-36.4c5.15,5.46,10.32,11,15.54,16.37-6.33,2.47-12.77,5.3-19.26,8.33-5.22-5.2-10.42-10.46-15.62-15.59C961.12,233.48,967.58,230.39,973.94,227.6Zm-16.72-17.33c5.09,5.1,10.2,10.45,15.35,15.89-6.36,2.82-12.82,5.94-19.34,9.19-5.19-5.11-10.37-10.09-15.53-14.74C944.27,217,950.8,213.53,957.22,210.27ZM936,221.55c5.18,4.63,10.35,9.57,15.55,14.66-6.53,3.27-13.11,6.65-19.69,10-5.23-4.89-10.47-9.58-15.72-13.89C922.72,228.77,929.36,225.14,936,221.55ZM894.5,243.11c6.57-3.05,13.19-6.41,19.83-9.9,5.25,4.29,10.5,9,15.73,13.85-6.58,3.31-13.15,6.55-19.67,9.53C905.12,251.77,899.82,247.22,894.5,243.11Zm12,39c-5.23-5.38-10.48-10.63-15.79-15.57,6.34-2.25,12.79-4.94,19.3-7.88,5.27,4.86,10.52,10,15.74,15.17C919.31,276.84,912.87,279.66,906.55,282.11Zm1.38,1.42c6.33-2.46,12.76-5.3,19.26-8.32,5.22,5.19,10.43,10.45,15.62,15.59-6.52,3.22-13,6.31-19.34,9.1C918.33,294.45,913.14,288.94,907.93,283.53Zm11.73,43.29c-5-5.71-10-11.62-15.14-17.55,6.07-2,12.3-4.42,18.64-7.18,5.14,5.47,10.24,10.87,15.33,16C932.09,321.32,925.79,324.28,919.66,326.82Zm5.18-25.47c6.36-2.83,12.82-5.94,19.34-9.19,5.19,5.11,10.37,10.08,15.53,14.74-6.58,3.57-13.1,7.07-19.52,10.34C935.1,312.14,930,306.78,924.84,301.35Zm51.73,19.39c-6.68,4.05-13.31,8.1-19.84,12-5-4.32-10.1-9.09-15.19-14.14,6.43-3.31,13-6.85,19.55-10.46C966.25,312.72,971.41,317,976.57,320.74ZM961.46,306c-5.17-4.62-10.36-9.57-15.55-14.66,6.53-3.27,13.11-6.65,19.69-10,5.23,4.9,10.47,9.59,15.72,13.9C974.69,298.73,968.05,302.37,961.46,306Zm21.62-11.66c-5.25-4.29-10.5-9-15.73-13.85,6.57-3.31,13.15-6.54,19.67-9.53,5.27,4.82,10.57,9.38,15.89,13.49C996.34,287.45,989.72,290.8,983.08,294.29Z" transform="translate(-29.01 -36.67)"/><path class="cls-6" d="M759.1,375.17c1.34-10.53,19.37-18.4,19.37-18.4-11.09-6.24-24.78,3.21-24.78,3.21,1-15.5,19.26-33.18,19.26-33.18-21.57.6-32.9,31-32.9,31s-1.33-32.43-21.65-39.69c0,0,11.85,22.47,8,37.52,0,0-10.09-13.24-22.57-10.75,0,0,14.7,13.08,12.71,23.5,0,0-7.95-8.42-22.15-3.53,0,0,21.5,9.69,17.4,30.52l21.71,3.46,21.72,3.45c2.57-21.07,26-23.6,26-23.6C769.26,369.63,759.1,375.17,759.1,375.17Z" transform="translate(-29.01 -36.67)"/><path class="cls-7" d="M781.25,378.69c-9.13-6.91-17.2-5.33-20.53-4.2a74.19,74.19,0,0,1-24.41,24.79l18.92,3C757.8,381.22,781.25,378.69,781.25,378.69Z" transform="translate(-29.01 -36.67)"/><path class="cls-13" d="M784.88,468.32c-6,37.36-38,63.3-71.66,57.95s-56.05-40-50.1-77.34,38-63.31,71.65-57.95S790.82,431,784.88,468.32Z" transform="translate(-29.01 -36.67)"/><path class="cls-14" d="M781,430.13a70.22,70.22,0,0,1-.64,16.72c-6.23,39.17-44.12,66.65-83.29,60.41a71.28,71.28,0,0,1-24.33-8.63c9,14.5,23.3,24.9,40.49,27.64,33.63,5.35,65.71-20.59,71.66-57.95A73.72,73.72,0,0,0,781,430.13Z" transform="translate(-29.01 -36.67)"/><path class="cls-15" d="M727.64,425.71c-5.19-5.09-10.37-10-15.55-14.65-6.58,3.58-13.22,7.21-19.86,10.73,5.25,4.31,10.49,9,15.72,13.89C714.53,432.36,721.11,429,727.64,425.71Z" transform="translate(-29.01 -36.67)"/><path class="cls-15" d="M748.71,415.66c-5.14-5.43-10.25-10.79-15.34-15.89-6.42,3.26-13,6.77-19.53,10.34,5.17,4.66,10.34,9.63,15.53,14.74C735.89,421.6,742.36,418.48,748.71,415.66Z" transform="translate(-29.01 -36.67)"/><path class="cls-15" d="M717.69,508.08c5.08,5.05,10.14,9.82,15.18,14.14,6.53-3.87,13.16-7.92,19.85-12-5.16-3.75-10.32-8-15.49-12.61C730.64,501.23,724.11,504.78,717.69,508.08Z" transform="translate(-29.01 -36.67)"/><path class="cls-15" d="M746.37,441.8c6.49-3,12.93-5.86,19.26-8.33-5.22-5.4-10.4-10.91-15.55-16.36-6.36,2.78-12.82,5.87-19.33,9.1C735.94,431.34,741.14,436.6,746.37,441.8Z" transform="translate(-29.01 -36.67)"/><path class="cls-15" d="M761.77,459.13c-5.27-4.86-10.51-10-15.74-15.15-6.51,3-13.06,6.28-19.62,9.52,5.23,5.12,10.46,10.23,15.69,15.15C748.68,465.35,755.25,462.12,761.77,459.13Z" transform="translate(-29.01 -36.67)"/><path class="cls-15" d="M720.33,481.66c-6.52,3.25-13,6.37-19.34,9.19,5.14,5.44,10.25,10.79,15.34,15.89,6.43-3.27,12.95-6.77,19.53-10.34C730.69,491.74,725.52,486.77,720.33,481.66Z" transform="translate(-29.01 -36.67)"/><path class="cls-15" d="M680.67,498.77c5.09,5.93,10.13,11.84,15.13,17.55,6.14-2.54,12.43-5.5,18.83-8.72-5.08-5.14-10.19-10.54-15.33-16C693,494.35,686.73,496.81,680.67,498.77Z" transform="translate(-29.01 -36.67)"/><path class="cls-15" d="M706.21,436.56c-5.24-4.88-10.48-9.55-15.74-13.84-6.63,3.49-13.26,6.84-19.83,9.89,5.32,4.11,10.62,8.67,15.89,13.48C693.05,443.11,699.63,439.87,706.21,436.56Z" transform="translate(-29.01 -36.67)"/><path class="cls-15" d="M719,480.3c-5.19-5.13-10.39-10.39-15.62-15.59-6.49,3-12.93,5.86-19.26,8.33,5.22,5.4,10.4,10.91,15.55,16.37C706,486.62,712.43,483.53,719,480.3Z" transform="translate(-29.01 -36.67)"/><path class="cls-15" d="M686.2,448.16c-6.5,2.94-13,5.63-19.29,7.88,5.3,4.94,10.56,10.19,15.78,15.57,6.33-2.45,12.76-5.26,19.26-8.28C696.72,458.14,691.47,453,686.2,448.16Z" transform="translate(-29.01 -36.67)"/><path class="cls-15" d="M687.93,447.38c5.27,4.86,10.52,10,15.74,15.15,6.5-3,13.06-6.28,19.62-9.52-5.23-5.12-10.46-10.23-15.69-15.15C701,441.16,694.45,444.39,687.93,447.38Z" transform="translate(-29.01 -36.67)"/><path class="cls-15" d="M763.5,458.35c6.5-2.94,13-5.63,19.29-7.88-5.3-4.94-10.56-10.19-15.78-15.57-6.33,2.45-12.76,5.26-19.26,8.28C753,448.37,758.23,453.48,763.5,458.35Z" transform="translate(-29.01 -36.67)"/><path class="cls-15" d="M744.65,442.61c-5.23-5.19-10.44-10.43-15.63-15.54-6.52,3.24-13.1,6.61-19.68,9.92,5.23,4.93,10.46,10,15.69,15.16C731.58,448.9,738.14,445.67,744.65,442.61Z" transform="translate(-29.01 -36.67)"/><path class="cls-15" d="M743.49,470c5.24,4.88,10.48,9.55,15.74,13.84,6.63-3.49,13.26-6.84,19.83-9.89-5.32-4.11-10.62-8.67-15.89-13.48C756.65,463.4,750.07,466.64,743.49,470Z" transform="translate(-29.01 -36.67)"/><path class="cls-15" d="M722.06,480.8c5.19,5.08,10.37,10,15.55,14.65,6.58-3.58,13.22-7.21,19.86-10.73-5.25-4.31-10.49-9-15.72-13.89C735.17,474.14,728.59,477.53,722.06,480.8Z" transform="translate(-29.01 -36.67)"/><path class="cls-15" d="M740.36,469.52c-5.23-4.93-10.46-10-15.69-15.16-6.55,3.24-13.11,6.48-19.61,9.54,5.22,5.19,10.43,10.43,15.62,15.54C727.21,476.2,733.78,472.83,740.36,469.52Z" transform="translate(-29.01 -36.67)"/><path class="cls-16" d="M784.28,471.55l-3.48,1.55c-5.33-4.1-10.63-8.65-15.9-13.47,6.5-2.94,13-5.62,19.3-7.86l1.55,1.4q-.09-1.83-.24-3.63l-1,.34c-5.3-4.95-10.56-10.22-15.78-15.62,4.15-1.57,8.26-2.95,12.3-4.13-.22-.57-.44-1.14-.67-1.7-4.28,1.24-8.62,2.72-13,4.4-5.21-5.43-10.39-11-15.54-16.46,5.77-2.48,11.43-4.68,17-6.51-.46-.52-.94-1-1.42-1.53-5.52,1.86-11.17,4.09-16.91,6.59-5.14-5.47-10.25-10.87-15.33-16q5.31-2.67,10.5-5.06c-.83-.32-1.68-.61-2.53-.89-3.08,1.46-6.19,3-9.32,4.59-2.49-2.49-5-4.91-7.44-7.25-.89,0-1.79,0-2.67.05q4.18,3.88,8.41,8.08c-6.43,3.3-13,6.85-19.55,10.45-4.68-4.16-9.36-8-14-11.52-.61.33-1.22.67-1.82,1,4.7,3.46,9.4,7.31,14.1,11.46-6.59,3.61-13.24,7.28-19.88,10.81q-5.49-4.44-11-8.22c-.39.46-.78.93-1.16,1.41q5.22,3.57,10.41,7.75c-6.64,3.51-13.28,6.88-19.86,9.94l-.87-.64c-.48,1.11-.93,2.23-1.36,3.37l1.91-.85c5.33,4.1,10.63,8.65,15.9,13.47-6.5,2.94-13,5.62-19.3,7.86-.94-.87-1.88-1.71-2.83-2.56-.07.65-.12,1.29-.18,1.93l1.33,1.21-1.48.49c0,.6-.06,1.2-.09,1.8,1-.32,2-.64,3-1,5.3,4.95,10.56,10.22,15.79,15.62a158.71,158.71,0,0,1-16.94,5.39c.14.59.27,1.19.43,1.77a159.09,159.09,0,0,0,17.89-5.73c5.21,5.43,10.39,11,15.54,16.46-6.34,2.73-12.56,5.14-18.63,7.06-4.77-5.55-9.58-11.09-14.44-16.49q.48,1.68,1,3.33c4,4.49,7.91,9.07,11.82,13.65-1.59.49-3.17.93-4.73,1.34q.54.86,1.11,1.68c1.64-.44,3.3-.91,5-1.43,5.09,6,10.12,11.93,15.12,17.7-.85.35-1.7.68-2.55,1,.67.44,1.34.85,2,1.25.62-.24,1.23-.47,1.84-.72.93,1.07,1.86,2.12,2.79,3.17,1.19.56,2.4,1.06,3.64,1.54-1.6-1.78-3.2-3.57-4.8-5.39,6.14-2.59,12.44-5.61,18.85-8.87,5.08,5.09,10.13,9.91,15.17,14.29q-3.14,1.85-6.24,3.63c1.32-.07,2.63-.17,3.94-.33l3.63-2.16c.51.44,1,.84,1.53,1.27.77-.17,1.54-.36,2.31-.56l-2.11-1.74c6.54-3.94,13.18-8,19.87-12.13,1.43,1,2.85,2,4.28,2.9.53-.41,1.06-.83,1.58-1.26q-2-1.31-4.08-2.73c5.14-3.14,10.3-6.27,15.48-9.32.68-.92,1.35-1.87,2-2.84-6.29,3.63-12.58,7.4-18.84,11.19-5.17-3.71-10.34-7.94-15.51-12.5,6.59-3.61,13.24-7.28,19.88-10.81a159.27,159.27,0,0,0,15.23,11c.32-.51.63-1,.95-1.55a158,158,0,0,1-14.42-10.39c6.64-3.51,13.27-6.88,19.85-9.94.84.63,1.69,1.24,2.53,1.85.16-.57.33-1.15.48-1.73-.42-.31-.85-.61-1.26-.93l1.64-.73C784,472.81,784.16,472.18,784.28,471.55ZM767,434.9c5.22,5.38,10.48,10.63,15.78,15.57-6.34,2.25-12.79,4.94-19.29,7.88-5.27-4.87-10.52-10-15.75-15.17C754.25,440.16,760.68,437.35,767,434.9ZM723.29,453c-6.56,3.24-13.12,6.47-19.62,9.52-5.22-5.18-10.47-10.29-15.74-15.15,6.52-3,13.09-6.22,19.67-9.52C712.83,442.78,718.06,447.89,723.29,453Zm-13.95-16c6.58-3.31,13.16-6.68,19.68-9.92,5.19,5.11,10.4,10.35,15.63,15.54-6.51,3.06-13.07,6.29-19.62,9.54C719.8,447,714.57,441.92,709.34,437Zm15.33,17.37c5.23,5.12,10.46,10.23,15.69,15.16-6.58,3.31-13.15,6.68-19.68,9.92-5.19-5.11-10.4-10.35-15.62-15.54C711.56,460.84,718.12,457.6,724.67,454.36Zm1.74-.86C733,450.26,739.52,447,746,444c5.23,5.18,10.47,10.29,15.74,15.15-6.52,3-13.09,6.22-19.67,9.52C736.87,463.73,731.64,458.62,726.41,453.5Zm23.67-36.39c5.15,5.45,10.33,11,15.55,16.36-6.33,2.47-12.77,5.31-19.26,8.33-5.23-5.2-10.43-10.46-15.62-15.59C737.26,423,743.72,419.89,750.08,417.11Zm-16.71-17.34c5.09,5.1,10.2,10.46,15.34,15.89-6.35,2.82-12.82,5.94-19.34,9.19-5.19-5.11-10.36-10.08-15.53-14.74C720.42,406.54,727,403,733.37,399.77Zm-21.28,11.29c5.18,4.62,10.36,9.56,15.55,14.65-6.53,3.27-13.11,6.65-19.69,10-5.23-4.89-10.47-9.58-15.72-13.89C698.87,418.27,705.51,414.64,712.09,411.06Zm-41.45,21.55c6.57-3.05,13.2-6.4,19.83-9.89,5.26,4.29,10.5,9,15.74,13.84-6.58,3.31-13.16,6.55-19.68,9.53C681.26,441.28,676,436.72,670.64,432.61Zm12.05,39c-5.22-5.38-10.48-10.63-15.78-15.57,6.34-2.25,12.79-4.94,19.29-7.88,5.27,4.87,10.52,10,15.75,15.17C695.45,466.35,689,469.16,682.69,471.61Zm1.38,1.43c6.33-2.47,12.77-5.3,19.26-8.33,5.23,5.2,10.43,10.46,15.62,15.59-6.52,3.23-13,6.32-19.33,9.11C694.47,484,689.29,478.44,684.07,473Zm11.73,43.28c-5-5.71-10-11.62-15.13-17.55,6.06-2,12.29-4.42,18.63-7.18,5.14,5.47,10.25,10.87,15.33,16C708.23,510.82,701.94,513.78,695.8,516.32ZM701,490.85c6.35-2.82,12.82-5.94,19.34-9.19,5.19,5.11,10.36,10.08,15.53,14.74-6.58,3.57-13.1,7.07-19.53,10.34C711.24,501.64,706.13,496.29,701,490.85Zm51.73,19.39c-6.69,4.06-13.32,8.11-19.85,12-5-4.32-10.1-9.09-15.18-14.14,6.42-3.3,12.95-6.85,19.54-10.45C742.4,502.22,747.56,506.49,752.72,510.24Zm-15.11-14.79c-5.18-4.62-10.36-9.57-15.55-14.65,6.53-3.27,13.11-6.66,19.69-10,5.23,4.89,10.47,9.58,15.72,13.89C750.83,488.24,744.19,491.87,737.61,495.45Zm21.62-11.66c-5.26-4.29-10.5-9-15.74-13.84,6.58-3.31,13.16-6.55,19.68-9.53,5.27,4.81,10.57,9.37,15.89,13.48C772.49,477,765.86,480.3,759.23,483.79Z" transform="translate(-29.01 -36.67)"/><path class="cls-6" d="M947.44,405.15c1.35-10.52,19.38-18.39,19.38-18.39C955.73,380.52,942,390,942,390c1-15.5,19.27-33.18,19.27-33.18-21.57.6-32.91,31-32.91,31s-1.33-32.43-21.65-39.69c0,0,11.86,22.47,8,37.52,0,0-10.08-13.24-22.56-10.75,0,0,14.69,13.08,12.7,23.5,0,0-7.94-8.42-22.15-3.53,0,0,21.51,9.69,17.41,30.52l21.71,3.45,21.71,3.46c2.57-21.07,26-23.6,26-23.6C957.61,399.61,947.44,405.15,947.44,405.15Z" transform="translate(-29.01 -36.67)"/><path class="cls-7" d="M969.59,408.68c-9.13-6.91-17.2-5.34-20.52-4.2a74.13,74.13,0,0,1-24.42,24.79l18.92,3C946.14,411.21,969.59,408.68,969.59,408.68Z" transform="translate(-29.01 -36.67)"/><path class="cls-13" d="M973.22,498.3c-6,37.36-38,63.31-71.65,57.95s-56.06-40-50.11-77.33,38-63.31,71.65-57.95S979.17,460.94,973.22,498.3Z" transform="translate(-29.01 -36.67)"/><path class="cls-14" d="M969.34,460.12a71.28,71.28,0,0,1-.64,16.72c-6.24,39.17-44.13,66.65-83.3,60.41a71,71,0,0,1-24.32-8.64c9,14.5,23.3,24.91,40.49,27.64,33.62,5.36,65.7-20.59,71.65-57.95A73.69,73.69,0,0,0,969.34,460.12Z" transform="translate(-29.01 -36.67)"/><path class="cls-15" d="M916,455.7c-5.19-5.09-10.37-10-15.55-14.66-6.59,3.59-13.23,7.22-19.86,10.74,5.25,4.31,10.49,9,15.72,13.89C902.88,462.35,909.46,459,916,455.7Z" transform="translate(-29.01 -36.67)"/><path class="cls-15" d="M937.06,445.65c-5.15-5.44-10.26-10.79-15.35-15.89-6.42,3.26-13,6.77-19.52,10.34,5.16,4.65,10.34,9.63,15.53,14.74C924.24,451.59,930.7,448.47,937.06,445.65Z" transform="translate(-29.01 -36.67)"/><path class="cls-15" d="M906,538.07c5.09,5,10.15,9.82,15.19,14.14,6.53-3.88,13.16-7.93,19.84-12-5.16-3.75-10.32-8-15.48-12.61C919,531.22,912.46,534.76,906,538.07Z" transform="translate(-29.01 -36.67)"/><path class="cls-15" d="M934.71,471.79c6.5-3,12.93-5.86,19.26-8.33-5.22-5.4-10.39-10.91-15.54-16.37-6.36,2.79-12.82,5.88-19.34,9.11C924.29,461.33,929.49,466.59,934.71,471.79Z" transform="translate(-29.01 -36.67)"/><path class="cls-15" d="M950.12,489.12c-5.27-4.86-10.52-10-15.75-15.15-6.5,3-13.06,6.28-19.61,9.52,5.22,5.12,10.45,10.23,15.69,15.14C937,495.33,943.6,492.11,950.12,489.12Z" transform="translate(-29.01 -36.67)"/><path class="cls-15" d="M908.67,511.65c-6.52,3.25-13,6.36-19.34,9.19,5.15,5.43,10.26,10.79,15.35,15.89,6.42-3.27,13-6.77,19.52-10.34C919,521.73,913.86,516.76,908.67,511.65Z" transform="translate(-29.01 -36.67)"/><path class="cls-15" d="M869,528.76c5.09,5.93,10.14,11.84,15.14,17.55,6.13-2.54,12.43-5.5,18.83-8.72-5.09-5.14-10.19-10.54-15.33-16C881.31,524.34,875.08,526.79,869,528.76Z" transform="translate(-29.01 -36.67)"/><path class="cls-15" d="M894.55,466.55c-5.23-4.88-10.48-9.55-15.73-13.85-6.64,3.49-13.26,6.85-19.83,9.9,5.32,4.11,10.62,8.66,15.89,13.48C881.4,473.1,888,469.86,894.55,466.55Z" transform="translate(-29.01 -36.67)"/><path class="cls-15" d="M907.3,510.29c-5.19-5.14-10.4-10.4-15.62-15.59-6.5,3-12.93,5.86-19.26,8.33,5.22,5.4,10.4,10.91,15.54,16.36C894.32,516.61,900.78,513.51,907.3,510.29Z" transform="translate(-29.01 -36.67)"/><path class="cls-15" d="M874.55,478.15c-6.51,2.94-13,5.63-19.3,7.88,5.31,4.94,10.56,10.19,15.79,15.57,6.32-2.45,12.76-5.27,19.25-8.28C885.07,488.13,879.82,483,874.55,478.15Z" transform="translate(-29.01 -36.67)"/><path class="cls-15" d="M876.27,477.37c5.27,4.86,10.52,10,15.75,15.14,6.5-3,13.06-6.27,19.61-9.51-5.22-5.12-10.45-10.23-15.69-15.15C889.37,471.15,882.79,474.38,876.27,477.37Z" transform="translate(-29.01 -36.67)"/><path class="cls-15" d="M951.84,488.33c6.51-2.94,13-5.62,19.29-7.87-5.29-4.94-10.55-10.19-15.77-15.57-6.33,2.45-12.77,5.26-19.26,8.28C941.32,478.36,946.57,483.47,951.84,488.33Z" transform="translate(-29.01 -36.67)"/><path class="cls-15" d="M933,472.6c-5.22-5.19-10.43-10.43-15.63-15.55-6.52,3.25-13.1,6.62-19.67,9.93,5.23,4.92,10.46,10,15.68,15.15C919.93,478.89,926.49,475.66,933,472.6Z" transform="translate(-29.01 -36.67)"/><path class="cls-15" d="M931.84,499.93c5.23,4.89,10.48,9.56,15.73,13.85,6.64-3.49,13.26-6.84,19.83-9.89-5.32-4.11-10.62-8.67-15.89-13.49C945,493.39,938.41,496.62,931.84,499.93Z" transform="translate(-29.01 -36.67)"/><path class="cls-15" d="M910.4,510.78c5.2,5.09,10.38,10,15.55,14.66,6.59-3.58,13.23-7.22,19.86-10.73-5.25-4.31-10.49-9-15.72-13.9C923.51,504.13,916.93,507.51,910.4,510.78Z" transform="translate(-29.01 -36.67)"/><path class="cls-15" d="M928.71,499.51c-5.24-4.93-10.47-10-15.69-15.16-6.56,3.24-13.11,6.48-19.62,9.54,5.22,5.19,10.43,10.43,15.63,15.54C915.55,506.18,922.13,502.82,928.71,499.51Z" transform="translate(-29.01 -36.67)"/><path class="cls-16" d="M972.63,501.53c-1.16.51-2.32,1-3.48,1.56-5.33-4.1-10.63-8.66-15.91-13.47,6.51-2.94,13-5.62,19.3-7.86l1.55,1.4q-.08-1.83-.24-3.63l-1,.34c-5.31-4.95-10.57-10.22-15.79-15.62q6.24-2.36,12.31-4.13c-.22-.57-.44-1.14-.68-1.71-4.27,1.25-8.61,2.73-13,4.4-5.22-5.42-10.4-11-15.54-16.45,5.76-2.48,11.42-4.68,17-6.51q-.69-.78-1.41-1.53c-5.53,1.86-11.17,4.08-16.92,6.59-5.14-5.47-10.24-10.87-15.33-16q5.31-2.67,10.51-5.07c-.84-.31-1.68-.6-2.54-.88-3.07,1.46-6.18,3-9.32,4.59q-3.72-3.74-7.43-7.26c-.9,0-1.79,0-2.68.06q4.2,3.89,8.41,8.07c-6.43,3.31-13,6.85-19.54,10.46-4.68-4.17-9.36-8-14-11.52-.62.33-1.22.67-1.83,1,4.7,3.46,9.4,7.31,14.11,11.46-6.6,3.61-13.24,7.27-19.88,10.81q-5.49-4.44-11-8.23c-.4.47-.78.94-1.17,1.41q5.22,3.58,10.42,7.76c-6.65,3.51-13.28,6.88-19.86,9.94l-.87-.65c-.48,1.11-.94,2.24-1.36,3.38l1.9-.85c5.33,4.1,10.64,8.65,15.91,13.47-6.51,2.94-13,5.62-19.3,7.86-.94-.87-1.89-1.71-2.83-2.56-.07.65-.13,1.29-.19,1.93l1.34,1.21-1.49.49c0,.6,0,1.2-.08,1.8,1-.32,2-.64,3-1,5.31,4.95,10.57,10.21,15.79,15.62a157.84,157.84,0,0,1-16.93,5.39c.14.59.27,1.18.42,1.77a158.44,158.44,0,0,0,17.89-5.73c5.22,5.43,10.4,11,15.54,16.45a194.33,194.33,0,0,1-18.62,7.06c-4.77-5.54-9.58-11.08-14.44-16.48.31,1.12.65,2.23,1,3.32,4,4.5,7.91,9.08,11.81,13.66-1.58.48-3.16.93-4.73,1.33.37.58.74,1.13,1.12,1.69,1.64-.44,3.29-.91,5-1.43,5.08,6,10.12,11.93,15.12,17.7L880,548c.67.43,1.34.85,2,1.25.61-.24,1.22-.47,1.84-.73.93,1.07,1.85,2.13,2.78,3.18,1.19.56,2.41,1.06,3.64,1.53q-2.38-2.66-4.8-5.38c6.15-2.59,12.45-5.61,18.86-8.88,5.07,5.1,10.13,9.92,15.16,14.29-2.09,1.24-4.16,2.45-6.23,3.63,1.32-.06,2.63-.16,3.93-.32l3.64-2.16c.51.44,1,.84,1.52,1.27.78-.17,1.55-.36,2.32-.56-.7-.58-1.41-1.15-2.11-1.75,6.54-3.93,13.18-8,19.87-12.13,1.43,1,2.85,2,4.28,2.91.53-.41,1-.83,1.58-1.26-1.37-.87-2.72-1.78-4.09-2.74,5.14-3.14,10.31-6.27,15.48-9.31.69-.93,1.35-1.87,2-2.84-6.3,3.62-12.59,7.4-18.84,11.18a197.5,197.5,0,0,1-15.52-12.49c6.6-3.62,13.24-7.28,19.88-10.81a160.53,160.53,0,0,0,15.23,11c.33-.51.64-1,1-1.56A155.87,155.87,0,0,1,949,514.91c6.64-3.51,13.27-6.88,19.85-9.94.84.63,1.68,1.24,2.52,1.85.16-.58.33-1.15.48-1.73l-1.26-.93,1.65-.73C972.35,502.8,972.5,502.17,972.63,501.53Zm-17.27-36.64c5.22,5.38,10.48,10.63,15.77,15.57-6.33,2.25-12.78,4.93-19.29,7.87-5.27-4.86-10.52-10-15.74-15.16C942.59,470.15,949,467.34,955.36,464.89ZM911.63,483c-6.55,3.24-13.11,6.47-19.61,9.51-5.23-5.17-10.48-10.28-15.75-15.14,6.52-3,13.1-6.22,19.67-9.52C901.18,472.77,906.41,477.88,911.63,483Zm-13.94-16c6.57-3.31,13.15-6.68,19.67-9.93,5.2,5.12,10.41,10.36,15.63,15.55-6.5,3.06-13.06,6.29-19.62,9.53C908.15,477,902.92,471.9,897.69,467ZM913,484.35c5.22,5.12,10.45,10.23,15.69,15.16-6.58,3.31-13.16,6.67-19.68,9.92-5.2-5.11-10.41-10.35-15.63-15.54C899.91,490.83,906.46,487.59,913,484.35Zm1.74-.86c6.55-3.24,13.11-6.47,19.61-9.52,5.23,5.18,10.48,10.29,15.75,15.15-6.52,3-13.09,6.21-19.67,9.51C925.21,493.72,920,488.61,914.76,483.49Zm23.67-36.4c5.15,5.46,10.32,11,15.54,16.37-6.33,2.47-12.76,5.3-19.26,8.33-5.22-5.2-10.42-10.46-15.62-15.59C925.61,453,932.07,449.88,938.43,447.09Zm-16.72-17.33c5.09,5.1,10.2,10.45,15.35,15.89-6.36,2.82-12.82,5.94-19.34,9.19-5.19-5.11-10.37-10.09-15.53-14.74C908.76,436.53,915.29,433,921.71,429.76ZM900.44,441c5.18,4.63,10.36,9.57,15.55,14.66-6.53,3.27-13.11,6.65-19.69,10-5.23-4.89-10.47-9.58-15.72-13.89C887.21,448.26,893.85,444.63,900.44,441ZM859,462.6c6.57-3.05,13.19-6.41,19.83-9.9,5.25,4.3,10.5,9,15.73,13.85-6.57,3.31-13.15,6.55-19.67,9.53C869.61,471.26,864.31,466.71,859,462.6Zm12,39c-5.23-5.38-10.48-10.63-15.79-15.57,6.34-2.25,12.79-4.94,19.3-7.88,5.27,4.86,10.52,10,15.74,15.17C883.8,496.33,877.36,499.15,871,501.6Zm1.38,1.43c6.33-2.47,12.76-5.31,19.26-8.33,5.22,5.19,10.43,10.45,15.62,15.59-6.52,3.22-13,6.32-19.34,9.1C882.82,513.94,877.64,508.43,872.42,503Zm11.73,43.28c-5-5.71-10-11.62-15.14-17.55,6.07-2,12.3-4.42,18.64-7.18,5.14,5.47,10.24,10.87,15.33,16C896.58,540.81,890.28,543.77,884.15,546.31Zm5.18-25.47c6.36-2.83,12.82-5.94,19.34-9.19,5.19,5.11,10.37,10.08,15.53,14.74-6.57,3.57-13.1,7.07-19.52,10.34C899.59,531.63,894.48,526.27,889.33,520.84Zm51.73,19.39c-6.68,4-13.31,8.1-19.84,12-5-4.32-10.1-9.09-15.19-14.14,6.43-3.31,13-6.85,19.55-10.45C930.74,532.21,935.9,536.48,941.06,540.23ZM926,525.44c-5.17-4.62-10.35-9.57-15.55-14.66,6.53-3.27,13.11-6.65,19.69-10,5.23,4.9,10.47,9.59,15.72,13.9C939.18,518.22,932.54,521.86,926,525.44Zm21.62-11.66c-5.25-4.29-10.5-9-15.73-13.85,6.57-3.31,13.15-6.54,19.67-9.53,5.27,4.82,10.57,9.38,15.89,13.49C960.83,506.94,954.21,510.29,947.57,513.78Z" transform="translate(-29.01 -36.67)"/></g><path class="cls-2" d="M1061,685.91a49,49,0,0,1-17.21-3.12L768.05,579.7A49.55,49.55,0,0,1,739,516L894.09,101.2a49.8,49.8,0,0,1,46.49-32.15,49,49,0,0,1,17.21,3.11l275.76,103.1a49.55,49.55,0,0,1,29,63.7l-155.07,414.8A49.8,49.8,0,0,1,1061,685.91Z" transform="translate(-29.01 -36.67)"/><path class="cls-3" d="M940.58,68.55v1h0a48.44,48.44,0,0,1,17,3.08l275.76,103.1a49,49,0,0,1,28.74,63.05L1107,653.58a49.29,49.29,0,0,1-46,31.83,48.45,48.45,0,0,1-17-3.09L768.22,579.23a49.05,49.05,0,0,1-28.73-63.06l155.07-414.8a49.3,49.3,0,0,1,46-31.82v-1m0,0a50.18,50.18,0,0,0-47,32.47L738.55,515.82a50.16,50.16,0,0,0,29.32,64.35l275.77,103.09a49.49,49.49,0,0,0,17.38,3.15,50.19,50.19,0,0,0,47-32.48l155.07-414.8a50.14,50.14,0,0,0-29.33-64.34L958,71.7a49.49,49.49,0,0,0-17.38-3.15Z" transform="translate(-29.01 -36.67)"/><g id="_5개" data-name="5개"><path class="cls-4" d="M1010.21,201.56c-5.56-37.44-42.7-40.51-42.7-40.51s-30-22.05-58.8,2.57S901,267.68,924.38,276.42,1015.76,239,1010.21,201.56Z" transform="translate(-29.01 -36.67)"/><path class="cls-5" d="M1010.21,201.56c-3.06-20.58-15.65-30.76-26.38-35.77a62.8,62.8,0,0,1,8.07,58.35C980,256,943.42,272.69,911.53,260.77c-1-.37-2-.77-2.94-1.19,4.69,8.54,10.18,14.74,15.79,16.84C947.75,285.15,1015.76,239,1010.21,201.56Z" transform="translate(-29.01 -36.67)"/><path class="cls-6" d="M1010.74,175.65C1007.32,167,995,158.84,995,158.84l6.15-9.78c-15.75-4.63-31,5.06-31,5.06S964.93,136.79,950,130l-1.77,11.4s-14.67-1.94-22.93,2.35c0,0,12,6.88,15.15,11.8,0,0-7.07,7.77-3.78,15.66,0,0,11.35-7,19.39-4L954.93,178l8.35-5.62,2.61,9.72,6.25-8.91c8,3,12,15.73,12,15.73,7.66-3.8,7.43-14.29,7.43-14.29C997.17,173,1010.74,175.65,1010.74,175.65Z" transform="translate(-29.01 -36.67)"/><path class="cls-7" d="M1010.74,175.65C1007.32,167,995,158.84,995,158.84l6.15-9.78a34.61,34.61,0,0,0-16.55-.47,36.82,36.82,0,0,1,1.35,28.63,36.34,36.34,0,0,1-3.64,7.14,37.31,37.31,0,0,1,1.86,4.55c7.66-3.8,7.43-14.29,7.43-14.29C997.17,173,1010.74,175.65,1010.74,175.65Z" transform="translate(-29.01 -36.67)"/><path class="cls-8" d="M966.85,162.8a3.23,3.23,0,0,1-2-3.94c12.77-43.6,35.41-38,36.37-37.73a3.23,3.23,0,0,1-1.66,6.25c-.81-.19-17.68-3.68-28.51,33.3a3.23,3.23,0,0,1-4,2.2Z" transform="translate(-29.01 -36.67)"/><path class="cls-9" d="M921.19,170.1c-1.23,1.66-3.21,2.29-4.43,1.39s-1.21-3,0-4.64,3.21-2.29,4.43-1.39S922.41,168.44,921.19,170.1Z" transform="translate(-29.01 -36.67)"/><path class="cls-9" d="M936.64,186c-1.23,1.67-3.21,2.29-4.43,1.39s-1.22-3,0-4.64,3.21-2.28,4.43-1.39S937.86,184.34,936.64,186Z" transform="translate(-29.01 -36.67)"/><path class="cls-9" d="M996.67,198.32c-.16,2.06.93,3.83,2.43,4s2.87-1.45,3-3.51-.92-3.83-2.43-3.95S996.84,196.26,996.67,198.32Z" transform="translate(-29.01 -36.67)"/><path class="cls-9" d="M974.58,200.19c-.17,2.06.92,3.83,2.43,3.95s2.87-1.45,3-3.51-.92-3.83-2.43-3.95S974.75,198.13,974.58,200.19Z" transform="translate(-29.01 -36.67)"/><path class="cls-9" d="M957.54,195.56c-.76,1.92-2.52,3-3.93,2.47s-1.93-2.57-1.17-4.49,2.52-3,3.93-2.47S958.3,193.64,957.54,195.56Z" transform="translate(-29.01 -36.67)"/><path class="cls-9" d="M916.05,219.62c-1.23,1.66-3.21,2.28-4.43,1.39s-1.21-3,0-4.64,3.21-2.29,4.43-1.39S917.28,218,916.05,219.62Z" transform="translate(-29.01 -36.67)"/><path class="cls-9" d="M969.35,239.55c-.16,2.06.93,3.83,2.43,3.95s2.87-1.45,3-3.51-.92-3.83-2.43-4S969.52,237.48,969.35,239.55Z" transform="translate(-29.01 -36.67)"/><path class="cls-9" d="M944,231.8c-.76,1.93-2.52,3-3.93,2.47s-1.93-2.56-1.17-4.48,2.52-3,3.93-2.48S944.75,229.88,944,231.8Z" transform="translate(-29.01 -36.67)"/><path class="cls-9" d="M932,263.87c-.76,1.92-2.52,3-3.93,2.47s-1.93-2.56-1.17-4.49,2.52-3,3.93-2.47S932.76,262,932,263.87Z" transform="translate(-29.01 -36.67)"/><path class="cls-9" d="M916.13,191.67c-1.24,1.65-3.24,2.24-4.44,1.33s-1.18-3,.07-4.64,3.24-2.24,4.45-1.33S917.38,190,916.13,191.67Z" transform="translate(-29.01 -36.67)"/><path class="cls-9" d="M936.07,207.05c-1.31,1.6-3.32,2.12-4.49,1.16s-1.06-3,.25-4.64,3.32-2.11,4.49-1.15S937.38,205.45,936.07,207.05Z" transform="translate(-29.01 -36.67)"/><path class="cls-9" d="M986.34,217.92c-.14,2.06,1,3.81,2.48,3.92s2.85-1.49,3-3.56-1-3.81-2.49-3.91S986.47,215.85,986.34,217.92Z" transform="translate(-29.01 -36.67)"/><path class="cls-9" d="M961.2,216.44c-.06,2.07,1.12,3.78,2.63,3.82s2.79-1.59,2.85-3.66-1.12-3.77-2.63-3.82S961.26,214.38,961.2,216.44Z" transform="translate(-29.01 -36.67)"/><path class="cls-9" d="M947.75,253.26c1.41-1.52,3.45-1.92,4.56-.89s.87,3.09-.53,4.61-3.44,1.92-4.55.89S946.35,254.78,947.75,253.26Z" transform="translate(-29.01 -36.67)"/><path class="cls-9" d="M923.23,242.38c.18-2.06-.89-3.83-2.4-4s-2.88,1.43-3.06,3.49.89,3.84,2.39,4S923.05,244.44,923.23,242.38Z" transform="translate(-29.01 -36.67)"/><path class="cls-4" d="M1211,278.2c-5.56-37.44-42.7-40.51-42.7-40.51s-30-22.05-58.8,2.57-7.69,104.06,15.67,112.8S1216.55,315.65,1211,278.2Z" transform="translate(-29.01 -36.67)"/><path class="cls-5" d="M1211,278.2c-3.06-20.58-15.65-30.76-26.38-35.77a62.8,62.8,0,0,1,8.07,58.35c-11.92,31.89-48.48,48.55-80.37,36.63-1-.37-2-.77-2.94-1.19,4.69,8.54,10.17,14.74,15.79,16.84C1148.54,361.79,1216.55,315.65,1211,278.2Z" transform="translate(-29.01 -36.67)"/><path class="cls-6" d="M1211.53,252.29c-3.42-8.66-15.77-16.82-15.77-16.82l6.15-9.77c-15.75-4.63-31,5.05-31,5.05s-5.18-17.32-20.1-24.15L1149,218s-14.67-1.94-22.93,2.35c0,0,12,6.88,15.14,11.8,0,0-7.06,7.77-3.77,15.66,0,0,11.35-7,19.39-4l-1.14,10.82,8.35-5.62,2.61,9.72,6.24-8.91c8,3,12,15.73,12,15.73,7.66-3.8,7.43-14.29,7.43-14.29C1198,249.61,1211.53,252.29,1211.53,252.29Z" transform="translate(-29.01 -36.67)"/><path class="cls-7" d="M1211.53,252.29c-3.42-8.66-15.77-16.82-15.77-16.82l6.15-9.77a34.49,34.49,0,0,0-16.55-.47,36.77,36.77,0,0,1,1.34,28.63,35.77,35.77,0,0,1-3.63,7.14,37.31,37.31,0,0,1,1.86,4.55c7.66-3.8,7.43-14.29,7.43-14.29C1198,249.61,1211.53,252.29,1211.53,252.29Z" transform="translate(-29.01 -36.67)"/><path class="cls-8" d="M1167.64,239.44a3.23,3.23,0,0,1-2-3.94c12.77-43.6,35.41-38,36.37-37.73a3.23,3.23,0,0,1-1.66,6.25c-.81-.19-17.68-3.69-28.51,33.3a3.23,3.23,0,0,1-4,2.2Z" transform="translate(-29.01 -36.67)"/><path class="cls-9" d="M1122,246.74c-1.23,1.66-3.21,2.29-4.43,1.39s-1.22-3,0-4.64,3.21-2.29,4.43-1.39S1123.2,245.07,1122,246.74Z" transform="translate(-29.01 -36.67)"/><path class="cls-9" d="M1137.42,262.64c-1.22,1.67-3.21,2.29-4.42,1.39s-1.22-3,0-4.64,3.21-2.29,4.43-1.39S1138.65,261,1137.42,262.64Z" transform="translate(-29.01 -36.67)"/><path class="cls-9" d="M1197.46,275c-.16,2.06.92,3.83,2.43,4s2.87-1.45,3-3.51-.92-3.83-2.43-3.95S1197.63,272.9,1197.46,275Z" transform="translate(-29.01 -36.67)"/><path class="cls-9" d="M1175.37,276.83c-.17,2.06.92,3.83,2.43,3.95s2.87-1.45,3-3.51-.93-3.83-2.44-3.95S1175.54,274.77,1175.37,276.83Z" transform="translate(-29.01 -36.67)"/><path class="cls-9" d="M1158.33,272.2c-.76,1.92-2.52,3-3.93,2.47s-1.93-2.57-1.17-4.49,2.52-3,3.92-2.47S1159.09,270.28,1158.33,272.2Z" transform="translate(-29.01 -36.67)"/><path class="cls-9" d="M1116.84,296.26c-1.23,1.66-3.21,2.28-4.43,1.38s-1.21-3,0-4.63,3.21-2.29,4.43-1.39S1118.06,294.59,1116.84,296.26Z" transform="translate(-29.01 -36.67)"/><path class="cls-9" d="M1170.14,316.18c-.16,2.07.92,3.83,2.43,4s2.87-1.46,3-3.51-.92-3.84-2.43-4S1170.31,314.12,1170.14,316.18Z" transform="translate(-29.01 -36.67)"/><path class="cls-9" d="M1144.78,308.44c-.76,1.92-2.52,3-3.93,2.47s-1.93-2.57-1.17-4.49,2.52-3,3.92-2.47S1145.54,306.52,1144.78,308.44Z" transform="translate(-29.01 -36.67)"/><path class="cls-9" d="M1132.79,340.51c-.76,1.92-2.52,3-3.93,2.47s-1.93-2.57-1.17-4.49,2.52-3,3.93-2.47S1133.55,338.59,1132.79,340.51Z" transform="translate(-29.01 -36.67)"/><path class="cls-9" d="M1116.92,268.31c-1.24,1.65-3.24,2.24-4.44,1.33s-1.18-3,.07-4.64,3.24-2.24,4.45-1.33S1118.17,266.66,1116.92,268.31Z" transform="translate(-29.01 -36.67)"/><path class="cls-9" d="M1136.86,283.69c-1.31,1.6-3.32,2.12-4.49,1.15s-1.06-3,.25-4.63,3.32-2.11,4.49-1.15S1138.17,282.09,1136.86,283.69Z" transform="translate(-29.01 -36.67)"/><path class="cls-9" d="M1187.12,294.56c-.13,2.06,1,3.81,2.49,3.91s2.85-1.49,3-3.55-1-3.82-2.49-3.92S1187.26,292.49,1187.12,294.56Z" transform="translate(-29.01 -36.67)"/><path class="cls-9" d="M1162,293.08c-.06,2.07,1.12,3.78,2.63,3.82s2.79-1.59,2.85-3.66-1.12-3.78-2.63-3.82S1162.05,291,1162,293.08Z" transform="translate(-29.01 -36.67)"/><path class="cls-9" d="M1148.54,329.9c1.41-1.52,3.44-1.92,4.56-.89s.87,3.09-.53,4.61-3.44,1.91-4.55.89S1147.14,331.42,1148.54,329.9Z" transform="translate(-29.01 -36.67)"/><path class="cls-9" d="M1124,319c.18-2.06-.89-3.84-2.4-4s-2.88,1.43-3.06,3.49.89,3.84,2.39,4S1123.84,321.08,1124,319Z" transform="translate(-29.01 -36.67)"/><path class="cls-4" d="M897.89,491.83c-5.56-37.45-42.7-40.51-42.7-40.51s-30-22.05-58.8,2.57S788.7,558,812.06,566.68,903.44,529.27,897.89,491.83Z" transform="translate(-29.01 -36.67)"/><path class="cls-5" d="M897.89,491.83c-3.06-20.58-15.65-30.77-26.38-35.77a62.8,62.8,0,0,1,8.07,58.35C867.66,546.3,831.1,563,799.21,551c-1-.37-2-.77-2.94-1.19,4.69,8.54,10.17,14.73,15.79,16.83C835.43,575.42,903.44,529.27,897.89,491.83Z" transform="translate(-29.01 -36.67)"/><path class="cls-6" d="M898.42,465.92c-3.42-8.66-15.77-16.82-15.77-16.82l6.15-9.77c-15.75-4.63-31,5.05-31,5.05s-5.18-17.33-20.1-24.16l-1.77,11.41S821.25,429.69,813,434c0,0,12,6.88,15.15,11.8,0,0-7.07,7.76-3.78,15.65,0,0,11.35-7,19.39-4l-1.14,10.82,8.35-5.63,2.61,9.72,6.25-8.9c8,3,12,15.73,12,15.73,7.66-3.8,7.43-14.29,7.43-14.29C884.85,463.24,898.42,465.92,898.42,465.92Z" transform="translate(-29.01 -36.67)"/><path class="cls-7" d="M898.42,465.92c-3.42-8.66-15.77-16.82-15.77-16.82l6.15-9.77a34.49,34.49,0,0,0-16.55-.47,36.77,36.77,0,0,1,1.34,28.63,35.42,35.42,0,0,1-3.63,7.13,37.77,37.77,0,0,1,1.86,4.56c7.66-3.8,7.43-14.29,7.43-14.29C884.85,463.24,898.42,465.92,898.42,465.92Z" transform="translate(-29.01 -36.67)"/><path class="cls-8" d="M854.53,453.07a3.23,3.23,0,0,1-2-3.94c12.77-43.61,35.41-38,36.37-37.73a3.2,3.2,0,0,1,2.27,4,3.24,3.24,0,0,1-3.93,2.28c-.81-.19-17.68-3.69-28.51,33.3a3.24,3.24,0,0,1-4,2.2Z" transform="translate(-29.01 -36.67)"/><path class="cls-9" d="M808.87,460.37c-1.23,1.66-3.21,2.28-4.43,1.38s-1.22-3,0-4.64,3.21-2.28,4.43-1.38S810.09,458.7,808.87,460.37Z" transform="translate(-29.01 -36.67)"/><path class="cls-9" d="M824.31,476.27c-1.22,1.67-3.2,2.29-4.42,1.39s-1.22-3,0-4.64,3.21-2.29,4.43-1.39S825.54,474.61,824.31,476.27Z" transform="translate(-29.01 -36.67)"/><path class="cls-9" d="M884.35,488.58c-.16,2.07.92,3.84,2.43,4s2.87-1.45,3-3.51-.92-3.83-2.43-3.95S884.52,486.53,884.35,488.58Z" transform="translate(-29.01 -36.67)"/><path class="cls-9" d="M862.26,490.46c-.17,2.06.92,3.83,2.43,4s2.87-1.45,3-3.51-.93-3.83-2.43-3.95S862.43,488.39,862.26,490.46Z" transform="translate(-29.01 -36.67)"/><path class="cls-9" d="M845.22,485.83c-.76,1.92-2.52,3-3.93,2.47s-1.93-2.57-1.17-4.49,2.52-3,3.92-2.47S846,483.9,845.22,485.83Z" transform="translate(-29.01 -36.67)"/><path class="cls-9" d="M803.73,509.89c-1.23,1.66-3.21,2.28-4.43,1.38s-1.21-3,0-4.64,3.21-2.29,4.43-1.39S805,508.22,803.73,509.89Z" transform="translate(-29.01 -36.67)"/><path class="cls-9" d="M857,529.81c-.16,2.06.92,3.83,2.43,4s2.87-1.45,3-3.51-.92-3.83-2.43-4S857.2,527.75,857,529.81Z" transform="translate(-29.01 -36.67)"/><path class="cls-9" d="M831.67,522.07c-.76,1.92-2.52,3-3.93,2.47s-1.93-2.57-1.17-4.49,2.52-3,3.93-2.47S832.43,520.15,831.67,522.07Z" transform="translate(-29.01 -36.67)"/><path class="cls-9" d="M819.68,554.14c-.76,1.92-2.52,3-3.93,2.47s-1.93-2.57-1.17-4.49,2.52-3,3.93-2.47S820.44,552.21,819.68,554.14Z" transform="translate(-29.01 -36.67)"/><path class="cls-9" d="M803.81,481.94c-1.24,1.65-3.24,2.24-4.44,1.33s-1.18-3,.07-4.65,3.24-2.24,4.45-1.32S805.06,480.29,803.81,481.94Z" transform="translate(-29.01 -36.67)"/><path class="cls-9" d="M823.75,497.32c-1.31,1.6-3.32,2.11-4.49,1.15s-1.06-3,.25-4.63,3.32-2.12,4.49-1.16S825.06,495.72,823.75,497.32Z" transform="translate(-29.01 -36.67)"/><path class="cls-9" d="M874,508.18c-.14,2.06,1,3.82,2.48,3.92s2.85-1.49,3-3.55-1-3.82-2.49-3.92S874.15,506.12,874,508.18Z" transform="translate(-29.01 -36.67)"/><path class="cls-9" d="M848.88,506.71c-.06,2.07,1.12,3.78,2.63,3.82s2.79-1.59,2.85-3.66-1.12-3.78-2.63-3.82S848.94,504.64,848.88,506.71Z" transform="translate(-29.01 -36.67)"/><path class="cls-9" d="M835.43,543.52c1.41-1.51,3.45-1.91,4.56-.88s.87,3.09-.53,4.61-3.44,1.91-4.55.89S834,545,835.43,543.52Z" transform="translate(-29.01 -36.67)"/><path class="cls-9" d="M810.91,532.65c.18-2.06-.89-3.84-2.4-4s-2.88,1.42-3.06,3.49.89,3.83,2.39,4S810.73,534.71,810.91,532.65Z" transform="translate(-29.01 -36.67)"/><path class="cls-4" d="M1101,567.78c-5.56-37.45-42.7-40.52-42.7-40.52s-30-22-58.8,2.57-7.69,104.06,15.67,112.8S1106.59,605.22,1101,567.78Z" transform="translate(-29.01 -36.67)"/><path class="cls-5" d="M1101,567.78C1098,547.19,1085.39,537,1074.66,532a62.8,62.8,0,0,1,8.07,58.35c-11.93,31.89-48.48,48.56-80.37,36.63-1-.37-2-.76-2.94-1.18,4.69,8.53,10.17,14.73,15.79,16.83C1038.57,651.36,1106.59,605.22,1101,567.78Z" transform="translate(-29.01 -36.67)"/><path class="cls-6" d="M1101.57,541.86c-3.42-8.66-15.77-16.81-15.77-16.81l6.15-9.77c-15.75-4.64-31,5.05-31,5.05s-5.17-17.33-20.09-24.16l-1.77,11.41s-14.67-1.95-22.94,2.35c0,0,12,6.87,15.15,11.79,0,0-7.06,7.77-3.77,15.66,0,0,11.35-7,19.38-4l-1.13,10.81,8.35-5.62,2.61,9.72,6.24-8.91c8,3,12,15.73,12,15.73,7.66-3.79,7.42-14.29,7.42-14.29C1088,539.19,1101.57,541.86,1101.57,541.86Z" transform="translate(-29.01 -36.67)"/><path class="cls-7" d="M1101.57,541.86c-3.42-8.66-15.77-16.81-15.77-16.81l6.15-9.77a34.36,34.36,0,0,0-16.55-.47,36.75,36.75,0,0,1,1.34,28.62,35.5,35.5,0,0,1-3.63,7.14,37.31,37.31,0,0,1,1.86,4.55c7.66-3.79,7.42-14.29,7.42-14.29C1088,539.19,1101.57,541.86,1101.57,541.86Z" transform="translate(-29.01 -36.67)"/><path class="cls-8" d="M1057.68,529a3.24,3.24,0,0,1-2-3.94c12.77-43.61,35.42-38,36.38-37.74a3.23,3.23,0,0,1-1.66,6.25c-.81-.19-17.68-3.68-28.51,33.3a3.23,3.23,0,0,1-4,2.2Z" transform="translate(-29.01 -36.67)"/><path class="cls-9" d="M1012,536.31c-1.22,1.67-3.21,2.29-4.42,1.39s-1.22-3,0-4.64,3.21-2.29,4.43-1.39S1013.24,534.65,1012,536.31Z" transform="translate(-29.01 -36.67)"/><path class="cls-9" d="M1027.46,552.22c-1.23,1.66-3.21,2.28-4.43,1.38s-1.21-3,0-4.64,3.21-2.28,4.42-1.38S1028.69,550.55,1027.46,552.22Z" transform="translate(-29.01 -36.67)"/><path class="cls-9" d="M1087.5,564.53c-.17,2.06.92,3.83,2.43,4s2.87-1.45,3-3.51-.93-3.83-2.44-4S1087.66,562.47,1087.5,564.53Z" transform="translate(-29.01 -36.67)"/><path class="cls-9" d="M1065.41,566.4c-.17,2.06.92,3.83,2.43,4s2.87-1.44,3-3.5-.92-3.84-2.43-4S1065.57,564.34,1065.41,566.4Z" transform="translate(-29.01 -36.67)"/><path class="cls-9" d="M1048.37,561.77c-.77,1.92-2.53,3-3.93,2.47s-1.94-2.56-1.18-4.49,2.52-3,3.93-2.47S1049.13,559.85,1048.37,561.77Z" transform="translate(-29.01 -36.67)"/><path class="cls-9" d="M1006.88,585.83c-1.23,1.67-3.21,2.28-4.43,1.39s-1.22-3,0-4.64,3.21-2.29,4.43-1.39S1008.1,584.17,1006.88,585.83Z" transform="translate(-29.01 -36.67)"/><path class="cls-9" d="M1060.18,605.76c-.17,2.06.92,3.83,2.43,4s2.87-1.45,3-3.51-.93-3.83-2.44-4S1060.35,603.7,1060.18,605.76Z" transform="translate(-29.01 -36.67)"/><path class="cls-9" d="M1034.82,598c-.77,1.93-2.53,3-3.93,2.47s-1.94-2.56-1.17-4.48,2.52-3,3.92-2.48S1035.58,596.09,1034.82,598Z" transform="translate(-29.01 -36.67)"/><path class="cls-9" d="M1022.83,630.08c-.76,1.93-2.52,3-3.93,2.47s-1.93-2.56-1.17-4.48,2.52-3,3.92-2.48S1023.59,628.16,1022.83,630.08Z" transform="translate(-29.01 -36.67)"/><path class="cls-9" d="M1007,557.88c-1.25,1.65-3.24,2.24-4.45,1.33s-1.17-3,.08-4.64,3.24-2.24,4.45-1.33S1008.21,556.23,1007,557.88Z" transform="translate(-29.01 -36.67)"/><path class="cls-9" d="M1026.9,573.26c-1.31,1.6-3.33,2.12-4.5,1.16s-1.06-3,.25-4.63,3.33-2.12,4.5-1.16S1028.21,571.66,1026.9,573.26Z" transform="translate(-29.01 -36.67)"/><path class="cls-9" d="M1077.16,584.13c-.14,2.06,1,3.82,2.49,3.92s2.85-1.49,3-3.55-1-3.82-2.49-3.92S1077.3,582.06,1077.16,584.13Z" transform="translate(-29.01 -36.67)"/><path class="cls-9" d="M1052,582.65c-.06,2.07,1.12,3.79,2.63,3.83s2.79-1.6,2.85-3.66-1.12-3.78-2.63-3.83S1052.08,580.59,1052,582.65Z" transform="translate(-29.01 -36.67)"/><path class="cls-9" d="M1038.58,619.47c1.4-1.52,3.44-1.92,4.55-.89s.88,3.1-.52,4.61-3.44,1.92-4.56.89S1037.18,621,1038.58,619.47Z" transform="translate(-29.01 -36.67)"/><path class="cls-9" d="M1014.06,608.6c.18-2.06-.9-3.84-2.41-4s-2.88,1.43-3.06,3.49.9,3.84,2.4,4S1013.87,610.66,1014.06,608.6Z" transform="translate(-29.01 -36.67)"/><path class="cls-4" d="M1055.48,385.58c-5.56-37.44-42.7-40.51-42.7-40.51s-30-22.05-58.8,2.57-7.69,104.06,15.67,112.8S1061,423,1055.48,385.58Z" transform="translate(-29.01 -36.67)"/><path class="cls-5" d="M1055.48,385.58c-3.06-20.58-15.65-30.76-26.38-35.77a62.8,62.8,0,0,1,8.07,58.35c-11.92,31.89-48.48,48.55-80.37,36.63-1-.37-2-.77-2.94-1.19,4.69,8.54,10.17,14.74,15.79,16.84C993,469.17,1061,423,1055.48,385.58Z" transform="translate(-29.01 -36.67)"/><path class="cls-6" d="M1056,359.67c-3.42-8.66-15.77-16.81-15.77-16.81l6.15-9.78c-15.75-4.63-31,5.05-31,5.05s-5.18-17.32-20.1-24.15l-1.77,11.4s-14.67-1.94-22.93,2.35c0,0,12,6.88,15.14,11.8,0,0-7.06,7.77-3.77,15.66,0,0,11.35-7,19.39-4L1000.2,362l8.35-5.62,2.61,9.72,6.25-8.91c8,3,12,15.73,12,15.73,7.66-3.8,7.43-14.29,7.43-14.29C1042.44,357,1056,359.67,1056,359.67Z" transform="translate(-29.01 -36.67)"/><path class="cls-7" d="M1056,359.67c-3.42-8.66-15.77-16.81-15.77-16.81l6.15-9.78a34.61,34.61,0,0,0-16.55-.47,36.77,36.77,0,0,1,1.34,28.63,35.77,35.77,0,0,1-3.63,7.14,37.31,37.31,0,0,1,1.86,4.55c7.66-3.8,7.43-14.29,7.43-14.29C1042.44,357,1056,359.67,1056,359.67Z" transform="translate(-29.01 -36.67)"/><path class="cls-8" d="M1012.12,346.82a3.23,3.23,0,0,1-2-3.94c12.77-43.6,35.41-38,36.37-37.73a3.23,3.23,0,0,1-1.66,6.25c-.81-.19-17.68-3.68-28.51,33.3a3.23,3.23,0,0,1-4,2.2Z" transform="translate(-29.01 -36.67)"/><path class="cls-9" d="M966.46,354.12c-1.23,1.66-3.21,2.29-4.43,1.39s-1.22-3,0-4.64,3.21-2.29,4.43-1.39S967.68,352.46,966.46,354.12Z" transform="translate(-29.01 -36.67)"/><path class="cls-9" d="M981.9,370c-1.22,1.67-3.2,2.29-4.42,1.39s-1.22-3,0-4.64,3.21-2.28,4.43-1.39S983.13,368.36,981.9,370Z" transform="translate(-29.01 -36.67)"/><path class="cls-9" d="M1041.94,382.34c-.16,2.06.92,3.83,2.43,4s2.87-1.45,3-3.51-.92-3.83-2.43-3.95S1042.11,380.28,1041.94,382.34Z" transform="translate(-29.01 -36.67)"/><path class="cls-9" d="M1019.85,384.21c-.17,2.06.92,3.83,2.43,4s2.87-1.45,3-3.51-.93-3.83-2.44-3.95S1020,382.15,1019.85,384.21Z" transform="translate(-29.01 -36.67)"/><path class="cls-9" d="M1002.81,379.58c-.76,1.92-2.52,3-3.93,2.47s-1.93-2.57-1.17-4.49,2.52-3,3.92-2.47S1003.57,377.66,1002.81,379.58Z" transform="translate(-29.01 -36.67)"/><path class="cls-9" d="M961.32,403.64c-1.23,1.66-3.21,2.28-4.43,1.39s-1.21-3,0-4.64,3.21-2.29,4.43-1.39S962.55,402,961.32,403.64Z" transform="translate(-29.01 -36.67)"/><path class="cls-9" d="M1014.62,423.57c-.16,2.06.92,3.82,2.43,3.95s2.87-1.45,3-3.51-.92-3.84-2.43-4S1014.79,421.5,1014.62,423.57Z" transform="translate(-29.01 -36.67)"/><path class="cls-9" d="M989.26,415.82c-.76,1.93-2.52,3-3.93,2.47s-1.93-2.56-1.17-4.48,2.52-3,3.93-2.48S990,413.9,989.26,415.82Z" transform="translate(-29.01 -36.67)"/><path class="cls-9" d="M977.27,447.89c-.76,1.92-2.52,3-3.93,2.47s-1.93-2.57-1.17-4.49,2.52-3,3.93-2.47S978,446,977.27,447.89Z" transform="translate(-29.01 -36.67)"/><path class="cls-9" d="M961.4,375.69c-1.24,1.65-3.24,2.24-4.44,1.33s-1.18-3,.07-4.64,3.24-2.24,4.45-1.33S962.65,374,961.4,375.69Z" transform="translate(-29.01 -36.67)"/><path class="cls-9" d="M981.34,391.07c-1.31,1.6-3.32,2.12-4.49,1.16s-1.06-3,.25-4.64,3.32-2.11,4.49-1.15S982.65,389.47,981.34,391.07Z" transform="translate(-29.01 -36.67)"/><path class="cls-9" d="M1031.6,401.94c-.13,2.06,1,3.81,2.49,3.91s2.85-1.48,3-3.55-1-3.81-2.49-3.92S1031.74,399.87,1031.6,401.94Z" transform="translate(-29.01 -36.67)"/><path class="cls-9" d="M1006.47,400.46c-.06,2.07,1.12,3.78,2.63,3.82s2.79-1.59,2.85-3.66-1.12-3.77-2.63-3.82S1006.53,398.4,1006.47,400.46Z" transform="translate(-29.01 -36.67)"/><path class="cls-9" d="M993,437.28c1.41-1.52,3.45-1.92,4.56-.89s.87,3.09-.53,4.61-3.44,1.91-4.55.89S991.62,438.8,993,437.28Z" transform="translate(-29.01 -36.67)"/><path class="cls-9" d="M968.5,426.4c.18-2.06-.89-3.84-2.4-4s-2.88,1.43-3.06,3.49.89,3.84,2.39,4S968.32,428.46,968.5,426.4Z" transform="translate(-29.01 -36.67)"/></g></g><g id="레이어_2" data-name="레이어 2"><path class="cls-17" d="M230,712.79a28.78,28.78,0,0,1-12.52-3.25q-13.57-6.6-18.45-25.43-1.16-3.83-1.15-11.86,0-10.51,4.78-35.75l5.45-33.85c-.19,0-.61.38-1.24,1.15q-9,10.23-18.17,31.74a214.59,214.59,0,0,0-9.27,27c-1.41,4.66-2.28,7.16-2.63,7.51a4.52,4.52,0,0,1-1.48.91,27.26,27.26,0,0,0-2.87,1.43,10.3,10.3,0,0,1-5,1q-27.34,0-32.42-36.62a115.62,115.62,0,0,1-.86-15.39q0-20.26,6.41-45.32t15-35.18a94.53,94.53,0,0,1,11.47-10.71q6.88-4,11.09-5c1.92-.64,5.42-1,10.52-1a58.06,58.06,0,0,1,8.32.38,26.82,26.82,0,0,1,12,5.84q5.77,4.68,5.78,11.09,0,7-4.3,16.92-11,24.48-31.93,36.71l-3.06,1.92Q172,617.18,172,627.8a130,130,0,0,0,.86,14.15c.13,1.21.25,1.81.38,1.81l2.3-5.73q19.31-51.15,38.05-51.15a17.15,17.15,0,0,1,5.83.86,34.57,34.57,0,0,1,9.08,4.39,39,39,0,0,1,3.83,3.45q11,10.71,11,25.24,0,7.83-4.11,30.4-2.29,13.86-3.92,27.58t-1.62,16.31c0,.57.09.86.28.86q1.05,0,5.74-9.09,3.45-6.69,9.37-23.33a366.58,366.58,0,0,0,11.76-37,1.38,1.38,0,0,1,1.24-.57,9.43,9.43,0,0,1,1.25.14,8.58,8.58,0,0,0,1.43.15c4.21.19,6.37.89,6.5,2.1a50.3,50.3,0,0,1-1.24,5.35,346.33,346.33,0,0,1-10.52,33.37q-7.26,20.28-11.66,29.07-6.69,14-12.43,16.06A21,21,0,0,1,230,712.79ZM179.17,581.9c.25,0,1.53-1.08,3.82-3.25a66.35,66.35,0,0,0,7.56-8.79q9.27-12.52,11.76-24.76l.48-5.26c0-1.72-.1-2.59-.29-2.59q-2.1,0-5.55,3.45-8.59,8.13-16.73,36.81l-1.24,4.3Z" transform="translate(-29.01 -36.67)"/><path class="cls-17" d="M353.08,722a30.3,30.3,0,0,1-9.56-1.72q-24.66-7.65-30.78-45.89-.67-3.63-1-15.3l-1.72,2.68q-7.46,12-13.77,14.15a16.61,16.61,0,0,1-5.26.76,28.73,28.73,0,0,1-12.14-2.87q-19.61-9.46-19.6-34.32A67.14,67.14,0,0,1,264.36,613q8.11-19.41,21.41-23.71a19.64,19.64,0,0,1,6.79-1.15q10,0,21.8,7.46a39.92,39.92,0,0,1,4.88,3.73c1.65,1.46,2.61,2.19,2.87,2.19l1.53-4a78.18,78.18,0,0,1,3.05-8.41q6.51-16.26,17.6-16.26a19,19,0,0,1,6.69,1.34q13.09,4.4,13.1,17a39.39,39.39,0,0,1-1.63,10.52q-7.83,27.52-10.37,43.26a224.64,224.64,0,0,0-2.53,35.52q0,10.23.14,14.53a59.2,59.2,0,0,0,1.86,11.38c.39,1.59.7,2.39,1,2.39q.76,0,4.78-3.35,15.68-14.82,30.21-67.5,2.29-9,3-9.27a12.44,12.44,0,0,1,3.49-.29c4.34,0,6.5.51,6.5,1.53q0,3.06-5.44,22.47-9.85,38.34-24.19,58.51Q363.12,722,353.08,722Zm-60.33-57.55q6.88-4.89,17.4-19.8c2.17-2.93,3.32-5.09,3.45-6.5q1.14-8.11,5.73-27a34.32,34.32,0,0,0-2.67-5.17,25.55,25.55,0,0,0-7.08-6.12,7.41,7.41,0,0,0-3.35-1.33q-2.19,0-4.49,8.5-2.58,9.76-4.78,20.37Q295.34,635,294,645.68A159,159,0,0,0,292.75,664.42Z" transform="translate(-29.01 -36.67)"/><path class="cls-17" d="M434,704.38A46.77,46.77,0,0,1,407.1,696a36.6,36.6,0,0,1-14.67-19.65q-4-12.39-4-32.46,1.82-50.86,16.44-79.74,5.36-11.57,12.81-16.16Q430.24,540,442.76,540A31,31,0,0,1,458.25,544q11.67,5.44,11.67,21.13a53.41,53.41,0,0,1-2.87,16.25q-11.67,36.61-28.4,53.35a91.76,91.76,0,0,1-12.43,10.71q.48,20,2.68,30.31a74.62,74.62,0,0,0,4,12c.76,1.79,1.24,2.68,1.43,2.68q1.15,0,4.69-2.77,5.34-4.11,12-14.15a151.51,151.51,0,0,0,15.2-32.89q4-12.81,4.21-13.86c.06-.26.45-.39,1.15-.39a17.65,17.65,0,0,1,3.15.39l4,.86a4.07,4.07,0,0,1,1.67.57,1.18,1.18,0,0,1,.29.86q-1.25,5.73-7.93,25.14a201.32,201.32,0,0,1-9,20.18q-4.5,8.6-8.89,15.3Q445.54,704.38,434,704.38Zm-6.41-75.53a8.9,8.9,0,0,0,1.2-1.1q1.1-1.1,2.91-3.06t3.35-4q22.67-37.19,22.66-56.89a47.47,47.47,0,0,0-.29-5.11,27.88,27.88,0,0,0-.76-4.35c-.32-1.15-.61-1.72-.86-1.72q-.67,0-3.73,3.34-2,2.21-5.64,10-1.92,5.36-5.74,13.77a198.14,198.14,0,0,0-11.47,38.72A78.44,78.44,0,0,0,427.56,628.85Z" transform="translate(-29.01 -36.67)"/><path class="cls-17" d="M514.66,704.38A46.74,46.74,0,0,1,487.8,696a36.61,36.61,0,0,1-14.68-19.65q-4-12.39-4-32.46Q471,593,485.6,564.12,491,552.55,498.41,548,510.93,540,523.46,540A31,31,0,0,1,539,544q11.65,5.44,11.66,21.13a53.41,53.41,0,0,1-2.87,16.25q-11.65,36.61-28.39,53.35a92.37,92.37,0,0,1-12.43,10.71q.48,20,2.67,30.31a74.62,74.62,0,0,0,4,12c.76,1.79,1.24,2.68,1.43,2.68q1.15,0,4.69-2.77,5.35-4.11,12-14.15A152.46,152.46,0,0,0,547,640.61q4-12.81,4.2-13.86c.07-.26.45-.39,1.15-.39a17.63,17.63,0,0,1,3.16.39l4,.86a4.08,4.08,0,0,1,1.68.57,1.17,1.17,0,0,1,.28.86q-1.23,5.73-7.93,25.14a199,199,0,0,1-9,20.18q-4.49,8.6-8.89,15.3Q526.23,704.38,514.66,704.38Zm-6.4-75.53a8.54,8.54,0,0,0,1.19-1.1c.73-.73,1.71-1.75,2.92-3.06s2.32-2.63,3.34-4q22.66-37.19,22.66-56.89a47.41,47.41,0,0,0-.28-5.11,29,29,0,0,0-.77-4.35c-.32-1.15-.61-1.72-.86-1.72q-.68,0-3.73,3.34-2,2.21-5.64,10-1.9,5.36-5.74,13.77a198.83,198.83,0,0,0-11.47,38.72A79.51,79.51,0,0,0,508.26,628.85Z" transform="translate(-29.01 -36.67)"/><path class="cls-17" d="M586.56,699.41q-10.14,0-20.65-6.12a37.53,37.53,0,0,1-12.81-12.43q-5.26-9-5.26-27.92t6.4-42.45q2.68-10.32,5.69-13t11-2.68a27.16,27.16,0,0,1,8.22,1q14.25,4,14.25,13.19,0,5.16-2.78,16.64-4.49,20.46-4.49,35,0,4,.67,12,.76,9.66,1.72,12.43a25,25,0,0,0,3.06-1.92Q605.5,672.83,619,628c.32-1.15.89-1.72,1.72-1.72a25.25,25.25,0,0,1,4.5.76c2,.51,3,1.18,3,2q-3.06,16.73-13.1,41.49a95.12,95.12,0,0,1-7.65,14.73Q597.85,699.32,586.56,699.41Zm3.63-111.77a23.51,23.51,0,0,1-14-4.35q-6.12-4.35-6.12-8.37a2.6,2.6,0,0,1,.67-1.43,6.26,6.26,0,0,1,2.59-1.62,14.51,14.51,0,0,1,4.2-1q12.52,0,18,9.75a7.81,7.81,0,0,1,1,3.35Q596.5,587.64,590.19,587.64Z" transform="translate(-29.01 -36.67)"/><path class="cls-17" d="M722,731.34a32.88,32.88,0,0,1-13.58-3.44q-10.51-4.78-12.81-17a19.52,19.52,0,0,1-.38-3.92q0-9.09,7.74-20.84T725.1,669.2a160.66,160.66,0,0,1,17-4.59c1.46-.26,2.32-.59,2.58-1s.38-4.22.38-11.42l-.48-23.91q-.29,0-2.68,4.79Q729.5,658.68,718.79,661a16.45,16.45,0,0,1-3.64.39,25.39,25.39,0,0,1-9.94-2.3,33.26,33.26,0,0,1-16.35-14.24,35.85,35.85,0,0,1-4.3-17.88q0-10.34,4.59-22.57a62.48,62.48,0,0,1,11.47-19.5q11-12.81,23.42-12.81,10.05,0,20.94,8.22l4.21,3.25,1.53-2.29a9.67,9.67,0,0,1,8.51-4.88,19.19,19.19,0,0,1,8.13,2.2,13.62,13.62,0,0,1,8.36,8.89q2.06,6.4,2.06,21.42,0,23.8-1.25,39.67l-.19,6.7,3.25-1.92q3.82-2.39,12.34-11.47a48.24,48.24,0,0,0,5.26-7.65c2-3.18,3.26-5.05,3.68-5.59a2.3,2.3,0,0,1,2-.81,7.49,7.49,0,0,1,2.2.43,5.5,5.5,0,0,1,2.1,1.14c.51.48,1,.88,1.34,1.2q-7.76,14.34-9.66,17A42.72,42.72,0,0,1,779,662.88a15.86,15.86,0,0,0-4,2,1.78,1.78,0,0,0-.43,1.1q-4.2,20.17-8.6,30a73.81,73.81,0,0,1-15.68,22Q736.95,731.34,722,731.34Zm-9.56-10.71a8.87,8.87,0,0,1,1.67-.28,13.77,13.77,0,0,0,3.68-1.44q7.56-3.54,14.72-13.77a61.19,61.19,0,0,0,9.76-24.85c.25-1.28.47-2.33.67-3.16a21,21,0,0,0,.38-2.1c.06-.58.11-.94.14-1.1a2.37,2.37,0,0,0,0-.43,1.7,1.7,0,0,0-.29-.67q-1.14,0-7.65,2.48Q726.25,679,721,684.4a44.92,44.92,0,0,0-7.56,11.76A27.57,27.57,0,0,0,710,709.35a35.13,35.13,0,0,0,.29,5.74A35.62,35.62,0,0,0,712.48,720.63Zm6.21-75a16,16,0,0,0,2.87-2.72,50.47,50.47,0,0,0,5.45-7.13q4.2-6.12,14.24-27.06a79.62,79.62,0,0,0,4.12-9.46l-.1-1.05-.19-.1a3.48,3.48,0,0,0-1.58.58,15.23,15.23,0,0,1-2,1q-15.1,7.45-19.89,32.89Z" transform="translate(-29.01 -36.67)"/><path class="cls-17" d="M891.93,722a30.3,30.3,0,0,1-9.56-1.72q-24.66-7.65-30.78-45.89-.68-3.63-1-15.3l-1.72,2.68q-7.45,12-13.77,14.15a16.61,16.61,0,0,1-5.26.76,28.73,28.73,0,0,1-12.14-2.87q-19.61-9.46-19.6-34.32A67.14,67.14,0,0,1,803.21,613q8.13-19.41,21.41-23.71a19.64,19.64,0,0,1,6.79-1.15q10.05,0,21.8,7.46a39.92,39.92,0,0,1,4.88,3.73c1.66,1.46,2.61,2.19,2.87,2.19l1.53-4a76.85,76.85,0,0,1,3.06-8.41q6.5-16.26,17.59-16.26a19,19,0,0,1,6.69,1.34q13.09,4.4,13.1,17a39.39,39.39,0,0,1-1.63,10.52q-7.83,27.52-10.37,43.26a224.64,224.64,0,0,0-2.53,35.52q0,10.23.14,14.53a60,60,0,0,0,1.86,11.38c.39,1.59.7,2.39,1,2.39q.76,0,4.78-3.35,15.68-14.82,30.21-67.5,2.29-9,3-9.27a12.44,12.44,0,0,1,3.49-.29q6.51,0,6.51,1.53,0,3.06-5.45,22.47-9.85,38.34-24.19,58.51Q902,722,891.93,722ZM831.6,664.42q6.89-4.89,17.41-19.8c2.16-2.93,3.31-5.09,3.44-6.5q1.14-8.11,5.73-27a34.32,34.32,0,0,0-2.67-5.17,25.55,25.55,0,0,0-7.08-6.12,7.43,7.43,0,0,0-3.34-1.33q-2.21,0-4.5,8.5-2.58,9.76-4.78,20.37-1.62,7.65-2.91,18.36A159.23,159.23,0,0,0,831.6,664.42Z" transform="translate(-29.01 -36.67)"/><path class="cls-17" d="M972.82,704.38A46.79,46.79,0,0,1,946,696a36.6,36.6,0,0,1-14.67-19.65q-4-12.39-4-32.46,1.82-50.86,16.44-79.74,5.36-11.57,12.82-16.16,12.52-7.94,25-7.93A31,31,0,0,1,997.1,544q11.67,5.44,11.67,21.13a53.41,53.41,0,0,1-2.87,16.25q-11.67,36.61-28.4,53.35a91.79,91.79,0,0,1-12.42,10.71q.46,20,2.67,30.31a74.62,74.62,0,0,0,4,12c.76,1.79,1.24,2.68,1.43,2.68q1.15,0,4.69-2.77,5.36-4.11,12-14.15a151.51,151.51,0,0,0,15.2-32.89q4-12.81,4.21-13.86c.06-.26.45-.39,1.15-.39a17.54,17.54,0,0,1,3.15.39l4,.86a4.14,4.14,0,0,1,1.68.57,1.17,1.17,0,0,1,.28.86q-1.25,5.73-7.93,25.14a199,199,0,0,1-9,20.18q-4.5,8.6-8.89,15.3Q984.39,704.38,972.82,704.38Zm-6.41-75.53a8.23,8.23,0,0,0,1.2-1.1q1.1-1.1,2.91-3.06t3.35-4q22.67-37.19,22.66-56.89a47.47,47.47,0,0,0-.29-5.11,27.88,27.88,0,0,0-.76-4.35c-.32-1.15-.61-1.72-.86-1.72q-.68,0-3.73,3.34-2,2.21-5.64,10-1.92,5.36-5.74,13.77A198.14,198.14,0,0,0,968,618.52,78.44,78.44,0,0,0,966.41,628.85Z" transform="translate(-29.01 -36.67)"/><path class="cls-17" d="M1053.51,704.38a46.74,46.74,0,0,1-26.86-8.41A36.61,36.61,0,0,1,1012,676.32q-4-12.39-4-32.46,1.82-50.86,16.45-79.74,5.35-11.57,12.81-16.16,12.52-7.94,25-7.93A31,31,0,0,1,1077.8,544q11.65,5.44,11.66,21.13a53.41,53.41,0,0,1-2.87,16.25q-11.65,36.61-28.39,53.35a92.37,92.37,0,0,1-12.43,10.71q.48,20,2.68,30.31a73.6,73.6,0,0,0,4,12c.77,1.79,1.24,2.68,1.43,2.68q1.15,0,4.69-2.77,5.36-4.11,12.05-14.15a152.46,152.46,0,0,0,15.2-32.89q4-12.81,4.21-13.86.09-.39,1.14-.39a17.63,17.63,0,0,1,3.16.39l4,.86a4.08,4.08,0,0,1,1.68.57,1.17,1.17,0,0,1,.28.86q-1.23,5.73-7.93,25.14a199,199,0,0,1-9,20.18q-4.48,8.6-8.89,15.3Q1065.08,704.38,1053.51,704.38Zm-6.4-75.53a8.54,8.54,0,0,0,1.19-1.1c.73-.73,1.71-1.75,2.92-3.06s2.32-2.63,3.34-4q22.67-37.19,22.66-56.89a47.41,47.41,0,0,0-.28-5.11,27.75,27.75,0,0,0-.77-4.35c-.32-1.15-.6-1.72-.86-1.72q-.68,0-3.73,3.34-2,2.21-5.64,10-1.9,5.36-5.73,13.77a198.14,198.14,0,0,0-11.48,38.72A79.51,79.51,0,0,0,1047.11,628.85Z" transform="translate(-29.01 -36.67)"/><path class="cls-17" d="M1125.41,699.41q-10.14,0-20.65-6.12A37.53,37.53,0,0,1,1092,680.86q-5.27-9-5.26-27.92t6.4-42.45q2.69-10.32,5.69-13t11-2.68a27.16,27.16,0,0,1,8.22,1q14.25,4,14.25,13.19,0,5.16-2.77,16.64-4.5,20.46-4.5,35,0,4,.67,12,.76,9.66,1.72,12.43a25,25,0,0,0,3.06-1.92q14-10.32,27.44-55.16c.32-1.15.89-1.72,1.72-1.72a25.25,25.25,0,0,1,4.5.76c2,.51,3,1.18,3,2q-3.06,16.73-13.1,41.49a95.12,95.12,0,0,1-7.65,14.73Q1136.7,699.32,1125.41,699.41ZM1129,587.64a23.51,23.51,0,0,1-14-4.35q-6.12-4.35-6.11-8.37a2.53,2.53,0,0,1,.67-1.43,6.14,6.14,0,0,1,2.58-1.62,14.51,14.51,0,0,1,4.2-1q12.52,0,18,9.75a7.81,7.81,0,0,1,.95,3.35Q1135.35,587.64,1129,587.64Z" transform="translate(-29.01 -36.67)"/><path class="cls-18" d="M228,705.79a28.78,28.78,0,0,1-12.52-3.25q-13.57-6.6-18.45-25.43-1.16-3.83-1.15-11.86,0-10.51,4.78-35.75l5.45-33.85c-.19,0-.61.38-1.24,1.15q-9,10.23-18.17,31.74a214.59,214.59,0,0,0-9.27,27c-1.41,4.66-2.28,7.16-2.63,7.51a4.52,4.52,0,0,1-1.48.91,27.26,27.26,0,0,0-2.87,1.43,10.3,10.3,0,0,1-5,1q-27.34,0-32.42-36.62a115.62,115.62,0,0,1-.86-15.39q0-20.26,6.41-45.32t15-35.18a94.53,94.53,0,0,1,11.47-10.71q6.88-4,11.09-5c1.92-.64,5.42-1,10.52-1a58.06,58.06,0,0,1,8.32.38,26.82,26.82,0,0,1,12,5.84q5.77,4.68,5.78,11.09,0,7-4.3,16.92-11,24.48-31.93,36.71l-3.06,1.92Q170,610.18,170,620.8a130,130,0,0,0,.86,14.15c.13,1.21.25,1.81.38,1.81l2.3-5.73q19.31-51.15,38.05-51.15a17.15,17.15,0,0,1,5.83.86,34.57,34.57,0,0,1,9.08,4.39,39,39,0,0,1,3.83,3.45q11,10.71,11,25.24,0,7.83-4.11,30.4-2.29,13.86-3.92,27.58t-1.62,16.31c0,.57.09.86.28.86q1.05,0,5.74-9.09,3.45-6.69,9.37-23.33a366.58,366.58,0,0,0,11.76-37,1.38,1.38,0,0,1,1.24-.57,9.43,9.43,0,0,1,1.25.14,8.58,8.58,0,0,0,1.43.15c4.21.19,6.37.89,6.5,2.1a50.3,50.3,0,0,1-1.24,5.35,346.33,346.33,0,0,1-10.52,33.37q-7.26,20.28-11.66,29.07-6.69,14-12.43,16.06A21,21,0,0,1,228,705.79ZM177.17,574.9c.25,0,1.53-1.08,3.82-3.25a66.35,66.35,0,0,0,7.56-8.79q9.27-12.52,11.76-24.76l.48-5.26c0-1.72-.1-2.59-.29-2.59q-2.1,0-5.55,3.45-8.59,8.13-16.73,36.81l-1.24,4.3Z" transform="translate(-29.01 -36.67)"/><path class="cls-18" d="M351.08,715a30.3,30.3,0,0,1-9.56-1.72q-24.66-7.65-30.78-45.89-.67-3.63-1-15.3l-1.72,2.68q-7.46,12-13.77,14.15a16.61,16.61,0,0,1-5.26.76,28.73,28.73,0,0,1-12.14-2.87q-19.61-9.46-19.6-34.32A67.14,67.14,0,0,1,262.36,606q8.11-19.41,21.41-23.71a19.64,19.64,0,0,1,6.79-1.15q10,0,21.8,7.46a39.92,39.92,0,0,1,4.88,3.73c1.65,1.46,2.61,2.19,2.87,2.19l1.53-4a78.18,78.18,0,0,1,3.05-8.41q6.51-16.26,17.6-16.26a19,19,0,0,1,6.69,1.34q13.09,4.4,13.1,17a39.39,39.39,0,0,1-1.63,10.52q-7.83,27.52-10.37,43.26a224.64,224.64,0,0,0-2.53,35.52q0,10.23.14,14.53a59.2,59.2,0,0,0,1.86,11.38c.39,1.59.7,2.39,1,2.39q.76,0,4.78-3.35,15.68-14.82,30.21-67.5,2.29-9,3-9.27a12.44,12.44,0,0,1,3.49-.29c4.34,0,6.5.51,6.5,1.53q0,3.06-5.44,22.47-9.85,38.34-24.19,58.51Q361.12,715,351.08,715Zm-60.33-57.55q6.88-4.89,17.4-19.8c2.17-2.93,3.32-5.09,3.45-6.5q1.14-8.11,5.73-27a34.32,34.32,0,0,0-2.67-5.17,25.55,25.55,0,0,0-7.08-6.12,7.41,7.41,0,0,0-3.35-1.33q-2.19,0-4.49,8.5-2.58,9.76-4.78,20.37Q293.34,628,292,638.68A159,159,0,0,0,290.75,657.42Z" transform="translate(-29.01 -36.67)"/><path class="cls-18" d="M432,697.38A46.77,46.77,0,0,1,405.1,689a36.6,36.6,0,0,1-14.67-19.65q-4-12.39-4-32.46,1.82-50.86,16.44-79.74,5.36-11.57,12.81-16.16Q428.24,533,440.76,533A31,31,0,0,1,456.25,537q11.67,5.44,11.67,21.13a53.41,53.41,0,0,1-2.87,16.25q-11.67,36.61-28.4,53.35a91.76,91.76,0,0,1-12.43,10.71q.48,20,2.68,30.31a74.62,74.62,0,0,0,4,12c.76,1.79,1.24,2.68,1.43,2.68q1.15,0,4.69-2.77,5.34-4.11,12-14.15a151.51,151.51,0,0,0,15.2-32.89q4-12.81,4.21-13.86c.06-.26.45-.39,1.15-.39a17.65,17.65,0,0,1,3.15.39l4,.86a4.07,4.07,0,0,1,1.67.57,1.18,1.18,0,0,1,.29.86q-1.25,5.73-7.93,25.14a201.32,201.32,0,0,1-9,20.18q-4.5,8.6-8.89,15.3Q443.54,697.38,432,697.38Zm-6.41-75.53a8.9,8.9,0,0,0,1.2-1.1q1.1-1.1,2.91-3.06t3.35-4q22.67-37.19,22.66-56.89a47.47,47.47,0,0,0-.29-5.11,27.88,27.88,0,0,0-.76-4.35c-.32-1.15-.61-1.72-.86-1.72q-.67,0-3.73,3.34-2,2.21-5.64,10-1.92,5.36-5.74,13.77a198.14,198.14,0,0,0-11.47,38.72A78.44,78.44,0,0,0,425.56,621.85Z" transform="translate(-29.01 -36.67)"/><path class="cls-18" d="M512.66,697.38A46.74,46.74,0,0,1,485.8,689a36.61,36.61,0,0,1-14.68-19.65q-4-12.39-4-32.46Q469,586,483.6,557.12,489,545.55,496.41,541,508.93,533,521.46,533A31,31,0,0,1,537,537q11.65,5.44,11.66,21.13a53.41,53.41,0,0,1-2.87,16.25q-11.65,36.61-28.39,53.35a92.37,92.37,0,0,1-12.43,10.71q.48,20,2.67,30.31a74.62,74.62,0,0,0,4,12c.76,1.79,1.24,2.68,1.43,2.68q1.15,0,4.69-2.77,5.35-4.11,12-14.15A152.46,152.46,0,0,0,545,633.61q4-12.81,4.2-13.86c.07-.26.45-.39,1.15-.39a17.63,17.63,0,0,1,3.16.39l4,.86a4.08,4.08,0,0,1,1.68.57,1.17,1.17,0,0,1,.28.86q-1.23,5.73-7.93,25.14a199,199,0,0,1-9,20.18q-4.49,8.6-8.89,15.3Q524.23,697.38,512.66,697.38Zm-6.4-75.53a8.54,8.54,0,0,0,1.19-1.1c.73-.73,1.71-1.75,2.92-3.06s2.32-2.63,3.34-4q22.66-37.19,22.66-56.89a47.41,47.41,0,0,0-.28-5.11,29,29,0,0,0-.77-4.35c-.32-1.15-.61-1.72-.86-1.72q-.68,0-3.73,3.34-2,2.21-5.64,10-1.9,5.36-5.74,13.77a198.83,198.83,0,0,0-11.47,38.72A79.51,79.51,0,0,0,506.26,621.85Z" transform="translate(-29.01 -36.67)"/><path class="cls-18" d="M584.56,692.41q-10.14,0-20.65-6.12a37.53,37.53,0,0,1-12.81-12.43q-5.26-9-5.26-27.92t6.4-42.45q2.68-10.32,5.69-13t11-2.68a27.16,27.16,0,0,1,8.22,1q14.25,4,14.25,13.19,0,5.16-2.78,16.64-4.49,20.46-4.49,35,0,4,.67,12,.76,9.66,1.72,12.43a25,25,0,0,0,3.06-1.92Q603.5,665.83,617,621c.32-1.15.89-1.72,1.72-1.72a25.25,25.25,0,0,1,4.5.76c2,.51,3,1.18,3,2q-3.06,16.73-13.1,41.49a95.12,95.12,0,0,1-7.65,14.73Q595.85,692.32,584.56,692.41Zm3.63-111.77a23.51,23.51,0,0,1-14-4.35q-6.12-4.35-6.12-8.37a2.6,2.6,0,0,1,.67-1.43,6.26,6.26,0,0,1,2.59-1.62,14.51,14.51,0,0,1,4.2-1q12.52,0,18,9.75a7.81,7.81,0,0,1,1,3.35Q594.5,580.64,588.19,580.64Z" transform="translate(-29.01 -36.67)"/><path class="cls-18" d="M720,724.34a32.88,32.88,0,0,1-13.58-3.44q-10.51-4.78-12.81-17a19.52,19.52,0,0,1-.38-3.92q0-9.09,7.74-20.84T723.1,662.2a160.66,160.66,0,0,1,17-4.59c1.46-.26,2.32-.59,2.58-1s.38-4.22.38-11.42l-.48-23.91q-.29,0-2.68,4.79Q727.5,651.68,716.79,654a16.45,16.45,0,0,1-3.64.39,25.39,25.39,0,0,1-9.94-2.3,33.26,33.26,0,0,1-16.35-14.24,35.85,35.85,0,0,1-4.3-17.88q0-10.34,4.59-22.57a62.48,62.48,0,0,1,11.47-19.5q11-12.81,23.42-12.81,10.05,0,20.94,8.22l4.21,3.25,1.53-2.29a9.67,9.67,0,0,1,8.51-4.88,19.19,19.19,0,0,1,8.13,2.2,13.62,13.62,0,0,1,8.36,8.89q2.06,6.4,2.06,21.42,0,23.8-1.25,39.67l-.19,6.7,3.25-1.92q3.82-2.39,12.34-11.47a48.24,48.24,0,0,0,5.26-7.65c2-3.18,3.26-5.05,3.68-5.59a2.3,2.3,0,0,1,2-.81,7.49,7.49,0,0,1,2.2.43,5.5,5.5,0,0,1,2.1,1.14c.51.48,1,.88,1.34,1.2q-7.76,14.34-9.66,17A42.72,42.72,0,0,1,777,655.88a15.86,15.86,0,0,0-4,2,1.78,1.78,0,0,0-.43,1.1q-4.2,20.17-8.6,30a73.81,73.81,0,0,1-15.68,22Q734.95,724.34,720,724.34Zm-9.56-10.71a8.87,8.87,0,0,1,1.67-.28,13.77,13.77,0,0,0,3.68-1.44q7.56-3.54,14.72-13.77a61.19,61.19,0,0,0,9.76-24.85c.25-1.28.47-2.33.67-3.16a21,21,0,0,0,.38-2.1c.06-.58.11-.94.14-1.1a2.37,2.37,0,0,0,0-.43,1.7,1.7,0,0,0-.29-.67q-1.14,0-7.65,2.48Q724.25,672,719,677.4a44.92,44.92,0,0,0-7.56,11.76A27.57,27.57,0,0,0,708,702.35a35.13,35.13,0,0,0,.29,5.74A35.62,35.62,0,0,0,710.48,713.63Zm6.21-75a16,16,0,0,0,2.87-2.72,50.47,50.47,0,0,0,5.45-7.13q4.2-6.12,14.24-27.06a79.62,79.62,0,0,0,4.12-9.46l-.1-1.05-.19-.1a3.48,3.48,0,0,0-1.58.58,15.23,15.23,0,0,1-2,1q-15.1,7.45-19.89,32.89Z" transform="translate(-29.01 -36.67)"/><path class="cls-18" d="M889.93,715a30.3,30.3,0,0,1-9.56-1.72q-24.66-7.65-30.78-45.89-.68-3.63-1-15.3l-1.72,2.68q-7.45,12-13.77,14.15a16.61,16.61,0,0,1-5.26.76,28.73,28.73,0,0,1-12.14-2.87q-19.61-9.46-19.6-34.32A67.14,67.14,0,0,1,801.21,606q8.13-19.41,21.41-23.71a19.64,19.64,0,0,1,6.79-1.15q10.05,0,21.8,7.46a39.92,39.92,0,0,1,4.88,3.73c1.66,1.46,2.61,2.19,2.87,2.19l1.53-4a76.85,76.85,0,0,1,3.06-8.41q6.5-16.26,17.59-16.26a19,19,0,0,1,6.69,1.34q13.09,4.4,13.1,17a39.39,39.39,0,0,1-1.63,10.52q-7.83,27.52-10.37,43.26a224.64,224.64,0,0,0-2.53,35.52q0,10.23.14,14.53a60,60,0,0,0,1.86,11.38c.39,1.59.7,2.39,1,2.39q.76,0,4.78-3.35,15.68-14.82,30.21-67.5,2.29-9,3-9.27a12.44,12.44,0,0,1,3.49-.29q6.51,0,6.51,1.53,0,3.06-5.45,22.47-9.85,38.34-24.19,58.51Q900,715,889.93,715ZM829.6,657.42q6.89-4.89,17.41-19.8c2.16-2.93,3.31-5.09,3.44-6.5q1.14-8.11,5.73-27a34.32,34.32,0,0,0-2.67-5.17,25.55,25.55,0,0,0-7.08-6.12,7.43,7.43,0,0,0-3.34-1.33q-2.21,0-4.5,8.5-2.58,9.76-4.78,20.37-1.62,7.65-2.91,18.36A159.23,159.23,0,0,0,829.6,657.42Z" transform="translate(-29.01 -36.67)"/><path class="cls-18" d="M970.82,697.38A46.79,46.79,0,0,1,944,689a36.6,36.6,0,0,1-14.67-19.65q-4-12.39-4-32.46,1.82-50.86,16.44-79.74,5.36-11.57,12.82-16.16,12.52-7.94,25-7.93A31,31,0,0,1,995.1,537q11.67,5.44,11.67,21.13a53.41,53.41,0,0,1-2.87,16.25q-11.67,36.61-28.4,53.35a91.79,91.79,0,0,1-12.42,10.71q.46,20,2.67,30.31a74.62,74.62,0,0,0,4,12c.76,1.79,1.24,2.68,1.43,2.68q1.15,0,4.69-2.77,5.36-4.11,12-14.15a151.51,151.51,0,0,0,15.2-32.89q4-12.81,4.21-13.86c.06-.26.45-.39,1.15-.39a17.54,17.54,0,0,1,3.15.39l4,.86a4.14,4.14,0,0,1,1.68.57,1.17,1.17,0,0,1,.28.86q-1.25,5.73-7.93,25.14a199,199,0,0,1-9,20.18q-4.5,8.6-8.89,15.3Q982.39,697.38,970.82,697.38Zm-6.41-75.53a8.23,8.23,0,0,0,1.2-1.1q1.1-1.1,2.91-3.06t3.35-4q22.67-37.19,22.66-56.89a47.47,47.47,0,0,0-.29-5.11,27.88,27.88,0,0,0-.76-4.35c-.32-1.15-.61-1.72-.86-1.72q-.68,0-3.73,3.34-2,2.21-5.64,10-1.92,5.36-5.74,13.77A198.14,198.14,0,0,0,966,611.52,78.44,78.44,0,0,0,964.41,621.85Z" transform="translate(-29.01 -36.67)"/><path class="cls-18" d="M1051.51,697.38a46.74,46.74,0,0,1-26.86-8.41A36.61,36.61,0,0,1,1010,669.32q-4-12.39-4-32.46,1.82-50.86,16.45-79.74,5.35-11.57,12.81-16.16,12.52-7.94,25-7.93A31,31,0,0,1,1075.8,537q11.65,5.44,11.66,21.13a53.41,53.41,0,0,1-2.87,16.25q-11.65,36.61-28.39,53.35a92.37,92.37,0,0,1-12.43,10.71q.48,20,2.68,30.31a73.6,73.6,0,0,0,4,12c.77,1.79,1.24,2.68,1.43,2.68q1.15,0,4.69-2.77,5.36-4.11,12.05-14.15a152.46,152.46,0,0,0,15.2-32.89q4-12.81,4.21-13.86.09-.39,1.14-.39a17.63,17.63,0,0,1,3.16.39l4,.86a4.08,4.08,0,0,1,1.68.57,1.17,1.17,0,0,1,.28.86q-1.23,5.73-7.93,25.14a199,199,0,0,1-9,20.18q-4.48,8.6-8.89,15.3Q1063.08,697.38,1051.51,697.38Zm-6.4-75.53a8.54,8.54,0,0,0,1.19-1.1c.73-.73,1.71-1.75,2.92-3.06s2.32-2.63,3.34-4q22.67-37.19,22.66-56.89a47.41,47.41,0,0,0-.28-5.11,27.75,27.75,0,0,0-.77-4.35c-.32-1.15-.6-1.72-.86-1.72q-.68,0-3.73,3.34-2,2.21-5.64,10-1.9,5.36-5.73,13.77a198.14,198.14,0,0,0-11.48,38.72A79.51,79.51,0,0,0,1045.11,621.85Z" transform="translate(-29.01 -36.67)"/><path class="cls-18" d="M1123.41,692.41q-10.14,0-20.65-6.12A37.53,37.53,0,0,1,1090,673.86q-5.27-9-5.26-27.92t6.4-42.45q2.69-10.32,5.69-13t11-2.68a27.16,27.16,0,0,1,8.22,1q14.25,4,14.25,13.19,0,5.16-2.77,16.64-4.5,20.46-4.5,35,0,4,.67,12,.76,9.66,1.72,12.43a25,25,0,0,0,3.06-1.92q14-10.32,27.44-55.16c.32-1.15.89-1.72,1.72-1.72a25.25,25.25,0,0,1,4.5.76c2,.51,3,1.18,3,2q-3.06,16.73-13.1,41.49a95.12,95.12,0,0,1-7.65,14.73Q1134.7,692.32,1123.41,692.41ZM1127,580.64a23.51,23.51,0,0,1-14-4.35q-6.12-4.35-6.11-8.37a2.53,2.53,0,0,1,.67-1.43,6.14,6.14,0,0,1,2.58-1.62,14.51,14.51,0,0,1,4.2-1q12.52,0,18,9.75a7.81,7.81,0,0,1,.95,3.35Q1133.35,580.64,1127,580.64Z" transform="translate(-29.01 -36.67)"/></g></g></svg>