<svg id="레이어_1" data-name="레이어 1" xmlns="http://www.w3.org/2000/svg" viewBox="0 0 564.25 510.79"><defs><style>.cls-1{fill:#ff9c7c;}.cls-2{fill:#ff835b;}.cls-3{fill:#eb7049;}.cls-4{fill:#fff080;}.cls-5{fill:#ffeb57;}.cls-6{fill:#f6f6f7;}.cls-7{fill:#fff;}</style></defs><title>winner</title><path class="cls-1" d="M82.47,280.39c0-125,101.35-226.4,226.4-226.4V25C167.81,25,53.46,139.34,53.46,280.41S167.81,535.79,308.87,535.79v-29C183.82,506.78,82.47,405.43,82.47,280.39Z" transform="translate(-26.75 -25)"/><path class="cls-2" d="M308.87,25V54c125,0,226.4,101.37,226.4,226.4S433.91,506.78,308.87,506.78v29c141.05,0,255.39-114.34,255.39-255.38S449.92,25,308.87,25Z" transform="translate(-26.75 -25)"/><path class="cls-3" d="M535.27,280.39c0-125-101.36-226.4-226.4-226.4V506.78C433.91,506.78,535.27,405.43,535.27,280.39Z" transform="translate(-26.75 -25)"/><path class="cls-2" d="M82.47,280.39c0,125,101.35,226.39,226.4,226.39V54C183.82,54,82.47,155.36,82.47,280.39Z" transform="translate(-26.75 -25)"/><path class="cls-4" d="M232.3,112.82a11.09,11.09,0,1,1-11.08-11.09A11.07,11.07,0,0,1,232.3,112.82Z" transform="translate(-26.75 -25)"/><polygon class="cls-4" points="165.89 353.69 156.48 372.74 135.45 375.81 150.66 390.63 147.07 411.58 165.89 401.69 184.7 411.58 181.1 390.63 196.32 375.81 175.3 372.74 165.89 353.69"/><polygon class="cls-5" points="398.33 353.69 407.73 372.74 428.76 375.81 413.55 390.63 417.13 411.58 398.33 401.69 379.51 411.58 383.11 390.63 367.89 375.81 388.92 372.74 398.33 353.69"/><path class="cls-4" d="M232.46,130,215,130l4.07,8.74H237A52.33,52.33,0,0,1,232.46,130Z" transform="translate(-26.75 -25)"/><path class="cls-4" d="M298,119.2c.42,22.31-12.19,41-29.55,42.37-11.23.91-22.27-7.18-29.36-18.5H221.22l34.11,73h53.83V119.2Z" transform="translate(-26.75 -25)"/><path class="cls-4" d="M309.16,100h-12.7a56.52,56.52,0,0,1,1.54,9.25c.1,1.2,0,2.34,0,3.53h11.14Z" transform="translate(-26.75 -25)"/><path class="cls-5" d="M377.91,112.82A11.09,11.09,0,1,0,389,101.73,11.08,11.08,0,0,0,377.91,112.82Z" transform="translate(-26.75 -25)"/><path class="cls-5" d="M385.84,130l17.5-.07-4.07,8.74H381.36A52.28,52.28,0,0,0,385.84,130Z" transform="translate(-26.75 -25)"/><path class="cls-5" d="M320.28,119.2c-.41,22.31,12.2,41,29.55,42.37,11.24.91,22.26-7.18,29.37-18.5h17.89l-34.11,73H309.16V119.2Z" transform="translate(-26.75 -25)"/><path class="cls-5" d="M309.16,100h12.68a56.52,56.52,0,0,0-1.54,9.25c-.09,1.2,0,2.34,0,3.53H309.16Z" transform="translate(-26.75 -25)"/><path class="cls-4" d="M295,80.77A14.22,14.22,0,0,0,309.16,95V66.56A14.21,14.21,0,0,0,295,80.77Z" transform="translate(-26.75 -25)"/><path class="cls-5" d="M309.16,66.56V95a14.22,14.22,0,0,0,0-28.44Z" transform="translate(-26.75 -25)"/><rect class="cls-4" y="215.33" width="282.12" height="126.92"/><rect class="cls-5" x="282.12" y="215.33" width="282.13" height="126.92"/><polygon class="cls-4" points="282.11 394 272.7 413.05 251.67 416.12 266.88 430.95 263.3 451.89 282.11 442 282.12 442.01 282.12 394.04 282.11 394"/><polygon class="cls-5" points="297.32 430.95 312.54 416.12 291.51 413.05 282.12 394.04 282.12 442.01 300.92 451.89 297.32 430.95"/><rect class="cls-6" x="282.12" y="221.98" width="282.13" height="9.39"/><rect class="cls-7" y="221.98" width="282.12" height="9.39"/><rect class="cls-6" x="282.12" y="324.47" width="282.13" height="9.39"/><rect class="cls-7" y="324.47" width="282.12" height="9.39"/></svg>