<svg xmlns="http://www.w3.org/2000/svg" viewBox="0 0 643 885"><defs><style>.cls-1{isolation:isolate;}.cls-2{fill:#fff;}.cls-3,.cls-4{fill:#5d9c4d;}.cls-4,.cls-6{opacity:0.3;mix-blend-mode:multiply;}.cls-5,.cls-6{fill:#ffca00;}</style></defs><title>lemon_1</title><g class="cls-1"><g id="레이어_1" data-name="레이어 1"><rect class="cls-2" width="643" height="885" rx="50"/><g id="_1개" data-name="1개"><path class="cls-3" d="M429.71,348.47s-31.29,2.49-55-14.82-31-47.85-31-47.85,31.28-2.48,55,14.82S429.71,348.47,429.71,348.47Z"/><path class="cls-4" d="M396,334.89a82.59,82.59,0,0,1-24.58-3.75c1,.86,2.1,1.71,3.21,2.51,23.75,17.31,55,14.82,55,14.82a93.92,93.92,0,0,0-6.9-18.06A82.48,82.48,0,0,1,396,334.89Z"/><path class="cls-5" d="M432.3,405.7l5.06-5.06a24.88,24.88,0,0,0-35.19-35.18l-5.05,5.06C353.38,346.1,291,357.66,246.77,401.91S191,508.52,215.39,552.25l-5.06,5a24.88,24.88,0,1,0,35.19,35.18l5-5.05c43.73,24.42,106.1,12.86,150.35-31.38S456.72,449.43,432.3,405.7Z"/><path class="cls-6" d="M289.18,579.73a161.58,161.58,0,0,1-45.81-6.68,48,48,0,0,1-35.2,15.64l-1,0a24.37,24.37,0,0,0,3.12,3.82,24.89,24.89,0,0,0,35.19,0l5-5.05c43.73,24.42,106.1,12.86,150.35-31.38,24.16-24.17,38.55-53.75,42.68-82.75C419.33,535.05,358.71,579.73,289.18,579.73Z"/></g></g></g></svg>