<svg xmlns="http://www.w3.org/2000/svg" viewBox="0 0 643 885"><defs><style>.cls-1{isolation:isolate;}.cls-2{fill:#fff;}.cls-3,.cls-4{fill:#5d9c4d;}.cls-4,.cls-6{opacity:0.3;mix-blend-mode:multiply;}.cls-5,.cls-6{fill:#ffca00;}</style></defs><title>lemon_4</title><g class="cls-1"><g id="레이어_1" data-name="레이어 1"><rect class="cls-2" width="643" height="885" rx="50"/><g id="_4개" data-name="4개"><path class="cls-3" d="M264,174.43s-28.35,2.25-49.88-13.43S186,117.63,186,117.63s28.35-2.25,49.86,13.43S264,174.43,264,174.43Z"/><path class="cls-4" d="M233.45,162.12a74.9,74.9,0,0,1-22.27-3.4c.94.78,1.9,1.54,2.9,2.28C235.61,176.68,264,174.43,264,174.43a85.06,85.06,0,0,0-6.25-16.38A74.76,74.76,0,0,1,233.45,162.12Z"/><path class="cls-5" d="M266.31,226.29l4.58-4.59A22.54,22.54,0,0,0,239,189.82l-4.58,4.58c-39.63-22.12-96.16-11.65-136.25,28.45S47.61,319.46,69.74,359.09l-4.58,4.58A22.54,22.54,0,1,0,97,395.55l4.58-4.57c39.63,22.12,96.16,11.65,136.25-28.44S288.44,265.92,266.31,226.29Z"/><path class="cls-6" d="M136.61,384A146.57,146.57,0,0,1,95.1,378a43.48,43.48,0,0,1-31.9,14.17l-.87,0A22.53,22.53,0,0,0,97,395.55l4.58-4.57c39.63,22.12,96.16,11.65,136.25-28.44,21.9-21.91,34.94-48.71,38.68-75C254.56,343.51,199.62,384,136.61,384Z"/><path class="cls-3" d="M571.27,177.14s-28.36,2.26-49.88-13.43-28.06-43.36-28.06-43.36,28.35-2.25,49.87,13.43S571.27,177.14,571.27,177.14Z"/><path class="cls-4" d="M540.76,164.84a74.85,74.85,0,0,1-22.27-3.4c.94.78,1.9,1.54,2.9,2.27,21.52,15.69,49.88,13.43,49.88,13.43A85.12,85.12,0,0,0,565,160.77,74.76,74.76,0,0,1,540.76,164.84Z"/><path class="cls-5" d="M573.62,229l4.58-4.59a22.55,22.55,0,0,0-31.89-31.88l-4.57,4.58C502.1,175,445.58,185.47,405.49,225.57S354.92,322.18,377,361.81l-4.57,4.58a22.54,22.54,0,1,0,31.88,31.88l4.58-4.58c39.63,22.13,96.15,11.66,136.25-28.43S595.74,268.64,573.62,229Z"/><path class="cls-6" d="M443.92,386.71a146.16,146.16,0,0,1-41.51-6,43.46,43.46,0,0,1-31.9,14.18l-.88,0a23.1,23.1,0,0,0,2.84,3.46,22.54,22.54,0,0,0,31.88,0l4.58-4.58c39.63,22.13,96.15,11.66,136.25-28.43,21.9-21.91,34.94-48.72,38.68-75C561.87,346.23,506.93,386.71,443.92,386.71Z"/><path class="cls-3" d="M259.43,539.64s-28.35,2.25-49.88-13.43-28.05-43.37-28.05-43.37,28.35-2.25,49.86,13.43S259.43,539.64,259.43,539.64Z"/><path class="cls-4" d="M228.92,527.33a74.85,74.85,0,0,1-22.27-3.4c.94.78,1.9,1.54,2.9,2.28,21.53,15.68,49.88,13.43,49.88,13.43a85.06,85.06,0,0,0-6.25-16.38A74.76,74.76,0,0,1,228.92,527.33Z"/><path class="cls-5" d="M261.78,591.5l4.58-4.59A22.54,22.54,0,0,0,234.48,555l-4.58,4.58C190.26,537.49,133.74,548,93.65,588.06S43.08,684.67,65.21,724.3l-4.58,4.58a22.54,22.54,0,1,0,31.88,31.88l4.58-4.57c39.63,22.12,96.16,11.65,136.25-28.44S283.91,631.13,261.78,591.5Z"/><path class="cls-6" d="M132.08,749.2a146.57,146.57,0,0,1-41.51-6,43.48,43.48,0,0,1-31.9,14.17l-.87,0a22.53,22.53,0,0,0,34.71,3.45l4.58-4.57c39.63,22.12,96.16,11.65,136.25-28.44,21.9-21.91,34.94-48.72,38.68-75C250,708.72,195.09,749.2,132.08,749.2Z"/><path class="cls-3" d="M570.36,539.64s-28.35,2.25-49.88-13.43-28.05-43.37-28.05-43.37,28.35-2.25,49.86,13.43S570.36,539.64,570.36,539.64Z"/><path class="cls-4" d="M539.85,527.33a74.9,74.9,0,0,1-22.27-3.4c.94.78,1.9,1.54,2.9,2.28,21.53,15.68,49.88,13.43,49.88,13.43a85.06,85.06,0,0,0-6.25-16.38A74.76,74.76,0,0,1,539.85,527.33Z"/><path class="cls-5" d="M572.71,591.5l4.58-4.59A22.54,22.54,0,0,0,545.41,555l-4.58,4.58C501.2,537.49,444.67,548,404.58,588.06S354,684.67,376.14,724.3l-4.58,4.58a22.54,22.54,0,1,0,31.88,31.88l4.58-4.57c39.63,22.12,96.16,11.65,136.25-28.44S594.84,631.13,572.71,591.5Z"/><path class="cls-6" d="M443,749.2a146.57,146.57,0,0,1-41.51-6,43.48,43.48,0,0,1-31.9,14.17l-.87,0a22.53,22.53,0,0,0,34.71,3.45l4.58-4.57c39.63,22.12,96.16,11.65,136.25-28.44,21.9-21.91,34.94-48.72,38.68-75C561,708.72,506,749.2,443,749.2Z"/></g></g></g></svg>