<svg xmlns="http://www.w3.org/2000/svg" viewBox="0 0 643 885"><defs><style>.cls-1{isolation:isolate;}.cls-2{fill:#fff;}.cls-3,.cls-4{fill:#ff4e4f;}.cls-4,.cls-6{opacity:0.3;mix-blend-mode:multiply;}.cls-5,.cls-6{fill:#5d9c4d;}.cls-7{fill:#4c803f;}.cls-8{fill:#ffca00;}</style></defs><title>strawberry_3</title><g class="cls-1"><g id="레이어_1" data-name="레이어 1"><rect class="cls-2" width="643" height="885" rx="50"/><g id="_3개" data-name="3개"><g id="_1개" data-name="1개"><path class="cls-3" d="M229.53,189.51C199.6,135.39,141,152,141,152s-58.59-16.56-88.51,37.56S100.27,353.16,141,353.16,259.45,243.64,229.53,189.51Z"/><path class="cls-4" d="M229.53,189.51c-16.45-29.74-41.54-38.12-60.82-39.65,27.4,18.45,45.72,49.74,45.72,84.68,0,55.62-46.41,102-102,102-1.73,0-3.46,0-5.18-.13,12.06,10.37,24,16.72,33.8,16.72C181.77,353.16,259.45,243.64,229.53,189.51Z"/><path class="cls-5" d="M215.52,149.56c-10.18-11.3-33.74-16.71-33.74-16.71l3.81-18.47C158.84,116.29,141,139.85,141,139.85s-17.82-23.56-44.57-25.47l3.81,18.47s-23.56,5.41-33.74,16.71c0,0,22.29,3.66,29.93,9.39,0,0-6.37,15.92,3.18,26.11,0,0,13.36-17.2,27.38-17.2l4.45,17.2L141,171.68l9.56,13.38,4.46-17.2c14,0,27.37,17.2,27.37,17.2C192,174.87,185.59,159,185.59,159,193.23,153.22,215.52,149.56,215.52,149.56Z"/><path class="cls-6" d="M215.52,149.56c-10.18-11.3-33.74-16.71-33.74-16.71l3.81-18.47A56.23,56.23,0,0,0,160,123.12a60.13,60.13,0,0,1,18.43,43,58.87,58.87,0,0,1-1.47,13,63.18,63.18,0,0,1,5.45,5.9C192,174.87,185.59,159,185.59,159,193.23,153.22,215.52,149.56,215.52,149.56Z"/><path class="cls-7" d="M141,155a5.28,5.28,0,0,1-5.27-4.9c-5.4-74,32.46-78.4,34.07-78.55a5.29,5.29,0,0,1,1,10.52c-1.34.16-29.16,4.47-24.57,67.26a5.28,5.28,0,0,1-4.88,5.66Z"/><path class="cls-8" d="M75.31,192.29c-.93,3.25-3.61,5.34-6,4.66s-3.57-3.86-2.64-7.11,3.6-5.33,6-4.65S76.23,189.05,75.31,192.29Z"/><path class="cls-8" d="M108.05,207.79c-.93,3.26-3.61,5.34-6,4.66s-3.56-3.86-2.63-7.1,3.6-5.34,6-4.66S109,204.54,108.05,207.79Z"/><path class="cls-8" d="M207,192.29c.93,3.25,3.61,5.34,6,4.66s3.56-3.86,2.63-7.11-3.6-5.33-6-4.65S206,189.05,207,192.29Z"/><path class="cls-8" d="M174.23,207.79c.92,3.26,3.6,5.34,6,4.66s3.56-3.86,2.64-7.1-3.61-5.34-6-4.66S173.3,204.54,174.23,207.79Z"/><path class="cls-8" d="M145.5,210.46c-.07,3.38-2.13,6.07-4.6,6s-4.43-2.83-4.36-6.2,2.12-6.08,4.59-6S145.56,207.08,145.5,210.46Z"/><path class="cls-8" d="M95.77,271c-.92,3.25-3.6,5.33-6,4.66s-3.56-3.87-2.64-7.11,3.61-5.34,6-4.66S96.7,267.76,95.77,271Z"/><path class="cls-8" d="M188.74,271c.93,3.25,3.6,5.33,6,4.66s3.56-3.87,2.64-7.11-3.6-5.34-6-4.66S187.82,267.76,188.74,271Z"/><path class="cls-8" d="M145.5,273.67c-.07,3.38-2.13,6.08-4.6,6s-4.43-2.82-4.36-6.2,2.12-6.07,4.59-6S145.56,270.29,145.5,273.67Z"/><path class="cls-8" d="M145.5,329.6c-.07,3.38-2.13,6.08-4.6,6s-4.43-2.82-4.36-6.2,2.12-6.07,4.59-6S145.56,326.23,145.5,329.6Z"/><path class="cls-8" d="M79.92,228.2c-1,3.23-3.68,5.28-6,4.57s-3.51-3.91-2.54-7.14,3.68-5.29,6-4.58S80.88,225,79.92,228.2Z"/><path class="cls-8" d="M119.22,240.32c-1.09,3.2-3.87,5.15-6.21,4.34s-3.36-4-2.27-7.23,3.88-5.14,6.22-4.34S120.31,237.13,119.22,240.32Z"/><path class="cls-8" d="M202.36,228.2c1,3.23,3.67,5.28,6,4.57s3.51-3.91,2.54-7.14-3.67-5.29-6-4.58S201.39,225,202.36,228.2Z"/><path class="cls-8" d="M163.05,240.32c1.09,3.2,3.87,5.15,6.21,4.34s3.36-4,2.27-7.23-3.87-5.14-6.21-4.34S162,237.13,163.05,240.32Z"/><path class="cls-8" d="M163.53,304.35c1.28-3.13,4.18-4.9,6.47-4s3.11,4.23,1.83,7.36-4.17,4.89-6.46,4S162.26,307.48,163.53,304.35Z"/><path class="cls-8" d="M119.79,301.74c-.9-3.26-3.57-5.36-6-4.7s-3.59,3.83-2.69,7.08,3.56,5.36,5.94,4.71S120.68,305,119.79,301.74Z"/></g><g id="_1개-2" data-name="1개"><path class="cls-3" d="M409.53,416.51C379.6,362.39,321,379,321,379s-58.59-16.56-88.51,37.56S280.27,580.16,321,580.16,439.45,470.64,409.53,416.51Z"/><path class="cls-4" d="M409.53,416.51c-16.45-29.74-41.54-38.12-60.82-39.65,27.4,18.45,45.72,49.74,45.72,84.68,0,55.62-46.41,102-102,102-1.73,0-3.46,0-5.18-.13,12.06,10.37,24,16.72,33.8,16.72C361.77,580.16,439.45,470.64,409.53,416.51Z"/><path class="cls-5" d="M395.52,376.56c-10.18-11.3-33.74-16.71-33.74-16.71l3.81-18.47C338.84,343.29,321,366.85,321,366.85s-17.82-23.56-44.57-25.47l3.81,18.47s-23.56,5.41-33.74,16.71c0,0,22.29,3.66,29.93,9.39,0,0-6.37,15.92,3.18,26.11,0,0,13.36-17.2,27.38-17.2l4.45,17.2L321,398.68l9.56,13.38,4.46-17.2c14,0,27.37,17.2,27.37,17.2C372,401.87,365.59,386,365.59,386,373.23,380.22,395.52,376.56,395.52,376.56Z"/><path class="cls-6" d="M395.52,376.56c-10.18-11.3-33.74-16.71-33.74-16.71l3.81-18.47A56.23,56.23,0,0,0,340,350.12a60.13,60.13,0,0,1,18.43,43,58.87,58.87,0,0,1-1.47,13,63.18,63.18,0,0,1,5.45,5.9C372,401.87,365.59,386,365.59,386,373.23,380.22,395.52,376.56,395.52,376.56Z"/><path class="cls-7" d="M321,382a5.28,5.28,0,0,1-5.27-4.9c-5.4-74,32.46-78.4,34.07-78.55a5.29,5.29,0,0,1,1,10.52c-1.34.16-29.16,4.47-24.57,67.26a5.28,5.28,0,0,1-4.88,5.66Z"/><path class="cls-8" d="M255.31,419.29c-.93,3.25-3.61,5.34-6,4.66s-3.57-3.86-2.64-7.11,3.6-5.33,6-4.65S256.23,416.05,255.31,419.29Z"/><path class="cls-8" d="M288.05,434.79c-.93,3.26-3.61,5.34-6,4.66s-3.56-3.86-2.63-7.1,3.6-5.34,6-4.66S289,431.54,288.05,434.79Z"/><path class="cls-8" d="M387,419.29c.93,3.25,3.61,5.34,6,4.66s3.56-3.86,2.63-7.11-3.6-5.33-6-4.65S386,416.05,387,419.29Z"/><path class="cls-8" d="M354.23,434.79c.92,3.26,3.6,5.34,6,4.66s3.56-3.86,2.64-7.1-3.61-5.34-6-4.66S353.3,431.54,354.23,434.79Z"/><path class="cls-8" d="M325.5,437.46c-.07,3.38-2.13,6.07-4.6,6s-4.43-2.83-4.36-6.2,2.12-6.08,4.59-6S325.56,434.08,325.5,437.46Z"/><path class="cls-8" d="M275.77,498c-.92,3.25-3.6,5.33-6,4.66s-3.56-3.87-2.64-7.11,3.61-5.34,6-4.66S276.7,494.76,275.77,498Z"/><path class="cls-8" d="M368.74,498c.93,3.25,3.6,5.33,6,4.66s3.56-3.87,2.64-7.11-3.6-5.34-6-4.66S367.82,494.76,368.74,498Z"/><path class="cls-8" d="M325.5,500.67c-.07,3.38-2.13,6.08-4.6,6s-4.43-2.82-4.36-6.2,2.12-6.07,4.59-6S325.56,497.29,325.5,500.67Z"/><path class="cls-8" d="M325.5,556.6c-.07,3.38-2.13,6.08-4.6,6s-4.43-2.82-4.36-6.2,2.12-6.07,4.59-6S325.56,553.23,325.5,556.6Z"/><path class="cls-8" d="M259.92,455.2c-1,3.23-3.68,5.28-6.05,4.57s-3.51-3.91-2.54-7.14,3.68-5.29,6-4.58S260.88,452,259.92,455.2Z"/><path class="cls-8" d="M299.22,467.32c-1.09,3.2-3.87,5.15-6.21,4.34s-3.36-4-2.27-7.23,3.88-5.14,6.22-4.34S300.31,464.13,299.22,467.32Z"/><path class="cls-8" d="M382.36,455.2c1,3.23,3.67,5.28,6,4.57s3.51-3.91,2.54-7.14-3.67-5.29-6-4.58S381.39,452,382.36,455.2Z"/><path class="cls-8" d="M343.05,467.32c1.09,3.2,3.87,5.15,6.21,4.34s3.36-4,2.27-7.23-3.87-5.14-6.21-4.34S342,464.13,343.05,467.32Z"/><path class="cls-8" d="M343.53,531.35c1.28-3.13,4.18-4.9,6.47-4s3.11,4.23,1.83,7.36-4.17,4.89-6.46,4S342.26,534.48,343.53,531.35Z"/><path class="cls-8" d="M299.79,528.74c-.9-3.26-3.57-5.36-6-4.7s-3.59,3.83-2.69,7.08,3.56,5.36,5.94,4.71S300.68,532,299.79,528.74Z"/></g><g id="_1개-3" data-name="1개"><path class="cls-3" d="M593.53,655.51C563.6,601.39,505,618,505,618s-58.59-16.56-88.51,37.56S464.27,819.16,505,819.16,623.45,709.64,593.53,655.51Z"/><path class="cls-4" d="M593.53,655.51c-16.45-29.74-41.54-38.12-60.82-39.65,27.4,18.45,45.72,49.74,45.72,84.68,0,55.62-46.41,102-102,102-1.73,0-3.46,0-5.18-.13,12.06,10.37,24,16.72,33.8,16.72C545.77,819.16,623.45,709.64,593.53,655.51Z"/><path class="cls-5" d="M579.52,615.56c-10.18-11.3-33.74-16.71-33.74-16.71l3.81-18.47C522.84,582.29,505,605.85,505,605.85s-17.82-23.56-44.57-25.47l3.81,18.47s-23.56,5.41-33.74,16.71c0,0,22.29,3.66,29.93,9.39,0,0-6.37,15.92,3.18,26.11,0,0,13.36-17.2,27.38-17.2l4.45,17.2L505,637.68l9.56,13.38,4.46-17.2c14,0,27.37,17.2,27.37,17.2C556,640.87,549.59,625,549.59,625,557.23,619.22,579.52,615.56,579.52,615.56Z"/><path class="cls-6" d="M579.52,615.56c-10.18-11.3-33.74-16.71-33.74-16.71l3.81-18.47A56.23,56.23,0,0,0,524,589.12a60.13,60.13,0,0,1,18.43,43,58.87,58.87,0,0,1-1.47,13,63.18,63.18,0,0,1,5.45,5.9C556,640.87,549.59,625,549.59,625,557.23,619.22,579.52,615.56,579.52,615.56Z"/><path class="cls-7" d="M505,621a5.28,5.28,0,0,1-5.27-4.9c-5.4-74,32.46-78.4,34.07-78.55a5.29,5.29,0,0,1,1,10.52c-1.34.16-29.16,4.47-24.57,67.26a5.28,5.28,0,0,1-4.88,5.66Z"/><path class="cls-8" d="M439.31,658.29c-.93,3.25-3.61,5.34-6,4.66s-3.57-3.86-2.64-7.11,3.6-5.33,6-4.65S440.23,655.05,439.31,658.29Z"/><path class="cls-8" d="M472.05,673.79c-.93,3.26-3.61,5.34-6,4.66s-3.56-3.86-2.63-7.1,3.6-5.34,6-4.66S473,670.54,472.05,673.79Z"/><path class="cls-8" d="M571,658.29c.93,3.25,3.61,5.34,6,4.66s3.56-3.86,2.63-7.11-3.6-5.33-6-4.65S570,655.05,571,658.29Z"/><path class="cls-8" d="M538.23,673.79c.92,3.26,3.6,5.34,6,4.66s3.56-3.86,2.64-7.1-3.61-5.34-6-4.66S537.3,670.54,538.23,673.79Z"/><path class="cls-8" d="M509.5,676.46c-.07,3.38-2.13,6.07-4.6,6s-4.43-2.83-4.36-6.2,2.12-6.08,4.59-6S509.56,673.08,509.5,676.46Z"/><path class="cls-8" d="M459.77,737c-.92,3.25-3.6,5.33-6,4.66s-3.56-3.87-2.64-7.11,3.61-5.34,6-4.66S460.7,733.76,459.77,737Z"/><path class="cls-8" d="M552.74,737c.93,3.25,3.6,5.33,6,4.66s3.56-3.87,2.64-7.11-3.6-5.34-6-4.66S551.82,733.76,552.74,737Z"/><path class="cls-8" d="M509.5,739.67c-.07,3.38-2.13,6.08-4.6,6s-4.43-2.82-4.36-6.2,2.12-6.07,4.59-6S509.56,736.29,509.5,739.67Z"/><path class="cls-8" d="M509.5,795.6c-.07,3.38-2.13,6.08-4.6,6s-4.43-2.82-4.36-6.2,2.12-6.07,4.59-6S509.56,792.23,509.5,795.6Z"/><path class="cls-8" d="M443.92,694.2c-1,3.23-3.68,5.28-6.05,4.57s-3.51-3.91-2.54-7.14,3.68-5.29,6.05-4.58S444.88,691,443.92,694.2Z"/><path class="cls-8" d="M483.22,706.32c-1.09,3.2-3.87,5.15-6.21,4.34s-3.36-4-2.27-7.23,3.88-5.14,6.22-4.34S484.31,703.13,483.22,706.32Z"/><path class="cls-8" d="M566.36,694.2c1,3.23,3.67,5.28,6,4.57s3.51-3.91,2.54-7.14-3.67-5.29-6-4.58S565.39,691,566.36,694.2Z"/><path class="cls-8" d="M527.05,706.32c1.09,3.2,3.87,5.15,6.21,4.34s3.36-4,2.27-7.23-3.87-5.14-6.21-4.34S526,703.13,527.05,706.32Z"/><path class="cls-8" d="M527.53,770.35c1.28-3.13,4.18-4.9,6.47-4s3.11,4.23,1.83,7.36-4.17,4.89-6.46,4S526.26,773.48,527.53,770.35Z"/><path class="cls-8" d="M483.79,767.74c-.9-3.26-3.57-5.36-6-4.7s-3.59,3.83-2.69,7.08,3.56,5.36,5.94,4.71S484.68,771,483.79,767.74Z"/></g></g></g></g></svg>