<svg xmlns="http://www.w3.org/2000/svg" viewBox="0 0 643 885"><defs><style>.cls-1{isolation:isolate;}.cls-2{fill:#fff;}.cls-3,.cls-4{fill:#ff4e4f;}.cls-4,.cls-6{opacity:0.3;mix-blend-mode:multiply;}.cls-5,.cls-6{fill:#5d9c4d;}.cls-7{fill:#4c803f;}.cls-8{fill:#ffca00;}</style></defs><title>strawberry_5</title><g class="cls-1"><g id="레이어_1" data-name="레이어 1"><rect class="cls-2" width="643" height="885" rx="50"/><g id="_5개" data-name="5개"><path class="cls-3" d="M237,166.24c-29.87-54-88.33-37.49-88.33-37.49S90.17,112.23,60.3,166.24,108,329.55,148.63,329.55,266.82,220.25,237,166.24Z"/><path class="cls-4" d="M237,166.24c-16.42-29.68-41.46-38.05-60.7-39.57,27.35,18.41,45.63,49.64,45.63,84.51,0,55.5-46.31,101.81-101.82,101.81-1.73,0-3.45,0-5.17-.13,12,10.35,23.95,16.69,33.73,16.69C189.29,329.55,266.82,220.25,237,166.24Z"/><path class="cls-5" d="M223,126.37c-10.17-11.27-33.68-16.68-33.68-16.68l3.81-18.43c-26.69,1.91-44.48,25.42-44.48,25.42s-17.79-23.51-44.48-25.42L108,109.69s-23.51,5.41-33.68,16.68c0,0,22.25,3.65,29.87,9.37,0,0-6.35,15.89,3.18,26.06,0,0,13.33-17.16,27.32-17.16l4.44,17.16,9.54-13.35,9.54,13.35,4.45-17.16c14,0,27.31,17.16,27.31,17.16,9.53-10.17,3.18-26.06,3.18-26.06C200.73,130,223,126.37,223,126.37Z"/><path class="cls-6" d="M223,126.37c-10.17-11.27-33.68-16.68-33.68-16.68l3.81-18.43A56.25,56.25,0,0,0,167.57,100,60,60,0,0,1,186,142.93a58.62,58.62,0,0,1-1.47,13,61.38,61.38,0,0,1,5.44,5.89c9.53-10.17,3.18-26.06,3.18-26.06C200.73,130,223,126.37,223,126.37Z"/><path class="cls-7" d="M148.63,131.8a5.26,5.26,0,0,1-5.25-4.89c-5.4-73.88,32.38-78.24,34-78.39a5.28,5.28,0,0,1,1,10.5c-1.34.16-29.1,4.46-24.52,67.12a5.28,5.28,0,0,1-4.87,5.65Z"/><path class="cls-8" d="M83.05,169c-.92,3.25-3.59,5.33-6,4.65s-3.55-3.85-2.63-7.09,3.6-5.32,6-4.65S84,165.77,83.05,169Z"/><path class="cls-8" d="M115.72,184.48c-.92,3.25-3.59,5.33-6,4.65s-3.56-3.85-2.64-7.09,3.6-5.32,6-4.65S116.65,181.24,115.72,184.48Z"/><path class="cls-8" d="M214.44,169c.92,3.25,3.59,5.33,6,4.65s3.55-3.85,2.63-7.09-3.6-5.32-6-4.65S213.51,165.77,214.44,169Z"/><path class="cls-8" d="M181.77,184.48c.92,3.25,3.6,5.33,6,4.65s3.55-3.85,2.63-7.09-3.6-5.32-6-4.65S180.85,181.24,181.77,184.48Z"/><path class="cls-8" d="M153.1,187.14c-.06,3.37-2.12,6.07-4.59,6s-4.42-2.82-4.35-6.19,2.12-6.06,4.59-6S153.17,183.77,153.1,187.14Z"/><path class="cls-8" d="M103.48,247.57c-.92,3.24-3.6,5.32-6,4.65s-3.56-3.86-2.63-7.1,3.59-5.32,6-4.65S104.4,244.33,103.48,247.57Z"/><path class="cls-8" d="M196.25,247.57c.93,3.24,3.6,5.32,6,4.65s3.55-3.86,2.63-7.1-3.59-5.32-6-4.65S195.33,244.33,196.25,247.57Z"/><path class="cls-8" d="M153.1,250.22c-.06,3.38-2.12,6.07-4.59,6s-4.42-2.82-4.35-6.18,2.12-6.07,4.59-6S153.17,246.85,153.1,250.22Z"/><path class="cls-8" d="M153.1,306c-.06,3.37-2.12,6.06-4.59,6s-4.42-2.82-4.35-6.19,2.12-6.06,4.59-6S153.17,302.67,153.1,306Z"/><path class="cls-8" d="M87.65,204.84c-1,3.23-3.67,5.28-6,4.57s-3.5-3.9-2.53-7.13,3.67-5.27,6-4.57S88.62,201.61,87.65,204.84Z"/><path class="cls-8" d="M126.88,216.94c-1.09,3.19-3.87,5.14-6.2,4.34s-3.35-4-2.27-7.22,3.87-5.13,6.21-4.33S128,213.76,126.88,216.94Z"/><path class="cls-8" d="M209.84,204.84c1,3.23,3.67,5.28,6,4.57s3.5-3.9,2.54-7.13-3.67-5.27-6-4.57S208.87,201.61,209.84,204.84Z"/><path class="cls-8" d="M170.61,216.94c1.09,3.19,3.87,5.14,6.21,4.34s3.35-4,2.26-7.22-3.87-5.13-6.2-4.33S169.52,213.76,170.61,216.94Z"/><path class="cls-8" d="M171.1,280.84c1.28-3.12,4.16-4.89,6.45-3.95s3.1,4.22,1.82,7.34-4.16,4.88-6.44,3.95S169.82,284,171.1,280.84Z"/><path class="cls-8" d="M127.44,278.23c-.9-3.25-3.56-5.35-5.93-4.69s-3.59,3.82-2.69,7.07,3.55,5.35,5.93,4.7S128.34,281.49,127.44,278.23Z"/><path class="cls-3" d="M587.34,168.65c-29.87-54-88.33-37.49-88.33-37.49s-58.47-16.52-88.33,37.49S458.34,332,499,332,617.19,222.66,587.34,168.65Z"/><path class="cls-4" d="M587.34,168.65c-16.42-29.69-41.46-38.05-60.7-39.58,27.35,18.41,45.63,49.64,45.63,84.51,0,55.5-46.32,101.82-101.82,101.82-1.73,0-3.46,0-5.17-.14,12,10.36,24,16.69,33.73,16.69C539.67,332,617.19,222.66,587.34,168.65Z"/><path class="cls-5" d="M573.35,128.77c-10.16-11.27-33.67-16.68-33.67-16.68l3.81-18.43C516.79,95.58,499,119.08,499,119.08s-17.79-23.5-44.48-25.42l3.81,18.43s-23.52,5.41-33.68,16.68c0,0,22.24,3.66,29.87,9.37,0,0-6.36,15.89,3.17,26.06C457.7,164.2,471,147,485,147l4.45,17.16L499,150.85l9.53,13.35L513,147c14,0,27.32,17.16,27.32,17.16,9.53-10.17,3.18-26.06,3.18-26.06C551.11,132.43,573.35,128.77,573.35,128.77Z"/><path class="cls-6" d="M573.35,128.77c-10.16-11.27-33.67-16.68-33.67-16.68l3.81-18.43A56.25,56.25,0,0,0,518,102.39a60,60,0,0,1,18.39,43,58.76,58.76,0,0,1-1.47,13,63.81,63.81,0,0,1,5.44,5.88c9.53-10.17,3.18-26.06,3.18-26.06C551.11,132.43,573.35,128.77,573.35,128.77Z"/><path class="cls-7" d="M499,134.21a5.27,5.27,0,0,1-5.25-4.9c-5.4-73.88,32.39-78.23,34-78.38a5.22,5.22,0,0,1,5.74,4.76,5.27,5.27,0,0,1-4.7,5.73c-1.35.17-29.1,4.46-24.52,67.13a5.3,5.3,0,0,1-4.88,5.65Z"/><path class="cls-8" d="M433.43,171.42c-.92,3.24-3.6,5.33-6,4.65s-3.55-3.86-2.63-7.09,3.6-5.33,6-4.65S434.35,168.18,433.43,171.42Z"/><path class="cls-8" d="M466.1,186.89c-.92,3.24-3.6,5.32-6,4.64s-3.55-3.84-2.63-7.08,3.6-5.33,6-4.66S467,183.65,466.1,186.89Z"/><path class="cls-8" d="M564.81,171.42c.93,3.24,3.6,5.33,6,4.65s3.56-3.86,2.64-7.09-3.6-5.33-6-4.65S563.89,168.18,564.81,171.42Z"/><path class="cls-8" d="M532.15,186.89c.92,3.24,3.59,5.32,6,4.64s3.56-3.84,2.64-7.08-3.6-5.33-6-4.66S531.22,183.65,532.15,186.89Z"/><path class="cls-8" d="M503.48,189.55c-.07,3.37-2.12,6.06-4.59,6s-4.42-2.81-4.35-6.18,2.11-6.07,4.58-6S503.54,186.18,503.48,189.55Z"/><path class="cls-8" d="M453.85,250c-.92,3.25-3.59,5.32-6,4.65s-3.55-3.85-2.63-7.09,3.6-5.33,6-4.65S454.78,246.73,453.85,250Z"/><path class="cls-8" d="M546.63,250c.92,3.25,3.59,5.32,6,4.65s3.55-3.85,2.63-7.09-3.6-5.33-6-4.65S545.71,246.73,546.63,250Z"/><path class="cls-8" d="M503.48,252.63c-.07,3.37-2.12,6.07-4.59,6s-4.42-2.81-4.35-6.18,2.11-6.06,4.58-6S503.54,249.26,503.48,252.63Z"/><path class="cls-8" d="M503.48,308.44c-.07,3.37-2.12,6.07-4.59,6s-4.42-2.82-4.35-6.18,2.11-6.07,4.58-6S503.54,305.07,503.48,308.44Z"/><path class="cls-8" d="M438,207.25c-1,3.23-3.67,5.27-6,4.56s-3.51-3.9-2.54-7.13,3.67-5.27,6-4.56S439,204,438,207.25Z"/><path class="cls-8" d="M477.26,219.35c-1.09,3.19-3.87,5.13-6.21,4.33s-3.35-4-2.26-7.22,3.87-5.13,6.2-4.33S478.34,216.16,477.26,219.35Z"/><path class="cls-8" d="M560.22,207.25c1,3.23,3.67,5.27,6,4.56s3.5-3.9,2.53-7.13-3.67-5.27-6-4.56S559.25,204,560.22,207.25Z"/><path class="cls-8" d="M521,219.35c1.09,3.19,3.87,5.13,6.2,4.33s3.35-4,2.26-7.22-3.86-5.13-6.2-4.33S519.9,216.16,521,219.35Z"/><path class="cls-8" d="M521.47,283.24c1.28-3.12,4.17-4.89,6.45-3.95s3.11,4.22,1.83,7.34-4.16,4.89-6.45,4S520.2,286.37,521.47,283.24Z"/><path class="cls-8" d="M477.82,280.64c-.9-3.25-3.56-5.35-5.94-4.69s-3.58,3.82-2.68,7.07,3.55,5.35,5.92,4.69S478.71,283.89,477.82,280.64Z"/><path class="cls-3" d="M231.15,673.63c-29.87-54-88.33-37.49-88.33-37.49s-58.47-16.52-88.33,37.49,47.67,163.3,88.33,163.3S261,727.64,231.15,673.63Z"/><path class="cls-4" d="M231.15,673.63c-16.42-29.69-41.46-38-60.7-39.58,27.35,18.41,45.63,49.64,45.63,84.51,0,55.5-46.31,101.82-101.82,101.82-1.73,0-3.46,0-5.17-.13,12,10.35,23.95,16.68,33.73,16.68C183.48,836.93,261,727.64,231.15,673.63Z"/><path class="cls-5" d="M217.17,633.76c-10.17-11.28-33.68-16.68-33.68-16.68l3.81-18.43c-26.69,1.91-44.48,25.41-44.48,25.41S125,600.56,98.34,598.65l3.81,18.43s-23.51,5.4-33.68,16.68c0,0,22.24,3.65,29.87,9.36,0,0-6.35,15.89,3.18,26.06,0,0,13.33-17.16,27.32-17.16l4.44,17.16,9.54-13.35,9.54,13.35L156.81,652c14,0,27.31,17.16,27.31,17.16,9.53-10.17,3.18-26.06,3.18-26.06C194.92,637.41,217.17,633.76,217.17,633.76Z"/><path class="cls-6" d="M217.17,633.76c-10.17-11.28-33.68-16.68-33.68-16.68l3.81-18.43a56.13,56.13,0,0,0-25.54,8.72,60,60,0,0,1,18.39,43,58.69,58.69,0,0,1-1.47,13,62.1,62.1,0,0,1,5.44,5.88c9.53-10.17,3.18-26.06,3.18-26.06C194.92,637.41,217.17,633.76,217.17,633.76Z"/><path class="cls-7" d="M142.81,639.19a5.26,5.26,0,0,1-5.25-4.89c-5.39-73.89,32.39-78.24,34-78.39a5.22,5.22,0,0,1,5.74,4.76,5.27,5.27,0,0,1-4.7,5.73c-1.34.17-29.1,4.47-24.52,67.13a5.29,5.29,0,0,1-4.88,5.65Z"/><path class="cls-8" d="M77.24,676.4c-.92,3.24-3.59,5.33-6,4.65s-3.55-3.85-2.63-7.09,3.6-5.33,6-4.65S78.17,673.16,77.24,676.4Z"/><path class="cls-8" d="M109.91,691.87c-.92,3.25-3.59,5.32-6,4.65s-3.55-3.85-2.63-7.09,3.6-5.33,6-4.65S110.84,688.63,109.91,691.87Z"/><path class="cls-8" d="M208.62,676.4c.93,3.24,3.6,5.33,6,4.65s3.55-3.85,2.63-7.09-3.6-5.33-6-4.65S207.7,673.16,208.62,676.4Z"/><path class="cls-8" d="M176,691.87c.92,3.25,3.59,5.32,6,4.65s3.55-3.85,2.63-7.09-3.6-5.33-6-4.65S175,688.63,176,691.87Z"/><path class="cls-8" d="M147.29,694.53c-.07,3.37-2.12,6.06-4.59,6s-4.42-2.82-4.35-6.19,2.12-6.07,4.58-6S147.35,691.16,147.29,694.53Z"/><path class="cls-8" d="M97.67,755c-.93,3.24-3.6,5.32-6,4.64s-3.56-3.85-2.64-7.09,3.6-5.33,6-4.65S98.59,751.71,97.67,755Z"/><path class="cls-8" d="M190.44,755c.92,3.24,3.6,5.32,6,4.64s3.55-3.85,2.63-7.09-3.59-5.33-6-4.65S189.52,751.71,190.44,755Z"/><path class="cls-8" d="M147.29,757.61c-.07,3.37-2.12,6.07-4.59,6s-4.42-2.81-4.35-6.18,2.12-6.06,4.58-6S147.35,754.24,147.29,757.61Z"/><path class="cls-8" d="M147.29,813.43c-.07,3.37-2.12,6.06-4.59,6s-4.42-2.81-4.35-6.18,2.12-6.07,4.58-6S147.35,810.06,147.29,813.43Z"/><path class="cls-8" d="M81.84,712.23c-1,3.23-3.67,5.27-6,4.57s-3.5-3.91-2.54-7.13,3.67-5.28,6-4.57S82.81,709,81.84,712.23Z"/><path class="cls-8" d="M121.07,724.33c-1.09,3.19-3.87,5.13-6.21,4.33s-3.35-4-2.26-7.21,3.87-5.13,6.2-4.34S122.16,721.14,121.07,724.33Z"/><path class="cls-8" d="M204,712.23c1,3.23,3.67,5.27,6,4.57s3.5-3.91,2.54-7.13-3.67-5.28-6-4.57S203.06,709,204,712.23Z"/><path class="cls-8" d="M164.8,724.33c1.09,3.19,3.87,5.13,6.2,4.33s3.35-4,2.26-7.21-3.86-5.13-6.19-4.34S163.71,721.14,164.8,724.33Z"/><path class="cls-8" d="M165.28,788.23c1.28-3.12,4.17-4.89,6.46-4s3.1,4.22,1.82,7.34-4.16,4.89-6.45,4S164,791.35,165.28,788.23Z"/><path class="cls-8" d="M121.63,785.62c-.9-3.25-3.56-5.35-5.94-4.69s-3.58,3.82-2.68,7.07,3.55,5.35,5.93,4.69S122.53,788.87,121.63,785.62Z"/><path class="cls-3" d="M584.73,673.63c-29.87-54-88.33-37.49-88.33-37.49s-58.46-16.52-88.33,37.49,47.67,163.3,88.33,163.3S614.59,727.64,584.73,673.63Z"/><path class="cls-4" d="M584.73,673.63c-16.42-29.69-41.46-38-60.7-39.58,27.35,18.41,45.63,49.64,45.63,84.51,0,55.5-46.31,101.82-101.82,101.82-1.73,0-3.45,0-5.17-.13,12,10.35,23.95,16.68,33.73,16.68C537.06,836.93,614.59,727.64,584.73,673.63Z"/><path class="cls-5" d="M570.75,633.76c-10.17-11.28-33.68-16.68-33.68-16.68l3.81-18.43c-26.69,1.91-44.48,25.41-44.48,25.41s-17.79-23.5-44.48-25.41l3.81,18.43s-23.51,5.4-33.68,16.68c0,0,22.24,3.65,29.87,9.36,0,0-6.35,15.89,3.18,26.06,0,0,13.33-17.16,27.32-17.16l4.44,17.16,9.54-13.35,9.54,13.35L510.39,652c14,0,27.31,17.16,27.31,17.16,9.53-10.17,3.18-26.06,3.18-26.06C548.5,637.41,570.75,633.76,570.75,633.76Z"/><path class="cls-6" d="M570.75,633.76c-10.17-11.28-33.68-16.68-33.68-16.68l3.81-18.43a56.13,56.13,0,0,0-25.54,8.72,60,60,0,0,1,18.39,43,58.69,58.69,0,0,1-1.47,13,62.1,62.1,0,0,1,5.44,5.88c9.53-10.17,3.18-26.06,3.18-26.06C548.5,637.41,570.75,633.76,570.75,633.76Z"/><path class="cls-7" d="M496.4,639.19a5.28,5.28,0,0,1-5.26-4.89c-5.39-73.89,32.39-78.24,34-78.39a5.21,5.21,0,0,1,5.73,4.76,5.27,5.27,0,0,1-4.7,5.73c-1.34.17-29.1,4.47-24.52,67.13a5.28,5.28,0,0,1-4.87,5.65Z"/><path class="cls-8" d="M430.82,676.4c-.92,3.24-3.59,5.33-6,4.65s-3.55-3.85-2.63-7.09,3.6-5.33,6-4.65S431.75,673.16,430.82,676.4Z"/><path class="cls-8" d="M463.49,691.87c-.92,3.25-3.59,5.32-6,4.65s-3.55-3.85-2.63-7.09,3.6-5.33,6-4.65S464.42,688.63,463.49,691.87Z"/><path class="cls-8" d="M562.21,676.4c.92,3.24,3.59,5.33,6,4.65s3.55-3.85,2.63-7.09-3.6-5.33-6-4.65S561.28,673.16,562.21,676.4Z"/><path class="cls-8" d="M529.54,691.87c.92,3.25,3.59,5.32,6,4.65s3.55-3.85,2.63-7.09-3.6-5.33-6-4.65S528.62,688.63,529.54,691.87Z"/><path class="cls-8" d="M500.87,694.53c-.06,3.37-2.12,6.06-4.59,6s-4.42-2.82-4.35-6.19,2.12-6.07,4.58-6S500.94,691.16,500.87,694.53Z"/><path class="cls-8" d="M451.25,755c-.92,3.24-3.6,5.32-6,4.64s-3.56-3.85-2.63-7.09,3.59-5.33,6-4.65S452.17,751.71,451.25,755Z"/><path class="cls-8" d="M544,755c.93,3.24,3.6,5.32,6,4.64s3.55-3.85,2.63-7.09-3.59-5.33-6-4.65S543.1,751.71,544,755Z"/><path class="cls-8" d="M500.87,757.61c-.06,3.37-2.12,6.07-4.59,6s-4.42-2.81-4.35-6.18,2.12-6.06,4.58-6S500.94,754.24,500.87,757.61Z"/><path class="cls-8" d="M500.87,813.43c-.06,3.37-2.12,6.06-4.59,6s-4.42-2.81-4.35-6.18,2.12-6.07,4.58-6S500.94,810.06,500.87,813.43Z"/><path class="cls-8" d="M435.42,712.23c-1,3.23-3.67,5.27-6,4.57s-3.5-3.91-2.54-7.13,3.67-5.28,6-4.57S436.39,709,435.42,712.23Z"/><path class="cls-8" d="M474.65,724.33c-1.09,3.19-3.87,5.13-6.21,4.33s-3.35-4-2.26-7.21,3.87-5.13,6.21-4.34S475.74,721.14,474.65,724.33Z"/><path class="cls-8" d="M557.61,712.23c1,3.23,3.67,5.27,6,4.57s3.5-3.91,2.54-7.13-3.67-5.28-6-4.57S556.64,709,557.61,712.23Z"/><path class="cls-8" d="M518.38,724.33c1.09,3.19,3.87,5.13,6.21,4.33s3.35-4,2.26-7.21-3.87-5.13-6.2-4.34S517.29,721.14,518.38,724.33Z"/><path class="cls-8" d="M518.87,788.23c1.27-3.12,4.16-4.89,6.45-4s3.1,4.22,1.82,7.34-4.16,4.89-6.44,4S517.59,791.35,518.87,788.23Z"/><path class="cls-8" d="M475.21,785.62c-.9-3.25-3.56-5.35-5.94-4.69s-3.58,3.82-2.68,7.07,3.55,5.35,5.93,4.69S476.11,788.87,475.21,785.62Z"/><path class="cls-3" d="M411.15,421.41c-29.87-54-88.33-37.49-88.33-37.49s-58.47-16.52-88.33,37.49,47.66,163.31,88.33,163.31S441,475.42,411.15,421.41Z"/><path class="cls-4" d="M411.15,421.41c-16.42-29.68-41.46-38.05-60.7-39.57,27.35,18.41,45.63,49.64,45.63,84.51,0,55.5-46.32,101.81-101.82,101.81-1.73,0-3.46,0-5.17-.13,12,10.35,24,16.69,33.73,16.69C363.48,584.72,441,475.42,411.15,421.41Z"/><path class="cls-5" d="M397.16,381.54c-10.16-11.27-33.67-16.68-33.67-16.68l3.81-18.43c-26.7,1.91-44.48,25.42-44.48,25.42S305,348.34,278.34,346.43l3.81,18.43s-23.52,5.41-33.68,16.68c0,0,22.24,3.65,29.87,9.37,0,0-6.36,15.89,3.17,26.06,0,0,13.34-17.16,27.33-17.16L313.28,417l9.54-13.35L332.35,417l4.45-17.16c14,0,27.32,17.16,27.32,17.16,9.53-10.17,3.18-26.06,3.18-26.06C374.92,385.19,397.16,381.54,397.16,381.54Z"/><path class="cls-6" d="M397.16,381.54c-10.16-11.27-33.67-16.68-33.67-16.68l3.81-18.43a56.25,56.25,0,0,0-25.54,8.73,60,60,0,0,1,18.39,42.94,58.62,58.62,0,0,1-1.47,13,63,63,0,0,1,5.44,5.89c9.53-10.17,3.18-26.06,3.18-26.06C374.92,385.19,397.16,381.54,397.16,381.54Z"/><path class="cls-7" d="M322.81,387a5.26,5.26,0,0,1-5.25-4.89c-5.4-73.88,32.39-78.24,34-78.39a5.28,5.28,0,0,1,1,10.5c-1.35.16-29.1,4.46-24.52,67.12A5.29,5.29,0,0,1,323.2,387Z"/><path class="cls-8" d="M257.24,424.18c-.92,3.25-3.6,5.33-6,4.65s-3.55-3.85-2.63-7.09,3.6-5.32,6-4.65S258.16,421,257.24,424.18Z"/><path class="cls-8" d="M289.91,439.65c-.92,3.25-3.6,5.33-6,4.65s-3.55-3.85-2.63-7.09,3.6-5.32,6-4.65S290.83,436.41,289.91,439.65Z"/><path class="cls-8" d="M388.62,424.18c.93,3.25,3.6,5.33,6,4.65s3.56-3.85,2.64-7.09-3.6-5.32-6-4.65S387.7,421,388.62,424.18Z"/><path class="cls-8" d="M356,439.65c.92,3.25,3.59,5.33,6,4.65s3.56-3.85,2.64-7.09-3.6-5.32-6-4.65S355,436.41,356,439.65Z"/><path class="cls-8" d="M327.29,442.31c-.07,3.37-2.12,6.07-4.59,6s-4.42-2.82-4.35-6.19,2.12-6.06,4.58-6S327.35,438.94,327.29,442.31Z"/><path class="cls-8" d="M277.66,502.74c-.92,3.24-3.59,5.32-6,4.65s-3.55-3.86-2.63-7.1,3.6-5.32,6-4.65S278.59,499.5,277.66,502.74Z"/><path class="cls-8" d="M370.44,502.74c.92,3.24,3.59,5.32,6,4.65s3.55-3.86,2.63-7.1-3.6-5.32-6-4.65S369.52,499.5,370.44,502.74Z"/><path class="cls-8" d="M327.29,505.39c-.07,3.38-2.12,6.07-4.59,6s-4.42-2.82-4.35-6.18,2.12-6.07,4.58-6S327.35,502,327.29,505.39Z"/><path class="cls-8" d="M327.29,561.21c-.07,3.37-2.12,6.06-4.59,6s-4.42-2.82-4.35-6.19,2.12-6.06,4.58-6S327.35,557.84,327.29,561.21Z"/><path class="cls-8" d="M261.84,460c-1,3.23-3.67,5.28-6,4.57s-3.51-3.9-2.54-7.13,3.67-5.27,6-4.57S262.81,456.78,261.84,460Z"/><path class="cls-8" d="M301.07,472.11c-1.09,3.2-3.87,5.14-6.21,4.34s-3.35-4-2.26-7.22,3.87-5.13,6.2-4.33S302.15,468.93,301.07,472.11Z"/><path class="cls-8" d="M384,460c1,3.23,3.67,5.28,6,4.57s3.5-3.9,2.53-7.13-3.67-5.27-6-4.57S383.06,456.78,384,460Z"/><path class="cls-8" d="M344.8,472.11c1.09,3.2,3.87,5.14,6.2,4.34s3.35-4,2.26-7.22-3.86-5.13-6.2-4.33S343.71,468.93,344.8,472.11Z"/><path class="cls-8" d="M345.28,536c1.28-3.12,4.17-4.89,6.45-4s3.11,4.22,1.83,7.34-4.16,4.88-6.45,4S344,539.13,345.28,536Z"/><path class="cls-8" d="M301.63,533.4c-.9-3.25-3.56-5.35-5.94-4.69s-3.58,3.82-2.68,7.07,3.55,5.35,5.92,4.7S302.52,536.66,301.63,533.4Z"/></g></g></g></svg>