<?xml version="1.0" encoding="utf-8"?>
<!-- Generator: Adobe Illustrator 24.0.1, SVG Export Plug-In . SVG Version: 6.00 Build 0)  -->
<svg version="1.1" id="레이어_1" xmlns="http://www.w3.org/2000/svg" xmlns:xlink="http://www.w3.org/1999/xlink" x="0px"
	 y="0px" viewBox="0 0 1268 697.8" style="enable-background:new 0 0 1268 697.8;" xml:space="preserve">
<style type="text/css">
	.st0{fill:#FFFFFF;}
	.st1{fill:#E5E5E5;}
	.st2{fill:#FF4E4F;}
	.st3{opacity:0.3;fill:#FF4E4F;enable-background:new    ;}
	.st4{fill:#5D9C4D;}
	.st5{opacity:0.3;fill:#5D9C4D;enable-background:new    ;}
	.st6{fill:#4C803F;}
	.st7{fill:#FFCA00;}
	.st8{opacity:0.3;fill:#FFCA00;enable-background:new    ;}
	.st9{fill:#B6D177;}
	.st10{opacity:0.3;fill:#B6D177;enable-background:new    ;}
	.st11{fill:#A6613A;}
	.st12{opacity:0.3;fill:#A6613A;enable-background:new    ;}
	.st13{fill:none;}
	.st14{fill:#8C5231;}
	.st15{fill:#F3FF00;stroke:#020202;stroke-width:3;stroke-miterlimit:10;}
</style>
<title>title</title>
<g>
	<g id="레이어_1_1_">
		
			<image style="overflow:visible;opacity:0.15;enable-background:new    ;" width="566" height="651" xlink:href="BCFEA2A6.png"  transform="matrix(1 0 0 1 0 29)">
		</image>
		<path class="st0" d="M219.6,656.8c-20.4-0.1-38.7-12.5-46.2-31.4L11.9,213c-9.9-25.4,2.6-54.1,28-64.1L314.1,41.5
			c5.7-2.2,11.8-3.4,17.9-3.4c20.4,0.1,38.7,12.5,46.2,31.4l161.5,412.4c9.9,25.4-2.6,54.1-28,64.1L237.5,653.4
			C231.8,655.7,225.7,656.8,219.6,656.8z"/>
		<path class="st1" d="M332,37.6v1c9.8,0,19.3,2.9,27.4,8.4c8.3,5.5,14.7,13.5,18.4,22.8l161.5,412.3c9.9,25.2-2.6,53.6-27.8,63.5
			L237.4,653c-5.7,2.2-11.7,3.4-17.7,3.4c-9.8,0-19.3-2.9-27.4-8.3c-8.3-5.5-14.7-13.5-18.4-22.8L12.4,212.9
			c-9.8-25.2,2.6-53.6,27.8-63.5L314.3,42c5.7-2.2,11.7-3.4,17.8-3.4V37.6 M332,37.6c-6.2,0-12.3,1.2-18.1,3.4L39.8,148.4
			c-25.7,10.1-38.3,39.1-28.3,64.8l161.5,412.3c7.6,19.2,26.1,31.8,46.7,31.8c6.2,0,12.3-1.2,18.1-3.4l274.1-107.4
			c25.7-10.1,38.3-39.1,28.3-64.8L378.7,69.4C371.1,50.2,352.6,37.6,332,37.6z"/>
		<g id="_1개">
			<path class="st2" d="M333.7,308.6c-36.4-30.1-73.4-2.1-73.4-2.1s-46.3,4.5-52.5,51.4s79.5,103.1,108.5,91.7
				S370.1,338.8,333.7,308.6z"/>
			<path class="st3" d="M333.7,308.6c-20-16.6-40.2-15.5-54.3-11.3c24.6,5.5,46.4,22.6,56.1,47.5c15.5,39.5-4.6,85.5-44.1,101
				c-1.2,0.5-2.5,0.9-3.7,1.4c11.5,4,21.7,5.2,28.7,2.5C345.3,438.3,370.1,338.8,333.7,308.6z"/>
			<path class="st4" d="M312.6,284.1c-10.4-5.2-28.6-2.5-28.6-2.5l-2.4-14.2C263.1,276.3,257,298,257,298s-19.2-11.8-38.8-5.7
				l7.8,12.1c0,0-15.2,10.4-19.3,21.3c0,0,16.9-3.6,23.9-1.7c0,0-0.1,13.1,9.5,17.7c0,0,4.7-16,14.7-19.9l8,11l3.1-12.2l10.5,6.9
				l-1.6-13.5c10-3.9,24.3,4.6,24.3,4.6c4-9.9-5-19.5-5-19.5C297.8,293,312.6,284.1,312.6,284.1z"/>
			<path class="st5" d="M312.6,284.1c-10.4-5.2-28.6-2.5-28.6-2.5l-2.4-14.2c-6.3,3.1-11.7,7.7-15.8,13.4
				c11.5,4.7,20.5,13.9,25.1,25.5c1.2,3.1,2.1,6.4,2.6,9.7c1.9,0.8,3.7,1.7,5.5,2.7c4-9.9-5-19.5-5-19.5
				C297.8,293,312.6,284.1,312.6,284.1z"/>
			<path class="st6" d="M261.2,308.8c-2,0.8-4.2-0.1-5.1-2c-24.5-51.1,1.2-64.8,2.4-65.4c2-1,4.4-0.2,5.4,1.8c1,2,0.2,4.4-1.8,5.4
				c-0.9,0.5-19.5,11.3,1.3,54.7c1,2,0.1,4.4-1.8,5.4c0,0,0,0-0.1,0L261.2,308.8z"/>
			<path class="st7" d="M224.8,353.6c0.3,2.6-1.1,4.8-3,5s-3.6-1.8-3.9-4.3s1.1-4.8,3-5S224.6,351,224.8,353.6z"/>
			<path class="st7" d="M252.4,355.5c0.3,2.6-1.1,4.8-3,5s-3.6-1.8-3.9-4.3s1.1-4.8,3-5S252.2,352.9,252.4,355.5z"/>
			<path class="st7" d="M318.5,316.9c1.6,2,4,2.8,5.5,1.6s1.5-3.7-0.1-5.8s-4-2.8-5.5-1.6S316.9,314.9,318.5,316.9z"/>
			<path class="st7" d="M299.5,337c1.6,2.1,4,2.8,5.5,1.6s1.5-3.7-0.1-5.8s-4-2.8-5.5-1.6S297.9,335,299.5,337z"/>
			<path class="st7" d="M279.8,347c0.9,2.4,0.2,4.9-1.6,5.6s-3.9-0.8-4.8-3.2s-0.2-4.9,1.6-5.6S278.9,344.5,279.8,347z"/>
			<path class="st7" d="M261.3,403.9c0.3,2.6-1.1,4.8-3,5s-3.6-1.8-3.9-4.3s1.1-4.8,3-5S261.1,401.3,261.3,403.9z"/>
			<path class="st7" d="M327.4,378c1.6,2.1,4,2.8,5.5,1.6s1.5-3.7-0.1-5.8s-4-2.8-5.5-1.6S325.9,375.9,327.4,378z"/>
			<path class="st7" d="M297.4,391.9c0.9,2.4,0.2,4.9-1.6,5.6s-3.9-0.8-4.8-3.2s-0.2-4.9,1.6-5.6S296.5,389.5,297.4,391.9z"/>
			<path class="st7" d="M313,431.7c0.9,2.4,0.2,4.9-1.6,5.6s-3.9-0.8-4.8-3.2s-0.2-4.9,1.6-5.6S312.1,429.3,313,431.7z"/>
			<path class="st7" d="M238.1,377.8c0.2,2.6-1.1,4.8-3,4.9s-3.6-1.8-3.8-4.4s1.1-4.8,3-4.9S237.9,375.3,238.1,377.8z"/>
			<path class="st7" d="M269.4,375.5c0.1,2.6-1.3,4.7-3.2,4.8s-3.5-1.9-3.6-4.5s1.3-4.7,3.2-4.8S269.3,372.9,269.4,375.5z"/>
			<path class="st7" d="M325.2,343.7c1.6,2,4.1,2.7,5.6,1.6s1.4-3.8-0.2-5.8s-4.1-2.7-5.6-1.6S323.6,341.7,325.2,343.7z"/>
			<path class="st7" d="M300.6,363.3c1.7,2,4.2,2.6,5.6,1.4s1.3-3.8-0.4-5.8s-4.2-2.6-5.6-1.4S298.9,361.3,300.6,363.3z"/>
			<path class="st7" d="M318.8,408.7c0-2.6,1.6-4.6,3.5-4.6s3.4,2.1,3.4,4.7s-1.6,4.6-3.5,4.6S318.7,411.3,318.8,408.7z"/>
			<path class="st7" d="M286.9,419c-1.5-2.1-4-2.8-5.5-1.7s-1.5,3.7,0.1,5.8s4,2.8,5.5,1.7S288.5,421.1,286.9,419z"/>
		</g>
		
			<image style="overflow:visible;opacity:0.15;enable-background:new    ;" width="508" height="623" xlink:href="BCFEA2A5.png"  transform="matrix(1 0 0 1 200 2)">
		</image>
		<path class="st0" d="M346.8,602.3c-23.5,0-43.8-16.6-48.5-39.6l-88.4-433.9c-5.4-26.8,11.9-52.9,38.6-58.4L537,11.6
			c26.8-5.5,52.9,11.8,58.4,38.6c0,0,0,0,0,0.1l88.3,433.9c5.4,26.8-11.9,52.9-38.6,58.4l-288.5,58.7
			C353.4,602,350.1,602.3,346.8,602.3z"/>
		<path class="st1" d="M546.8,10.1v1l0,0c23.3,0.1,43.3,16.4,48.1,39.2l88.3,433.9c5.3,26.5-11.8,52.3-38.2,57.8l-288.5,58.7
			c-26.5,5.4-52.4-11.7-57.8-38.2l-88.4-433.9c-5.3-26.5,11.8-52.3,38.2-57.8l288.5-58.7c3.2-0.7,6.5-1,9.7-1V10.1 M546.8,10.1
			c-3.3,0-6.7,0.3-9.9,1L248.4,69.9c-27,5.6-44.4,32-39,59l88.4,433.9c4.8,23.2,25.3,39.9,49,40c3.3,0,6.7-0.3,9.9-1l288.5-58.7
			c27-5.6,44.4-32,39-59L595.9,50.2C591,26.9,570.6,10.2,546.8,10.1L546.8,10.1z"/>
		<g id="_2개">
			<path class="st4" d="M402.8,137.2c0,0-18.5,5.3-34.9-2.2s-24.5-25-24.5-25s18.5-5.3,34.9,2.2S402.8,137.2,402.8,137.2z"/>
			<path class="st5" d="M380.9,133.1c-5,1-10.1,1.3-15.2,0.8c0.7,0.4,1.5,0.8,2.2,1.1c16.4,7.5,34.9,2.2,34.9,2.2
				c-1.8-3.5-3.9-6.9-6.4-10C391.6,130,386.3,132,380.9,133.1z"/>
			<path class="st7" d="M411.3,171.3l2.4-3.7c4.7-7,2.7-16.5-4.3-21.1s-16.5-2.7-21.1,4.3l-2.4,3.7c-29.3-9.3-65.4,5.3-86.5,37.3
				s-20.5,70.9-0.5,94.2l-2.4,3.7c-4.7,7-3,16.5,4,21.2c7,4.7,16.5,3,21.2-4c0.1-0.1,0.2-0.2,0.2-0.4l2.4-3.7
				c29.3,9.3,65.4-5.3,86.5-37.3S431.3,194.6,411.3,171.3z"/>
			<path class="st8" d="M346.6,293.4c-9.3,1.9-18.9,2.4-28.3,1.6c-4.2,7-11.2,12-19.2,13.7l-0.6,0.1c5.9,5.9,15.6,6,21.5,0
				c0.7-0.7,1.4-1.5,2-2.4l2.4-3.7c29.3,9.3,65.4-5.3,86.5-37.3c11.6-17.5,16.6-37,15.5-55C419.4,250.6,388.4,284.9,346.6,293.4z"/>
			<path class="st4" d="M594.5,337.9c0,0-18.5,5.3-34.9-2.2s-24.5-25-24.5-25s18.5-5.3,34.9,2.2S594.5,337.9,594.5,337.9z"/>
			<path class="st5" d="M572.6,333.9c-5,1-10.1,1.3-15.2,0.8c0.7,0.4,1.5,0.8,2.2,1.1c16.4,7.5,34.9,2.2,34.9,2.2
				c-1.8-3.5-3.9-6.9-6.4-10C583.3,330.7,578,332.7,572.6,333.9z"/>
			<path class="st7" d="M603,372l2.4-3.7c4.9-6.9,3.3-16.4-3.6-21.3c-6.9-4.9-16.4-3.3-21.3,3.6c-0.2,0.3-0.4,0.6-0.6,0.8l-2.4,3.6
				c-29.3-9.3-65.3,5.3-86.5,37.3s-20.5,70.9-0.5,94.2l-2.4,3.7c-4.7,7-2.7,16.5,4.3,21.2c7,4.7,16.5,2.7,21.2-4.3l2.4-3.7
				c29.3,9.3,65.3-5.3,86.5-37.3S623.1,395.3,603,372z"/>
			<path class="st8" d="M538.3,494.1c-9.3,1.9-18.8,2.4-28.3,1.6c-4.2,7.1-11.2,12-19.2,13.7l-0.6,0.1c6,5.9,15.7,5.9,21.6-0.1
				c0.7-0.7,1.3-1.5,1.9-2.3l2.4-3.7c29.3,9.3,65.3-5.3,86.5-37.3c11.6-17.5,16.6-37,15.5-55C611.1,451.3,580.1,485.6,538.3,494.1z"
				/>
		</g>
		
			<image style="overflow:visible;opacity:0.15;enable-background:new    ;" width="425" height="573" xlink:href="BCFEA2BF.png"  transform="matrix(1 0 0 1 423 1)">
		</image>
		<path class="st0" d="M481.6,9.6H776c27.3,0,49.5,22.2,49.5,49.5v442.8c0,27.3-22.2,49.5-49.5,49.5H481.6
			c-27.3,0-49.5-22.2-49.5-49.5V59.1C432.1,31.7,454.3,9.6,481.6,9.6z"/>
		<path class="st1" d="M776,10.1c27.1,0,49,21.9,49,49v442.8c0,27.1-21.9,49-49,49H481.6c-27.1,0-49-21.9-49-49V59.1
			c0-27.1,21.9-49,49-49L776,10.1 M776,9.1H481.6c-27.6,0.1-49.9,22.4-50,50v442.8c0.1,27.6,22.4,49.9,50,50H776
			c27.6-0.1,49.9-22.4,50-50V59.1C825.9,31.5,803.6,9.1,776,9.1z"/>
		<g id="_3개">
			<g id="_1개-2">
				<path class="st9" d="M546.4,135.1v-18.6c0-16.2-13.1-29.3-29.3-29.3c-16.2,0-29.3,13.1-29.3,29.3c0,0,0,0,0,0v18.6
					c-24.8,16.2-31.8,49.4-15.6,74.3s49.4,31.8,74.3,15.6s31.8-49.4,15.6-74.3C558,144.5,552.6,139.2,546.4,135.1z"/>
				<path class="st10" d="M549.4,137.2c4.6,8.3,7,17.6,7.1,27.1c0,30.9-25.8,56.8-56.8,56.8c-7.5,0-14.9-1.5-21.8-4.5
					c20.2,21.7,54.1,22.9,75.8,2.8c21.7-20.2,22.9-54.1,2.8-75.8C554.3,141.3,551.9,139.1,549.4,137.2L549.4,137.2z"/>
				<path class="st4" d="M513,82.8c0,0-18.3,1.5-32.2-8.7s-18.1-28-18.1-28s18.3-1.5,32.2,8.7S513,82.8,513,82.8z"/>
				<path class="st5" d="M504.2,74.7c-12.2,0-24-4-33.7-11.3c2.8,4.1,6.2,7.8,10.2,10.8c13.9,10.1,32.3,8.7,32.3,8.7
					c-0.8-2.9-1.8-5.7-3-8.4C508.1,74.6,506.2,74.7,504.2,74.7z"/>
			</g>
			<g id="_1개-3">
				<path class="st9" d="M656.8,274.4v-18.6c0-16.2-13.1-29.3-29.3-29.3s-29.3,13.1-29.3,29.3c0,0,0,0,0,0v18.6
					c-24.8,16.2-31.8,49.4-15.6,74.3s49.4,31.8,74.3,15.6s31.8-49.4,15.6-74.3C668.4,283.8,663.1,278.4,656.8,274.4z"/>
				<path class="st10" d="M659.8,276.5c4.6,8.3,7.1,17.6,7.1,27.1c0,31-25.8,56.8-56.8,56.8c-7.5,0-14.9-1.5-21.8-4.5
					c20.2,21.7,54.1,22.9,75.8,2.8c21.7-20.2,22.9-54.1,2.8-75.8C664.7,280.5,662.3,278.4,659.8,276.5L659.8,276.5z"/>
				<path class="st4" d="M623.4,222c0,0-18.3,1.5-32.3-8.7s-18.1-28-18.1-28s18.3-1.4,32.2,8.7S623.4,222,623.4,222z"/>
				<path class="st5" d="M614.7,213.9c-12.2,0-24-4-33.7-11.4c2.8,4.1,6.2,7.8,10.2,10.8c13.9,10.1,32.3,8.7,32.3,8.7
					c-0.8-2.9-1.8-5.7-3-8.4C618.5,213.8,616.6,213.9,614.7,213.9z"/>
			</g>
			<g id="_1개-4">
				<path class="st9" d="M769.7,421v-18.7c0-16.2-13.1-29.3-29.3-29.3c-16.2,0-29.3,13.1-29.3,29.3c0,0,0,0,0,0V421
					c-24.8,16.2-31.8,49.4-15.6,74.3c16.2,24.8,49.4,31.8,74.3,15.6s31.8-49.4,15.6-74.3C781.2,430.4,775.9,425.1,769.7,421z"/>
				<path class="st10" d="M772.7,423.1c4.6,8.3,7,17.6,7.1,27.1c0,30.9-25.8,56.8-56.8,56.8c-7.5,0-14.9-1.5-21.8-4.5
					c20.2,21.7,54.1,23,75.8,2.8c21.7-20.2,23-54.1,2.8-75.8C777.6,427.1,775.2,425,772.7,423.1L772.7,423.1z"/>
				<path class="st4" d="M736.2,368.6c0,0-18.3,1.5-32.2-8.6s-18.1-28-18.1-28s18.3-1.5,32.2,8.7S736.2,368.6,736.2,368.6z"/>
				<path class="st5" d="M727.5,360.5c-12.2,0-24-4-33.7-11.4c2.8,4.2,6.2,7.8,10.2,10.8c13.9,10.1,32.3,8.7,32.3,8.7
					c-0.8-2.9-1.8-5.7-3-8.4C731.3,360.5,729.4,360.6,727.5,360.5z"/>
			</g>
		</g>
		
			<image style="overflow:visible;opacity:0.15;enable-background:new    ;" width="491" height="615" xlink:href="BCFEA2A1.png"  transform="matrix(1 0 0 1 584 0)">
		</image>
		<path class="st0" d="M933.3,591.8c-2.6,0-5.2-0.2-7.8-0.6l-290.7-46.3c-27-4.4-45.3-29.7-41.1-56.7l69.6-437.3
			c4-23.9,24.6-41.6,48.9-41.7c2.6,0,5.2,0.2,7.8,0.6l290.7,46.3c27,4.3,45.4,29.7,41.1,56.7l-69.6,437.3
			C978.3,574,957.6,591.6,933.3,591.8z"/>
		<path class="st1" d="M712.3,9.7c2.6,0,5.1,0.2,7.7,0.6l290.7,46.3c26.7,4.3,44.9,29.4,40.7,56.1L981.7,550
			c-3.9,23.8-24.3,41.2-48.4,41.3c-2.6,0-5.1-0.2-7.7-0.6l-290.7-46.3c-26.7-4.3-44.9-29.4-40.7-56.1L663.8,51
			C667.7,27.2,688.2,9.8,712.3,9.7L712.3,9.7 M712.3,8.7c-24.6,0.1-45.5,17.9-49.4,42.1l-69.6,437.3c-4.3,27.3,14.3,52.8,41.5,57.2
			l290.7,46.3c2.6,0.4,5.2,0.6,7.8,0.6c24.6-0.1,45.5-17.9,49.4-42.1l69.6-437.3c4.3-27.2-14.3-52.8-41.5-57.2L720.1,9.3
			C717.5,8.9,714.9,8.7,712.3,8.7L712.3,8.7z"/>
		<g id="_4개">
			<path class="st4" d="M776.1,126.4c1.3-10.5,19.4-18.4,19.4-18.4c-11.1-6.2-24.8,3.2-24.8,3.2c1-15.5,19.3-33.2,19.3-33.2
				c-21.6,0.6-32.9,31-32.9,31s-1.3-32.4-21.6-39.7c0,0,11.8,22.5,8,37.5c0,0-10.1-13.2-22.6-10.8c0,0,14.7,13.1,12.7,23.5
				c0,0-7.9-8.4-22.1-3.5c0,0,21.5,9.7,17.4,30.5l21.7,3.5l21.7,3.4c2.6-21.1,26-23.6,26-23.6C786.2,120.8,776.1,126.4,776.1,126.4z
				"/>
			<path class="st5" d="M798.2,129.9c-9.1-6.9-17.2-5.3-20.5-4.2c-6.1,10.1-14.4,18.6-24.4,24.8l18.9,3
				C774.8,132.4,798.2,129.9,798.2,129.9z"/>
			<path class="st11" d="M801.8,219.5c-5.9,37.4-38,63.3-71.7,58s-56-40-50.1-77.3s38-63.3,71.6-57.9S807.8,182.2,801.8,219.5z"/>
			<path class="st12" d="M798,181.4c0.4,5.6,0.2,11.2-0.6,16.7c-6.2,39.2-44.1,66.6-83.3,60.4c-8.6-1.4-16.8-4.3-24.3-8.6
				c9,14.5,23.3,24.9,40.5,27.6c33.6,5.4,65.7-20.6,71.7-58C804,206.7,802.6,193.5,798,181.4z"/>
			<path class="st13" d="M744.6,176.9c-5.2-5.1-10.4-10-15.5-14.7c-6.6,3.6-13.2,7.2-19.9,10.7c5.3,4.3,10.5,9,15.7,13.9
				C731.5,183.6,738.1,180.2,744.6,176.9z"/>
			<path class="st13" d="M765.7,166.9c-5.1-5.4-10.3-10.8-15.3-15.9c-6.4,3.3-12.9,6.8-19.5,10.3c5.2,4.7,10.3,9.7,15.5,14.7
				C752.9,172.8,759.3,169.7,765.7,166.9z"/>
			<path class="st13" d="M734.7,259.3c5.1,5,10.2,9.8,15.2,14.1c6.5-3.9,13.2-7.9,19.8-12c-5.2-3.8-10.3-8-15.5-12.6
				C747.6,252.5,741.1,256,734.7,259.3z"/>
			<path class="st13" d="M763.3,193c6.5-3,12.9-5.9,19.3-8.3c-5.2-5.4-10.4-10.9-15.5-16.4c-6.4,2.8-12.8,5.9-19.3,9.1
				C752.9,182.6,758.1,187.8,763.3,193z"/>
			<path class="st13" d="M778.7,210.4c-5.3-4.9-10.5-10-15.7-15.1c-6.5,3-13.1,6.3-19.6,9.5c5.2,5.1,10.5,10.2,15.7,15.1
				C765.7,216.6,772.2,213.3,778.7,210.4z"/>
			<path class="st13" d="M737.3,232.9c-6.5,3.3-13,6.4-19.3,9.2c5.2,5.4,10.3,10.8,15.3,15.9c6.4-3.3,13-6.8,19.5-10.3
				C747.7,243,742.5,238,737.3,232.9z"/>
			<path class="st13" d="M697.6,250c5.1,5.9,10.1,11.8,15.1,17.5c6.1-2.5,12.4-5.5,18.8-8.7c-5.1-5.1-10.2-10.5-15.3-16
				C709.9,245.6,703.7,248,697.6,250z"/>
			<path class="st13" d="M723.2,187.8c-5.2-4.9-10.5-9.6-15.7-13.9c-6.6,3.5-13.3,6.8-19.8,9.9c5.3,4.1,10.6,8.7,15.9,13.5
				C710,194.3,716.6,191.1,723.2,187.8z"/>
			<path class="st13" d="M735.9,231.5c-5.2-5.1-10.4-10.4-15.6-15.6c-6.5,3-12.9,5.9-19.3,8.3c5.2,5.4,10.4,10.9,15.5,16.4
				C722.9,237.8,729.4,234.7,735.9,231.5z"/>
			<path class="st13" d="M703.2,199.4c-6.5,2.9-13,5.6-19.3,7.9c5.3,4.9,10.5,10.2,15.8,15.6c6.3-2.4,12.8-5.3,19.3-8.3
				C713.7,209.4,708.4,204.2,703.2,199.4z"/>
			<path class="st13" d="M704.9,198.6c5.3,4.9,10.5,10,15.7,15.1c6.5-3.1,13.1-6.3,19.6-9.5c-5.3-5.1-10.5-10.2-15.7-15.1
				C718,192.4,711.4,195.6,704.9,198.6z"/>
			<path class="st13" d="M780.5,209.6c6.5-2.9,13-5.6,19.3-7.9c-5.3-4.9-10.6-10.2-15.8-15.6c-6.3,2.4-12.8,5.3-19.3,8.3
				C770,199.6,775.2,204.7,780.5,209.6z"/>
			<path class="st13" d="M761.6,193.8c-5.2-5.2-10.4-10.4-15.6-15.5c-6.5,3.3-13.1,6.6-19.7,9.9c5.2,4.9,10.5,10,15.7,15.2
				C748.5,200.1,755.1,196.9,761.6,193.8z"/>
			<path class="st13" d="M760.5,221.2c5.2,4.9,10.5,9.5,15.7,13.9c6.6-3.5,13.3-6.9,19.8-9.9c-5.3-4.1-10.6-8.7-15.9-13.5
				C773.6,214.6,767,217.9,760.5,221.2z"/>
			<path class="st13" d="M739,232c5.2,5.1,10.4,10,15.5,14.7c6.6-3.6,13.2-7.2,19.9-10.7c-5.3-4.3-10.5-9-15.7-13.9
				C752.1,225.4,745.6,228.7,739,232z"/>
			<path class="st13" d="M757.3,220.7c-5.2-4.9-10.5-10-15.7-15.1c-6.6,3.2-13.1,6.5-19.6,9.5c5.2,5.2,10.4,10.4,15.6,15.6
				C744.2,227.4,750.8,224,757.3,220.7z"/>
			<path class="st14" d="M801.3,222.8c-1.2,0.5-2.3,1-3.5,1.6c-5.3-4.1-10.6-8.6-15.9-13.5c6.5-2.9,13-5.6,19.3-7.9
				c0.5,0.5,1,0.9,1.5,1.4c-0.1-1.2-0.1-2.4-0.2-3.6l-1,0.3c-5.3-5-10.6-10.2-15.8-15.6c4.2-1.6,8.3-2.9,12.3-4.1
				c-0.2-0.6-0.4-1.1-0.7-1.7c-4.3,1.3-8.6,2.7-13,4.4c-5.2-5.4-10.4-11-15.5-16.4c5.8-2.5,11.4-4.7,17-6.5c-0.5-0.5-0.9-1-1.4-1.5
				c-5.5,1.9-11.2,4.1-16.9,6.6c-5.1-5.5-10.3-10.9-15.3-16c3.5-1.8,7-3.5,10.5-5.1c-0.8-0.3-1.7-0.6-2.5-0.9
				c-3.1,1.4-6.2,3-9.3,4.6c-2.5-2.5-5-4.9-7.4-7.3c-0.9,0-1.8,0-2.7,0.1c2.8,2.6,5.6,5.3,8.4,8.1c-6.4,3.3-13,6.9-19.5,10.4
				c-4.7-4.2-9.4-8-14-11.5c-0.6,0.3-1.2,0.7-1.8,1c4.7,3.4,9.4,7.3,14.1,11.4c-6.6,3.6-13.2,7.3-19.9,10.8c-3.7-3-7.3-5.7-11-8.2
				l-1.2,1.4c3.5,2.4,7,5,10.4,7.8c-6.6,3.5-13.3,6.9-19.9,9.9l-0.9-0.6c-0.5,1.1-0.9,2.2-1.4,3.4l1.9-0.8
				c5.3,4.1,10.6,8.6,15.9,13.5c-6.5,2.9-13,5.6-19.3,7.9c-0.9-0.9-1.9-1.7-2.8-2.6c-0.1,0.6-0.1,1.3-0.2,1.9l1.3,1.2l-1.5,0.5
				c0,0.6,0,1.2-0.1,1.8c1-0.3,2-0.6,3-1c5.3,4.9,10.6,10.2,15.8,15.6c-5.5,2.1-11.2,3.9-16.9,5.4c0.1,0.6,0.3,1.2,0.4,1.8
				c6.1-1.6,12.1-3.5,17.9-5.7c5.2,5.4,10.4,11,15.5,16.5c-6.3,2.7-12.6,5.1-18.6,7.1c-4.8-5.5-9.6-11.1-14.4-16.5
				c0.3,1.1,0.7,2.2,1,3.3c4,4.5,7.9,9.1,11.8,13.7c-1.6,0.5-3.2,0.9-4.7,1.3c0.4,0.6,0.7,1.1,1.1,1.7c1.6-0.4,3.3-0.9,5-1.4
				c5.1,6,10.1,11.9,15.1,17.7l-2.5,1c0.7,0.4,1.3,0.9,2,1.3l1.8-0.7c0.9,1.1,1.9,2.1,2.8,3.2c1.2,0.5,2.4,1.1,3.6,1.5
				c-1.6-1.8-3.2-3.6-4.8-5.4c6.2-2.6,12.5-5.6,18.9-8.9c5.1,5.1,10.1,9.9,15.2,14.3c-2.1,1.2-4.2,2.4-6.2,3.6
				c1.3-0.1,2.6-0.2,3.9-0.3l3.6-2.1l1.5,1.3c0.8-0.2,1.5-0.4,2.3-0.6c-0.7-0.6-1.4-1.1-2.1-1.7c6.5-3.9,13.2-8,19.9-12.1
				c1.4,1,2.8,2,4.3,2.9l1.6-1.3c-1.3-0.9-2.7-1.8-4.1-2.7c5.1-3.1,10.3-6.3,15.5-9.3c0.7-0.9,1.4-1.9,2-2.8
				c-6.3,3.6-12.6,7.4-18.8,11.2c-5.4-3.9-10.6-8-15.6-12.5c6.6-3.6,13.2-7.3,19.9-10.8c4.9,4,9.9,7.6,15.2,11
				c0.3-0.5,0.6-1,0.9-1.5c-5-3.2-9.8-6.7-14.4-10.4c6.6-3.5,13.3-6.9,19.8-9.9c0.8,0.6,1.7,1.3,2.5,1.9c0.2-0.6,0.3-1.1,0.5-1.7
				l-1.3-0.9l1.7-0.7C801,224,801.1,223.4,801.3,222.8z M784,186.1c5.2,5.4,10.5,10.6,15.8,15.6c-6.3,2.3-12.8,4.9-19.3,7.9
				c-5.3-4.9-10.5-10-15.8-15.2C771.2,191.4,777.7,188.6,784,186.1z M740.3,204.2c-6.6,3.2-13.1,6.5-19.6,9.5
				c-5.2-5.2-10.5-10.3-15.7-15.1c6.5-3,13.1-6.2,19.7-9.5C729.8,194,735,199.1,740.3,204.2L740.3,204.2z M726.3,188.2
				c6.6-3.3,13.2-6.7,19.7-9.9c5.2,5.1,10.4,10.4,15.6,15.5c-6.5,3.1-13.1,6.3-19.6,9.5C736.8,198.2,731.5,193.1,726.3,188.2
				L726.3,188.2z M741.6,205.6c5.2,5.1,10.5,10.2,15.7,15.1c-6.6,3.3-13.2,6.7-19.7,9.9c-5.2-5.1-10.4-10.4-15.6-15.6
				C728.5,212.1,735.1,208.8,741.6,205.6L741.6,205.6z M743.4,204.7c6.6-3.3,13.1-6.5,19.6-9.5c5.2,5.2,10.5,10.3,15.7,15.1
				c-6.5,3-13.1,6.2-19.7,9.5C753.8,214.9,748.6,209.8,743.4,204.7L743.4,204.7z M767,168.3c5.2,5.4,10.3,11,15.5,16.4
				c-6.3,2.5-12.8,5.3-19.3,8.3c-5.2-5.2-10.4-10.4-15.6-15.6C754.2,174.2,760.7,171.1,767,168.3L767,168.3z M750.3,151
				c5.1,5.1,10.2,10.5,15.3,15.9c-6.4,2.8-12.8,5.9-19.3,9.2c-5.2-5.1-10.3-10.1-15.5-14.8C737.4,157.8,743.9,154.3,750.3,151z
				 M729.1,162.3c5.2,4.6,10.4,9.6,15.5,14.7c-6.5,3.3-13.1,6.6-19.7,10c-5.2-4.9-10.5-9.6-15.7-13.9
				C715.8,169.5,722.5,165.9,729.1,162.3L729.1,162.3z M687.6,183.8c6.6-3,13.2-6.4,19.8-9.9c5.3,4.3,10.5,9,15.7,13.9
				c-6.6,3.3-13.2,6.5-19.7,9.5C698.2,192.5,692.9,187.9,687.6,183.8L687.6,183.8z M699.6,222.8c-5.2-5.4-10.5-10.6-15.8-15.6
				c6.3-2.3,12.8-4.9,19.3-7.9c5.3,4.9,10.5,10,15.7,15.2C712.4,217.6,706,220.4,699.6,222.8L699.6,222.8z M701,224.3
				c6.3-2.5,12.8-5.3,19.3-8.3c5.2,5.2,10.4,10.5,15.6,15.6c-6.5,3.2-13,6.3-19.3,9.1C711.4,235.2,706.3,229.6,701,224.3L701,224.3z
				 M712.7,267.5c-5-5.7-10-11.6-15.1-17.5c6.1-2,12.3-4.4,18.6-7.2c5.1,5.5,10.3,10.9,15.3,16C725.2,262,718.9,265,712.7,267.5
				L712.7,267.5z M718,242.1c6.4-2.8,12.8-5.9,19.3-9.2c5.2,5.1,10.4,10.1,15.5,14.7c-6.6,3.6-13.1,7.1-19.5,10.3
				C728.2,252.9,723.1,247.5,718,242.1z M769.7,261.5c-6.7,4.1-13.3,8.1-19.8,12c-5-4.3-10.1-9.1-15.2-14.1
				c6.4-3.3,13-6.9,19.5-10.5C759.4,253.4,764.5,257.7,769.7,261.5L769.7,261.5z M754.6,246.7c-5.2-4.7-10.4-9.6-15.6-14.7
				c6.5-3.3,13.1-6.6,19.7-10c5.2,4.9,10.5,9.6,15.7,13.9C767.8,239.5,761.2,243.1,754.6,246.7L754.6,246.7z M776.2,235
				c-5.3-4.3-10.5-9-15.7-13.9c6.6-3.3,13.2-6.6,19.7-9.5c5.3,4.8,10.6,9.4,15.9,13.5C789.5,228.2,782.8,231.5,776.2,235z"/>
			<path class="st4" d="M962,157.7c1.3-10.5,19.4-18.4,19.4-18.4c-11.1-6.2-24.8,3.2-24.8,3.2c1-15.5,19.3-33.2,19.3-33.2
				c-21.6,0.6-32.9,31-32.9,31s-1.3-32.4-21.7-39.7c0,0,11.9,22.5,8,37.5c0,0-10.1-13.2-22.6-10.8c0,0,14.7,13.1,12.7,23.5
				c0,0-7.9-8.4-22.2-3.5c0,0,21.5,9.7,17.4,30.5l21.7,3.4l21.7,3.5c2.6-21.1,26-23.6,26-23.6C972.1,152.1,962,157.7,962,157.7z"/>
			<path class="st5" d="M984.1,161.2c-9.1-6.9-17.2-5.3-20.5-4.2c-6.1,10.1-14.4,18.6-24.4,24.8l18.9,3
				C960.7,163.7,984.1,161.2,984.1,161.2z"/>
			<path class="st11" d="M987.7,250.8c-6,37.4-38,63.3-71.7,58s-56.1-40-50.1-77.3s38-63.3,71.7-58S993.7,213.4,987.7,250.8z"/>
			<path class="st12" d="M983.8,212.6c0.4,5.6,0.2,11.2-0.6,16.7c-6.2,39.2-44.1,66.6-83.3,60.4c-8.6-1.4-16.8-4.3-24.3-8.6
				c9,14.5,23.3,24.9,40.5,27.6c33.6,5.4,65.7-20.6,71.7-58C989.8,238,988.5,224.8,983.8,212.6z"/>
			<path class="st13" d="M930.5,208.2c-5.2-5.1-10.4-10-15.5-14.7c-6.6,3.6-13.2,7.2-19.9,10.7c5.3,4.3,10.5,9,15.7,13.9
				C917.4,214.9,924,211.5,930.5,208.2z"/>
			<path class="st13" d="M951.6,198.2c-5.2-5.4-10.3-10.8-15.3-15.9c-6.4,3.3-13,6.8-19.5,10.3c5.2,4.6,10.3,9.6,15.5,14.7
				C938.8,204.1,945.2,201,951.6,198.2z"/>
			<path class="st13" d="M920.5,290.6c5.1,5,10.2,9.8,15.2,14.1c6.5-3.9,13.2-7.9,19.8-12c-5.2-3.8-10.3-8-15.5-12.6
				C933.5,283.7,927,287.3,920.5,290.6z"/>
			<path class="st13" d="M949.2,224.3c6.5-3,12.9-5.9,19.3-8.3c-5.2-5.4-10.4-10.9-15.5-16.4c-6.4,2.8-12.8,5.9-19.3,9.1
				C938.8,213.8,944,219.1,949.2,224.3z"/>
			<path class="st13" d="M964.6,241.6c-5.3-4.9-10.5-10-15.7-15.1c-6.5,3-13.1,6.3-19.6,9.5c5.2,5.1,10.5,10.2,15.7,15.1
				C951.5,247.8,958.1,244.6,964.6,241.6z"/>
			<path class="st13" d="M923.2,264.2c-6.5,3.3-13,6.4-19.3,9.2c5.2,5.4,10.3,10.8,15.3,15.9c6.4-3.3,12.9-6.8,19.5-10.3
				C933.5,274.2,928.4,269.3,923.2,264.2z"/>
			<path class="st13" d="M883.5,281.3c5.1,5.9,10.1,11.8,15.1,17.5c6.1-2.5,12.4-5.5,18.8-8.7c-5.1-5.1-10.2-10.5-15.3-16
				C895.8,276.9,889.6,279.3,883.5,281.3z"/>
			<path class="st13" d="M909.1,219.1c-5.2-4.9-10.5-9.6-15.7-13.9c-6.6,3.5-13.3,6.9-19.8,9.9c5.3,4.1,10.6,8.7,15.9,13.5
				C895.9,225.6,902.5,222.4,909.1,219.1z"/>
			<path class="st13" d="M921.8,262.8c-5.2-5.1-10.4-10.4-15.6-15.6c-6.5,3-12.9,5.9-19.3,8.3c5.2,5.4,10.4,10.9,15.5,16.4
				C908.8,269.1,915.3,266,921.8,262.8z"/>
			<path class="st13" d="M889.1,230.7c-6.5,2.9-13,5.6-19.3,7.9c5.3,4.9,10.6,10.2,15.8,15.6c6.3-2.5,12.8-5.3,19.3-8.3
				C899.6,240.6,894.3,235.5,889.1,230.7z"/>
			<path class="st13" d="M890.8,229.9c5.3,4.9,10.5,10,15.8,15.1c6.5-3,13-6.3,19.6-9.5c-5.2-5.1-10.5-10.2-15.7-15.1
				C903.9,223.7,897.3,226.9,890.8,229.9z"/>
			<path class="st13" d="M966.3,240.8c6.5-2.9,13-5.6,19.3-7.9c-5.3-4.9-10.5-10.2-15.8-15.6c-6.3,2.4-12.8,5.3-19.3,8.3
				C955.8,230.9,961.1,236,966.3,240.8z"/>
			<path class="st13" d="M947.5,225.1c-5.2-5.2-10.4-10.4-15.6-15.6c-6.5,3.3-13.1,6.6-19.7,9.9c5.2,4.9,10.5,10,15.7,15.1
				C934.4,231.4,941,228.2,947.5,225.1z"/>
			<path class="st13" d="M946.3,252.4c5.2,4.9,10.5,9.6,15.7,13.9c6.6-3.5,13.3-6.8,19.8-9.9c-5.3-4.1-10.6-8.7-15.9-13.5
				C959.5,245.9,952.9,249.1,946.3,252.4z"/>
			<path class="st13" d="M924.9,263.3c5.2,5.1,10.4,10,15.5,14.7c6.6-3.6,13.2-7.2,19.9-10.7c-5.3-4.3-10.5-9-15.7-13.9
				C938,256.6,931.4,260,924.9,263.3z"/>
			<path class="st13" d="M943.2,252c-5.2-4.9-10.5-10-15.7-15.2c-6.6,3.2-13.1,6.5-19.6,9.5c5.2,5.2,10.4,10.4,15.6,15.5
				C930.1,258.7,936.6,255.3,943.2,252z"/>
			<path class="st14" d="M987.1,254c-1.2,0.5-2.3,1-3.5,1.5c-5.3-4.1-10.6-8.6-15.9-13.5c6.5-2.9,13-5.6,19.3-7.9l1.5,1.4
				c-0.1-1.2-0.1-2.4-0.2-3.6l-1,0.3c-5.3-4.9-10.6-10.2-15.8-15.6c4.2-1.6,8.3-2.9,12.3-4.1c-0.2-0.6-0.4-1.1-0.7-1.7
				c-4.3,1.3-8.6,2.7-13,4.4c-5.2-5.4-10.4-11-15.5-16.4c5.8-2.5,11.4-4.7,17-6.5c-0.5-0.5-0.9-1-1.4-1.5
				c-5.5,1.9-11.2,4.1-16.9,6.6c-5.1-5.5-10.2-10.9-15.3-16c3.5-1.8,7-3.5,10.5-5.1c-0.8-0.3-1.7-0.6-2.5-0.9
				c-3.1,1.5-6.2,3-9.3,4.6c-2.5-2.5-5-4.9-7.4-7.3c-0.9,0-1.8,0-2.7,0.1c2.8,2.6,5.6,5.3,8.4,8.1c-6.4,3.3-13,6.9-19.5,10.5
				c-4.7-4.2-9.4-8-14-11.5c-0.6,0.3-1.2,0.7-1.8,1c4.7,3.5,9.4,7.3,14.1,11.5c-6.6,3.6-13.2,7.3-19.9,10.8c-3.7-3-7.3-5.7-11-8.2
				c-0.4,0.5-0.8,0.9-1.2,1.4c3.5,2.4,7,5,10.4,7.8c-6.7,3.5-13.3,6.9-19.9,9.9l-0.9-0.6c-0.5,1.1-0.9,2.2-1.3,3.4l1.9-0.9
				c5.3,4.1,10.6,8.6,15.9,13.5c-6.5,2.9-13,5.6-19.3,7.9c-0.9-0.9-1.9-1.7-2.8-2.6c-0.1,0.6-0.1,1.3-0.2,1.9l1.3,1.2l-1.5,0.5
				c0,0.6,0,1.2-0.1,1.8c1-0.3,2-0.6,3-1c5.3,5,10.6,10.2,15.8,15.6c-5.5,2.1-11.2,3.9-16.9,5.4c0.1,0.6,0.3,1.2,0.4,1.8
				c6.1-1.6,12-3.5,17.9-5.7c5.2,5.4,10.4,11,15.5,16.5c-6.1,2.7-12.3,5-18.6,7.1c-4.8-5.5-9.6-11.1-14.4-16.5
				c0.3,1.1,0.7,2.2,1,3.3c4,4.5,7.9,9.1,11.8,13.7c-1.6,0.5-3.2,0.9-4.7,1.3c0.4,0.6,0.7,1.1,1.1,1.7c1.6-0.4,3.3-0.9,5-1.4
				c5.1,6,10.1,11.9,15.1,17.7l-2.5,1c0.7,0.4,1.3,0.9,2,1.3c0.6-0.2,1.2-0.5,1.8-0.7c0.9,1.1,1.8,2.1,2.8,3.2
				c1.2,0.6,2.4,1.1,3.6,1.5c-1.6-1.8-3.2-3.6-4.8-5.4c6.2-2.6,12.5-5.6,18.9-8.9c5.1,5.1,10.1,9.9,15.2,14.3
				c-2.1,1.2-4.2,2.4-6.2,3.6c1.3-0.1,2.6-0.2,3.9-0.3l3.6-2.2c0.5,0.4,1,0.8,1.5,1.3c0.8-0.2,1.5-0.4,2.3-0.6
				c-0.7-0.6-1.4-1.1-2.1-1.8c6.5-3.9,13.2-8,19.9-12.1c1.4,1,2.8,2,4.3,2.9c0.5-0.4,1-0.8,1.6-1.3c-1.4-0.9-2.7-1.8-4.1-2.7
				c5.1-3.1,10.3-6.3,15.5-9.3c0.7-0.9,1.3-1.9,2-2.8c-6.3,3.6-12.6,7.4-18.8,11.2c-5.4-3.9-10.6-8.1-15.5-12.5
				c6.6-3.6,13.2-7.3,19.9-10.8c4.9,4,9.9,7.6,15.2,11c0.3-0.5,0.6-1,1-1.6c-5-3.2-9.8-6.6-14.4-10.4c6.6-3.5,13.3-6.9,19.8-9.9
				c0.8,0.6,1.7,1.2,2.5,1.9c0.2-0.6,0.3-1.1,0.5-1.7l-1.3-0.9l1.7-0.7C986.9,255.3,987,254.7,987.1,254z M969.9,217.4
				c5.2,5.4,10.5,10.6,15.8,15.6c-6.3,2.3-12.8,4.9-19.3,7.9c-5.3-4.9-10.5-10-15.7-15.2C957.1,222.7,963.5,219.9,969.9,217.4z
				 M926.1,235.5c-6.6,3.2-13.1,6.5-19.6,9.5c-5.2-5.2-10.5-10.3-15.8-15.1c6.5-3,13.1-6.2,19.7-9.5
				C915.7,225.3,920.9,230.4,926.1,235.5z M912.2,219.5c6.6-3.3,13.2-6.7,19.7-9.9c5.2,5.1,10.4,10.4,15.6,15.6
				c-6.5,3.1-13.1,6.3-19.6,9.5C922.7,229.5,917.4,224.4,912.2,219.5L912.2,219.5z M927.5,236.9c5.2,5.1,10.5,10.2,15.7,15.1
				c-6.6,3.3-13.2,6.7-19.7,9.9c-5.2-5.1-10.4-10.4-15.6-15.5C914.4,243.3,921,240.1,927.5,236.9L927.5,236.9z M929.3,236
				c6.5-3.2,13.1-6.5,19.6-9.5c5.2,5.2,10.5,10.3,15.7,15.2c-6.5,3-13.1,6.2-19.7,9.5C939.7,246.2,934.5,241.1,929.3,236L929.3,236z
				 M952.9,199.6c5.2,5.5,10.3,11,15.5,16.4c-6.3,2.5-12.8,5.3-19.3,8.3c-5.2-5.2-10.4-10.5-15.6-15.6
				C940.1,205.5,946.6,202.4,952.9,199.6L952.9,199.6z M936.2,182.3c5.1,5.1,10.2,10.4,15.3,15.9c-6.4,2.8-12.8,5.9-19.3,9.2
				c-5.2-5.1-10.4-10.1-15.5-14.7C923.3,189,929.8,185.5,936.2,182.3L936.2,182.3z M915,193.6c5.2,4.6,10.3,9.6,15.5,14.7
				c-6.5,3.3-13.1,6.6-19.7,10c-5.2-4.9-10.5-9.6-15.7-13.9C901.7,200.8,908.4,197.1,915,193.6z M873.5,215.1
				c6.6-3.1,13.2-6.4,19.8-9.9c5.3,4.3,10.5,9,15.7,13.9c-6.6,3.3-13.2,6.6-19.7,9.5C884.1,223.8,878.8,219.2,873.5,215.1z
				 M885.5,254.1c-5.2-5.4-10.5-10.6-15.8-15.6c6.3-2.3,12.8-4.9,19.3-7.9c5.3,4.9,10.5,10,15.7,15.2
				C898.3,248.8,891.9,251.7,885.5,254.1L885.5,254.1z M886.9,255.5c6.3-2.5,12.8-5.3,19.3-8.3c5.2,5.2,10.4,10.5,15.6,15.6
				c-6.5,3.2-13,6.3-19.3,9.1C897.3,266.5,892.1,260.9,886.9,255.5L886.9,255.5z M898.6,298.8c-5-5.7-10-11.6-15.1-17.5
				c6.1-2,12.3-4.4,18.6-7.2c5.1,5.5,10.2,10.9,15.3,16C911.1,293.3,904.8,296.3,898.6,298.8L898.6,298.8z M903.8,273.4
				c6.4-2.8,12.8-5.9,19.3-9.2c5.2,5.1,10.4,10.1,15.5,14.7c-6.6,3.6-13.1,7.1-19.5,10.3C914.1,284.1,909,278.8,903.8,273.4
				L903.8,273.4z M955.5,292.7c-6.7,4-13.3,8.1-19.8,12c-5-4.3-10.1-9.1-15.2-14.1c6.4-3.3,13-6.9,19.5-10.5
				C945.3,284.7,950.4,289,955.5,292.7L955.5,292.7z M940.5,278c-5.2-4.6-10.4-9.6-15.5-14.7c6.5-3.3,13.1-6.6,19.7-10
				c5.2,4.9,10.5,9.6,15.7,13.9C953.7,270.7,947,274.4,940.5,278z M962.1,266.3c-5.3-4.3-10.5-9-15.7-13.9
				c6.6-3.3,13.2-6.5,19.7-9.5c5.3,4.8,10.6,9.4,15.9,13.5C975.3,259.5,968.7,262.8,962.1,266.3L962.1,266.3z"/>
			<path class="st4" d="M738.1,347.2c1.3-10.5,19.4-18.4,19.4-18.4c-11.1-6.2-24.8,3.2-24.8,3.2c1-15.5,19.3-33.2,19.3-33.2
				c-21.6,0.6-32.9,31-32.9,31s-1.3-32.4-21.7-39.7c0,0,11.8,22.5,8,37.5c0,0-10.1-13.2-22.6-10.8c0,0,14.7,13.1,12.7,23.5
				c0,0-8-8.4-22.2-3.5c0,0,21.5,9.7,17.4,30.5l21.7,3.5l21.7,3.5c2.6-21.1,26-23.6,26-23.6C748.3,341.6,738.1,347.2,738.1,347.2z"
				/>
			<path class="st5" d="M760.3,350.7c-9.1-6.9-17.2-5.3-20.5-4.2c-6.1,10.1-14.4,18.6-24.4,24.8l18.9,3
				C736.8,353.2,760.3,350.7,760.3,350.7z"/>
			<path class="st11" d="M763.9,440.3c-6,37.4-38,63.3-71.7,58s-56-40-50.1-77.3s38-63.3,71.7-58S769.8,403,763.9,440.3z"/>
			<path class="st12" d="M760,402.1c0.5,5.6,0.2,11.2-0.6,16.7c-6.2,39.2-44.1,66.6-83.3,60.4c-8.6-1.4-16.8-4.3-24.3-8.6
				c9,14.5,23.3,24.9,40.5,27.6c33.6,5.3,65.7-20.6,71.7-58C766,427.5,764.6,414.3,760,402.1z"/>
			<path class="st13" d="M706.6,397.7c-5.2-5.1-10.4-10-15.5-14.6c-6.6,3.6-13.2,7.2-19.9,10.7c5.3,4.3,10.5,9,15.7,13.9
				C693.5,404.4,700.1,401,706.6,397.7z"/>
			<path class="st13" d="M727.7,387.7c-5.1-5.4-10.3-10.8-15.3-15.9c-6.4,3.3-13,6.8-19.5,10.3c5.2,4.7,10.3,9.6,15.5,14.7
				C714.9,393.6,721.4,390.5,727.7,387.7z"/>
			<path class="st13" d="M696.7,480.1c5.1,5.1,10.1,9.8,15.2,14.1c6.5-3.9,13.2-7.9,19.8-12c-5.2-3.8-10.3-8-15.5-12.6
				C709.6,473.2,703.1,476.8,696.7,480.1z"/>
			<path class="st13" d="M725.4,413.8c6.5-3,12.9-5.9,19.3-8.3c-5.2-5.4-10.4-10.9-15.5-16.4c-6.4,2.8-12.8,5.9-19.3,9.1
				C714.9,403.3,720.1,408.6,725.4,413.8z"/>
			<path class="st13" d="M740.8,431.1c-5.3-4.9-10.5-10-15.7-15.1c-6.5,3-13.1,6.3-19.6,9.5c5.2,5.1,10.5,10.2,15.7,15.1
				C727.7,437.4,734.3,434.1,740.8,431.1z"/>
			<path class="st13" d="M699.3,453.7c-6.5,3.3-13,6.4-19.3,9.2c5.1,5.4,10.3,10.8,15.3,15.9c6.4-3.3,13-6.8,19.5-10.3
				C709.7,463.7,704.5,458.8,699.3,453.7z"/>
			<path class="st13" d="M659.7,470.8c5.1,5.9,10.1,11.8,15.1,17.6c6.1-2.5,12.4-5.5,18.8-8.7c-5.1-5.1-10.2-10.5-15.3-16
				C672,466.4,665.7,468.8,659.7,470.8z"/>
			<path class="st13" d="M685.2,408.6c-5.2-4.9-10.5-9.5-15.7-13.8c-6.6,3.5-13.3,6.8-19.8,9.9c5.3,4.1,10.6,8.7,15.9,13.5
				C672,415.1,678.6,411.9,685.2,408.6z"/>
			<path class="st13" d="M698,452.3c-5.2-5.1-10.4-10.4-15.6-15.6c-6.5,3-12.9,5.9-19.3,8.3c5.2,5.4,10.4,10.9,15.5,16.4
				C685,458.6,691.4,455.5,698,452.3z"/>
			<path class="st13" d="M665.2,420.2c-6.5,2.9-13,5.6-19.3,7.9c5.3,4.9,10.6,10.2,15.8,15.6c6.3-2.5,12.8-5.3,19.3-8.3
				C675.7,430.1,670.5,425,665.2,420.2z"/>
			<path class="st13" d="M666.9,419.4c5.3,4.9,10.5,10,15.7,15.1c6.5-3,13.1-6.3,19.6-9.5c-5.2-5.1-10.5-10.2-15.7-15.1
				C680,413.2,673.5,416.4,666.9,419.4z"/>
			<path class="st13" d="M742.5,430.4c6.5-2.9,13-5.6,19.3-7.9c-5.3-4.9-10.6-10.2-15.8-15.6c-6.3,2.5-12.8,5.3-19.3,8.3
				C732,420.4,737.2,425.5,742.5,430.4z"/>
			<path class="st13" d="M723.7,414.6c-5.2-5.2-10.4-10.4-15.6-15.5c-6.5,3.2-13.1,6.6-19.7,9.9c5.2,4.9,10.5,10,15.7,15.2
				C710.6,420.9,717.1,417.7,723.7,414.6z"/>
			<path class="st13" d="M722.5,442c5.2,4.9,10.5,9.5,15.7,13.8c6.6-3.5,13.3-6.8,19.8-9.9c-5.3-4.1-10.6-8.7-15.9-13.5
				C735.7,435.4,729.1,438.6,722.5,442z"/>
			<path class="st13" d="M701.1,452.8c5.2,5.1,10.4,10,15.5,14.6c6.6-3.6,13.2-7.2,19.9-10.7c-5.3-4.3-10.5-9-15.7-13.9
				C714.2,446.1,707.6,449.5,701.1,452.8z"/>
			<path class="st13" d="M719.4,441.5c-5.2-4.9-10.5-10-15.7-15.2c-6.5,3.2-13.1,6.5-19.6,9.5c5.2,5.2,10.4,10.4,15.6,15.5
				C706.2,448.2,712.8,444.8,719.4,441.5z"/>
			<path class="st14" d="M763.3,443.5l-3.5,1.5c-5.3-4.1-10.6-8.6-15.9-13.5c6.5-2.9,13-5.6,19.3-7.9l1.5,1.4
				c-0.1-1.2-0.1-2.4-0.2-3.6l-1,0.3c-5.3-5-10.6-10.2-15.8-15.6c4.2-1.6,8.3-3,12.3-4.1c-0.2-0.6-0.4-1.1-0.7-1.7
				c-4.3,1.2-8.6,2.7-13,4.4c-5.2-5.4-10.4-11-15.5-16.5c5.8-2.5,11.4-4.7,17-6.5c-0.5-0.5-0.9-1-1.4-1.5
				c-5.5,1.9-11.2,4.1-16.9,6.6c-5.1-5.5-10.3-10.9-15.3-16c3.5-1.8,7-3.5,10.5-5.1c-0.8-0.3-1.7-0.6-2.5-0.9
				c-3.1,1.5-6.2,3-9.3,4.6c-2.5-2.5-5-4.9-7.4-7.3c-0.9,0-1.8,0-2.7,0c2.8,2.6,5.6,5.3,8.4,8.1c-6.4,3.3-13,6.9-19.5,10.5
				c-4.7-4.2-9.4-8-14-11.5c-0.6,0.3-1.2,0.7-1.8,1c4.7,3.5,9.4,7.3,14.1,11.5c-6.6,3.6-13.2,7.3-19.9,10.8c-3.7-3-7.3-5.7-11-8.2
				c-0.4,0.5-0.8,0.9-1.2,1.4c3.5,2.4,7,5,10.4,7.8c-6.6,3.5-13.3,6.9-19.9,9.9l-0.9-0.6c-0.5,1.1-0.9,2.2-1.4,3.4l1.9-0.9
				c5.3,4.1,10.6,8.6,15.9,13.5c-6.5,2.9-13,5.6-19.3,7.9c-0.9-0.9-1.9-1.7-2.8-2.6c-0.1,0.6-0.1,1.3-0.2,1.9l1.3,1.2l-1.5,0.5
				c0,0.6-0.1,1.2-0.1,1.8c1-0.3,2-0.6,3-1c5.3,5,10.6,10.2,15.8,15.6c-5.5,2.1-11.2,3.9-16.9,5.4c0.1,0.6,0.3,1.2,0.4,1.8
				c6.1-1.6,12-3.5,17.9-5.7c5.2,5.4,10.4,11,15.5,16.5c-6.3,2.7-12.6,5.1-18.6,7.1c-4.8-5.5-9.6-11.1-14.4-16.5
				c0.3,1.1,0.7,2.2,1,3.3c4,4.5,7.9,9.1,11.8,13.6c-1.6,0.5-3.2,0.9-4.7,1.3c0.4,0.6,0.7,1.1,1.1,1.7c1.6-0.4,3.3-0.9,5-1.4
				c5.1,6,10.1,11.9,15.1,17.7c-0.8,0.3-1.7,0.7-2.5,1c0.7,0.4,1.3,0.8,2,1.3c0.6-0.2,1.2-0.5,1.8-0.7c0.9,1.1,1.9,2.1,2.8,3.2
				c1.2,0.6,2.4,1.1,3.6,1.5c-1.6-1.8-3.2-3.6-4.8-5.4c6.1-2.6,12.4-5.6,18.8-8.9c5.1,5.1,10.1,9.9,15.2,14.3
				c-2.1,1.2-4.2,2.4-6.2,3.6c1.3-0.1,2.6-0.2,3.9-0.3l3.6-2.2c0.5,0.4,1,0.8,1.5,1.3c0.8-0.2,1.5-0.4,2.3-0.6l-2.1-1.7
				c6.5-3.9,13.2-8,19.9-12.1c1.4,1,2.8,2,4.3,2.9c0.5-0.4,1.1-0.8,1.6-1.3c-1.3-0.9-2.7-1.8-4.1-2.7c5.1-3.1,10.3-6.3,15.5-9.3
				c0.7-0.9,1.3-1.9,2-2.8c-6.3,3.6-12.6,7.4-18.8,11.2c-5.2-3.7-10.3-7.9-15.5-12.5c6.6-3.6,13.2-7.3,19.9-10.8
				c4.9,4,9.9,7.6,15.2,11c0.3-0.5,0.6-1,1-1.5c-5-3.2-9.8-6.7-14.4-10.4c6.6-3.5,13.3-6.9,19.8-9.9c0.8,0.6,1.7,1.2,2.5,1.9
				c0.2-0.6,0.3-1.1,0.5-1.7c-0.4-0.3-0.8-0.6-1.3-0.9l1.6-0.7C763,444.8,763.2,444.2,763.3,443.5z M746,406.9
				c5.2,5.4,10.5,10.6,15.8,15.6c-6.3,2.3-12.8,4.9-19.3,7.9c-5.3-4.9-10.5-10-15.8-15.2C733.3,412.2,739.7,409.4,746,406.9z
				 M702.3,425c-6.6,3.2-13.1,6.5-19.6,9.5c-5.2-5.2-10.5-10.3-15.7-15.1c6.5-3,13.1-6.2,19.7-9.5
				C691.8,414.8,697.1,419.9,702.3,425z M688.3,409c6.6-3.3,13.2-6.7,19.7-9.9c5.2,5.1,10.4,10.4,15.6,15.5
				c-6.5,3.1-13.1,6.3-19.6,9.5C698.8,419,693.6,413.9,688.3,409L688.3,409z M703.7,426.4c5.2,5.1,10.5,10.2,15.7,15.2
				c-6.6,3.3-13.2,6.7-19.7,9.9c-5.2-5.1-10.4-10.4-15.6-15.5C690.6,432.8,697.1,429.6,703.7,426.4L703.7,426.4z M705.4,425.5
				c6.6-3.3,13.1-6.5,19.6-9.5c5.2,5.2,10.5,10.3,15.7,15.1c-6.5,3-13.1,6.2-19.7,9.5C715.9,435.7,710.6,430.6,705.4,425.5
				L705.4,425.5z M729.1,389.1c5.2,5.5,10.3,11,15.5,16.4c-6.3,2.5-12.8,5.3-19.3,8.3c-5.2-5.2-10.4-10.5-15.6-15.6
				C716.3,395,722.7,391.9,729.1,389.1L729.1,389.1z M712.4,371.8c5.1,5.1,10.2,10.5,15.3,15.9c-6.3,2.8-12.8,5.9-19.3,9.2
				c-5.2-5.1-10.4-10.1-15.5-14.7C699.4,378.5,706,375,712.4,371.8L712.4,371.8z M691.1,383.1c5.2,4.6,10.4,9.6,15.5,14.6
				c-6.5,3.3-13.1,6.6-19.7,10c-5.2-4.9-10.5-9.6-15.7-13.9C677.9,390.3,684.5,386.6,691.1,383.1L691.1,383.1z M649.6,404.6
				c6.6-3,13.2-6.4,19.8-9.9c5.3,4.3,10.5,9,15.7,13.8c-6.6,3.3-13.2,6.5-19.7,9.5C660.3,413.3,655,408.7,649.6,404.6L649.6,404.6z
				 M661.7,443.6c-5.2-5.4-10.5-10.6-15.8-15.6c6.3-2.3,12.8-4.9,19.3-7.9c5.3,4.9,10.5,10,15.8,15.2
				C674.5,438.4,668,441.2,661.7,443.6L661.7,443.6z M663.1,445c6.3-2.5,12.8-5.3,19.3-8.3c5.2,5.2,10.4,10.5,15.6,15.6
				c-6.5,3.2-13,6.3-19.3,9.1C673.5,456,668.3,450.4,663.1,445L663.1,445z M674.8,488.3c-5-5.7-10-11.6-15.1-17.5
				c6.1-2,12.3-4.4,18.6-7.2c5.1,5.5,10.3,10.9,15.3,16C687.2,482.8,680.9,485.8,674.8,488.3L674.8,488.3z M680,462.9
				c6.3-2.8,12.8-5.9,19.3-9.2c5.2,5.1,10.4,10.1,15.5,14.7c-6.6,3.6-13.1,7.1-19.5,10.3C690.2,473.6,685.1,468.3,680,462.9z
				 M731.7,482.2c-6.7,4.1-13.3,8.1-19.8,12c-5-4.3-10.1-9.1-15.2-14.1c6.4-3.3,13-6.9,19.5-10.5
				C721.4,474.2,726.6,478.5,731.7,482.2L731.7,482.2z M716.6,467.4c-5.2-4.6-10.4-9.6-15.5-14.6c6.5-3.3,13.1-6.7,19.7-10
				c5.2,4.9,10.5,9.6,15.7,13.9C729.8,460.2,723.2,463.9,716.6,467.4L716.6,467.4z M738.2,455.8c-5.3-4.3-10.5-9-15.7-13.8
				c6.6-3.3,13.2-6.5,19.7-9.5c5.3,4.8,10.6,9.4,15.9,13.5C751.5,449,744.9,452.3,738.2,455.8L738.2,455.8z"/>
			<path class="st4" d="M926.4,377.1c1.3-10.5,19.4-18.4,19.4-18.4c-11.1-6.2-24.8,3.2-24.8,3.2c1-15.5,19.3-33.2,19.3-33.2
				c-21.6,0.6-32.9,31-32.9,31s-1.3-32.4-21.7-39.7c0,0,11.9,22.5,8,37.5c0,0-10.1-13.2-22.6-10.8c0,0,14.7,13.1,12.7,23.5
				c0,0-7.9-8.4-22.2-3.5c0,0,21.5,9.7,17.4,30.5l21.7,3.5l21.7,3.5c2.6-21.1,26-23.6,26-23.6C936.6,371.6,926.4,377.1,926.4,377.1z
				"/>
			<path class="st5" d="M948.6,380.7c-9.1-6.9-17.2-5.3-20.5-4.2c-6.1,10.1-14.4,18.6-24.4,24.8l18.9,3
				C925.1,383.2,948.6,380.7,948.6,380.7z"/>
			<path class="st11" d="M952.2,470.3c-6,37.4-38,63.3-71.7,58s-56.1-40-50.1-77.3s38-63.3,71.7-58S958.2,432.9,952.2,470.3z"/>
			<path class="st12" d="M948.3,432.1c0.4,5.6,0.2,11.2-0.6,16.7c-6.2,39.2-44.1,66.6-83.3,60.4c-8.6-1.4-16.8-4.3-24.3-8.6
				c9,14.5,23.3,24.9,40.5,27.6c33.6,5.4,65.7-20.6,71.7-58C954.3,457.5,953,444.3,948.3,432.1z"/>
			<path class="st13" d="M895,427.7c-5.2-5.1-10.4-10-15.5-14.7c-6.6,3.6-13.2,7.2-19.9,10.7c5.3,4.3,10.5,9,15.7,13.9
				C881.9,434.4,888.5,431,895,427.7z"/>
			<path class="st13" d="M916.1,417.6c-5.2-5.4-10.3-10.8-15.3-15.9c-6.4,3.3-13,6.8-19.5,10.3c5.2,4.6,10.3,9.6,15.5,14.7
				C903.2,423.6,909.7,420.5,916.1,417.6z"/>
			<path class="st13" d="M885,510.1c5.1,5,10.2,9.8,15.2,14.1c6.5-3.9,13.2-7.9,19.8-12c-5.2-3.8-10.3-8-15.5-12.6
				C898,503.2,891.5,506.8,885,510.1z"/>
			<path class="st13" d="M913.7,443.8c6.5-3,12.9-5.9,19.3-8.3c-5.2-5.4-10.4-10.9-15.5-16.4c-6.4,2.8-12.8,5.9-19.3,9.1
				C903.3,433.3,908.5,438.6,913.7,443.8z"/>
			<path class="st13" d="M929.1,461.1c-5.3-4.9-10.5-10-15.8-15.1c-6.5,3-13.1,6.3-19.6,9.5c5.2,5.1,10.5,10.2,15.7,15.1
				C916,467.3,922.6,464.1,929.1,461.1z"/>
			<path class="st13" d="M887.7,483.6c-6.5,3.3-13,6.4-19.3,9.2c5.2,5.4,10.3,10.8,15.3,15.9c6.4-3.3,13-6.8,19.5-10.3
				C898,493.7,892.9,488.8,887.7,483.6z"/>
			<path class="st13" d="M848,500.8c5.1,5.9,10.1,11.8,15.1,17.5c6.1-2.5,12.4-5.5,18.8-8.7c-5.1-5.1-10.2-10.5-15.3-16
				C860.3,496.3,854.1,498.8,848,500.8z"/>
			<path class="st13" d="M873.5,438.5c-5.2-4.9-10.5-9.5-15.7-13.9c-6.6,3.5-13.3,6.9-19.8,9.9c5.3,4.1,10.6,8.7,15.9,13.5
				C860.4,445.1,867,441.9,873.5,438.5z"/>
			<path class="st13" d="M886.3,482.3c-5.2-5.1-10.4-10.4-15.6-15.6c-6.5,3-12.9,5.9-19.3,8.3c5.2,5.4,10.4,10.9,15.5,16.4
				C873.3,488.6,879.8,485.5,886.3,482.3z"/>
			<path class="st13" d="M853.5,450.1c-6.5,2.9-13,5.6-19.3,7.9c5.3,4.9,10.6,10.2,15.8,15.6c6.3-2.5,12.8-5.3,19.3-8.3
				C864.1,460.1,858.8,455,853.5,450.1z"/>
			<path class="st13" d="M855.3,449.4c5.3,4.9,10.5,10,15.8,15.1c6.5-3,13.1-6.3,19.6-9.5c-5.2-5.1-10.5-10.2-15.7-15.1
				C868.4,443.1,861.8,446.4,855.3,449.4z"/>
			<path class="st13" d="M930.8,460.3c6.5-2.9,13-5.6,19.3-7.9c-5.3-4.9-10.5-10.2-15.8-15.6c-6.3,2.5-12.8,5.3-19.3,8.3
				C920.3,450.4,925.6,455.5,930.8,460.3z"/>
			<path class="st13" d="M912,444.6c-5.2-5.2-10.4-10.4-15.6-15.5c-6.5,3.3-13.1,6.6-19.7,9.9c5.2,4.9,10.5,10,15.7,15.1
				C898.9,450.9,905.5,447.7,912,444.6z"/>
			<path class="st13" d="M910.8,471.9c5.2,4.9,10.5,9.6,15.7,13.8c6.6-3.5,13.3-6.8,19.8-9.9c-5.3-4.1-10.6-8.7-15.9-13.5
				C924,465.4,917.4,468.6,910.8,471.9z"/>
			<path class="st13" d="M889.4,482.8c5.2,5.1,10.4,10,15.5,14.7c6.6-3.6,13.2-7.2,19.9-10.7c-5.3-4.3-10.5-9-15.7-13.9
				C902.5,476.1,895.9,479.5,889.4,482.8z"/>
			<path class="st13" d="M907.7,471.5c-5.2-4.9-10.5-10-15.7-15.2c-6.6,3.2-13.1,6.5-19.6,9.5c5.2,5.2,10.4,10.4,15.6,15.5
				C894.5,478.2,901.1,474.8,907.7,471.5z"/>
			<path class="st14" d="M951.6,473.5c-1.2,0.5-2.3,1-3.5,1.6c-5.3-4.1-10.6-8.7-15.9-13.5c6.5-2.9,13-5.6,19.3-7.9l1.5,1.4
				c-0.1-1.2-0.1-2.4-0.2-3.6l-1,0.3c-5.3-5-10.6-10.2-15.8-15.6c4.2-1.6,8.3-2.9,12.3-4.1c-0.2-0.6-0.4-1.1-0.7-1.7
				c-4.3,1.3-8.6,2.7-13,4.4c-5.2-5.4-10.4-11-15.5-16.5c5.8-2.5,11.4-4.7,17-6.5c-0.5-0.5-0.9-1-1.4-1.5
				c-5.5,1.9-11.2,4.1-16.9,6.6c-5.1-5.5-10.2-10.9-15.3-16c3.5-1.8,7-3.5,10.5-5.1c-0.8-0.3-1.7-0.6-2.5-0.9
				c-3.1,1.5-6.2,3-9.3,4.6c-2.5-2.5-5-4.9-7.4-7.3c-0.9,0-1.8,0-2.7,0.1c2.8,2.6,5.6,5.3,8.4,8.1c-6.4,3.3-13,6.9-19.5,10.5
				c-4.7-4.2-9.4-8-14-11.5c-0.6,0.3-1.2,0.7-1.8,1c4.7,3.5,9.4,7.3,14.1,11.5c-6.6,3.6-13.2,7.3-19.9,10.8c-3.7-3-7.3-5.7-11-8.2
				c-0.4,0.5-0.8,0.9-1.2,1.4c3.5,2.4,7,5,10.4,7.8c-6.7,3.5-13.3,6.9-19.9,9.9l-0.9-0.6c-0.5,1.1-0.9,2.2-1.4,3.4l1.9-0.9
				c5.3,4.1,10.6,8.6,15.9,13.5c-6.5,2.9-13,5.6-19.3,7.9c-0.9-0.9-1.9-1.7-2.8-2.6c-0.1,0.6-0.1,1.3-0.2,1.9l1.3,1.2l-1.5,0.5
				c0,0.6,0,1.2-0.1,1.8c1-0.3,2-0.6,3-1c5.3,5,10.6,10.2,15.8,15.6c-5.5,2.1-11.2,3.9-16.9,5.4c0.1,0.6,0.3,1.2,0.4,1.8
				c6.1-1.6,12-3.5,17.9-5.7c5.2,5.4,10.4,11,15.5,16.5c-6.1,2.7-12.3,5-18.6,7.1c-4.8-5.5-9.6-11.1-14.4-16.5
				c0.3,1.1,0.7,2.2,1,3.3c4,4.5,7.9,9.1,11.8,13.7c-1.6,0.5-3.2,0.9-4.7,1.3c0.4,0.6,0.7,1.1,1.1,1.7c1.6-0.4,3.3-0.9,5-1.4
				c5.1,6,10.1,11.9,15.1,17.7L859,520c0.7,0.4,1.3,0.8,2,1.3c0.6-0.2,1.2-0.5,1.8-0.7c0.9,1.1,1.8,2.1,2.8,3.2
				c1.2,0.6,2.4,1.1,3.6,1.5c-1.6-1.8-3.2-3.6-4.8-5.4c6.2-2.6,12.5-5.6,18.9-8.9c5.1,5.1,10.1,9.9,15.2,14.3
				c-2.1,1.2-4.2,2.5-6.2,3.6c1.3-0.1,2.6-0.2,3.9-0.3l3.6-2.2c0.5,0.4,1,0.8,1.5,1.3c0.8-0.2,1.5-0.4,2.3-0.6
				c-0.7-0.6-1.4-1.2-2.1-1.8c6.5-3.9,13.2-8,19.9-12.1c1.4,1,2.8,2,4.3,2.9c0.5-0.4,1-0.8,1.6-1.3c-1.4-0.9-2.7-1.8-4.1-2.7
				c5.1-3.1,10.3-6.3,15.5-9.3c0.7-0.9,1.3-1.9,2-2.8c-6.3,3.6-12.6,7.4-18.8,11.2c-5.4-3.9-10.6-8.1-15.5-12.5
				c6.6-3.6,13.2-7.3,19.9-10.8c4.9,4,9.9,7.6,15.2,11c0.3-0.5,0.6-1,1-1.6c-5-3.2-9.8-6.7-14.4-10.4c6.6-3.5,13.3-6.9,19.8-9.9
				c0.8,0.6,1.7,1.2,2.5,1.9c0.2-0.6,0.3-1.1,0.5-1.7l-1.3-0.9l1.7-0.7C951.3,474.8,951.5,474.2,951.6,473.5z M934.4,436.9
				c5.2,5.4,10.5,10.6,15.8,15.6c-6.3,2.3-12.8,4.9-19.3,7.9c-5.3-4.9-10.5-10-15.7-15.2C921.6,442.1,928,439.3,934.4,436.9z
				 M890.6,455c-6.5,3.2-13.1,6.5-19.6,9.5c-5.2-5.2-10.5-10.3-15.8-15.1c6.5-3,13.1-6.2,19.7-9.5
				C880.2,444.8,885.4,449.9,890.6,455z M876.7,439c6.6-3.3,13.2-6.7,19.7-9.9c5.2,5.1,10.4,10.4,15.6,15.5
				c-6.5,3.1-13.1,6.3-19.6,9.5C887.2,449,881.9,443.9,876.7,439z M892,456.4c5.2,5.1,10.5,10.2,15.7,15.2
				c-6.6,3.3-13.2,6.7-19.7,9.9c-5.2-5.1-10.4-10.4-15.6-15.5C878.9,462.8,885.5,459.6,892,456.4z M893.7,455.5
				c6.5-3.2,13.1-6.5,19.6-9.5c5.2,5.2,10.5,10.3,15.8,15.1c-6.5,3-13.1,6.2-19.7,9.5C904.2,465.7,899,460.6,893.7,455.5
				L893.7,455.5z M917.4,419.1c5.2,5.5,10.3,11,15.5,16.4c-6.3,2.5-12.8,5.3-19.3,8.3c-5.2-5.2-10.4-10.5-15.6-15.6
				C904.6,425,911.1,421.9,917.4,419.1L917.4,419.1z M900.7,401.8c5.1,5.1,10.2,10.5,15.3,15.9c-6.4,2.8-12.8,5.9-19.3,9.2
				c-5.2-5.1-10.4-10.1-15.5-14.7C887.8,408.5,894.3,405,900.7,401.8L900.7,401.8z M879.4,413c5.2,4.6,10.4,9.6,15.5,14.7
				c-6.5,3.3-13.1,6.6-19.7,10c-5.2-4.9-10.5-9.6-15.7-13.9C866.2,420.3,872.8,416.6,879.4,413z M838,434.6c6.6-3,13.2-6.4,19.8-9.9
				c5.3,4.3,10.5,9,15.7,13.9c-6.6,3.3-13.2,6.5-19.7,9.5C848.6,443.3,843.3,438.7,838,434.6z M850,473.6
				c-5.2-5.4-10.5-10.6-15.8-15.6c6.3-2.3,12.8-4.9,19.3-7.9c5.3,4.9,10.5,10,15.7,15.2C862.8,468.3,856.4,471.1,850,473.6z
				 M851.4,475c6.3-2.5,12.8-5.3,19.3-8.3c5.2,5.2,10.4,10.5,15.6,15.6c-6.5,3.2-13,6.3-19.3,9.1C861.8,485.9,856.6,480.4,851.4,475
				L851.4,475z M863.1,518.3c-5-5.7-10-11.6-15.1-17.5c6.1-2,12.3-4.4,18.6-7.2c5.1,5.5,10.2,10.9,15.3,16
				C875.6,512.8,869.3,515.8,863.1,518.3L863.1,518.3z M868.3,492.8c6.4-2.8,12.8-5.9,19.3-9.2c5.2,5.1,10.4,10.1,15.5,14.7
				c-6.6,3.6-13.1,7.1-19.5,10.3C878.6,503.6,873.5,498.3,868.3,492.8L868.3,492.8z M920,512.2c-6.7,4-13.3,8.1-19.8,12
				c-5-4.3-10.1-9.1-15.2-14.1c6.4-3.3,13-6.8,19.5-10.5C909.7,504.2,914.9,508.5,920,512.2L920,512.2z M905,497.4
				c-5.2-4.6-10.3-9.6-15.5-14.7c6.5-3.3,13.1-6.6,19.7-10c5.2,4.9,10.5,9.6,15.7,13.9C918.2,490.2,911.5,493.9,905,497.4z
				 M926.6,485.8c-5.3-4.3-10.5-9-15.7-13.9c6.6-3.3,13.2-6.5,19.7-9.5c5.3,4.8,10.6,9.4,15.9,13.5
				C939.8,478.9,933.2,482.3,926.6,485.8L926.6,485.8z"/>
		</g>
		
			<image style="overflow:visible;opacity:0.15;enable-background:new    ;" width="562" height="649" xlink:href="BCFEA2A2.png"  transform="matrix(1 0 0 1 706 32)">
		</image>
		<path class="st0" d="M1040,657.9c-5.9,0-11.7-1.1-17.2-3.1L747,551.7c-25.6-9.6-38.6-38.1-29-63.7L873.1,73.2
			c7.3-19.3,25.8-32.1,46.5-32.2c5.9,0,11.7,1,17.2,3.1l275.8,103.1c25.6,9.6,38.5,38.1,29,63.7l-155.1,414.8
			C1079.2,645.1,1060.7,657.9,1040,657.9z"/>
		<path class="st1" d="M919.6,40.6v1l0,0c5.8,0,11.6,1,17,3.1l275.8,103.1c25.3,9.5,38.2,37.7,28.7,63.1L1086,625.6
			c-7.2,19.1-25.5,31.8-46,31.8c-5.8,0-11.6-1-17-3.1L747.2,551.2c-25.3-9.5-38.2-37.7-28.7-63.1L873.6,73.4
			c7.3-19.1,25.6-31.8,46-31.8L919.6,40.6 M919.6,40.5c-20.9,0-39.6,12.9-47,32.5l-155,414.8c-9.6,25.9,3.5,54.6,29.3,64.3
			l275.8,103.1c5.6,2.1,11.4,3.2,17.4,3.2c20.9,0,39.6-12.9,47-32.5l155.1-414.8c9.6-25.9-3.5-54.6-29.3-64.3L937,43.7
			C931.4,41.6,925.6,40.5,919.6,40.5L919.6,40.5z"/>
		<g id="_5개">
			<path class="st2" d="M989.2,173.6c-5.6-37.4-42.7-40.5-42.7-40.5s-30-22.1-58.8,2.6s-7.7,104.1,15.7,112.8S994.8,211,989.2,173.6
				z"/>
			<path class="st3" d="M989.2,173.6c-3.1-20.6-15.7-30.8-26.4-35.8c12.2,16.9,15.2,38.8,8.1,58.3c-11.9,31.9-48.5,48.6-80.4,36.6
				c-1-0.4-2-0.8-2.9-1.2c4.7,8.5,10.2,14.7,15.8,16.8C926.8,257.1,994.8,211,989.2,173.6z"/>
			<path class="st4" d="M989.7,147.6c-3.4-8.6-15.7-16.8-15.7-16.8l6.2-9.8c-15.8-4.6-31,5.1-31,5.1s-5.2-17.3-20.2-24.1l-1.8,11.4
				c0,0-14.7-1.9-22.9,2.4c0,0,12,6.9,15.2,11.8c0,0-7.1,7.8-3.8,15.7c0,0,11.3-7,19.4-4l-1.1,10.8l8.3-5.6l2.6,9.7l6.3-8.9
				c8,3,12,15.7,12,15.7c7.7-3.8,7.4-14.3,7.4-14.3C976.2,145,989.7,147.6,989.7,147.6z"/>
			<path class="st5" d="M989.7,147.6c-3.4-8.6-15.7-16.8-15.7-16.8l6.2-9.8c-5.4-1.5-11.1-1.7-16.5-0.5c4.3,9,4.8,19.3,1.3,28.6
				c-0.9,2.5-2.2,4.9-3.6,7.1c0.7,1.5,1.3,3,1.9,4.6c7.7-3.8,7.4-14.3,7.4-14.3C976.2,145,989.7,147.6,989.7,147.6z"/>
			<path class="st6" d="M945.8,134.8c-1.6-0.6-2.5-2.3-2-3.9c12.8-43.6,35.4-38,36.4-37.7c1.7,0.5,2.8,2.2,2.3,4
				c-0.5,1.7-2.2,2.8-4,2.3c-0.8-0.2-17.7-3.7-28.5,33.3c-0.5,1.7-2.3,2.7-4,2.2L945.8,134.8z"/>
			<path class="st7" d="M900.2,142.1c-1.2,1.7-3.2,2.3-4.4,1.4s-1.2-3,0-4.6s3.2-2.3,4.4-1.4S901.4,140.4,900.2,142.1z"/>
			<path class="st7" d="M915.6,158c-1.2,1.7-3.2,2.3-4.4,1.4s-1.2-3,0-4.6s3.2-2.3,4.4-1.4S916.9,156.3,915.6,158z"/>
			<path class="st7" d="M975.7,170.3c-0.2,2.1,0.9,3.8,2.4,4s2.9-1.4,3-3.5s-0.9-3.8-2.4-3.9S975.8,168.3,975.7,170.3z"/>
			<path class="st7" d="M953.6,172.2c-0.2,2.1,0.9,3.8,2.4,3.9s2.9-1.4,3-3.5s-0.9-3.8-2.4-3.9S953.8,170.1,953.6,172.2z"/>
			<path class="st7" d="M936.5,167.6c-0.8,1.9-2.5,3-3.9,2.5s-1.9-2.6-1.2-4.5s2.5-3,3.9-2.5S937.3,165.6,936.5,167.6z"/>
			<path class="st7" d="M895,191.6c-1.2,1.7-3.2,2.3-4.4,1.4s-1.2-3,0-4.6s3.2-2.3,4.4-1.4S896.3,190,895,191.6z"/>
			<path class="st7" d="M948.3,211.6c-0.2,2.1,0.9,3.8,2.4,3.9s2.9-1.4,3-3.5s-0.9-3.8-2.4-4S948.5,209.5,948.3,211.6z"/>
			<path class="st7" d="M923,203.8c-0.8,1.9-2.5,3-3.9,2.5s-1.9-2.6-1.2-4.5s2.5-3,3.9-2.5S923.8,201.9,923,203.8z"/>
			<path class="st7" d="M911,235.9c-0.8,1.9-2.5,3-3.9,2.5s-1.9-2.6-1.2-4.5s2.5-3,3.9-2.5S911.8,234,911,235.9z"/>
			<path class="st7" d="M895.1,163.7c-1.2,1.6-3.2,2.2-4.4,1.3s-1.2-3,0.1-4.6s3.2-2.2,4.5-1.3S896.4,162,895.1,163.7z"/>
			<path class="st7" d="M915.1,179.1c-1.3,1.6-3.3,2.1-4.5,1.2s-1.1-3,0.3-4.6s3.3-2.1,4.5-1.1S916.4,177.4,915.1,179.1z"/>
			<path class="st7" d="M965.3,189.9c-0.1,2.1,1,3.8,2.5,3.9s2.8-1.5,3-3.6s-1-3.8-2.5-3.9S965.5,187.9,965.3,189.9z"/>
			<path class="st7" d="M940.2,188.4c-0.1,2.1,1.1,3.8,2.6,3.8s2.8-1.6,2.8-3.7s-1.1-3.8-2.6-3.8S940.3,186.4,940.2,188.4z"/>
			<path class="st7" d="M926.8,225.3c1.4-1.5,3.5-1.9,4.6-0.9s0.9,3.1-0.5,4.6s-3.4,1.9-4.5,0.9S925.3,226.8,926.8,225.3z"/>
			<path class="st7" d="M902.2,214.4c0.2-2.1-0.9-3.8-2.4-4s-2.9,1.4-3.1,3.5s0.9,3.8,2.4,4S902,216.4,902.2,214.4z"/>
			<path class="st2" d="M1190,250.2c-5.6-37.4-42.7-40.5-42.7-40.5s-30-22.1-58.8,2.6s-7.7,104.1,15.7,112.8
				S1195.6,287.6,1190,250.2z"/>
			<path class="st3" d="M1190,250.2c-3.1-20.6-15.7-30.8-26.4-35.8c12.2,16.9,15.2,38.8,8.1,58.3c-11.9,31.9-48.5,48.5-80.4,36.6
				c-1-0.4-2-0.8-2.9-1.2c4.7,8.5,10.2,14.7,15.8,16.8C1127.5,333.8,1195.6,287.6,1190,250.2z"/>
			<path class="st4" d="M1190.5,224.3c-3.4-8.7-15.8-16.8-15.8-16.8l6.2-9.8c-15.8-4.6-31,5.1-31,5.1s-5.2-17.3-20.1-24.1L1128,190
				c0,0-14.7-1.9-22.9,2.4c0,0,12,6.9,15.1,11.8c0,0-7.1,7.8-3.8,15.7c0,0,11.3-7,19.4-4l-1.1,10.8l8.3-5.6l2.6,9.7l6.2-8.9
				c8,3,12,15.7,12,15.7c7.7-3.8,7.4-14.3,7.4-14.3C1177,221.6,1190.5,224.3,1190.5,224.3z"/>
			<path class="st5" d="M1190.5,224.3c-3.4-8.7-15.8-16.8-15.8-16.8l6.2-9.8c-5.4-1.5-11.1-1.7-16.6-0.5c4.3,9,4.8,19.3,1.3,28.6
				c-0.9,2.5-2.2,4.9-3.6,7.1c0.7,1.5,1.3,3,1.9,4.5c7.7-3.8,7.4-14.3,7.4-14.3C1177,221.6,1190.5,224.3,1190.5,224.3z"/>
			<path class="st6" d="M1146.6,211.4c-1.6-0.6-2.5-2.3-2-3.9c12.8-43.6,35.4-38,36.4-37.7c1.7,0.5,2.8,2.2,2.3,4
				c-0.5,1.7-2.2,2.8-4,2.3c-0.8-0.2-17.7-3.7-28.5,33.3c-0.5,1.7-2.3,2.7-4,2.2L1146.6,211.4z"/>
			<path class="st7" d="M1101,218.7c-1.2,1.7-3.2,2.3-4.4,1.4s-1.2-3,0-4.6s3.2-2.3,4.4-1.4S1102.2,217.1,1101,218.7z"/>
			<path class="st7" d="M1116.4,234.6c-1.2,1.7-3.2,2.3-4.4,1.4s-1.2-3,0-4.6s3.2-2.3,4.4-1.4S1117.7,233,1116.4,234.6z"/>
			<path class="st7" d="M1176.5,247c-0.2,2.1,0.9,3.8,2.4,4s2.9-1.5,3-3.5s-0.9-3.8-2.4-4S1176.6,244.9,1176.5,247z"/>
			<path class="st7" d="M1154.4,248.8c-0.2,2.1,0.9,3.8,2.4,4s2.9-1.5,3-3.5s-0.9-3.8-2.4-4S1154.5,246.8,1154.4,248.8z"/>
			<path class="st7" d="M1137.3,244.2c-0.8,1.9-2.5,3-3.9,2.5s-1.9-2.6-1.2-4.5s2.5-3,3.9-2.5S1138.1,242.3,1137.3,244.2z"/>
			<path class="st7" d="M1095.8,268.3c-1.2,1.7-3.2,2.3-4.4,1.4s-1.2-3,0-4.6s3.2-2.3,4.4-1.4S1097.1,266.6,1095.8,268.3z"/>
			<path class="st7" d="M1149.1,288.2c-0.2,2.1,0.9,3.8,2.4,4s2.9-1.5,3-3.5s-0.9-3.8-2.4-4S1149.3,286.1,1149.1,288.2z"/>
			<path class="st7" d="M1123.8,280.4c-0.8,1.9-2.5,3-3.9,2.5s-1.9-2.6-1.2-4.5s2.5-3,3.9-2.5S1124.5,278.5,1123.8,280.4z"/>
			<path class="st7" d="M1111.8,312.5c-0.8,1.9-2.5,3-3.9,2.5s-1.9-2.6-1.2-4.5s2.5-3,3.9-2.5S1112.6,310.6,1111.8,312.5z"/>
			<path class="st7" d="M1095.9,240.3c-1.2,1.6-3.2,2.2-4.4,1.3s-1.2-3,0.1-4.6s3.2-2.2,4.4-1.3S1097.2,238.7,1095.9,240.3z"/>
			<path class="st7" d="M1115.9,255.7c-1.3,1.6-3.3,2.1-4.5,1.1s-1.1-3,0.3-4.6s3.3-2.1,4.5-1.1S1117.2,254.1,1115.9,255.7z"/>
			<path class="st7" d="M1166.1,266.6c-0.1,2.1,1,3.8,2.5,3.9s2.8-1.5,3-3.5s-1-3.8-2.5-3.9S1166.3,264.5,1166.1,266.6z"/>
			<path class="st7" d="M1141,265.1c-0.1,2.1,1.1,3.8,2.6,3.8s2.8-1.6,2.8-3.7s-1.1-3.8-2.6-3.8S1141.1,263,1141,265.1z"/>
			<path class="st7" d="M1127.5,301.9c1.4-1.5,3.4-1.9,4.6-0.9s0.9,3.1-0.5,4.6s-3.4,1.9-4.6,0.9S1126.1,303.4,1127.5,301.9z"/>
			<path class="st7" d="M1103,291c0.2-2.1-0.9-3.8-2.4-4s-2.9,1.4-3.1,3.5s0.9,3.8,2.4,4S1102.8,293.1,1103,291z"/>
			<path class="st2" d="M876.9,463.8c-5.6-37.5-42.7-40.5-42.7-40.5s-30-22-58.8,2.6s-7.7,104.1,15.7,112.8S882.4,501.3,876.9,463.8
				z"/>
			<path class="st3" d="M876.9,463.8c-3.1-20.6-15.7-30.8-26.4-35.8c12.2,16.9,15.2,38.8,8.1,58.3c-11.9,31.9-48.5,48.6-80.4,36.6
				c-1-0.4-2-0.8-2.9-1.2c4.7,8.5,10.2,14.7,15.8,16.8C814.4,547.4,882.4,501.3,876.9,463.8z"/>
			<path class="st4" d="M877.4,437.9c-3.4-8.7-15.8-16.8-15.8-16.8l6.2-9.8c-15.8-4.6-31,5-31,5s-5.2-17.3-20.1-24.2l-1.8,11.4
				c0,0-14.7-1.9-22.9,2.4c0,0,12,6.9,15.2,11.8c0,0-7.1,7.8-3.8,15.6c0,0,11.3-7,19.4-4l-1.1,10.8l8.3-5.6l2.6,9.7l6.3-8.9
				c8,3,12,15.7,12,15.7c7.7-3.8,7.4-14.3,7.4-14.3C863.8,435.2,877.4,437.9,877.4,437.9z"/>
			<path class="st5" d="M877.4,437.9c-3.4-8.7-15.8-16.8-15.8-16.8l6.2-9.8c-5.4-1.5-11.1-1.7-16.5-0.5c4.3,9,4.8,19.3,1.3,28.6
				c-0.9,2.5-2.2,4.9-3.6,7.1c0.7,1.5,1.3,3,1.9,4.6c7.7-3.8,7.4-14.3,7.4-14.3C863.8,435.2,877.4,437.9,877.4,437.9z"/>
			<path class="st6" d="M833.5,425.1c-1.6-0.6-2.5-2.3-2-3.9c12.8-43.6,35.4-38,36.4-37.7c1.7,0.4,2.7,2.2,2.3,3.9c0,0,0,0.1,0,0.1
				c-0.5,1.7-2.2,2.7-3.9,2.3c-0.8-0.2-17.7-3.7-28.5,33.3c-0.5,1.7-2.3,2.7-4,2.2L833.5,425.1z"/>
			<path class="st7" d="M787.9,432.4c-1.2,1.7-3.2,2.3-4.4,1.4s-1.2-3,0-4.6s3.2-2.3,4.4-1.4S789.1,430.7,787.9,432.4z"/>
			<path class="st7" d="M803.3,448.3c-1.2,1.7-3.2,2.3-4.4,1.4s-1.2-3,0-4.6s3.2-2.3,4.4-1.4S804.5,446.6,803.3,448.3z"/>
			<path class="st7" d="M863.3,460.6c-0.2,2.1,0.9,3.8,2.4,4s2.9-1.5,3-3.5s-0.9-3.8-2.4-4S863.5,458.5,863.3,460.6z"/>
			<path class="st7" d="M841.3,462.5c-0.2,2.1,0.9,3.8,2.4,4s2.9-1.5,3-3.5s-0.9-3.8-2.4-4S841.4,460.4,841.3,462.5z"/>
			<path class="st7" d="M824.2,457.8c-0.8,1.9-2.5,3-3.9,2.5s-1.9-2.6-1.2-4.5s2.5-3,3.9-2.5S825,455.9,824.2,457.8z"/>
			<path class="st7" d="M782.7,481.9c-1.2,1.7-3.2,2.3-4.4,1.4s-1.2-3,0-4.6s3.2-2.3,4.4-1.4S784,480.2,782.7,481.9z"/>
			<path class="st7" d="M836,501.8c-0.2,2.1,0.9,3.8,2.4,4s2.9-1.5,3-3.5s-0.9-3.8-2.4-4S836.2,499.8,836,501.8z"/>
			<path class="st7" d="M810.7,494.1c-0.8,1.9-2.5,3-3.9,2.5s-1.9-2.6-1.2-4.5s2.5-3,3.9-2.5S811.4,492.2,810.7,494.1z"/>
			<path class="st7" d="M798.7,526.1c-0.8,1.9-2.5,3-3.9,2.5s-1.9-2.6-1.2-4.5s2.5-3,3.9-2.5S799.4,524.2,798.7,526.1z"/>
			<path class="st7" d="M782.8,453.9c-1.2,1.6-3.2,2.2-4.4,1.3s-1.2-3,0.1-4.6s3.2-2.2,4.5-1.3S784.1,452.3,782.8,453.9z"/>
			<path class="st7" d="M802.8,469.3c-1.3,1.6-3.3,2.1-4.5,1.1s-1.1-3,0.3-4.6s3.3-2.1,4.5-1.2S804.1,467.7,802.8,469.3z"/>
			<path class="st7" d="M853,480.2c-0.1,2.1,1,3.8,2.5,3.9s2.8-1.5,3-3.5s-1-3.8-2.5-3.9S853.2,478.1,853,480.2z"/>
			<path class="st7" d="M827.9,478.7c-0.1,2.1,1.1,3.8,2.6,3.8s2.8-1.6,2.8-3.7s-1.1-3.8-2.6-3.8S827.9,476.6,827.9,478.7z"/>
			<path class="st7" d="M814.4,515.5c1.4-1.5,3.5-1.9,4.6-0.9s0.9,3.1-0.5,4.6s-3.4,1.9-4.5,0.9S813,517,814.4,515.5z"/>
			<path class="st7" d="M789.9,504.7c0.2-2.1-0.9-3.8-2.4-4s-2.9,1.4-3.1,3.5s0.9,3.8,2.4,4S789.7,506.7,789.9,504.7z"/>
			<path class="st2" d="M1080,539.8c-5.6-37.5-42.7-40.5-42.7-40.5s-30-22-58.8,2.6s-7.7,104.1,15.7,112.8S1085.6,577.2,1080,539.8z
				"/>
			<path class="st3" d="M1080,539.8c-3-20.6-15.6-30.8-26.3-35.8c12.2,16.9,15.2,38.8,8.1,58.3c-11.9,31.9-48.5,48.6-80.4,36.6
				c-1-0.4-2-0.8-2.9-1.2c4.7,8.5,10.2,14.7,15.8,16.8C1017.6,623.4,1085.6,577.2,1080,539.8z"/>
			<path class="st4" d="M1080.6,513.9c-3.4-8.7-15.8-16.8-15.8-16.8l6.2-9.8c-15.8-4.6-31,5-31,5s-5.2-17.3-20.1-24.2l-1.8,11.4
				c0,0-14.7-2-22.9,2.4c0,0,12,6.9,15.1,11.8c0,0-7.1,7.8-3.8,15.7c0,0,11.3-7,19.4-4l-1.1,10.8l8.3-5.6l2.6,9.7l6.2-8.9
				c8,3,12,15.7,12,15.7c7.7-3.8,7.4-14.3,7.4-14.3C1067,511.2,1080.6,513.9,1080.6,513.9z"/>
			<path class="st5" d="M1080.6,513.9c-3.4-8.7-15.8-16.8-15.8-16.8l6.2-9.8c-5.4-1.5-11.1-1.7-16.6-0.5c4.3,9,4.8,19.3,1.3,28.6
				c-0.9,2.5-2.2,4.9-3.6,7.1c0.7,1.5,1.3,3,1.9,4.5c7.7-3.8,7.4-14.3,7.4-14.3C1067,511.2,1080.6,513.9,1080.6,513.9z"/>
			<path class="st6" d="M1036.7,501c-1.6-0.6-2.5-2.3-2-3.9c12.8-43.6,35.4-38,36.4-37.7c1.7,0.5,2.8,2.2,2.3,4
				c-0.5,1.7-2.2,2.8-4,2.3c-0.8-0.2-17.7-3.7-28.5,33.3c-0.5,1.7-2.3,2.7-4,2.2L1036.7,501z"/>
			<path class="st7" d="M991,508.3c-1.2,1.7-3.2,2.3-4.4,1.4s-1.2-3,0-4.6s3.2-2.3,4.4-1.4S992.2,506.7,991,508.3z"/>
			<path class="st7" d="M1006.5,524.2c-1.2,1.7-3.2,2.3-4.4,1.4s-1.2-3,0-4.6s3.2-2.3,4.4-1.4S1007.7,522.5,1006.5,524.2z"/>
			<path class="st7" d="M1066.5,536.5c-0.2,2.1,0.9,3.8,2.4,4s2.9-1.5,3-3.5s-0.9-3.8-2.4-4S1066.7,534.5,1066.5,536.5z"/>
			<path class="st7" d="M1044.4,538.4c-0.2,2.1,0.9,3.8,2.4,4s2.9-1.4,3-3.5s-0.9-3.8-2.4-4S1044.6,536.3,1044.4,538.4z"/>
			<path class="st7" d="M1027.4,533.8c-0.8,1.9-2.5,3-3.9,2.5s-1.9-2.6-1.2-4.5s2.5-3,3.9-2.5S1028.1,531.8,1027.4,533.8z"/>
			<path class="st7" d="M985.9,557.8c-1.2,1.7-3.2,2.3-4.4,1.4s-1.2-3,0-4.6s3.2-2.3,4.4-1.4S987.1,556.2,985.9,557.8z"/>
			<path class="st7" d="M1039.2,577.8c-0.2,2.1,0.9,3.8,2.4,4s2.9-1.5,3-3.5s-0.9-3.8-2.4-4S1039.3,575.7,1039.2,577.8z"/>
			<path class="st7" d="M1013.8,570c-0.8,1.9-2.5,3-3.9,2.5s-1.9-2.6-1.2-4.5s2.5-3,3.9-2.5S1014.6,568.1,1013.8,570z"/>
			<path class="st7" d="M1001.8,602.1c-0.8,1.9-2.5,3-3.9,2.5s-1.9-2.6-1.2-4.5s2.5-3,3.9-2.5S1002.6,600.2,1001.8,602.1z"/>
			<path class="st7" d="M986,529.9c-1.3,1.7-3.2,2.2-4.5,1.3s-1.2-3,0.1-4.6s3.2-2.2,4.5-1.3S987.2,528.2,986,529.9z"/>
			<path class="st7" d="M1005.9,545.3c-1.3,1.6-3.3,2.1-4.5,1.2s-1.1-3,0.3-4.6s3.3-2.1,4.5-1.2S1007.2,543.7,1005.9,545.3z"/>
			<path class="st7" d="M1056.2,556.1c-0.1,2.1,1,3.8,2.5,3.9s2.8-1.5,3-3.5s-1-3.8-2.5-3.9S1056.3,554.1,1056.2,556.1z"/>
			<path class="st7" d="M1031,554.7c-0.1,2.1,1.1,3.8,2.6,3.8s2.8-1.6,2.8-3.7s-1.1-3.8-2.6-3.8S1031.1,552.6,1031,554.7z"/>
			<path class="st7" d="M1017.6,591.5c1.4-1.5,3.4-1.9,4.6-0.9s0.9,3.1-0.5,4.6s-3.4,1.9-4.6,0.9S1016.2,593,1017.6,591.5z"/>
			<path class="st7" d="M993.1,580.6c0.2-2.1-0.9-3.8-2.4-4s-2.9,1.4-3.1,3.5s0.9,3.8,2.4,4S992.9,582.7,993.1,580.6z"/>
			<path class="st2" d="M1034.5,357.6c-5.6-37.4-42.7-40.5-42.7-40.5s-30-22-58.8,2.6s-7.7,104.1,15.7,112.8S1040,395,1034.5,357.6z
				"/>
			<path class="st3" d="M1034.5,357.6c-3.1-20.6-15.7-30.8-26.4-35.8c12.2,16.9,15.2,38.8,8.1,58.4c-11.9,31.9-48.5,48.5-80.4,36.6
				c-1-0.4-2-0.8-2.9-1.2c4.7,8.5,10.2,14.7,15.8,16.8C972,441.2,1040,395,1034.5,357.6z"/>
			<path class="st4" d="M1035,331.7c-3.4-8.7-15.8-16.8-15.8-16.8l6.2-9.8c-15.8-4.6-31,5-31,5s-5.2-17.3-20.1-24.1l-1.8,11.4
				c0,0-14.7-1.9-22.9,2.4c0,0,12,6.9,15.1,11.8c0,0-7.1,7.8-3.8,15.7c0,0,11.3-7,19.4-4l-1.1,10.8l8.3-5.6l2.6,9.7l6.3-8.9
				c8,3,12,15.7,12,15.7c7.7-3.8,7.4-14.3,7.4-14.3C1021.4,329,1035,331.7,1035,331.7z"/>
			<path class="st5" d="M1035,331.7c-3.4-8.7-15.8-16.8-15.8-16.8l6.2-9.8c-5.4-1.5-11.1-1.7-16.6-0.5c4.3,9,4.8,19.3,1.3,28.6
				c-0.9,2.5-2.2,4.9-3.6,7.1c0.7,1.5,1.3,3,1.9,4.5c7.7-3.8,7.4-14.3,7.4-14.3C1021.4,329,1035,331.7,1035,331.7z"/>
			<path class="st6" d="M991.1,318.8c-1.6-0.6-2.5-2.3-2-3.9c12.8-43.6,35.4-38,36.4-37.7c1.7,0.5,2.8,2.2,2.3,4
				c-0.5,1.7-2.2,2.8-4,2.3c-0.8-0.2-17.7-3.7-28.5,33.3c-0.5,1.7-2.3,2.7-4,2.2L991.1,318.8z"/>
			<path class="st7" d="M945.5,326.1c-1.2,1.7-3.2,2.3-4.4,1.4s-1.2-3,0-4.6s3.2-2.3,4.4-1.4S946.7,324.5,945.5,326.1z"/>
			<path class="st7" d="M960.9,342c-1.2,1.7-3.2,2.3-4.4,1.4s-1.2-3,0-4.6s3.2-2.3,4.4-1.4S962.1,340.4,960.9,342z"/>
			<path class="st7" d="M1020.9,354.3c-0.2,2.1,0.9,3.8,2.4,4s2.9-1.5,3-3.5s-0.9-3.8-2.4-4S1021.1,352.3,1020.9,354.3z"/>
			<path class="st7" d="M998.8,356.2c-0.2,2.1,0.9,3.8,2.4,4s2.9-1.5,3-3.5s-0.9-3.8-2.4-4S999,354.1,998.8,356.2z"/>
			<path class="st7" d="M981.8,351.6c-0.8,1.9-2.5,3-3.9,2.5s-1.9-2.6-1.2-4.5s2.5-3,3.9-2.5S982.6,349.7,981.8,351.6z"/>
			<path class="st7" d="M940.3,375.6c-1.2,1.7-3.2,2.3-4.4,1.4s-1.2-3,0-4.6s3.2-2.3,4.4-1.4S941.5,374,940.3,375.6z"/>
			<path class="st7" d="M993.6,395.6c-0.2,2.1,0.9,3.8,2.4,4s2.9-1.5,3-3.5s-0.9-3.8-2.4-4S993.8,393.5,993.6,395.6z"/>
			<path class="st7" d="M968.3,387.8c-0.8,1.9-2.5,3-3.9,2.5s-1.9-2.6-1.2-4.5s2.5-3,3.9-2.5S969,385.9,968.3,387.8z"/>
			<path class="st7" d="M956.3,419.9c-0.8,1.9-2.5,3-3.9,2.5s-1.9-2.6-1.2-4.5s2.5-3,3.9-2.5S957,418,956.3,419.9z"/>
			<path class="st7" d="M940.4,347.7c-1.2,1.6-3.2,2.2-4.4,1.3s-1.2-3,0.1-4.6s3.2-2.2,4.5-1.3S941.7,346,940.4,347.7z"/>
			<path class="st7" d="M960.3,363.1c-1.3,1.6-3.3,2.1-4.5,1.2s-1.1-3,0.3-4.6s3.3-2.1,4.5-1.1S961.7,361.5,960.3,363.1z"/>
			<path class="st7" d="M1010.6,373.9c-0.1,2.1,1,3.8,2.5,3.9s2.8-1.5,3-3.5s-1-3.8-2.5-3.9S1010.7,371.9,1010.6,373.9z"/>
			<path class="st7" d="M985.5,372.5c-0.1,2.1,1.1,3.8,2.6,3.8s2.8-1.6,2.8-3.7s-1.1-3.8-2.6-3.8S985.5,370.4,985.5,372.5z"/>
			<path class="st7" d="M972,409.3c1.4-1.5,3.5-1.9,4.6-0.9s0.9,3.1-0.5,4.6s-3.4,1.9-4.5,0.9S970.6,410.8,972,409.3z"/>
			<path class="st7" d="M947.5,398.4c0.2-2.1-0.9-3.8-2.4-4s-2.9,1.4-3.1,3.5s0.9,3.8,2.4,4S947.3,400.5,947.5,398.4z"/>
		</g>
	</g>
	<g id="레이어_2_1_">
		<path class="st15" d="M207,677.8c-4.4-0.1-8.6-1.2-12.5-3.3c-9-4.4-15.2-12.9-18.4-25.4c-0.8-2.6-1.2-6.5-1.1-11.9
			c0-7,1.6-18.9,4.8-35.8l5.4-33.8c-0.2,0-0.6,0.4-1.2,1.2c-6,6.8-12.1,17.4-18.2,31.7c-3.7,8.8-6.8,17.8-9.3,27
			c-1.4,4.7-2.3,7.2-2.6,7.5c-0.4,0.4-0.9,0.7-1.5,0.9c-1,0.4-1.9,0.9-2.9,1.4c-1.6,0.7-3.3,1.1-5,1c-18.2,0-29-12.2-32.4-36.6
			c-0.6-5.1-0.9-10.2-0.9-15.4c0-13.5,2.1-28.6,6.4-45.3c4.3-16.7,9.3-28.4,15-35.2c3.5-3.9,7.4-7.5,11.5-10.7
			c4.6-2.7,8.3-4.3,11.1-5c1.9-0.6,5.4-1,10.5-1c2.8-0.1,5.6,0.1,8.3,0.4c4.4,0.9,8.6,2.9,12,5.8c3.8,3.1,5.8,6.8,5.8,11.1
			c0,4.7-1.4,10.3-4.3,16.9c-7.3,16.3-18,28.6-31.9,36.7l-3.1,1.9c-2.3,13.4-3.5,23.7-3.5,30.8c0,4.7,0.3,9.5,0.9,14.2
			c0.1,1.2,0.3,1.8,0.4,1.8l2.3-5.7c12.9-34.1,25.6-51.2,38.1-51.2c2-0.1,4,0.2,5.8,0.9c3.2,1,6.3,2.5,9.1,4.4
			c1.4,1.1,2.6,2.2,3.8,3.5c7.3,7.1,11,15.6,11,25.2c0,5.2-1.4,15.4-4.1,30.4c-1.5,9.2-2.8,18.4-3.9,27.6
			c-1.1,9.1-1.6,14.6-1.6,16.3c0,0.6,0.1,0.9,0.3,0.9c0.7,0,2.6-3,5.7-9.1c2.3-4.5,5.4-12.2,9.4-23.3c4.6-12.1,8.5-24.5,11.8-37
			c0.3-0.4,0.8-0.6,1.2-0.6c0.4,0,0.8,0.1,1.3,0.1c0.5,0.1,0.9,0.1,1.4,0.2c4.2,0.2,6.4,0.9,6.5,2.1c-0.3,1.8-0.7,3.6-1.2,5.3
			c-2.9,11.3-6.5,22.4-10.5,33.4c-4.8,13.5-8.7,23.2-11.7,29.1c-4.5,9.3-8.6,14.7-12.4,16.1C210.6,677.6,208.8,677.8,207,677.8z
			 M156.2,546.9c0.3,0,1.5-1.1,3.8-3.3c2.8-2.7,5.3-5.6,7.6-8.8c6.2-8.3,10.1-16.6,11.8-24.8l0.5-5.3c0-1.7-0.1-2.6-0.3-2.6
			c-1.4,0-3.3,1.1-5.6,3.5c-5.7,5.4-11.3,17.7-16.7,36.8l-1.2,4.3L156.2,546.9z"/>
		<path class="st15" d="M330.1,687c-3.3-0.1-6.5-0.6-9.6-1.7c-16.4-5.1-26.7-20.4-30.8-45.9c-0.4-2.4-0.8-7.5-1-15.3l-1.7,2.7
			c-5,8-9.6,12.7-13.8,14.2c-1.7,0.5-3.5,0.8-5.3,0.8c-4.2-0.1-8.4-1-12.1-2.9c-13.1-6.3-19.6-17.7-19.6-34.3
			c-0.1-9.1,1.6-18.1,5.1-26.5c5.4-12.9,12.5-20.8,21.4-23.7c2.2-0.8,4.5-1.2,6.8-1.2c6.7,0,13.9,2.5,21.8,7.5
			c1.7,1.1,3.4,2.4,4.9,3.7c1.6,1.5,2.6,2.2,2.9,2.2l1.5-4c0.9-2.9,1.9-5.7,3-8.4c4.3-10.8,10.2-16.3,17.6-16.3
			c2.3,0,4.6,0.5,6.7,1.3c8.7,2.9,13.1,8.6,13.1,17c-0.1,3.6-0.6,7.1-1.6,10.5c-5.2,18.3-8.7,32.8-10.4,43.3
			c-1.8,11.8-2.6,23.6-2.5,35.5c0,6.8,0,11.7,0.1,14.5c0.2,3.8,0.9,7.7,1.9,11.4c0.4,1.6,0.7,2.4,1,2.4c0.5,0,2.1-1.1,4.8-3.3
			c10.5-9.9,20.5-32.4,30.2-67.5c1.5-6,2.5-9.1,3-9.3c1.1-0.3,2.3-0.4,3.5-0.3c4.3,0,6.5,0.5,6.5,1.5c0,2-1.8,9.5-5.4,22.5
			c-6.6,25.6-14.6,45.1-24.2,58.5C342.7,683.3,336.8,687,330.1,687z M269.8,629.5c4.6-3.3,10.4-9.9,17.4-19.8
			c2.2-2.9,3.3-5.1,3.5-6.5c0.8-5.4,2.7-14.4,5.7-27c-0.7-1.8-1.6-3.5-2.7-5.2c-2-2.5-4.4-4.5-7.1-6.1c-1-0.7-2.1-1.2-3.4-1.3
			c-1.5,0-3,2.8-4.5,8.5c-1.7,6.5-3.3,13.3-4.8,20.4c-1.1,5.1-2.1,11.2-3,18.3C270.2,616.9,269.8,623.2,269.8,629.5L269.8,629.5z"/>
		<path class="st15" d="M411,669.4c-9.6,0-19-2.9-26.9-8.4c-7-4.7-12.2-11.6-14.7-19.7c-2.7-8.3-4-19.1-4-32.5
			c1.2-33.9,6.7-60.5,16.4-79.7c3.6-7.7,7.8-13.1,12.8-16.2c8.4-5.3,16.7-8,25.1-8c5.4,0,10.8,1.3,15.5,4
			c7.8,3.6,11.7,10.7,11.7,21.1c-0.1,5.5-1.1,11-2.9,16.3c-7.8,24.4-17.2,42.2-28.4,53.3c-3.8,3.9-8,7.5-12.4,10.7
			c0.3,13.3,1.2,23.4,2.7,30.3c1,4.1,2.3,8.1,4,12c0.8,1.8,1.2,2.7,1.4,2.7c0.8,0,2.3-0.9,4.7-2.8c3.6-2.7,7.6-7.5,12-14.2
			c6.4-10.3,11.5-21.4,15.2-32.9c2.7-8.5,4.1-13.2,4.2-13.9c0.1-0.3,0.5-0.4,1.1-0.4c1.1,0,2.1,0.2,3.1,0.4l4,0.9
			c0.6,0.1,1.2,0.3,1.7,0.6c0.2,0.2,0.3,0.5,0.3,0.9c-0.8,3.8-3.5,12.2-7.9,25.1c-2.6,6.9-5.6,13.6-9,20.2c-3,5.7-6,10.8-8.9,15.3
			C425.7,664.5,418.7,669.4,411,669.4z M404.6,593.8c0.4-0.3,0.8-0.7,1.2-1.1c0.7-0.7,1.7-1.8,2.9-3.1c1.2-1.3,2.3-2.6,3.4-4
			c15.1-24.8,22.7-43.8,22.7-56.9c0-1.7-0.1-3.4-0.3-5.1c-0.1-1.5-0.4-2.9-0.8-4.3c-0.3-1.2-0.6-1.7-0.9-1.7c-0.4,0-1.7,1.1-3.7,3.3
			c-1.3,1.5-3.2,4.8-5.6,10c-1.3,3.6-3.2,8.2-5.7,13.8c-5.1,12.5-9,25.5-11.5,38.7C405.4,586.9,404.9,590.4,404.6,593.8L404.6,593.8
			z"/>
		<path class="st15" d="M491.7,669.4c-9.6,0-19-2.9-26.9-8.4c-7-4.7-12.2-11.6-14.7-19.7c-2.7-8.3-4-19.1-4-32.5
			c1.3-33.9,6.7-60.5,16.5-79.8c3.6-7.7,7.9-13.1,12.8-16.1c8.3-5.3,16.7-8,25.1-8c5.4-0.1,10.8,1.3,15.5,4
			c7.8,3.6,11.7,10.7,11.7,21.1c-0.1,5.5-1.1,11-2.9,16.3c-7.8,24.4-17.2,42.2-28.4,53.3c-3.8,3.9-8,7.5-12.4,10.7
			c0.3,13.3,1.2,23.4,2.7,30.3c1,4.1,2.3,8.1,4,12c0.8,1.8,1.2,2.7,1.4,2.7c0.8,0,2.3-0.9,4.7-2.8c3.6-2.7,7.6-7.5,12-14.2
			c6.4-10.3,11.5-21.4,15.2-32.9c2.7-8.5,4.1-13.2,4.2-13.9c0.1-0.3,0.5-0.4,1.2-0.4c1.1,0,2.1,0.2,3.2,0.4l4,0.9
			c0.6,0.1,1.2,0.3,1.7,0.6c0.2,0.2,0.3,0.5,0.3,0.9c-0.8,3.8-3.5,12.2-7.9,25.1c-2.6,6.9-5.6,13.6-9,20.2c-3,5.7-6,10.8-8.9,15.3
			C506.4,664.5,499.4,669.4,491.7,669.4z M485.3,593.8c0.4-0.3,0.8-0.7,1.2-1.1c0.7-0.7,1.7-1.8,2.9-3.1s2.3-2.6,3.3-4
			c15.1-24.8,22.7-43.8,22.7-56.9c0-1.7-0.1-3.4-0.3-5.1c-0.1-1.5-0.4-2.9-0.8-4.3c-0.3-1.2-0.6-1.7-0.9-1.7c-0.5,0-1.7,1.1-3.7,3.3
			c-1.3,1.5-3.2,4.8-5.6,10c-1.3,3.6-3.2,8.2-5.7,13.8c-5.1,12.5-9,25.5-11.5,38.7C486.1,586.9,485.6,590.4,485.3,593.8L485.3,593.8
			z"/>
		<path class="st15" d="M563.6,664.4c-6.8,0-13.6-2-20.7-6.1c-5.2-3.1-9.6-7.3-12.8-12.4c-3.5-6-5.3-15.3-5.3-27.9
			c0-12.6,2.1-26.8,6.4-42.5c1.8-6.9,3.7-11.2,5.7-13c2-1.8,5.7-2.7,11-2.7c2.8-0.1,5.5,0.2,8.2,1c9.5,2.7,14.3,7.1,14.3,13.2
			c0,3.4-0.9,9-2.8,16.6c-3,13.6-4.5,25.3-4.5,35c0,2.7,0.2,6.7,0.7,12c0.5,6.4,1.1,10.6,1.7,12.4c1.1-0.6,2.1-1.2,3.1-1.9
			c9.3-6.9,18.4-25.3,27.4-55.2c0.3-1.2,0.9-1.7,1.7-1.7c1.5,0.1,3,0.4,4.5,0.8c2,0.5,3,1.2,3,2c-2,11.2-6.4,25-13.1,41.5
			c-2.1,5.1-4.7,10.1-7.7,14.7C578.1,659.6,571.1,664.4,563.6,664.4z M567.2,552.6c-5,0.1-9.9-1.4-14-4.3c-4.1-2.9-6.1-5.7-6.1-8.4
			c0.1-0.5,0.3-1,0.7-1.4c0.7-0.7,1.6-1.3,2.6-1.6c1.3-0.5,2.8-0.9,4.2-1c8.3,0,14.3,3.3,18,9.8c0.6,1,0.9,2.2,1,3.3
			C573.5,551.4,571.4,552.6,567.2,552.6L567.2,552.6z"/>
		<path class="st15" d="M699,696.3c-4.7-0.2-9.4-1.3-13.6-3.4c-7-3.2-11.3-8.9-12.8-17c-0.3-1.3-0.4-2.6-0.4-3.9
			c0-6.1,2.6-13,7.7-20.8s12.5-13.5,22.1-16.9c5.6-1.8,11.3-3.4,17-4.6c1.5-0.3,2.3-0.6,2.6-1s0.4-4.2,0.4-11.4l-0.5-23.9
			c-0.2,0-1.1,1.6-2.7,4.8c-8.3,17.1-16,26.4-23.1,27.9c-1.2,0.3-2.4,0.4-3.6,0.4c-3.4-0.1-6.8-0.9-9.9-2.3
			c-6.9-2.8-12.6-7.8-16.3-14.2c-3-5.5-4.4-11.6-4.3-17.9c0-6.9,1.5-14.4,4.6-22.6c2.6-7.1,6.5-13.8,11.5-19.5
			c7.3-8.5,15.1-12.8,23.4-12.8c6.7,0,13.7,2.7,20.9,8.2l4.2,3.3l1.5-2.3c1.7-3.1,5-4.9,8.5-4.9c2.8,0.1,5.6,0.9,8.1,2.2
			c4,1.5,7.1,4.8,8.4,8.9c1.4,4.3,2.1,11.4,2.1,21.4c0,15.9-0.4,29.1-1.3,39.7l-0.2,6.7l3.3-1.9c2.5-1.6,6.7-5.4,12.3-11.5
			c2-2.4,3.8-4.9,5.3-7.7c2-3.2,3.3-5,3.7-5.6c0.5-0.6,1.2-0.9,2-0.8c0.8,0,1.5,0.2,2.2,0.4c0.8,0.2,1.5,0.6,2.1,1.1
			c0.5,0.5,1,0.9,1.3,1.2c-5.2,9.6-8.4,15.2-9.7,17c-4.9,7-11.9,12.3-19.9,15.3c-1.4,0.5-2.8,1.1-4,2c-0.3,0.3-0.4,0.7-0.4,1.1
			c-2.8,13.4-5.7,23.4-8.6,30c-3.8,8.2-9.1,15.7-15.7,22C718.4,691.9,709,696.3,699,696.3z M689.4,685.6c0.5-0.1,1.1-0.2,1.7-0.3
			c1.3-0.3,2.5-0.8,3.7-1.4c5-2.4,9.9-7,14.7-13.8c5-7.5,8.4-15.9,9.8-24.8c0.3-1.3,0.5-2.3,0.7-3.2c0.2-0.7,0.3-1.4,0.4-2.1
			c0.1-0.6,0.1-0.9,0.1-1.1c0-0.1,0-0.3,0-0.4c0-0.2-0.1-0.5-0.3-0.7c-0.8,0-3.3,0.8-7.7,2.5c-6.2,2.5-11,5.5-14.5,9.1
			c-3.1,3.5-5.7,7.5-7.6,11.8c-2.2,4-3.4,8.6-3.4,13.2c-0.1,1.9,0,3.8,0.3,5.7C687.9,682,688.6,683.8,689.4,685.6L689.4,685.6z
			 M695.7,610.6c1.1-0.8,2-1.7,2.9-2.7c2-2.2,3.8-4.6,5.5-7.1c2.8-4.1,7.5-13.1,14.2-27.1c1.6-3.1,3-6.2,4.1-9.5l-0.1-1l-0.2-0.1
			c-0.6,0.1-1.1,0.3-1.6,0.6c-0.6,0.4-1.3,0.7-2,1c-10.1,5-16.7,15.9-19.9,32.9L695.7,610.6z"/>
		<path class="st15" d="M868.9,687c-3.3-0.1-6.5-0.6-9.6-1.7c-16.4-5.1-26.7-20.4-30.8-45.9c-0.5-2.4-0.8-7.5-1-15.3l-1.7,2.7
			c-5,8-9.6,12.7-13.8,14.2c-1.7,0.5-3.5,0.8-5.3,0.8c-4.2-0.1-8.4-1-12.1-2.9c-13.1-6.3-19.6-17.7-19.6-34.3
			c-0.1-9.1,1.6-18.1,5.1-26.5c5.4-12.9,12.6-20.8,21.4-23.7c2.2-0.8,4.5-1.2,6.8-1.2c6.7,0,14,2.5,21.8,7.5
			c1.7,1.1,3.4,2.4,4.9,3.7c1.7,1.5,2.6,2.2,2.9,2.2l1.5-4c0.9-2.9,1.9-5.7,3.1-8.4c4.3-10.8,10.2-16.3,17.6-16.3
			c2.3,0,4.6,0.5,6.7,1.3c8.7,2.9,13.1,8.6,13.1,17c-0.1,3.6-0.6,7.1-1.6,10.5c-5.2,18.3-8.7,32.8-10.4,43.3
			c-1.8,11.8-2.6,23.6-2.5,35.5c0,6.8,0,11.7,0.1,14.5c0.3,3.8,0.9,7.7,1.9,11.4c0.4,1.6,0.7,2.4,1,2.4c0.5,0,2.1-1.1,4.8-3.3
			c10.5-9.9,20.5-32.4,30.2-67.5c1.5-6,2.5-9.1,3-9.3c1.1-0.3,2.3-0.4,3.5-0.3c4.3,0,6.5,0.5,6.5,1.5c0,2-1.8,9.5-5.5,22.5
			c-6.6,25.6-14.6,45.1-24.2,58.5C881.6,683.3,875.6,687,868.9,687z M808.6,629.4c4.6-3.3,10.4-9.9,17.4-19.8
			c2.2-2.9,3.3-5.1,3.4-6.5c0.8-5.4,2.7-14.4,5.7-27c-0.7-1.8-1.6-3.5-2.7-5.2c-2-2.5-4.4-4.5-7.1-6.1c-1-0.7-2.1-1.2-3.3-1.3
			c-1.5,0-3,2.8-4.5,8.5c-1.7,6.5-3.3,13.3-4.8,20.4c-1.1,5.1-2,11.2-2.9,18.4C809.1,616.9,808.7,623.2,808.6,629.4z"/>
		<path class="st15" d="M949.8,669.4c-9.6,0-18.9-2.9-26.8-8.4c-7-4.7-12.2-11.6-14.7-19.7c-2.7-8.3-4-19.1-4-32.5
			c1.2-33.9,6.7-60.5,16.4-79.7c3.6-7.7,7.8-13.1,12.8-16.2c8.3-5.3,16.7-7.9,25-7.9c5.4-0.1,10.8,1.3,15.5,3.9
			c7.8,3.6,11.7,10.7,11.7,21.1c-0.1,5.5-1.1,11-2.9,16.3c-7.8,24.4-17.2,42.2-28.4,53.3c-3.8,3.9-8,7.5-12.4,10.7
			c0.3,13.3,1.2,23.4,2.7,30.3c1,4.1,2.3,8.1,4,12c0.8,1.8,1.2,2.7,1.4,2.7c0.8,0,2.3-0.9,4.7-2.8c3.6-2.7,7.6-7.5,12-14.2
			c6.4-10.3,11.5-21.4,15.2-32.9c2.7-8.5,4.1-13.2,4.2-13.9c0.1-0.3,0.5-0.4,1.2-0.4c1.1,0,2.1,0.2,3.2,0.4l4,0.9
			c0.6,0.1,1.2,0.3,1.7,0.6c0.2,0.2,0.3,0.5,0.3,0.9c-0.8,3.8-3.5,12.2-7.9,25.1c-2.6,6.9-5.6,13.6-9,20.2c-3,5.7-6,10.8-8.9,15.3
			C964.5,664.5,957.5,669.4,949.8,669.4z M943.4,593.8c0.4-0.3,0.8-0.7,1.2-1.1c0.7-0.7,1.7-1.8,2.9-3.1c1.2-1.3,2.3-2.6,3.3-4
			c15.1-24.8,22.7-43.8,22.7-56.9c0-1.7-0.1-3.4-0.3-5.1c-0.1-1.5-0.4-2.9-0.8-4.3c-0.3-1.2-0.6-1.7-0.9-1.7c-0.5,0-1.7,1.1-3.7,3.3
			c-1.3,1.5-3.2,4.8-5.6,10c-1.3,3.6-3.2,8.2-5.7,13.8c-5.2,12.5-9,25.5-11.5,38.8C944.2,586.9,943.7,590.4,943.4,593.8L943.4,593.8
			z"/>
		<path class="st15" d="M1030.5,669.4c-9.6,0-19-2.9-26.9-8.4c-7-4.7-12.2-11.6-14.7-19.7c-2.7-8.3-4-19.1-4-32.5
			c1.2-33.9,6.7-60.5,16.5-79.7c3.6-7.7,7.8-13.1,12.8-16.2c8.3-5.3,16.7-7.9,25-7.9c5.4-0.1,10.8,1.3,15.5,4
			c7.8,3.6,11.7,10.7,11.7,21.1c-0.1,5.5-1.1,11-2.9,16.3c-7.8,24.4-17.2,42.2-28.4,53.3c-3.8,3.9-8,7.5-12.4,10.7
			c0.3,13.3,1.2,23.4,2.7,30.3c1,4.1,2.3,8.1,4,12c0.8,1.8,1.2,2.7,1.4,2.7c0.8,0,2.3-0.9,4.7-2.8c3.6-2.7,7.6-7.5,12.1-14.2
			c6.4-10.3,11.5-21.4,15.2-32.9c2.7-8.5,4.1-13.2,4.2-13.9c0.1-0.3,0.4-0.4,1.1-0.4c1.1,0,2.1,0.2,3.2,0.4l4,0.9
			c0.6,0.1,1.2,0.3,1.7,0.6c0.2,0.2,0.3,0.5,0.3,0.9c-0.8,3.8-3.5,12.2-7.9,25.1c-2.6,6.9-5.6,13.6-9,20.2c-3,5.7-5.9,10.8-8.9,15.3
			C1045.2,664.5,1038.2,669.4,1030.5,669.4z M1024.1,593.8c0.4-0.3,0.8-0.7,1.2-1.1c0.7-0.7,1.7-1.8,2.9-3.1s2.3-2.6,3.3-4
			c15.1-24.8,22.7-43.8,22.7-56.9c0-1.7-0.1-3.4-0.3-5.1c-0.1-1.5-0.4-2.9-0.8-4.3c-0.3-1.2-0.6-1.7-0.9-1.7c-0.5,0-1.7,1.1-3.7,3.3
			c-1.3,1.5-3.2,4.8-5.6,10c-1.3,3.6-3.2,8.2-5.7,13.8c-5.1,12.5-9,25.5-11.5,38.7C1025,586.9,1024.4,590.4,1024.1,593.8z"/>
		<path class="st15" d="M1102.4,664.4c-6.8,0-13.6-2-20.7-6.1c-5.2-3.1-9.6-7.3-12.8-12.4c-3.5-6-5.3-15.3-5.3-27.9
			c0-12.6,2.1-26.8,6.4-42.5c1.8-6.9,3.7-11.2,5.7-13s5.7-2.7,11-2.7c2.8-0.1,5.5,0.2,8.2,1c9.5,2.7,14.3,7.1,14.3,13.2
			c0,3.4-0.9,9-2.8,16.6c-3,13.6-4.5,25.3-4.5,35c0,2.7,0.2,6.7,0.7,12c0.5,6.4,1.1,10.6,1.7,12.4c1.1-0.6,2.1-1.2,3.1-1.9
			c9.3-6.9,18.5-25.3,27.4-55.2c0.3-1.2,0.9-1.7,1.7-1.7c1.5,0.1,3,0.4,4.5,0.8c2,0.5,3,1.2,3,2c-2,11.2-6.4,25-13.1,41.5
			c-2.1,5.1-4.7,10.1-7.7,14.7C1116.9,659.6,1109.9,664.4,1102.4,664.4z M1106,552.6c-5,0.1-9.9-1.4-14-4.3
			c-4.1-2.9-6.1-5.7-6.1-8.4c0.1-0.5,0.3-1,0.7-1.4c0.7-0.7,1.6-1.3,2.6-1.6c1.3-0.5,2.8-0.9,4.2-1c8.3,0,14.3,3.3,18,9.8
			c0.6,1,0.9,2.2,0.9,3.3C1112.3,551.4,1110.2,552.6,1106,552.6z"/>
	</g>
</g>
</svg>
